%FSTAX23Y23*%
%MOIN*%
%SFA1B1*%

%IPPOS*%
%ADD13C,0.006000*%
%ADD19R,0.031500X0.037400*%
%ADD42R,0.051200X0.051200*%
%ADD43C,0.051200*%
%ADD44R,0.051200X0.051200*%
%ADD45C,0.059100*%
%ADD46R,0.059100X0.059100*%
%ADD47C,0.075000*%
%ADD48R,0.075000X0.075000*%
%ADD49R,0.160000X0.100000*%
%ADD50R,0.100000X0.160000*%
%ADD51C,0.138000*%
%ADD52O,0.075000X0.065000*%
%ADD53O,0.049200X0.041300*%
%ADD54C,0.019700*%
%ADD55C,0.015000*%
%ADD56C,0.030000*%
%ADD57C,0.015700*%
%ADD58O,0.082700X0.055100*%
%LNtankboardpcb1-1*%
%LPD*%
G36*
X03491Y04202D02*
X03486Y04199D01*
X0348Y04204*
X0347Y04208*
X03461Y04209*
X03459*
X03459Y04207*
X03461Y04203*
X03462Y042*
X03464Y04198*
X03467Y04197*
X03469Y04196*
X03472*
X03452Y04193*
Y04171*
Y04133*
X03461*
X0347Y04134*
X0348Y04138*
X03486Y04143*
X03491Y0414*
Y03873*
X03486Y0387*
X0348Y03875*
X0347Y03879*
X03461Y0388*
X03452*
Y03842*
Y0382*
X03477*
X03474Y0382*
X03471Y03819*
X03469Y03817*
X03467Y03814*
X03466Y03811*
X03464Y03807*
X03464Y03805*
X0347Y03806*
X0348Y03809*
X03486Y03814*
X03491Y03811*
Y01697*
X01011*
Y04988*
X03491*
Y04202*
G37*
%LNtankboardpcb1-2*%
%LPC*%
G36*
X03349Y04911D02*
X03335Y04909D01*
X0332Y04905*
X03307Y04898*
X03296Y04889*
X03287Y04877*
X0328Y04864*
X03275Y0485*
X03274Y04835*
X03275Y04821*
X0328Y04807*
X03287Y04794*
X03296Y04782*
X03307Y04773*
X0332Y04766*
X03335Y04762*
X03349Y0476*
X03364Y04762*
X03378Y04766*
X03391Y04773*
X03403Y04782*
X03412Y04794*
X03419Y04807*
X03423Y04821*
X03425Y04835*
X03423Y0485*
X03419Y04864*
X03412Y04877*
X03403Y04889*
X03391Y04898*
X03378Y04905*
X03364Y04909*
X03349Y04911*
G37*
G36*
X01124D02*
X01109Y04909D01*
X01095Y04905*
X01082Y04898*
X01071Y04889*
X01061Y04877*
X01054Y04864*
X0105Y0485*
X01049Y04835*
X0105Y04821*
X01054Y04807*
X01061Y04794*
X01071Y04782*
X01082Y04773*
X01095Y04766*
X01109Y04762*
X01124Y0476*
X01139Y04762*
X01153Y04766*
X01166Y04773*
X01177Y04782*
X01187Y04794*
X01194Y04807*
X01198Y04821*
X01199Y04835*
X01198Y0485*
X01194Y04864*
X01187Y04877*
X01177Y04889*
X01166Y04898*
X01153Y04905*
X01139Y04909*
X01124Y04911*
G37*
G36*
X01697Y04745D02*
X01612D01*
Y0469*
X01687*
Y04715*
X01687Y04712*
X01688Y04709*
X0169Y04707*
X01692Y04705*
X01694Y04703*
X01697Y04702*
Y04745*
G37*
G36*
X01602D02*
X01517D01*
Y0469*
X01602*
Y04745*
G37*
G36*
X01687Y0468D02*
X01612D01*
Y04625*
X01697*
Y04667*
X01694Y04666*
X01692Y04664*
X0169Y04662*
X01688Y0466*
X01687Y04657*
X01687Y04655*
Y0468*
G37*
G36*
X01602D02*
X01517D01*
Y04625*
X01602*
Y0468*
G37*
G36*
X01467Y04625D02*
X01412D01*
Y0454*
X01467*
Y04625*
G37*
G36*
X01402D02*
X01347D01*
Y0454*
X01402*
Y04625*
G37*
G36*
X01467Y0453D02*
X01412D01*
Y04445*
X01467*
Y0453*
G37*
G36*
X01402D02*
X01347D01*
Y04498*
X0135Y04502*
X01352Y04506*
X01354Y0451*
X01355Y04514*
X01357Y04519*
X01357Y04523*
X01357Y04527*
X01357Y04455*
X01356Y04455*
X01354Y04454*
X01352Y04454*
X0135Y04453*
X01348Y04452*
X01347Y04451*
Y04445*
X01402*
Y0453*
G37*
G36*
X01693Y04491D02*
X01521D01*
Y04379*
X01693*
Y04491*
G37*
G36*
X02727Y04339D02*
X02722Y04338D01*
X02717Y04334*
X02714Y0433*
X02713Y04324*
X02714Y04319*
X02717Y04314*
X02722Y04311*
X02727Y0431*
X02733Y04311*
X02736Y04314*
X02737Y04314*
X02738Y04314*
X02738Y04315*
X02738Y04315*
X02738Y04315*
X02738*
X02738Y04315*
X02738*
X02739*
X02739Y04315*
X02739*
X0274Y04315*
X03055*
X03066Y04304*
Y04243*
X03066Y04243*
Y04242*
X03066Y04242*
Y04241*
X03066Y04241*
Y04241*
X03066Y04241*
Y04241*
X03065Y04241*
X03065Y04241*
X03065Y0424*
X03065Y04239*
X03062Y04236*
X03061Y0423*
X03062Y04225*
X03065Y0422*
X0307Y04217*
X03075Y04216*
X03081Y04217*
X03085Y0422*
X03088Y04225*
X03089Y0423*
X03088Y04236*
X03086Y04239*
X03086Y0424*
X03085Y04241*
X03085Y04241*
Y04241*
X03085Y04241*
X03085Y04241*
Y04241*
Y04241*
X03085Y04242*
Y04242*
Y04243*
X03084Y04243*
Y04307*
X03084Y04311*
X03082Y04314*
X03065Y04331*
X03062Y04333*
X03058Y04334*
X0274*
X02739Y04334*
X02739*
X02739*
X02738Y04334*
X02738*
X02738Y04334*
X02738*
X02738Y04334*
X02738*
X02738Y04334*
X02737Y04335*
X02736Y04335*
X02733Y04338*
X02727Y04339*
G37*
G36*
X03426Y04208D02*
X03423Y04208D01*
X03414Y04204*
X03406Y04198*
X034Y0419*
X03397Y04181*
X03396Y04176*
X03442*
Y04192*
X03412Y04188*
X03415Y04189*
X03418Y04191*
X0342Y04193*
X03422Y04196*
X03423Y04199*
X03425Y04203*
X03426Y04208*
G37*
G36*
X03442Y04166D02*
X03396D01*
X03397Y04161*
X034Y04152*
X03406Y04144*
X03414Y04138*
X03423Y04134*
X03433Y04133*
X03442*
Y04166*
G37*
G36*
X03332Y04125D02*
Y04122D01*
X03335Y04125*
X03332Y04125*
G37*
G36*
X0336Y04104D02*
X03357Y04101D01*
X03355Y04099*
X03361*
X0336Y04102*
X0336Y04104*
G37*
G36*
X03332Y04103D02*
Y04099D01*
X03337*
X03332Y04103*
G37*
G36*
X03322Y04125D02*
X03315Y04124D01*
X03307Y04121*
X03301Y04116*
X03296Y0411*
X03293Y04102*
X03292Y04099*
X03322*
Y04111*
X03317Y04114*
X03319Y04115*
X03321Y04115*
X03322Y04116*
Y04125*
G37*
G36*
X03361Y04089D02*
X03351D01*
X03351Y04089*
X0335Y04089*
X03332*
Y04063*
X03339Y04064*
X03346Y04067*
X03352Y04072*
X03357Y04079*
X0336Y04086*
X03361Y04089*
G37*
G36*
X03322D02*
X03292D01*
X03293Y04086*
X03296Y04079*
X03301Y04072*
X03307Y04067*
X03315Y04064*
X03322Y04063*
Y04089*
G37*
G36*
X03259Y04021D02*
X03254Y0402D01*
X03249Y04017*
X03246Y04012*
X03245Y04008*
X03245Y04007*
Y04006*
Y04006*
X03245Y04006*
Y04006*
Y04006*
X03244Y04006*
X03244Y04005*
X03244Y04005*
X03244Y04005*
X03244Y04005*
X03243Y04004*
X03229Y0399*
X03228Y03989*
X03228Y03989*
X03228Y03989*
X03228Y03989*
X03227Y03989*
X03227Y03988*
X03227Y03988*
X03227*
X03227*
X03227*
X03226*
X03225Y03988*
X03221Y03987*
X03216Y03984*
X03213Y03979*
X03212Y03974*
X03213Y03969*
X03216Y03964*
X03221Y03961*
X03226Y0396*
X03232Y03961*
X03236Y03964*
X03239Y03969*
X0324Y03973*
X03241Y03974*
Y03974*
Y03974*
X03241Y03975*
Y03975*
Y03975*
X03241Y03975*
X03241Y03975*
X03241Y03975*
X03241Y03975*
X03242Y03976*
X03242Y03977*
X03256Y03991*
X03257Y03991*
X03257Y03992*
X03258Y03992*
X03258Y03992*
X03258Y03992*
X03258Y03992*
X03258Y03992*
X03258*
X03259*
X03259*
X03259*
X0326Y03993*
X03264Y03993*
X03269Y03997*
X03272Y04001*
X03273Y04007*
X03272Y04012*
X03269Y04017*
X03264Y0402*
X03259Y04021*
G37*
G36*
X03332Y0395D02*
Y03924D01*
X0335*
X03351Y03924*
X03351Y03924*
X03361*
X0336Y03927*
X03357Y03934*
X03352Y03941*
X03346Y03946*
X03339Y03949*
X03332Y0395*
G37*
G36*
X03322D02*
X03315Y03949D01*
X03307Y03946*
X03301Y03941*
X03296Y03934*
X03293Y03927*
X03292Y03924*
X03322*
Y0395*
G37*
G36*
X03337Y03914D02*
X03332D01*
Y0391*
X03337Y03914*
G37*
G36*
X03361D02*
X03355D01*
X03357Y03912*
X03359Y03909*
X0336Y03911*
X03361Y03914*
G37*
G36*
X03203Y03924D02*
X03183D01*
Y03901*
X03203*
Y03924*
G37*
G36*
X03173D02*
X03152D01*
Y03901*
X03173*
Y03924*
G37*
G36*
X03332Y03891D02*
Y03888D01*
X03334Y03889*
X03332Y03891*
G37*
G36*
X03322Y03914D02*
X03292D01*
X03293Y03911*
X03296Y03903*
X03301Y03897*
X03307Y03892*
X03315Y03889*
X03322Y03888*
Y03898*
X03321*
X03319Y03898*
X03317Y03899*
X03322Y03902*
Y03914*
G37*
G36*
X03091Y04008D02*
X03085Y04007D01*
X03081Y04004*
X03078Y03999*
X03077Y03994*
X03078Y03988*
X0308Y03985*
X03081Y03984*
X03081Y03983*
X03081Y03983*
X03081Y03983*
Y03983*
X03081Y03983*
Y03983*
X03081Y03982*
Y03982*
Y03982*
X03081Y03981*
X03082Y03981*
Y03927*
X03082Y03924*
X03084Y03921*
X03097Y03908*
X03097Y03908*
X03098Y03907*
X03098Y03907*
X03099Y03906*
X031Y03905*
X031Y03904*
X03101Y03904*
X03101Y03904*
X03101Y03903*
Y03903*
Y03901*
Y03901*
Y03871*
X03133*
X03134Y03871*
X03135Y03869*
X03137Y03868*
X03137Y03868*
X03153Y03852*
X03156Y0385*
X0316Y03849*
X03206*
X0321Y0385*
X03213Y03852*
X03259Y03898*
X03261Y03901*
X03261Y03904*
Y03936*
X03265Y0394*
X03266Y0394*
X03267Y0394*
X03267Y03941*
X03267Y03941*
X03267Y03941*
X03267*
X03267Y03941*
X03267*
X03268*
X03268*
X03268Y03941*
X03269Y03941*
X03273Y03942*
X03278Y03945*
X03281Y0395*
X03282Y03955*
X03281Y03961*
X03278Y03965*
X03273Y03968*
X03268Y0397*
X03263Y03968*
X03258Y03965*
X03255Y03961*
X03254Y03956*
X03254Y03955*
Y03955*
Y03955*
Y03955*
Y03955*
X03254Y03955*
X03253Y03954*
X03253Y03954*
X03253Y03954*
X03253Y03954*
X03253Y03953*
X03252Y03953*
X03246Y03946*
X03244Y03943*
X03243Y0394*
Y03908*
X03208Y03873*
X03203Y03875*
Y03891*
X03178*
X03152*
Y03887*
X03147Y03886*
X03144Y03889*
Y0392*
X03113*
X03111Y03921*
X03111*
X0311Y03922*
X03108Y03923*
X03108Y03923*
X031Y03931*
Y03981*
X031Y03981*
X031Y03982*
Y03982*
Y03982*
X03101Y03983*
Y03983*
X03101Y03983*
Y03983*
X03101Y03983*
X03101Y03983*
X03101Y03984*
X03102Y03985*
X03104Y03988*
X03105Y03994*
X03104Y03999*
X03101Y04004*
X03096Y04007*
X03091Y04008*
G37*
G36*
X03442Y0388D02*
X03433D01*
X03423Y03879*
X03414Y03875*
X03406Y03869*
X034Y03861*
X03397Y03852*
X03396Y03847*
X03442*
Y0388*
G37*
G36*
Y03837D02*
X03396D01*
X03397Y03832*
X034Y03823*
X03406Y03815*
X03414Y03809*
X03423Y03806*
X0343Y03805*
X03429Y03807*
X03428Y03811*
X03427Y03814*
X03425Y03817*
X03422Y03819*
X0342Y0382*
X03417Y0382*
X03442*
Y03837*
G37*
G36*
X02243Y03618D02*
X02237Y03617D01*
X02233Y03614*
X0223Y03609*
X02229Y03604*
X0223Y03598*
X02232Y03595*
X02232Y03594*
X02232Y03594*
X02232Y03594*
X02233Y03594*
X02233Y03593*
X02233Y03593*
Y03593*
X02233Y03593*
Y03593*
X02233Y03592*
Y03592*
X02233Y03591*
Y03577*
X02233Y03577*
X02221*
Y03562*
X0222Y03561*
X02188*
X02188Y03562*
Y03577*
X02144*
Y03527*
X02188*
Y03543*
X02188Y03543*
X0222*
X02221Y03543*
Y03527*
X02264*
Y03577*
X02252*
X02252Y03577*
Y03591*
X02252Y03591*
Y03591*
X02252Y03591*
Y03592*
Y03592*
Y03592*
X02252Y03593*
Y03593*
X02252Y03593*
Y03593*
X02252Y03593*
X02253Y03593*
X02253Y03594*
X02253*
X02256Y03598*
X02257Y03604*
X02256Y03609*
X02253Y03614*
X02248Y03617*
X02243Y03618*
G37*
G36*
X02137Y03581D02*
X02116D01*
Y03557*
X02137*
Y03581*
G37*
G36*
X02106D02*
X02085D01*
Y03557*
X02095*
X02095Y03557*
X02095Y03558*
Y03557*
X02105*
X02106Y03557*
Y03557*
X02106*
Y03581*
G37*
G36*
Y03547D02*
X02106D01*
Y03547*
X02105Y03547*
X02095*
Y03546*
X02095Y03547*
X02095Y03547*
X02085*
Y03523*
X02103*
X02103Y03524*
X02103Y03526*
X02102Y03528*
X02101Y0353*
X02101Y03531*
X021Y03532*
X02099Y03533*
X02097Y03533*
X02096Y03534*
X02106*
Y03547*
G37*
G36*
X03222Y0362D02*
X03212D01*
X03202Y03618*
X03192Y03615*
X03184Y03608*
X03178Y036*
X03174Y03591*
X03173Y03581*
X03174Y03571*
X03178Y03562*
X03184Y03553*
X03192Y03547*
X03202Y03543*
X03212Y03542*
X03222*
X03232Y03543*
X03241Y03547*
X03249Y03553*
X03255Y03562*
X03259Y03571*
X03261Y03581*
X03259Y03591*
X03255Y036*
X03249Y03608*
X03241Y03615*
X03232Y03618*
X03222Y0362*
G37*
G36*
X02137Y03547D02*
X02116D01*
Y03534*
X02126*
X02124Y03533*
X02123Y03533*
X02122Y03532*
X02121Y03531*
X0212Y0353*
X0212Y03528*
X02119Y03526*
X02119Y03524*
Y03523*
X02137*
Y03547*
G37*
G36*
X03222Y03523D02*
D01*
Y03485*
X0324*
Y03507*
X03243Y03505*
X03246Y03503*
X0325Y03501*
X03253Y03499*
X03257Y03498*
X03261Y03497*
X03259Y03501*
X03252Y0351*
X03243Y03517*
X03233Y03521*
X03222Y03523*
G37*
G36*
X03212D02*
X03201Y03521D01*
X0319Y03517*
X03182Y0351*
X03175Y03501*
X0317Y03491*
X0317Y03485*
X03212*
Y03523*
G37*
G36*
X02137Y03501D02*
X02119D01*
Y03501*
X02119Y03498*
X0212Y03497*
X0212Y03495*
X02121Y03493*
X02122Y03492*
X02123Y03492*
X02124Y03491*
X02126Y03491*
X02116*
Y03478*
X02137*
Y03501*
G37*
G36*
X02103D02*
X02085D01*
Y03478*
X02095*
X02095Y03478*
X02095Y03479*
Y03478*
X02105*
X02106Y03478*
Y03478*
X02106*
Y03491*
X02096*
X02097Y03491*
X02099Y03492*
X021Y03492*
X02101Y03493*
X02101Y03495*
X02102Y03497*
X02103Y03498*
X02103Y03501*
X02103Y03501*
G37*
G36*
X02106Y03468D02*
X02106D01*
Y03467*
X02105Y03468*
X02095*
Y03467*
X02095Y03467*
X02095Y03468*
X02085*
Y03444*
X02106*
Y03468*
G37*
G36*
X01727Y03527D02*
X01656D01*
Y03456*
X01727*
Y03527*
G37*
G36*
X02319Y03577D02*
X02276D01*
Y03527*
X02281*
X02282Y03527*
X02282*
X02282Y03527*
X02283Y03526*
X02283Y03525*
X02283Y03523*
X02283Y03521*
X02284Y03518*
X02284Y03518*
Y03507*
X02284Y03506*
X02283Y03504*
X02283Y03502*
X02283Y035*
X02283Y03499*
X02282Y03498*
X02282Y03498*
X02282*
X02281Y03497*
X02276*
Y03453*
Y03451*
X02271Y03447*
X0227*
X02264Y03453*
X02265Y03454*
X02264Y03454*
X02265Y03455*
X02264Y03455*
Y03497*
X02221*
Y03482*
X0222Y03482*
X02188*
X02188Y03482*
Y03497*
X02144*
Y03448*
X02188*
Y03463*
X02188Y03463*
X0222*
X02221Y03463*
Y03448*
X02241*
X02242Y03448*
X02242*
X02242Y03448*
X02243*
X02243Y03447*
X02243Y03447*
X02244Y03447*
X02244Y03447*
X02245Y03446*
X02245Y03446*
X02246Y03445*
X02247Y03445*
X02278Y03414*
X02281Y03412*
X02285Y03411*
X02565*
X02579Y03397*
Y02817*
X02579Y02817*
Y02816*
X02579Y02816*
Y02816*
X02579Y02816*
Y02815*
X02579Y02815*
Y02815*
X02578Y02815*
X02578Y02815*
X02578Y02815*
X02578Y02814*
X02575Y0281*
X02574Y02805*
X02575Y02799*
X02578Y02795*
X02583Y02791*
X02588Y0279*
X02594Y02791*
X02598Y02795*
X02601Y02799*
X02602Y02805*
X02601Y0281*
X02599Y02814*
X02599Y02815*
X02598Y02815*
X02598Y02815*
Y02815*
X02598Y02815*
X02598Y02815*
Y02816*
X02598Y02816*
Y02816*
Y02816*
Y02817*
X02597Y02817*
Y03401*
X02597Y03404*
X02595Y03407*
X02583Y03419*
X02585Y03423*
X02856*
X02874Y03405*
Y03235*
X02873Y03234*
X02874Y03232*
Y02718*
X02873Y02714*
X02874Y02709*
Y02682*
X02846Y02654*
X02473*
X02472Y02654*
X02472Y02654*
X02447*
X02445Y02654*
X02443Y02654*
X02129*
Y0273*
X0213Y02732*
X02129Y02738*
X02126Y02742*
X02121Y02745*
X02116Y02746*
X0211Y02745*
X02106Y02742*
X02103Y02738*
X02102Y02732*
X02102Y0273*
Y02654*
X01935*
Y03134*
X01936Y03136*
X01935Y03138*
Y03246*
Y0335*
X01934Y03355*
X01934Y03356*
X01934Y03356*
X01931Y03361*
X01926Y03364*
X01921Y03365*
X01915Y03364*
X01911Y03361*
X01908Y03356*
X01907Y03351*
X01908Y03345*
Y03246*
Y03137*
X01907Y03136*
X01908Y03134*
Y02654*
X019*
X01895Y02653*
X0189Y0265*
X01846Y02605*
X01843Y02601*
X01842Y02595*
Y02386*
X01366*
X01364Y02387*
X01359Y02386*
X01354Y02383*
X01351Y02378*
X0135Y02373*
X01351Y02367*
X01354Y02363*
X01359Y0236*
X01364Y02358*
X01366Y02359*
X01692*
X01697Y02358*
X01702Y02359*
X01842*
Y02148*
X01841Y02147*
Y02144*
X01841Y02142*
X01841Y02141*
X01841Y02139*
X0184Y02139*
X0184Y02138*
X0184*
X01839Y02138*
X01824*
Y02075*
X01839*
X0184Y02075*
X0184*
X0184Y02074*
X01841Y02074*
X01841Y02072*
X01841Y02071*
X01841Y02069*
Y02066*
X01842Y02065*
Y0195*
X01841Y0195*
X01841Y01948*
X01841Y01946*
X01841Y01945*
X0184Y01943*
X0184Y01941*
X01839Y0194*
X01838Y01938*
X01836Y01936*
X01835Y01934*
X01833Y01932*
X01833Y01932*
X01828Y01926*
X01825Y01918*
X01824Y0191*
X01825Y01901*
X01828Y01894*
X01833Y01887*
X0184Y01882*
X01847Y01879*
X01855Y01878*
X01864Y01879*
X01871Y01882*
X01878Y01887*
X01883Y01894*
X01886Y01901*
X01887Y0191*
X01886Y01918*
X01883Y01926*
X01878Y01932*
X01878Y01932*
X01876Y01934*
X01875Y01936*
X01873Y01938*
X01872Y0194*
X01871Y01941*
X01871Y01943*
X0187Y01945*
X0187Y01946*
X0187Y01948*
X01869Y0195*
X01869Y0195*
Y02065*
X01869Y02066*
X0187Y02069*
X0187Y02071*
X0187Y02072*
X0187Y02074*
X01871Y02074*
X01871Y02075*
X01871*
X01872Y02075*
X01887*
Y02138*
X01872*
X01871Y02138*
X01871*
X01871Y02139*
X0187Y02139*
X0187Y02141*
X0187Y02142*
X0187Y02144*
X01869Y02147*
X01869Y02148*
Y02374*
Y0259*
X01906Y02626*
X02443*
X02445Y02626*
X02447Y02626*
X02472*
X02472Y02626*
X02473Y02626*
X02746*
Y02188*
X02746Y02186*
X02747Y02181*
X0275Y02176*
X02754Y02173*
X0276Y02172*
X02765Y02173*
X0277Y02176*
X02773Y02181*
X02774Y02186*
X02774Y02188*
Y02626*
X02851*
X02857Y02627*
X02861Y0263*
X02897Y02666*
X029Y02671*
X02901Y02676*
Y02714*
Y02714*
Y02714*
Y03232*
X02902Y03234*
X02901Y03237*
Y03411*
X029Y03416*
X02897Y03421*
X02873Y03445*
X02872Y03447*
X02867Y0345*
X02862Y03451*
X0286Y03451*
X02522*
X0252Y03451*
X02518Y03451*
X02339*
X02329Y03461*
X02329Y03461*
X02323Y03467*
X02322Y03469*
X0232Y03471*
X02319Y03473*
Y03478*
X02319Y03479*
X02319Y03479*
Y03497*
X02314*
X02313Y03498*
X02313*
X02313Y03498*
X02312Y03499*
X02312Y035*
X02312Y03502*
X02312Y03504*
Y03506*
X02311Y03507*
Y03518*
X02312Y03518*
Y03521*
X02312Y03523*
X02312Y03525*
X02312Y03526*
X02313Y03527*
X02313Y03527*
X02313*
X02314Y03527*
X02319*
Y03577*
G37*
G36*
X02137Y03468D02*
X02116D01*
Y03444*
X02137*
Y03468*
G37*
G36*
X0324Y03475D02*
X03222D01*
Y03437*
X03233Y03439*
X03243Y03443*
X03252Y0345*
X03259Y03458*
X03261Y03463*
X03257Y03462*
X03253Y03461*
X0325Y03459*
X03246Y03457*
X03243Y03455*
X0324Y03453*
Y03475*
G37*
G36*
X03212D02*
X0317D01*
X0317Y03469*
X03175Y03458*
X03182Y0345*
X0319Y03443*
X03201Y03439*
X03212Y03437*
Y03475*
G37*
G36*
X01696Y03431D02*
Y03396D01*
X01712*
X01704Y03418*
X01707Y03417*
X01711Y03415*
X01714Y03414*
X01717Y03414*
X01719Y03414*
X01722*
X01724Y03414*
X01719Y0342*
X01711Y03426*
X01701Y0343*
X01696Y03431*
G37*
G36*
X02663Y03404D02*
X02657Y03403D01*
X02654Y034*
X02653Y034*
X02652Y034*
X02652Y034*
X02652*
X02652Y03399*
X02652*
X02652Y03399*
X02652*
X02651Y03399*
X02651*
X0265*
X0265Y03399*
X02638*
X02637Y03399*
X02637*
X02636*
X02636Y03399*
X02636*
X02636Y03399*
X02636*
X02636Y034*
X02635*
X02635Y034*
X02635Y034*
X02634Y034*
X0263Y03403*
X02625Y03404*
X0262Y03403*
X02615Y034*
X02612Y03395*
X02611Y0339*
X02612Y03384*
X02615Y0338*
X0262Y03377*
X02625Y03376*
X0263Y03377*
X02634Y03379*
X02635Y03379*
X02635Y0338*
X02635Y0338*
X02636Y0338*
X02636Y0338*
X02636*
X02636Y0338*
X02636*
X02636*
X02637Y0338*
X02637*
X02638Y03381*
X0265*
X0265Y0338*
X02651*
X02651Y0338*
X02652*
X02652*
X02652Y0338*
X02652*
X02652Y0338*
X02652Y0338*
X02652Y0338*
X02653Y03379*
X02654Y03379*
X02657Y03377*
X02663Y03376*
X02668Y03377*
X02673Y0338*
X02676Y03384*
X02677Y0339*
X02676Y03395*
X02673Y034*
X02668Y03403*
X02663Y03404*
G37*
G36*
X01729Y03404D02*
X01726Y03396D01*
X0173*
X0173Y03402*
X01729Y03404*
G37*
G36*
X01686Y03431D02*
X01681Y0343D01*
X01671Y03426*
X01663Y0342*
X01657Y03411*
X01653Y03402*
X01652Y03396*
X01686*
Y03431*
G37*
G36*
X0173Y03386D02*
X01721D01*
X01718Y0338*
X01716Y03386*
X01696*
Y03352*
X01701Y03353*
X01711Y03357*
X01719Y03363*
X01726Y03371*
X0173Y03381*
X0173Y03386*
G37*
G36*
X01686D02*
X01652D01*
X01653Y03381*
X01657Y03371*
X01663Y03363*
X01671Y03357*
X01681Y03353*
X01686Y03352*
Y03386*
G37*
G36*
X03222Y03421D02*
X03212D01*
X03202Y03419*
X03192Y03416*
X03184Y03409*
X03178Y03401*
X03174Y03392*
X03173Y03382*
X03174Y03372*
X03178Y03363*
X03184Y03354*
X03192Y03348*
X03202Y03344*
X03212Y03343*
X03222*
X03232Y03344*
X03241Y03348*
X03249Y03354*
X03255Y03363*
X03259Y03372*
X03261Y03382*
X03259Y03392*
X03255Y03401*
X03249Y03409*
X03241Y03416*
X03232Y03419*
X03222Y03421*
G37*
G36*
X01691Y03327D02*
X01682Y03326D01*
X01673Y03322*
X01666Y03317*
X0166Y03309*
X01656Y03301*
X01655Y03291*
X01656Y03282*
X0166Y03274*
X01666Y03266*
X01673Y0326*
X01682Y03257*
X01691Y03256*
X017Y03257*
X01709Y0326*
X01716Y03266*
X01722Y03274*
X01726Y03282*
X01727Y03291*
X01726Y03301*
X01722Y03309*
X01716Y03317*
X01709Y03322*
X017Y03326*
X01691Y03327*
G37*
G36*
X03222Y0332D02*
X03212D01*
X03202Y03318*
X03192Y03315*
X03184Y03308*
X03178Y033*
X03174Y03291*
X03173Y03281*
X03174Y03271*
X03178Y03262*
X03184Y03253*
X03192Y03247*
X03202Y03243*
X03212Y03242*
X03222*
X03232Y03243*
X03241Y03247*
X03249Y03253*
X03255Y03262*
X03259Y03271*
X03261Y03281*
X03259Y03291*
X03255Y033*
X03249Y03308*
X03241Y03315*
X03232Y03318*
X03222Y0332*
G37*
G36*
X01691Y03227D02*
X01682Y03226D01*
X01673Y03222*
X01666Y03217*
X0166Y03209*
X01656Y03201*
X01655Y03191*
X01656Y03182*
X0166Y03174*
X01666Y03166*
X01673Y0316*
X01682Y03157*
X01691Y03156*
X017Y03157*
X01709Y0316*
X01716Y03166*
X01722Y03174*
X01726Y03182*
X01727Y03191*
X01726Y03201*
X01722Y03209*
X01716Y03217*
X01709Y03222*
X017Y03226*
X01691Y03227*
G37*
G36*
X03399Y03132D02*
X03336D01*
Y03069*
X03399*
Y03132*
G37*
G36*
X03089D02*
X03026D01*
Y03069*
X03089*
Y03132*
G37*
G36*
X01691Y03127D02*
X01682Y03126D01*
X01673Y03122*
X01666Y03117*
X0166Y03109*
X01656Y03101*
X01655Y03091*
X01656Y03082*
X0166Y03074*
X01666Y03066*
X01673Y0306*
X01682Y03057*
X01691Y03056*
X017Y03057*
X01709Y0306*
X01716Y03066*
X01722Y03074*
X01726Y03082*
X01727Y03091*
X01726Y03101*
X01722Y03109*
X01716Y03117*
X01709Y03122*
X017Y03126*
X01691Y03127*
G37*
G36*
X03073Y03832D02*
X02316D01*
X02308Y0383*
X02301Y03826*
X02296Y03819*
X02295Y03811*
X02296Y03802*
X02301Y03795*
X02308Y03791*
X02316Y03789*
X03064*
X0312Y03733*
Y03067*
Y03067*
X0312Y03062*
X03119Y03057*
X03118Y03054*
X03116Y03051*
X03114Y03049*
X03112Y03047*
X03109Y03045*
X03106Y03044*
X03101Y03043*
X03096Y03043*
X03096*
X03094*
X03094*
X03089Y03043*
X03084Y03043*
X03083Y03044*
X03082Y03044*
X03081Y03044*
X0308Y03044*
X0308Y03044*
X0308Y03045*
X0308*
X0308Y03045*
X03079*
X03074Y03049*
X03066Y03052*
X03058Y03053*
X03049Y03052*
X03042Y03049*
X03035Y03044*
X0303Y03037*
X03027Y0303*
X03026Y03022*
X03027Y03013*
X0303Y03006*
X03035Y02999*
X03042Y02994*
X03049Y02991*
X03058Y0299*
X03066Y02991*
X03074Y02994*
X03079Y02998*
X0308*
X0308Y02998*
X0308*
X0308Y02999*
X0308Y02999*
X03081Y02999*
X03082Y02999*
X03083Y02999*
X03091Y03*
X03094Y03*
X03094*
X03331*
X03331*
X03337Y03*
X03341Y03*
X03342Y02999*
X03344Y02999*
X03344Y02999*
X03345Y02999*
X03345Y02999*
X03345Y02998*
X03345*
X03346Y02998*
X03346*
X03352Y02994*
X03359Y02991*
X03367Y0299*
X03376Y02991*
X03383Y02994*
X0339Y02999*
X03395Y03006*
X03398Y03013*
X03399Y03022*
X03398Y0303*
X03395Y03037*
X0339Y03044*
X03383Y03049*
X03376Y03052*
X03367Y03053*
X03359Y03052*
X03352Y03049*
X03346Y03045*
X03346*
X03345Y03045*
X03345*
X03345Y03044*
X03345Y03044*
X03344Y03044*
X03344Y03044*
X03342Y03044*
X03334Y03043*
X03331Y03043*
X03331*
X03187*
X03187*
X03181Y03043*
X03177Y03044*
X03174Y03045*
X03171Y03047*
X03168Y03049*
X03167Y03051*
X03165Y03054*
X03164Y03057*
X03163Y03062*
X03163Y03067*
Y03067*
Y03742*
X03161Y0375*
X03156Y03757*
X03088Y03826*
X03081Y0383*
X03073Y03832*
G37*
G36*
X01691Y03027D02*
X01682Y03026D01*
X01673Y03022*
X01666Y03017*
X0166Y03009*
X01656Y03001*
X01655Y02991*
X01656Y02982*
X0166Y02974*
X01666Y02966*
X01673Y0296*
X01682Y02957*
X01691Y02956*
X017Y02957*
X01709Y0296*
X01716Y02966*
X01722Y02974*
X01726Y02982*
X01727Y02991*
X01726Y03001*
X01722Y03009*
X01716Y03017*
X01709Y03022*
X017Y03026*
X01691Y03027*
G37*
G36*
X03063Y02978D02*
Y02948D01*
X03076*
Y02961*
X03078Y02959*
X0308Y02957*
X03082Y02955*
X03084Y02954*
X03086Y02953*
X03089Y02952*
X03091Y02951*
X03093Y02951*
X03092Y02952*
X03089Y02961*
X03083Y02968*
X03076Y02974*
X03067Y02977*
X03063Y02978*
G37*
G36*
X03372D02*
Y02948D01*
X03403*
X03402Y02952*
X03399Y02961*
X03393Y02968*
X03385Y02974*
X03377Y02977*
X03372Y02978*
G37*
G36*
X03362D02*
X03358Y02977D01*
X0335Y02974*
X03342Y02968*
X03336Y02961*
X03333Y02952*
X03333Y02951*
X03334Y02951*
X03337Y02952*
X03339Y02953*
X03341Y02954*
X03343Y02955*
X03345Y02957*
X03347Y02959*
X03349Y02961*
Y02948*
X03362*
Y02978*
G37*
G36*
X03053D02*
X03048Y02977D01*
X0304Y02974*
X03032Y02968*
X03027Y02961*
X03023Y02952*
X03022Y02948*
X03053*
Y02978*
G37*
G36*
X03362Y02938D02*
X03349D01*
Y02925*
X03347Y02927*
X03345Y02929*
X03343Y0293*
X03341Y02932*
X03339Y02933*
X03337Y02934*
X03334Y02934*
X03333Y02935*
X03333Y02933*
X03336Y02925*
X03342Y02917*
X0335Y02912*
X03358Y02908*
X03362Y02908*
Y02938*
G37*
G36*
X03076D02*
X03063D01*
Y02908*
X03067Y02908*
X03076Y02912*
X03083Y02917*
X03089Y02925*
X03092Y02933*
X03093Y02935*
X03091Y02934*
X03089Y02934*
X03086Y02933*
X03084Y02932*
X03082Y0293*
X0308Y02929*
X03078Y02927*
X03076Y02925*
Y02938*
G37*
G36*
X03053D02*
X03022D01*
X03023Y02933*
X03027Y02925*
X03032Y02917*
X0304Y02912*
X03048Y02908*
X03053Y02908*
Y02938*
G37*
G36*
X03403D02*
X03372D01*
Y02908*
X03377Y02908*
X03385Y02912*
X03393Y02917*
X03399Y02925*
X03402Y02933*
X03403Y02938*
G37*
G36*
X01691Y02927D02*
X01682Y02926D01*
X01673Y02922*
X01666Y02917*
X0166Y02909*
X01656Y02901*
X01655Y02891*
X01656Y02882*
X0166Y02874*
X01666Y02866*
X01673Y0286*
X01682Y02857*
X01691Y02856*
X017Y02857*
X01709Y0286*
X01716Y02866*
X01722Y02874*
X01726Y02882*
X01727Y02891*
X01726Y02901*
X01722Y02909*
X01716Y02917*
X01709Y02922*
X017Y02926*
X01691Y02927*
G37*
G36*
X02253Y03023D02*
X02248Y03022D01*
X02243Y03019*
X0224Y03014*
X02239Y03009*
X0224Y03004*
X02243Y03*
X02243Y02999*
X02243Y02999*
X02243Y02998*
Y02998*
X02244Y02998*
Y02998*
X02244Y02998*
Y02998*
X02244Y02998*
Y02997*
Y02997*
X02244Y02996*
Y0283*
X02245Y02827*
X02247Y02824*
X02275Y02796*
X02278Y02794*
X02281Y02793*
X02414*
X02415Y02793*
X02415Y02792*
X02416*
X02416*
X02416Y02792*
X02416*
X02416Y02792*
X02416*
X02417Y02792*
X02417Y02792*
X02417Y02792*
X02418Y02791*
X02422Y02789*
X02427Y02788*
X02432Y02789*
X02437Y02792*
X0244Y02797*
X02441Y02802*
X0244Y02807*
X02437Y02812*
X02432Y02815*
X02427Y02816*
X02422Y02815*
X02418Y02813*
X02417Y02812*
X02417Y02812*
X02417Y02812*
X02416Y02812*
X02416*
X02416Y02812*
X02416*
X02416Y02812*
X02416*
X02415*
X02415Y02811*
X02414Y02811*
X02285*
X02262Y02834*
Y02996*
X02263Y02997*
Y02997*
X02263Y02998*
Y02998*
Y02998*
X02263Y02998*
Y02998*
X02263Y02998*
X02263Y02998*
X02263Y02999*
X02264Y02999*
X02264Y03*
X02266Y03004*
X02267Y03009*
X02266Y03014*
X02263Y03019*
X02259Y03022*
X02253Y03023*
G37*
G36*
X01691Y02827D02*
X01682Y02826D01*
X01673Y02822*
X01666Y02817*
X0166Y02809*
X01656Y02801*
X01655Y02791*
X01656Y02782*
X0166Y02774*
X01666Y02766*
X01673Y0276*
X01682Y02757*
X01691Y02756*
X017Y02757*
X01709Y0276*
X01716Y02766*
X01722Y02774*
X01726Y02782*
X01727Y02791*
X01726Y02801*
X01722Y02809*
X01716Y02817*
X01709Y02822*
X017Y02826*
X01691Y02827*
G37*
G36*
X03214Y02748D02*
X03205Y02747D01*
X03198Y02744*
X03191Y02739*
X03186Y02732*
X03183Y02724*
X03182Y02716*
X03183Y02708*
X03186Y027*
X03191Y02694*
X03198Y02689*
X03205Y02685*
X03214Y02684*
X03222Y02685*
X0323Y02689*
X03236Y02694*
X03241Y027*
X03244Y02708*
X03246Y02716*
X03244Y02724*
X03241Y02732*
X03236Y02739*
X0323Y02744*
X03222Y02747*
X03214Y02748*
G37*
G36*
X01691Y02727D02*
X01682Y02726D01*
X01673Y02722*
X01666Y02717*
X0166Y02709*
X01656Y02701*
X01655Y02691*
X01656Y02682*
X0166Y02674*
X01666Y02666*
X01673Y0266*
X01682Y02657*
X01691Y02656*
X017Y02657*
X01709Y0266*
X01716Y02666*
X01722Y02674*
X01726Y02682*
X01727Y02691*
X01726Y02701*
X01722Y02709*
X01716Y02717*
X01709Y02722*
X017Y02726*
X01691Y02727*
G37*
G36*
X03214Y02669D02*
X03205Y02668D01*
X03198Y02665*
X03191Y0266*
X03186Y02653*
X03183Y02646*
X03182Y02637*
X03183Y02629*
X03186Y02621*
X03191Y02615*
X03198Y0261*
X03205Y02607*
X03214Y02606*
X03222Y02607*
X0323Y0261*
X03236Y02615*
X03241Y02621*
X03244Y02629*
X03246Y02637*
X03244Y02646*
X03241Y02653*
X03236Y0266*
X0323Y02665*
X03222Y02668*
X03214Y02669*
G37*
G36*
X01691Y02627D02*
X01682Y02626D01*
X01673Y02622*
X01666Y02617*
X0166Y02609*
X01656Y02601*
X01655Y02591*
X01656Y02582*
X0166Y02574*
X01666Y02566*
X01673Y0256*
X01682Y02557*
X01691Y02556*
X017Y02557*
X01709Y0256*
X01716Y02566*
X01722Y02574*
X01726Y02582*
X01727Y02591*
X01726Y02601*
X01722Y02609*
X01716Y02617*
X01709Y02622*
X017Y02626*
X01691Y02627*
G37*
G36*
X03214Y02591D02*
X03205Y02589D01*
X03198Y02586*
X03191Y02581*
X03186Y02575*
X03183Y02567*
X03182Y02559*
X03183Y0255*
X03186Y02543*
X03191Y02536*
X03198Y02531*
X03205Y02528*
X03214Y02527*
X03222Y02528*
X0323Y02531*
X03236Y02536*
X03241Y02543*
X03244Y0255*
X03246Y02559*
X03244Y02567*
X03241Y02575*
X03236Y02581*
X0323Y02586*
X03222Y02589*
X03214Y02591*
G37*
G36*
Y02512D02*
X03205Y02511D01*
X03198Y02507*
X03191Y02502*
X03186Y02496*
X03183Y02488*
X03182Y0248*
X03183Y02472*
X03186Y02464*
X03191Y02457*
X03198Y02452*
X03205Y02449*
X03214Y02448*
X03222Y02449*
X0323Y02452*
X03236Y02457*
X03241Y02464*
X03244Y02472*
X03246Y0248*
X03244Y02488*
X03241Y02496*
X03236Y02502*
X0323Y02507*
X03222Y02511*
X03214Y02512*
G37*
G36*
Y02433D02*
X03205Y02432D01*
X03198Y02429*
X03191Y02424*
X03186Y02417*
X03183Y02409*
X03182Y02401*
X03183Y02393*
X03186Y02385*
X03191Y02379*
X03198Y02374*
X03205Y0237*
X03214Y02369*
X03222Y0237*
X0323Y02374*
X03236Y02379*
X03241Y02385*
X03244Y02393*
X03246Y02401*
X03244Y02409*
X03241Y02417*
X03236Y02424*
X0323Y02429*
X03222Y02432*
X03214Y02433*
G37*
G36*
Y02354D02*
X03205Y02353D01*
X03198Y0235*
X03191Y02345*
X03186Y02338*
X03183Y02331*
X03182Y02322*
X03183Y02314*
X03186Y02306*
X03191Y023*
X03198Y02295*
X03205Y02292*
X03214Y02291*
X03222Y02292*
X0323Y02295*
X03236Y023*
X03241Y02306*
X03244Y02314*
X03246Y02322*
X03244Y02331*
X03241Y02338*
X03236Y02345*
X0323Y0235*
X03222Y02353*
X03214Y02354*
G37*
G36*
X03219Y02279D02*
Y02249D01*
X03232*
Y02262*
X03233Y02261*
X03234Y02261*
X03235Y0226*
X03236Y0226*
X03238Y02259*
X0324Y02259*
X03244Y02259*
X03246Y02259*
X03245Y02262*
X03239Y02269*
X03232Y02275*
X03223Y02278*
X03219Y02279*
G37*
G36*
X03209D02*
X03204Y02278D01*
X03196Y02275*
X03188Y02269*
X03183Y02262*
X03181Y02259*
X03189Y02259*
X03191Y0226*
X03193Y0226*
X03194Y02261*
X03195Y02261*
X03195Y02262*
Y02249*
X03209*
Y02279*
G37*
G36*
Y02239D02*
X03195D01*
Y02226*
X03195Y02226*
X03194Y02227*
X03193Y02227*
X03191Y02228*
X03189Y02228*
X03188Y02228*
X03183Y02229*
X03181Y02229*
X03183Y02226*
X03188Y02218*
X03196Y02213*
X03204Y02209*
X03209Y02208*
Y02239*
G37*
G36*
X01678Y02311D02*
X01667Y02309D01*
X01656Y02305*
X01647Y02298*
X0164Y02289*
X01636Y02278*
X01634Y02267*
X01636Y02256*
X0164Y02245*
X01647Y02236*
X01656Y02229*
X01667Y02225*
X01678Y02223*
X01689Y02225*
X017Y02229*
X01709Y02236*
X01716Y02245*
X0172Y02256*
X01722Y02267*
X0172Y02278*
X01716Y02289*
X01709Y02298*
X017Y02305*
X01689Y02309*
X01678Y02311*
G37*
G36*
X01428D02*
X01417Y02309D01*
X01406Y02305*
X01397Y02298*
X0139Y02289*
X01386Y02278*
X01384Y02267*
X01386Y02256*
X0139Y02245*
X01397Y02236*
X01406Y02229*
X01417Y02225*
X01428Y02223*
X01439Y02225*
X0145Y02229*
X01459Y02236*
X01466Y02245*
X0147Y02256*
X01472Y02267*
X0147Y02278*
X01466Y02289*
X01459Y02298*
X0145Y02305*
X01439Y02309*
X01428Y02311*
G37*
G36*
X01333D02*
X01322Y02309D01*
X01311Y02305*
X01302Y02298*
X01295Y02289*
X01291Y02278*
X01289Y02267*
X01291Y02256*
X01295Y02245*
X01302Y02236*
X01311Y02229*
X01322Y02225*
X01333Y02223*
X01345Y02225*
X01355Y02229*
X01364Y02236*
X01371Y02245*
X01376Y02256*
X01377Y02267*
X01376Y02278*
X01371Y02289*
X01364Y02298*
X01355Y02305*
X01345Y02309*
X01333Y02311*
G37*
G36*
X01083D02*
X01072Y02309D01*
X01061Y02305*
X01052Y02298*
X01045Y02289*
X01041Y02278*
X01039Y02267*
X01041Y02256*
X01045Y02245*
X01052Y02236*
X01061Y02229*
X01072Y02225*
X01083Y02223*
X01095Y02225*
X01105Y02229*
X01114Y02236*
X01121Y02245*
X01126Y02256*
X01127Y02267*
X01126Y02278*
X01121Y02289*
X01114Y02298*
X01105Y02305*
X01095Y02309*
X01083Y02311*
G37*
G36*
X03232Y02239D02*
X03219D01*
Y02208*
X03223Y02209*
X03232Y02213*
X03239Y02218*
X03245Y02226*
X03246Y02229*
X03238Y02228*
X03236Y02228*
X03235Y02227*
X03234Y02227*
X03233Y02226*
X03232Y02226*
Y02239*
G37*
G36*
X01777Y02205D02*
X01768Y02204D01*
X01761Y02201*
X01754Y02196*
X01749Y02189*
X01746Y02182*
X01745Y02173*
X01746Y02165*
X01749Y02157*
X01754Y02151*
X01761Y02146*
X01768Y02143*
X01777Y02142*
X01785Y02143*
X01793Y02146*
X01799Y02151*
X01804Y02157*
X01808Y02165*
X01809Y02173*
X01808Y02182*
X01804Y02189*
X01799Y02196*
X01793Y02201*
X01785Y02204*
X01777Y02205*
G37*
G36*
X03245Y02197D02*
X03182D01*
Y02133*
X03245*
Y02197*
G37*
G36*
X02097Y02142D02*
Y02111D01*
X02127*
X02126Y02116*
X02123Y02124*
X02117Y02132*
X0211Y02138*
X02101Y02141*
X02097Y02142*
G37*
G36*
X02087D02*
X02082Y02141D01*
X02074Y02138*
X02066Y02132*
X02061Y02124*
X02057Y02116*
X02056Y02111*
X02087*
Y02142*
G37*
G36*
X02013Y02138D02*
X02005Y02137D01*
X01997Y02134*
X0199Y02129*
X01985Y02122*
X01982Y02115*
X01981Y02106*
X01982Y02098*
X01985Y02091*
X0199Y02084*
X01997Y02079*
X02005Y02076*
X02013Y02075*
X02021Y02076*
X02029Y02079*
X02035Y02084*
X02041Y02091*
X02044Y02098*
X02045Y02106*
X02044Y02115*
X02041Y02122*
X02035Y02129*
X02029Y02134*
X02021Y02137*
X02013Y02138*
G37*
G36*
X01934D02*
X01926Y02137D01*
X01918Y02134*
X01912Y02129*
X01907Y02122*
X01903Y02115*
X01902Y02106*
X01903Y02098*
X01907Y02091*
X01912Y02084*
X01918Y02079*
X01926Y02076*
X01934Y02075*
X01942Y02076*
X0195Y02079*
X01957Y02084*
X01962Y02091*
X01965Y02098*
X01966Y02106*
X01965Y02115*
X01962Y02122*
X01957Y02129*
X0195Y02134*
X01942Y02137*
X01934Y02138*
G37*
G36*
X01726Y02114D02*
X01683D01*
Y02072*
X01726*
Y02114*
G37*
G36*
X01433Y02114D02*
Y02072D01*
X01475*
X01474Y02079*
X0147Y02091*
X01462Y02101*
X01452Y02108*
X0144Y02113*
X01433Y02114*
G37*
G36*
X01088D02*
Y02072D01*
X01131*
X0113Y02079*
X01125Y02091*
X01117Y02101*
X01107Y02108*
X01096Y02113*
X01088Y02114*
G37*
G36*
X01078D02*
X01071Y02113D01*
X01059Y02108*
X01049Y02101*
X01042Y02091*
X01037Y02079*
X01036Y02072*
X01078*
Y02114*
G37*
G36*
X01673Y02114D02*
X01631D01*
Y02072*
X01673*
Y02114*
G37*
G36*
X01328D02*
X01286D01*
Y02072*
X01328*
Y02114*
G37*
G36*
X02127Y02101D02*
X02097D01*
Y02071*
X02101Y02072*
X0211Y02075*
X02117Y02081*
X02123Y02089*
X02126Y02097*
X02127Y02101*
G37*
G36*
X02087D02*
X02056D01*
X02057Y02097*
X02061Y02089*
X02066Y02081*
X02074Y02075*
X02082Y02072*
X02087Y02071*
Y02101*
G37*
G36*
X01475Y02062D02*
X01433D01*
Y0202*
X0144Y02021*
X01452Y02025*
X01462Y02033*
X0147Y02043*
X01474Y02055*
X01475Y02062*
G37*
G36*
X01131D02*
X01088D01*
Y0202*
X01096Y02021*
X01107Y02025*
X01117Y02033*
X01125Y02043*
X0113Y02055*
X01131Y02062*
G37*
G36*
X01381Y02114D02*
X01338D01*
Y02067*
Y02019*
X01381*
Y02044*
X01386Y02045*
X01387Y02043*
X01394Y02033*
X01404Y02025*
X01416Y02021*
X01423Y0202*
Y02067*
Y02114*
X01416Y02113*
X01404Y02108*
X01394Y02101*
X01387Y02091*
X01386Y02089*
X01381Y0209*
Y02114*
G37*
G36*
X01078Y02062D02*
X01036D01*
X01037Y02055*
X01042Y02043*
X01049Y02033*
X01059Y02025*
X01071Y02021*
X01078Y0202*
Y02062*
G37*
G36*
X01726D02*
X01683D01*
Y02019*
X01726*
Y02062*
G37*
G36*
X01673D02*
X01631D01*
Y02019*
X01673*
Y02062*
G37*
G36*
X01328D02*
X01286D01*
Y02019*
X01328*
Y02062*
G37*
G36*
X02865Y02D02*
X02846D01*
X02847Y01997*
X02848Y01995*
X02849Y01992*
X02851Y01991*
X02853Y0199*
X02855Y0199*
X02834*
Y01969*
X02865*
Y02*
G37*
G36*
X02812D02*
X02793D01*
Y01969*
X02824*
Y0199*
X02804*
X02806Y0199*
X02807Y01991*
X02809Y01992*
X0281Y01995*
X02811Y01997*
X02812Y02*
G37*
G36*
X03065Y01996D02*
X03057Y01995D01*
X03049Y01992*
X03043Y01987*
X03038Y0198*
X03035Y01972*
X03033Y01964*
X03035Y01956*
X03038Y01948*
X03043Y01942*
X03049Y01937*
X03057Y01933*
X03065Y01932*
X03074Y01933*
X03081Y01937*
X03088Y01942*
X03093Y01948*
X03096Y01956*
X03097Y01964*
X03096Y01972*
X03093Y0198*
X03088Y01987*
X03081Y01992*
X03074Y01995*
X03065Y01996*
G37*
G36*
X02987D02*
X02978Y01995D01*
X02971Y01992*
X02964Y01987*
X02959Y0198*
X02956Y01972*
X02955Y01964*
X02956Y01956*
X02959Y01948*
X02964Y01942*
X02971Y01937*
X02978Y01933*
X02987Y01932*
X02995Y01933*
X03002Y01937*
X03009Y01942*
X03014Y01948*
X03017Y01956*
X03018Y01964*
X03017Y01972*
X03014Y0198*
X03009Y01987*
X03002Y01992*
X02995Y01995*
X02987Y01996*
G37*
G36*
X02908D02*
X029Y01995D01*
X02892Y01992*
X02885Y01987*
X0288Y0198*
X02877Y01972*
X02876Y01964*
X02877Y01956*
X0288Y01948*
X02885Y01942*
X02892Y01937*
X029Y01933*
X02908Y01932*
X02916Y01933*
X02924Y01937*
X0293Y01942*
X02935Y01948*
X02939Y01956*
X0294Y01964*
X02939Y01972*
X02935Y0198*
X0293Y01987*
X02924Y01992*
X02916Y01995*
X02908Y01996*
G37*
G36*
X02865Y01959D02*
X02834D01*
Y01929*
X02865*
Y01959*
G37*
G36*
X02824D02*
X02793D01*
Y01929*
X02824*
Y01959*
G37*
G36*
X02097Y01945D02*
Y01915D01*
X02127*
X02126Y01919*
X02123Y01928*
X02117Y01935*
X0211Y01941*
X02101Y01944*
X02097Y01945*
G37*
G36*
X02087D02*
X02082Y01944D01*
X02074Y01941*
X02066Y01935*
X02061Y01928*
X02057Y01919*
X02056Y01915*
X02087*
Y01945*
G37*
G36*
X02013Y01942D02*
X02005Y0194D01*
X01997Y01937*
X0199Y01932*
X01985Y01926*
X01982Y01918*
X01981Y0191*
X01982Y01901*
X01985Y01894*
X0199Y01887*
X01997Y01882*
X02005Y01879*
X02013Y01878*
X02021Y01879*
X02029Y01882*
X02035Y01887*
X02041Y01894*
X02044Y01901*
X02045Y0191*
X02044Y01918*
X02041Y01926*
X02035Y01932*
X02029Y01937*
X02021Y0194*
X02013Y01942*
G37*
G36*
X01934D02*
X01926Y0194D01*
X01918Y01937*
X01912Y01932*
X01907Y01926*
X01903Y01918*
X01902Y0191*
X01903Y01901*
X01907Y01894*
X01912Y01887*
X01918Y01882*
X01926Y01879*
X01934Y01878*
X01942Y01879*
X0195Y01882*
X01957Y01887*
X01962Y01894*
X01965Y01901*
X01966Y0191*
X01965Y01918*
X01962Y01926*
X01957Y01932*
X0195Y01937*
X01942Y0194*
X01934Y01942*
G37*
G36*
X02127Y01905D02*
X02097D01*
Y01874*
X02101Y01875*
X0211Y01879*
X02117Y01884*
X02123Y01892*
X02126Y019*
X02127Y01905*
G37*
G36*
X02087D02*
X02056D01*
X02057Y019*
X02061Y01892*
X02066Y01884*
X02074Y01879*
X02082Y01875*
X02087Y01874*
Y01905*
G37*
G36*
X03349Y01868D02*
X03335Y01867D01*
X0332Y01863*
X03307Y01856*
X03296Y01846*
X03287Y01835*
X0328Y01822*
X03275Y01808*
X03274Y01793*
X03275Y01778*
X0328Y01764*
X03287Y01751*
X03296Y0174*
X03307Y0173*
X0332Y01723*
X03335Y01719*
X03349Y01718*
X03364Y01719*
X03378Y01723*
X03391Y0173*
X03403Y0174*
X03412Y01751*
X03419Y01764*
X03423Y01778*
X03425Y01793*
X03423Y01808*
X03419Y01822*
X03412Y01835*
X03403Y01846*
X03391Y01856*
X03378Y01863*
X03364Y01867*
X03349Y01868*
G37*
G36*
X01124D02*
X01109Y01867D01*
X01095Y01863*
X01082Y01856*
X01071Y01846*
X01061Y01835*
X01054Y01822*
X0105Y01808*
X01049Y01793*
X0105Y01778*
X01054Y01764*
X01061Y01751*
X01071Y0174*
X01082Y0173*
X01095Y01723*
X01109Y01719*
X01124Y01718*
X01139Y01719*
X01153Y01723*
X01166Y0173*
X01177Y0174*
X01187Y01751*
X01194Y01764*
X01198Y01778*
X01199Y01793*
X01198Y01808*
X01194Y01822*
X01187Y01835*
X01177Y01846*
X01166Y01856*
X01153Y01863*
X01139Y01867*
X01124Y01868*
G37*
%LNtankboardpcb1-3*%
%LPD*%
G36*
X02733Y04329D02*
X02734Y04329D01*
X02734Y04329*
X02735Y04328*
X02736Y04328*
X02736Y04328*
X02737Y04328*
X02738Y04328*
X02738Y04327*
X02739*
Y04321*
X02738*
X02738Y04321*
X02737Y04321*
X02736Y04321*
X02736Y04321*
X02735Y04321*
X02734Y0432*
X02734Y0432*
X02733Y04319*
X02733Y04319*
Y0433*
X02733Y04329*
G37*
G36*
X03078Y04242D02*
X03078Y04241D01*
X03079Y0424*
X03079Y04239*
X03079Y04239*
X03079Y04238*
X0308Y04238*
X0308Y04237*
X0308Y04236*
X03081Y04236*
X0307*
X0307Y04236*
X03071Y04237*
X03071Y04238*
X03071Y04238*
X03072Y04239*
X03072Y04239*
X03072Y0424*
X03072Y04241*
Y04242*
X03072Y04242*
X03078*
Y04242*
G37*
G36*
X03259Y03999D02*
X03258D01*
X03258Y03999*
X03257Y03998*
X03256Y03998*
X03256Y03998*
X03255Y03998*
X03254Y03997*
X03254Y03997*
X03253Y03996*
X03253Y03996*
X03248Y04*
X03249Y04001*
X03249Y04001*
X0325Y04002*
X0325Y04003*
X0325Y04003*
X03251Y04004*
X03251Y04004*
X03251Y04005*
X03251Y04006*
Y04006*
X03259Y03999*
G37*
G36*
X03237Y0398D02*
X03236Y0398D01*
X03236Y03979*
X03236Y03979*
X03235Y03978*
X03235Y03977*
X03235Y03977*
X03235Y03976*
X03234Y03975*
X03234Y03975*
Y03974*
X03226Y03982*
X03227*
X03228Y03982*
X03229Y03982*
X03229Y03982*
X0323Y03982*
X0323Y03983*
X03231Y03983*
X03232Y03984*
X03232Y03984*
X03233Y03985*
X03237Y0398*
G37*
G36*
X03198Y03911D02*
X03196Y0391D01*
X03195Y03908*
X03194Y03907*
X03194Y03906*
X03193Y03906*
X03193Y03905*
X03193Y03904*
X03193Y03903*
X03193Y03903*
X03188Y03914*
X03188Y03914*
X03189Y03913*
X03189Y03913*
X0319Y03914*
X03191Y03914*
X03191Y03914*
X03192Y03915*
X03194Y03916*
X03196Y03919*
X03198Y03911*
G37*
G36*
X03096Y03987D02*
X03096Y03987D01*
X03095Y03986*
X03095Y03986*
X03095Y03985*
X03094Y03985*
X03094Y03984*
X03094Y03983*
X03094Y03982*
Y03982*
X03088*
X03088Y03982*
Y03983*
X03088Y03984*
X03088Y03985*
X03087Y03985*
X03087Y03986*
X03087Y03986*
X03086Y03987*
X03086Y03987*
X03085Y03988*
X03096*
X03096Y03987*
G37*
G36*
X03268Y03948D02*
X03267Y03947D01*
X03267*
X03266Y03947*
X03265Y03947*
X03265Y03947*
X03264Y03947*
X03263Y03946*
X03263Y03946*
X03262Y03945*
X03262Y03945*
X03257Y03949*
X03258Y0395*
X03258Y0395*
X03259Y03951*
X03259Y03951*
X0326Y03952*
X0326Y03953*
X0326Y03953*
X0326Y03954*
X0326Y03955*
Y03955*
X03268Y03948*
G37*
G36*
X03105Y03917D02*
X03108Y03915D01*
X03109Y03914*
X0311Y03914*
X0311Y03914*
X03111Y03913*
X03112Y03914*
X03112Y03914*
X03112Y03914*
X03107Y03903*
X03107Y03903*
X03107Y03904*
X03107Y03905*
X03107Y03906*
X03107Y03906*
X03106Y03907*
X03105Y03908*
X03105Y03909*
X03104Y0391*
X03103Y03911*
X03104Y03919*
X03105Y03917*
G37*
G36*
X03138Y03888D02*
X03138Y03887D01*
X03138Y03887*
X03138Y03886*
X03138Y03885*
X03139Y03884*
X0314Y03883*
X0314Y03882*
X03141Y03881*
X03142Y0388*
X03141Y03873*
X0314Y03874*
X03137Y03876*
X03136Y03877*
X03135Y03878*
X03135Y03878*
X03134Y03878*
X03133Y03878*
X03133Y03878*
X03133Y03877*
X03138Y03889*
X03138Y03888*
G37*
G36*
X02248Y03598D02*
X02248Y03597D01*
X02247Y03597*
X02247Y03596*
X02246Y03596*
X02246Y03595*
X02246Y03595*
X02246Y03594*
X02246Y03593*
X02245Y03592*
Y03592*
X02239Y03592*
X02239Y03593*
Y03593*
X02239Y03594*
X02239Y03595*
X02239Y03596*
X02239Y03596*
X02238Y03597*
X02238Y03597*
X02237Y03598*
X02237Y03598*
X02248Y03598*
G37*
G36*
X02245Y03575D02*
X02246Y03574D01*
X02246Y03573*
X02246Y03573*
X02246Y03572*
X02246Y03571*
X02247Y03571*
X02247Y03571*
X02248Y03571*
X02248Y0357*
X02236*
X02237Y03571*
X02237Y03571*
X02238Y03571*
X02238Y03571*
X02239Y03572*
X02239Y03573*
X02239Y03573*
X02239Y03574*
X02239Y03575*
X02239Y03577*
X02245*
Y03575*
G37*
G36*
X02227Y03546D02*
Y03547D01*
X02227Y03547*
X02226Y03548*
X02226Y03548*
X02225Y03548*
X02225Y03549*
X02224Y03549*
X02223Y03549*
X02222Y03549*
X02221Y03549*
Y03555*
X02222*
X02223Y03555*
X02224Y03555*
X02225Y03555*
X02225Y03556*
X02226Y03556*
X02226Y03556*
X02227Y03557*
X02227Y03557*
Y03558*
Y03546*
G37*
G36*
X02182Y03557D02*
X02182Y03557D01*
X02182Y03556*
X02182Y03556*
X02183Y03556*
X02184Y03555*
X02184Y03555*
X02185Y03555*
X02186Y03555*
X02188*
Y03549*
X02186Y03549*
X02185Y03549*
X02184Y03549*
X02184Y03549*
X02183Y03548*
X02182Y03548*
X02182Y03548*
X02182Y03547*
X02182Y03547*
X02181Y03546*
Y03558*
X02182Y03557*
G37*
G36*
X02311Y03533D02*
X0231Y03533D01*
X02309Y03532*
X02308Y03531*
X02307Y0353*
X02306Y03528*
X02306Y03526*
X02305Y03524*
X02305Y03521*
X02305Y03518*
X0229*
X0229Y03521*
X0229Y03524*
X02289Y03526*
X02289Y03528*
X02288Y0353*
X02287Y03531*
X02286Y03532*
X02285Y03533*
X02284Y03533*
X02283Y03534*
X02313*
X02311Y03533*
G37*
G36*
X02305Y03503D02*
X02305Y03501D01*
X02306Y03498*
X02306Y03497*
X02307Y03495*
X02308Y03493*
X02309Y03492*
X0231Y03492*
X02311Y03491*
X02313Y03491*
X02283*
X02284Y03491*
X02285Y03492*
X02286Y03492*
X02287Y03493*
X02288Y03495*
X02289Y03497*
X02289Y03498*
X0229Y03501*
X0229Y03503*
X0229Y03506*
X02305*
X02305Y03503*
G37*
G36*
X02227Y03467D02*
Y03467D01*
X02227Y03468*
X02226Y03468*
X02226Y03469*
X02225Y03469*
X02225Y03469*
X02224Y03469*
X02223Y03469*
X02222Y0347*
X02221Y0347*
Y03476*
X02222Y03476*
X02223Y03476*
X02224Y03476*
X02225Y03476*
X02225Y03476*
X02226Y03477*
X02226Y03477*
X02227Y03478*
X02227Y03478*
Y03479*
Y03467*
G37*
G36*
X02182Y03478D02*
X02182Y03478D01*
X02182Y03477*
X02182Y03477*
X02183Y03476*
X02184Y03476*
X02184Y03476*
X02185Y03476*
X02186Y03476*
X02188Y03476*
Y0347*
X02186Y0347*
X02185Y03469*
X02184Y03469*
X02184Y03469*
X02183Y03469*
X02182Y03469*
X02182Y03468*
X02182Y03468*
X02182Y03467*
X02181Y03467*
Y03479*
X02182Y03478*
G37*
G36*
X02258Y03454D02*
X02257Y03454D01*
X02257Y03454*
X02257Y03454*
X02257Y03453*
X02257Y03453*
X02257Y03452*
X02257Y03452*
X02258Y03451*
X02258Y03451*
X02259Y0345*
X02251*
X0225Y03451*
X02249Y03451*
X02248Y03452*
X02247Y03453*
X02246Y03453*
X02245Y03453*
X02245Y03454*
X02244Y03454*
X02243Y03454*
X02242Y03454*
X02258Y03454*
G37*
G36*
X02312Y03477D02*
X02312Y03475D01*
X02312Y03474*
X02313Y03472*
X02313Y0347*
X02315Y03468*
X02316Y03465*
X02318Y03463*
X02324Y03457*
X02316Y03443*
X02313Y03447*
X02307Y03451*
X02305Y03453*
X02302Y03454*
X023Y03455*
X02299Y03456*
X02297*
X02296Y03455*
X02295Y03454*
X02313Y03478*
X02312Y03477*
G37*
G36*
X02591Y02816D02*
X02591Y02815D01*
X02592Y02814*
X02592Y02814*
X02592Y02813*
X02592Y02812*
X02593Y02812*
X02593Y02811*
X02593Y02811*
X02594Y0281*
X02583*
X02583Y02811*
X02584Y02811*
X02584Y02812*
X02584Y02812*
X02585Y02813*
X02585Y02814*
X02585Y02814*
X02585Y02815*
Y02816*
X02585Y02817*
X02591*
Y02816*
G37*
G36*
X01863Y02144D02*
X01863Y02142D01*
X01864Y02139*
X01864Y02137*
X01865Y02136*
X01866Y02134*
X01867Y02133*
X01868Y02132*
X01869Y02132*
X0187Y02132*
X0184*
X01842Y02132*
X01843Y02132*
X01844Y02133*
X01845Y02134*
X01846Y02136*
X01847Y02137*
X01847Y02139*
X01848Y02142*
X01848Y02144*
X01848Y02147*
X01863*
X01863Y02144*
G37*
G36*
X01869Y02081D02*
X01868Y0208D01*
X01867Y0208*
X01866Y02079*
X01865Y02077*
X01864Y02076*
X01864Y02074*
X01863Y02071*
X01863Y02069*
X01863Y02066*
X01848*
X01848Y02069*
X01848Y02071*
X01847Y02074*
X01847Y02076*
X01846Y02077*
X01845Y02079*
X01844Y0208*
X01843Y0208*
X01842Y02081*
X0184Y02081*
X0187*
X01869Y02081*
G37*
G36*
X01863Y01947D02*
X01863Y01945D01*
X01864Y01943*
X01865Y01941*
X01866Y01938*
X01867Y01936*
X01868Y01934*
X0187Y01932*
X01871Y0193*
X01873Y01928*
X01838*
X0184Y0193*
X01841Y01932*
X01843Y01934*
X01844Y01936*
X01845Y01938*
X01846Y01941*
X01847Y01943*
X01848Y01945*
X01848Y01947*
X01848Y01949*
X01863*
X01863Y01947*
G37*
G36*
X02657Y03384D02*
X02657Y03385D01*
X02656Y03385*
X02655Y03386*
X02655Y03386*
X02654Y03386*
X02654Y03386*
X02653Y03387*
X02652Y03387*
X02651Y03387*
X02651*
Y03393*
X02651*
X02652Y03393*
X02653Y03393*
X02654Y03393*
X02654Y03393*
X02655Y03394*
X02655Y03394*
X02656Y03394*
X02657Y03395*
X02657Y03395*
Y03384*
G37*
G36*
X02631Y03395D02*
X02632Y03394D01*
X02632Y03394*
X02633Y03394*
X02633Y03393*
X02634Y03393*
X02635Y03393*
X02635Y03393*
X02636Y03393*
X02637*
Y03387*
X02636*
X02635Y03387*
X02635Y03387*
X02634Y03386*
X02633Y03386*
X02633Y03386*
X02632Y03386*
X02632Y03385*
X02631Y03385*
X02631Y03384*
Y03395*
X02631Y03395*
G37*
G36*
X03157Y03061D02*
X03158Y03056D01*
X03159Y03051*
X03161Y03047*
X03164Y03044*
X03167Y03041*
X03171Y03039*
X03176Y03038*
X03181Y03037*
X03186Y03037*
X03141Y03007*
X03096Y03037*
X03102Y03037*
X03107Y03038*
X03112Y03039*
X03116Y03041*
X03119Y03044*
X03122Y03047*
X03124Y03051*
X03125Y03056*
X03126Y03061*
X03126Y03067*
X03156*
X03157Y03061*
G37*
G36*
X03349Y03004D02*
X03349Y03004D01*
X03348Y03005*
X03346Y03005*
X03345Y03005*
X03343Y03006*
X03341Y03006*
X03337Y03006*
X03331Y03007*
Y03037*
X03334*
X03343Y03037*
X03345Y03038*
X03346Y03038*
X03348Y03038*
X03349Y03039*
X03349Y03039*
Y03004*
G37*
G36*
X03077Y03039D02*
X03078Y03038D01*
X03079Y03038*
X0308Y03038*
X03082Y03037*
X03084Y03037*
X03088Y03037*
X03094Y03037*
Y03007*
X03091Y03006*
X03082Y03006*
X0308Y03005*
X03079Y03005*
X03078Y03005*
X03077Y03004*
X03076Y03004*
Y03039*
X03077Y03039*
G37*
G36*
X02258Y03003D02*
X02258Y03002D01*
X02257Y03002*
X02257Y03001*
X02257Y03*
X02257Y03*
X02256Y02999*
X02256Y02998*
X02256Y02998*
Y02997*
X0225*
Y02998*
X0225Y02998*
X0225Y02999*
X0225Y03*
X0225Y03*
X02249Y03001*
X02249Y03002*
X02249Y03002*
X02248Y03003*
X02248Y03003*
X02259*
X02258Y03003*
G37*
G36*
X02421Y02796D02*
X02421Y02797D01*
X0242Y02797*
X0242Y02798*
X02419Y02798*
X02419Y02798*
X02418Y02799*
X02417Y02799*
X02417Y02799*
X02416Y02799*
X02415*
Y02805*
X02416Y02805*
X02417*
X02417Y02805*
X02418Y02805*
X02419Y02806*
X02419Y02806*
X0242Y02806*
X0242Y02807*
X02421Y02807*
X02421Y02808*
Y02796*
G37*
G54D13*
X01699Y02373D02*
X017Y02373D01*
X01697Y02372D02*
X01699Y02373D01*
X02281Y02802D02*
X02427D01*
X02253Y0283D02*
X02281Y02802D01*
X02253Y0283D02*
Y03009D01*
X03252Y0394D02*
X03268Y03955D01*
X03252Y03904D02*
Y0394D01*
X03206Y03858D02*
X03252Y03904D01*
X0316Y03858D02*
X03206D01*
X03123Y03896D02*
X0316Y03858D01*
X03178Y03896D02*
X032Y03918D01*
Y03994*
X03091Y03927D02*
X03123Y03896D01*
X03091Y03927D02*
Y03994D01*
X03075Y0423D02*
Y04307D01*
X03058Y04324D02*
X03075Y04307D01*
X02727Y04324D02*
X03058D01*
X02018Y0334D02*
Y03472D01*
X01687Y0337D02*
X0179Y03473D01*
X03226Y03974D02*
X03259Y04007D01*
X02588Y02805D02*
Y03401D01*
X02569Y0342D02*
X02588Y03401D01*
X02285Y0342D02*
X02569D01*
X02242Y03462D02*
Y03473D01*
Y03462D02*
X02285Y0342D01*
X02166Y03473D02*
X02242D01*
X02831Y04094D02*
Y04286D01*
Y04028D02*
Y04094D01*
X02834Y04092*
X02831Y04286D02*
X02832Y04287D01*
X02821Y04038D02*
X02831Y04028D01*
X02703Y04038D02*
X02821D01*
X02982Y03617D02*
X02983Y03616D01*
Y03487D02*
Y03616D01*
X02613Y03485D02*
X02983D01*
X01266Y03557D02*
X01271Y03552D01*
X02111*
X02019Y03473D02*
X02111D01*
X0179D02*
X02019D01*
X02018Y03472D02*
X02019Y03473D01*
X02887Y03234D02*
X02887Y03234D01*
X01921Y03246D02*
X01922D01*
X02625Y0339D02*
X02663D01*
X02242Y03552D02*
Y03603D01*
X02243Y03604*
X02166Y03552D02*
X02242D01*
G54D19*
X03178Y03896D03*
X03123D03*
X02298Y03552D03*
X02242D03*
X02298Y03473D03*
X02242D03*
X02166D03*
X02111D03*
X02166Y03552D03*
X02111D03*
G54D42*
X02829Y01964D03*
X01855Y02106D03*
G54D43*
X02908Y01964D03*
X02987D03*
X03065D03*
X03058Y03022D03*
Y02943D03*
X03367Y03022D03*
Y02943D03*
X03214Y02716D03*
Y02637D03*
Y02401D03*
Y02244D03*
Y02322D03*
Y0248D03*
Y02559D03*
X01777Y02173D03*
X01934Y02106D03*
X02013D03*
X02092D03*
X01855Y0191D03*
X01934D03*
X02013D03*
X02092D03*
G54D44*
X03058Y031D03*
X03367D03*
X03214Y02165D03*
G54D45*
X01691Y03291D03*
Y02591D03*
Y02691D03*
Y02791D03*
Y02891D03*
Y02991D03*
Y03091D03*
Y03191D03*
Y03391D03*
G54D46*
X01691Y03491D03*
G54D47*
X01333Y02267D03*
X01083Y02067D03*
Y02267D03*
X01678D03*
X01428Y02067D03*
Y02267D03*
G54D48*
X01333Y02067D03*
X01678D03*
G54D49*
X01607Y04435D03*
Y04685D03*
G54D50*
X01407Y04535D03*
G54D51*
X03349Y01793D03*
X01124D03*
Y04835D03*
X03349D03*
G54D52*
X03217Y03581D03*
Y0348D03*
Y03382D03*
Y03281D03*
G54D53*
X03327Y04094D03*
Y03919D03*
G54D54*
X0204Y04177D03*
Y04133D03*
X01997Y04177D03*
Y04133D03*
X01954Y04177D03*
Y04133D03*
X02918Y03942D03*
X02874D03*
X02831D03*
X02918Y03985D03*
X02874D03*
X02831D03*
X02918Y04028D03*
X02874D03*
X02831D03*
G54D55*
X02887Y02676D02*
Y02714D01*
X03058Y02943D02*
X03367D01*
X0276Y02186D02*
Y0264D01*
X02759Y0264D02*
X0276Y0264D01*
X01364Y02373D02*
X01699D01*
X02114Y0264D02*
X02472D01*
X01699Y02373D02*
X01854D01*
X01855Y02374D02*
Y02595D01*
Y02106D02*
Y02374D01*
X01854Y02373D02*
X01855Y02374D01*
Y02595D02*
X019Y0264D01*
X01855Y0191D02*
Y02106D01*
X019Y0264D02*
X01923D01*
X02114*
X01922Y02642D02*
X01923Y0264D01*
X01922Y02642D02*
Y03136D01*
X01994Y02284D02*
X01995Y02285D01*
Y02577*
X02114Y0264D02*
X02116Y02641D01*
Y02732*
X02759Y0264D02*
X02851D01*
X02473D02*
X02759D01*
X02887Y02714D02*
D01*
X02887Y02714D02*
X02887Y02714D01*
Y03234*
X02851Y0264D02*
X02887Y02676D01*
X0252Y03437D02*
X02862D01*
X02298Y03473D02*
Y03552D01*
X01921Y03246D02*
Y0335D01*
Y03137D02*
Y03246D01*
X02862Y03437D02*
X02887Y03411D01*
Y03234D02*
Y03411D01*
X02298Y03473D02*
X02333Y03437D01*
X0252*
X01921Y03351D02*
X01921Y0335D01*
X02111Y03473D02*
Y03552D01*
G54D56*
X03447Y02299D02*
Y0348D01*
X03391Y02244D02*
X03447Y02299D01*
X03214Y02244D02*
X03391D01*
X02878D02*
X03214D01*
X02829Y02195D02*
X02878Y02244D01*
X02829Y01964D02*
Y02195D01*
X03141Y03022D02*
X03367D01*
X03058D02*
X03141D01*
Y03742*
X03073Y03811D02*
X03141Y03742D01*
X03217Y0348D02*
X03447D01*
Y03842*
X03442Y04171D02*
Y04368D01*
X03403Y03842D02*
X03447D01*
X03327Y03919D02*
X03403Y03842D01*
X03442Y04171D02*
X03447D01*
X03403D02*
X03442D01*
X03327Y04094D02*
X03403Y04171D01*
X03126Y04685D02*
X03442Y04368D01*
X01607Y04685D02*
X03126D01*
X02316Y03811D02*
X03073D01*
X01266Y03557D02*
Y04393D01*
X01407Y04535*
G54D57*
X0269Y02549D03*
X02712D03*
X0269Y02571D03*
X02712D03*
X01697Y02372D03*
X02836Y02549D03*
X02814D03*
X02836Y02571D03*
X02814D03*
X02007Y02412D03*
X01985D03*
X02007Y02434D03*
X01985D03*
X01995Y02577D03*
X01994Y02284D03*
X02116Y02732D03*
X02445Y0264D03*
X02755Y02801D03*
X02777D03*
X02755Y02779D03*
X02777D03*
X02729Y03486D03*
X02707D03*
Y03404D03*
X02427Y02802D03*
X02253Y03009D03*
X03268Y03955D03*
X032Y03994D03*
X03091D03*
X02727Y04324D03*
X03259Y04007D03*
X03226Y03974D03*
X0185Y02753D03*
X01872D03*
X0185Y02731D03*
X01872D03*
X0185Y02802D03*
X01872D03*
X0185Y0278D03*
X01872D03*
X0274Y02059D03*
X02558Y02058D03*
X02377Y02059D03*
X02595Y02536D03*
Y02561D03*
Y02586D03*
Y02611D03*
Y02511D03*
Y02486D03*
Y02461D03*
Y02436D03*
X019Y03222D03*
X02076Y0337D03*
X02101D03*
X02126D03*
X02151D03*
X02252D03*
X02227D03*
X02201D03*
X02176D03*
X02154Y03439D03*
X02179D03*
X02204D03*
X02229D03*
X02129D03*
X02104D03*
X02079D03*
X02054D03*
X02025Y03425D03*
X02009Y03409D03*
X0199Y03389D03*
X01821Y03228D03*
X01848Y03228D03*
X01866Y0325D03*
X01887Y0327D03*
X01975Y03289D03*
X01999Y03311D03*
X01885Y03203D03*
X01987Y03238D03*
X01965D03*
X01987Y0326D03*
X01965D03*
X02696Y03669D03*
X02674D03*
X02696Y03691D03*
X02674D03*
X01175Y04072D03*
X01153D03*
X01175Y04094D03*
X01153D03*
X01329Y04073D03*
X01307D03*
X01329Y04095D03*
X01307D03*
X01971Y03706D03*
X01993D03*
X01971Y03684D03*
X01993D03*
X01822Y02973D03*
X018D03*
X01822Y02995D03*
X018D03*
X01971Y02996D03*
X01993D03*
X01971Y02974D03*
X01993D03*
X02185Y0322D03*
X02207D03*
X02185Y03198D03*
X02207D03*
X02174Y02988D03*
X02196D03*
X02174Y02966D03*
X02196D03*
X01135Y0367D03*
X01157D03*
X01135Y03648D03*
X01157D03*
X01357D03*
X01335D03*
X01357Y03669D03*
X01335D03*
Y03183D03*
X01357D03*
X01335Y03161D03*
X01357D03*
X01135Y03183D03*
X01157D03*
X01135Y03161D03*
X01157D03*
X02291Y04153D03*
X02269D03*
X02291Y04174D03*
X02269D03*
X03277Y0447D03*
X03255D03*
X03277Y04492D03*
X03255D03*
X0324Y03747D03*
X03218D03*
X0324Y03769D03*
X03218D03*
X01157Y02758D03*
X01135D03*
X01157Y0278D03*
X01135D03*
X01358Y02758D03*
X01336D03*
X01358Y0278D03*
X01336D03*
X01219Y02152D03*
X01197D03*
X01219Y02174D03*
X01197D03*
X0276Y02186D03*
X02887Y02714D03*
X01364Y02373D03*
X02435Y0302D03*
X02413D03*
X02435Y03042D03*
X02413D03*
X02823Y03392D03*
X02845D03*
X02823Y03371D03*
X02845D03*
X02078Y02839D03*
X021D03*
X02078Y02817D03*
X021D03*
X01633Y04018D03*
X01655D03*
X01633Y03996D03*
X01655D03*
X01956Y04925D03*
X01978D03*
X01956Y04903D03*
X01978D03*
X02391Y04602D03*
X02413D03*
X02391Y0458D03*
X02413D03*
X02041Y03824D03*
X02063D03*
X02041Y03802D03*
X02063D03*
X01336Y03266D03*
X01358D03*
X01336Y03244D03*
X01358D03*
X01157D03*
X01135D03*
X01157Y03266D03*
X01135D03*
X02588Y02805D03*
X02832Y04287D03*
X03075Y0423D03*
X02703Y04038D03*
X02984Y03486D03*
X02982Y03617D03*
X02613Y03485D03*
X02018Y0334D03*
X02018Y03023D03*
X02862Y03437D03*
X02887Y03234D03*
X02316Y03811D03*
X01922Y03136D03*
X01921Y03351D03*
X0252Y03437D03*
X02663Y0339D03*
X02625D03*
X02243Y03604D03*
G54D58*
X03447Y03842D03*
Y04171D03*
M02*