%FSTAX23Y23*%
%MOIN*%
%SFA1B1*%

%IPPOS*%
%ADD9500C,0.007900*%
%ADD9501C,0.011800*%
%ADD9502C,0.031000*%
%ADD9503C,0.031500*%
%ADD9504C,0.035400*%
%ADD9505C,0.036000*%
%ADD9506C,0.118100*%
%ADD9507C,0.051200*%
%LNtankboardpcb1-roundholes-1*%
%LPD*%
G54D9500*
X01954Y04133D03*
X01997D03*
X0204D03*
Y04177D03*
X01997D03*
X01954D03*
X02831Y04028D03*
Y03985D03*
Y03942D03*
X02874D03*
X02918D03*
Y03985D03*
X02874D03*
Y04028D03*
X02918D03*
G54D9501*
X01697Y02372D03*
X01985Y02412D03*
X02007D03*
Y02434D03*
X01985D03*
X01995Y02577D03*
X02116Y02732D03*
X021Y02817D03*
Y02839D03*
X02078D03*
Y02817D03*
X01872Y02802D03*
X0185D03*
Y0278D03*
X01872D03*
Y02753D03*
X0185D03*
Y02731D03*
X01872D03*
X01822Y02973D03*
X018D03*
Y02995D03*
X01822D03*
X01971Y02996D03*
X01993D03*
Y02974D03*
X01971D03*
X02018Y03023D03*
X02174Y02988D03*
X02196D03*
Y02966D03*
X02174D03*
X02253Y03009D03*
X02413Y0302D03*
X02435D03*
Y03042D03*
X02413D03*
X02427Y02802D03*
X02588Y02805D03*
X02755Y02801D03*
X02777D03*
Y02779D03*
X02755D03*
X02887Y02714D03*
X02836Y02571D03*
Y02549D03*
X02814D03*
Y02571D03*
X02712D03*
Y02549D03*
X0269D03*
Y02571D03*
X02595Y02561D03*
Y02536D03*
Y02511D03*
Y02486D03*
Y02461D03*
Y02436D03*
Y02586D03*
Y02611D03*
X02445Y0264D03*
X02377Y02059D03*
X02558Y02058D03*
X0274Y02059D03*
X0276Y02186D03*
X01994Y02284D03*
X01364Y02373D03*
X01219Y02174D03*
Y02152D03*
X01197D03*
Y02174D03*
X01157Y02758D03*
X01135D03*
Y0278D03*
X01157D03*
X01336D03*
Y02758D03*
X01358D03*
Y0278D03*
X01357Y03161D03*
Y03183D03*
X01335D03*
Y03161D03*
X01336Y03244D03*
Y03266D03*
X01358D03*
Y03244D03*
X01157D03*
X01135D03*
Y03266D03*
X01157D03*
X01157Y03183D03*
X01135D03*
Y03161D03*
X01157D03*
Y03648D03*
Y0367D03*
X01135D03*
Y03648D03*
X01335D03*
X01357D03*
Y03669D03*
X01335D03*
X01329Y04073D03*
X01307D03*
Y04095D03*
X01329D03*
X01175Y04094D03*
Y04072D03*
X01153D03*
Y04094D03*
X01633Y04018D03*
X01655D03*
Y03996D03*
X01633D03*
X02041Y03824D03*
X02063D03*
Y03802D03*
X02041D03*
X01993Y03706D03*
X01971D03*
Y03684D03*
X01993D03*
X02025Y03425D03*
X02009Y03409D03*
X0199Y03389D03*
X02018Y0334D03*
X01999Y03311D03*
X01975Y03289D03*
X01965Y0326D03*
Y03238D03*
X01987D03*
Y0326D03*
X01887Y0327D03*
X01866Y0325D03*
X01848Y03228D03*
X01821Y03228D03*
X019Y03222D03*
X01885Y03203D03*
X01922Y03136D03*
X01921Y03351D03*
X02076Y0337D03*
X02101D03*
X02126D03*
X02151D03*
X02176D03*
X02201D03*
X02227D03*
X02252D03*
X02229Y03439D03*
X02204D03*
X02179D03*
X02154D03*
X02129D03*
X02104D03*
X02079D03*
X02054D03*
X02185Y0322D03*
X02207D03*
Y03198D03*
X02185D03*
X02243Y03604D03*
X02316Y03811D03*
X02291Y04153D03*
X02269D03*
Y04174D03*
X02291D03*
X02391Y0458D03*
Y04602D03*
X02413D03*
Y0458D03*
X02727Y04324D03*
X02832Y04287D03*
X03075Y0423D03*
X03091Y03994D03*
X02703Y04038D03*
X02696Y03691D03*
Y03669D03*
X02674D03*
Y03691D03*
X02707Y03486D03*
X02729D03*
X02707Y03404D03*
X02663Y0339D03*
X02625D03*
X02613Y03485D03*
X0252Y03437D03*
X02862D03*
X02845Y03392D03*
X02823D03*
Y03371D03*
X02845D03*
X02887Y03234D03*
X02984Y03486D03*
X02982Y03617D03*
X03218Y03747D03*
X0324D03*
Y03769D03*
X03218D03*
X03226Y03974D03*
X032Y03994D03*
X03259Y04007D03*
X03268Y03955D03*
X03277Y0447D03*
X03255D03*
Y04492D03*
X03277D03*
X01978Y04903D03*
Y04925D03*
X01956D03*
Y04903D03*
G54D9502*
X01678Y02067D03*
Y02267D03*
X01428D03*
X01333D03*
Y02067D03*
X01428D03*
X01083D03*
Y02267D03*
G54D9503*
X03214Y02165D03*
Y02244D03*
Y02322D03*
Y02401D03*
Y0248D03*
Y02559D03*
Y02637D03*
Y02716D03*
X03367Y02943D03*
Y03022D03*
Y031D03*
X03058D03*
Y03022D03*
Y02943D03*
X03065Y01964D03*
X02987D03*
X02908D03*
X02829D03*
X02092Y0191D03*
X02013D03*
X01934D03*
X01855D03*
Y02106D03*
X01934D03*
X02013D03*
X02092D03*
G54D9504*
X01691Y02591D03*
Y02691D03*
Y02791D03*
Y02891D03*
Y02991D03*
Y03091D03*
Y03191D03*
Y03291D03*
Y03391D03*
Y03491D03*
G54D9505*
X03217Y03281D03*
Y03382D03*
Y0348D03*
Y03581D03*
G54D9506*
X03349Y01793D03*
X01124D03*
X03349Y04835D03*
X01124D03*
G54D9507*
X01777Y02173D03*
M02*