%FSTAX23Y23*%
%MOIN*%
%SFA1B1*%

%IPPOS*%
%ADD19R,0.031500X0.037400*%
%ADD42R,0.051200X0.051200*%
%ADD43C,0.051200*%
%ADD44R,0.051200X0.051200*%
%ADD45C,0.059100*%
%ADD46R,0.059100X0.059100*%
%ADD47C,0.075000*%
%ADD48R,0.075000X0.075000*%
%ADD49R,0.160000X0.100000*%
%ADD50R,0.100000X0.160000*%
%ADD51C,0.138000*%
%ADD52O,0.075000X0.065000*%
%ADD53O,0.049200X0.041300*%
%ADD54C,0.019700*%
%ADD58O,0.082700X0.055100*%
%LNtankboardpcb1-1*%
%LPD*%
G54D19*
X03178Y03896D03*
X03123D03*
X02298Y03552D03*
X02242D03*
X02298Y03473D03*
X02242D03*
X02166D03*
X02111D03*
X02166Y03552D03*
X02111D03*
G54D42*
X02829Y01964D03*
X01855Y02106D03*
G54D43*
X02908Y01964D03*
X02987D03*
X03065D03*
X03058Y03022D03*
Y02943D03*
X03367Y03022D03*
Y02943D03*
X03214Y02716D03*
Y02637D03*
Y02401D03*
Y02244D03*
Y02322D03*
Y0248D03*
Y02559D03*
X01777Y02173D03*
X01934Y02106D03*
X02013D03*
X02092D03*
X01855Y0191D03*
X01934D03*
X02013D03*
X02092D03*
G54D44*
X03058Y031D03*
X03367D03*
X03214Y02165D03*
G54D45*
X01691Y03291D03*
Y02591D03*
Y02691D03*
Y02791D03*
Y02891D03*
Y02991D03*
Y03091D03*
Y03191D03*
Y03391D03*
G54D46*
X01691Y03491D03*
G54D47*
X01333Y02267D03*
X01083Y02067D03*
Y02267D03*
X01678D03*
X01428Y02067D03*
Y02267D03*
G54D48*
X01333Y02067D03*
X01678D03*
G54D49*
X01607Y04435D03*
Y04685D03*
G54D50*
X01407Y04535D03*
G54D51*
X03349Y01793D03*
X01124D03*
Y04835D03*
X03349D03*
G54D52*
X03217Y03581D03*
Y0348D03*
Y03382D03*
Y03281D03*
G54D53*
X03327Y04094D03*
Y03919D03*
G54D54*
X0204Y04177D03*
Y04133D03*
X01997Y04177D03*
Y04133D03*
X01954Y04177D03*
Y04133D03*
X02918Y03942D03*
X02874D03*
X02831D03*
X02918Y03985D03*
X02874D03*
X02831D03*
X02918Y04028D03*
X02874D03*
X02831D03*
G54D58*
X03447Y03842D03*
Y04171D03*
M02*