%FSTAX23Y23*%
%MOIN*%
%SFA1B1*%

%IPPOS*%
%ADD19R,0.031500X0.037400*%
%ADD20O,0.057100X0.023600*%
%ADD21R,0.047200X0.033500*%
%ADD22O,0.025600X0.009800*%
%ADD23R,0.037400X0.031500*%
%ADD24R,0.061000X0.082700*%
%ADD25R,0.063000X0.124000*%
%ADD26R,0.031500X0.031500*%
%ADD27R,0.031500X0.031500*%
%ADD28R,0.061000X0.037400*%
%ADD29R,0.122000X0.102400*%
%ADD30O,0.023600X0.057100*%
%ADD31R,0.212600X0.137800*%
%ADD32R,0.065000X0.057100*%
%ADD33R,0.039400X0.094500*%
%ADD34R,0.129900X0.094500*%
%ADD35O,0.041300X0.009800*%
%ADD36O,0.009800X0.041300*%
%ADD37R,0.123200X0.123200*%
%ADD38R,0.074800X0.070900*%
%ADD39R,0.053100X0.015700*%
%ADD40O,0.066900X0.011800*%
%ADD41O,0.011800X0.066900*%
%LNtankboardpcb1-1*%
%LPD*%
G36*
X03484Y03835D02*
Y03831D01*
X03481Y03824*
X03476Y03819*
X03469Y03816*
X03419*
X03415Y03817*
X03411Y03821*
X03409Y03825*
Y03827*
Y03902*
X03484*
Y03835*
G37*
G36*
X03476Y04195D02*
X03481Y04189D01*
X03484Y04182*
Y04178*
Y04112*
X03409*
Y04186*
Y04188*
X03411Y04192*
X03415Y04196*
X03419Y04198*
X03469*
X03476Y04195*
G37*
G54D19*
X02913Y02091D03*
X02968D03*
X02913Y02172D03*
X02968D03*
X0205Y02732D03*
X01995D03*
X0205Y02657D03*
X01995D03*
X02579Y04038D03*
X02634D03*
X0252Y03485D03*
X02575D03*
X0252Y03569D03*
X02575D03*
X02163Y03685D03*
X02108D03*
X02111Y03316D03*
X02056D03*
X02111Y03245D03*
X02056D03*
X02062Y02979D03*
X02117D03*
X01163Y02373D03*
X01108D03*
X01247D03*
X01302D03*
X01505Y0237D03*
X0145D03*
X01591D03*
X01646D03*
X02416Y02719D03*
X02361D03*
X02416Y0264D03*
X02361D03*
X02152Y04358D03*
X02207D03*
X02022D03*
X02078D03*
X02929Y03278D03*
X02984D03*
Y03431D03*
X02929D03*
X02984Y03355D03*
X02929D03*
G54D20*
X01918Y02584D03*
Y02534D03*
Y02484D03*
Y02434D03*
Y02384D03*
Y02334D03*
Y02284D03*
X02133Y02584D03*
Y02534D03*
Y02484D03*
Y02434D03*
Y02384D03*
Y02334D03*
Y02284D03*
G54D21*
X0225Y02223D03*
X0225Y02149D03*
X02348Y02186D03*
X02715D03*
X02616Y02149D03*
X02616Y02223D03*
X02532Y02186D03*
X02433Y02149D03*
X02433Y02223D03*
G54D22*
X03167Y03974D03*
Y03994D03*
Y04013D03*
X03128D03*
Y03994D03*
Y03974D03*
G54D23*
X02316Y03913D03*
Y03968D03*
X0224Y03913D03*
Y03968D03*
X02163Y03913D03*
Y03968D03*
X01662Y04195D03*
Y0414D03*
X02952Y04229D03*
Y04285D03*
X03029Y04229D03*
Y04285D03*
X02874Y04229D03*
Y04285D03*
X02797Y04229D03*
Y04285D03*
X02726Y04286D03*
Y04231D03*
X02935Y03671D03*
Y03616D03*
X02831Y03671D03*
Y03616D03*
X01926Y03471D03*
Y03416D03*
X01842Y03471D03*
Y03416D03*
X01985Y03059D03*
Y03114D03*
X01842Y03191D03*
Y03136D03*
Y0329D03*
Y03345D03*
X02834Y02712D03*
Y02657D03*
X02761Y02712D03*
Y02657D03*
X02688D03*
Y02712D03*
X02691Y02004D03*
Y02059D03*
X02504Y02003D03*
Y02058D03*
X0232Y02003D03*
Y02058D03*
X02163Y04103D03*
Y04048D03*
G54D24*
X018Y04284D03*
Y04111D03*
G54D25*
X01798Y03693D03*
Y03886D03*
X01972Y04493D03*
Y04686D03*
G54D26*
X02643Y04123D03*
X0258D03*
X0225Y03686D03*
X02313D03*
G54D27*
X02938Y03817D03*
Y03754D03*
X02833Y03817D03*
Y03754D03*
X02616Y02066D03*
Y02003D03*
X02433Y02066D03*
Y02003D03*
X0225Y02066D03*
Y02003D03*
G54D28*
X02068Y03058D03*
Y03125D03*
X02155Y03058D03*
Y03125D03*
G54D29*
X01997Y04155D03*
G54D30*
X02072Y04262D03*
X02022D03*
X01972D03*
X01922D03*
X02072Y04048D03*
X02022D03*
X01972D03*
X01922D03*
G54D31*
X0133Y04267D03*
Y03886D03*
G54D32*
X0243Y04053D03*
Y04215D03*
G54D33*
X0261Y03913D03*
X02519D03*
X02429D03*
G54D34*
X02519Y03685D03*
G54D35*
X02965Y03926D03*
Y03946D03*
Y03965D03*
Y03985D03*
Y04005D03*
Y04024D03*
Y04044D03*
X02784D03*
Y04024D03*
Y04005D03*
Y03985D03*
Y03965D03*
Y03946D03*
Y03926D03*
G54D36*
X02933Y04075D03*
X02914D03*
X02894D03*
X02874D03*
X02855D03*
X02835D03*
X02815D03*
Y03894D03*
X02835D03*
X02855D03*
X02874D03*
X02894D03*
X02914D03*
X02933D03*
G54D37*
X02874Y03985D03*
G54D38*
X03447Y04052D03*
Y03961D03*
G54D39*
X03336Y03955D03*
Y04058D03*
Y03981D03*
Y04007D03*
Y04032D03*
G54D40*
X02305Y03245D03*
Y03225D03*
Y03206D03*
Y03186D03*
Y03166D03*
Y03147D03*
Y03127D03*
Y03107D03*
Y03088D03*
Y03068D03*
Y03048D03*
Y03029D03*
Y03009D03*
Y02989D03*
Y0297D03*
Y0295D03*
X02766D03*
Y0297D03*
Y02989D03*
Y03009D03*
Y03029D03*
Y03048D03*
Y03068D03*
Y03088D03*
Y03107D03*
Y03127D03*
Y03147D03*
Y03166D03*
Y03186D03*
Y03206D03*
Y03225D03*
Y03245D03*
G54D41*
X02388Y02867D03*
X02408D03*
X02427D03*
X02447D03*
X02467D03*
X02486D03*
X02506D03*
X02526D03*
X02546D03*
X02565D03*
X02585D03*
X02605D03*
X02624D03*
X02644D03*
X02664D03*
X02683D03*
Y03328D03*
X02664D03*
X02644D03*
X02624D03*
X02605D03*
X02585D03*
X02565D03*
X02546D03*
X02526D03*
X02506D03*
X02486D03*
X02467D03*
X02447D03*
X02427D03*
X02408D03*
X02388D03*
M02*