%FSTAX23Y23*%
%MOIN*%
%SFA1B1*%

%IPPOS*%
%ADD9500C,0.007900*%
%ADD9501C,0.040200*%
%ADD9502C,0.047200*%
%ADD9503C,0.118100*%
%LNpcb1-1*%
%LPD*%
G54D9500*
X022Y036D03*
X0225D03*
X023D03*
X0235D03*
X024D03*
X0245D03*
X025D03*
X0255D03*
X026D03*
X0265D03*
X027D03*
X0275D03*
X028D03*
X0285D03*
X029D03*
X02925Y0365D03*
X02875D03*
X02825D03*
X02775D03*
X02725D03*
X02675D03*
X02625D03*
X02575D03*
X02525D03*
X02475D03*
X02425D03*
X02375D03*
X024Y037D03*
X0245D03*
X025D03*
X0255D03*
X026D03*
X0265D03*
X027D03*
X0275D03*
X028D03*
X0285D03*
X029D03*
X02925Y0375D03*
X02875D03*
X02825D03*
X02775D03*
X02725D03*
X02675D03*
X02625D03*
X02575D03*
X02525D03*
X02475D03*
X02425D03*
X02375D03*
X024Y038D03*
X0245D03*
X025D03*
X0255D03*
X026D03*
X0265D03*
X027D03*
X0275D03*
X028D03*
X0285D03*
X029D03*
X03D03*
X0305D03*
X031D03*
X03075Y0385D03*
X03025D03*
X02975D03*
X03Y039D03*
X0305D03*
X031D03*
X03075Y0395D03*
X03025D03*
X02975D03*
X02925D03*
X02875D03*
X02825D03*
X02775D03*
X02725D03*
X02675D03*
X02625D03*
X02575D03*
X02525D03*
X02475D03*
X02425D03*
X02375D03*
X02325D03*
X02275D03*
X02225D03*
X0225Y04D03*
X023D03*
X0235D03*
X024D03*
X0245D03*
X025D03*
X0255D03*
X026D03*
X0265D03*
X027D03*
X0275D03*
X028D03*
X0285D03*
X029D03*
X02875Y0405D03*
X02825D03*
X02775D03*
X02725D03*
X02675D03*
X02625D03*
X02575D03*
X02525D03*
X02475D03*
X02425D03*
X02375D03*
X02325D03*
X02275D03*
X02225D03*
X022Y041D03*
X02225Y0415D03*
X0225Y042D03*
X023D03*
X0235D03*
X024D03*
X0245D03*
X025D03*
X0255D03*
X02575Y0415D03*
X02625D03*
X02675D03*
X02725D03*
X02775D03*
X028Y041D03*
X0285D03*
X029D03*
X0295D03*
X03D03*
X0305D03*
X031D03*
X03075Y0415D03*
X03025D03*
X02975D03*
X02925D03*
X02875D03*
X029Y042D03*
X0295D03*
X03D03*
X0305D03*
X031D03*
X03075Y0425D03*
X03025D03*
X02975D03*
X02925D03*
X02875D03*
X02825D03*
X02775D03*
X028Y043D03*
X0285D03*
X029D03*
X0295D03*
X03D03*
X0305D03*
X031D03*
X03075Y0435D03*
X03025D03*
X02975D03*
X02925D03*
X02875D03*
X02825D03*
X02775D03*
X02725D03*
X02675D03*
X02625D03*
X02575D03*
X02525D03*
X02475D03*
X02425D03*
X02375D03*
X024Y044D03*
X0245D03*
X025D03*
X0255D03*
X026D03*
X0265D03*
X027D03*
X0275D03*
X028D03*
X0285D03*
X029D03*
X0295D03*
X03D03*
X0305D03*
X031D03*
X03075Y0445D03*
X03025D03*
X02975D03*
X02925D03*
X02875D03*
X02825D03*
X02775D03*
X02725D03*
X02675D03*
X02625D03*
X02575D03*
X02525D03*
X02475D03*
X02425D03*
X02375D03*
X02325D03*
X02275D03*
X02225D03*
X0225Y045D03*
X023D03*
X0235D03*
X024D03*
X0245D03*
X025D03*
X0255D03*
X026D03*
X0265D03*
X027D03*
X0275D03*
X028D03*
X0285D03*
X029D03*
X0295D03*
X03D03*
X0305D03*
X031D03*
X03075Y0455D03*
X03025D03*
X02975D03*
X02925D03*
X02875D03*
X02825D03*
X02775D03*
X02725D03*
X02675D03*
X02625D03*
X02575D03*
X02525D03*
X02475D03*
X02425D03*
X02375D03*
X02325D03*
X02275D03*
X02225D03*
X0225Y046D03*
X023D03*
X0235D03*
X024D03*
X0245D03*
X025D03*
X0255D03*
X026D03*
X0265D03*
X027D03*
X0275D03*
X028D03*
X0285D03*
X02825Y0465D03*
X02775D03*
X02725D03*
X02675D03*
X02625D03*
X02575D03*
X02525D03*
X02475D03*
X02425D03*
X02375D03*
X02325D03*
X02275D03*
X02225D03*
X022Y046D03*
Y045D03*
Y044D03*
X0225D03*
X023D03*
X0235D03*
X024Y043D03*
X0245D03*
X025D03*
X0255D03*
X026D03*
X0265D03*
X027D03*
X0275D03*
X028Y042D03*
X0285D03*
X0275Y041D03*
X027D03*
X0265D03*
X026D03*
X0255D03*
X025D03*
X0245D03*
X024D03*
X02425Y0415D03*
X02475D03*
X02525D03*
X02375D03*
X022Y042D03*
Y043D03*
X02225Y0435D03*
X022Y04D03*
Y039D03*
X0225D03*
X023D03*
X0235D03*
X024D03*
X0245D03*
X025D03*
X0255D03*
X026D03*
X0265D03*
X027D03*
X0275D03*
X028D03*
X0285D03*
X02825Y0385D03*
X02775D03*
X02725D03*
X02675D03*
X02625D03*
X02575D03*
X02525D03*
X02475D03*
X02425D03*
X02375D03*
X02325D03*
X02275D03*
X02225D03*
X022Y038D03*
X0235D03*
X02225Y0365D03*
X02975D03*
X03025D03*
X03075D03*
X031Y037D03*
X0305D03*
X03D03*
X03025Y0375D03*
X03075D03*
X02975D03*
X03Y036D03*
X0305D03*
X031D03*
Y04D03*
X0305D03*
X03D03*
X03025Y0405D03*
X03075D03*
X02975D03*
X03Y046D03*
X0305D03*
X031D03*
X03075Y0465D03*
X03025D03*
X02975D03*
X03125D03*
X03175D03*
X03225D03*
X03275D03*
X03325D03*
X03375D03*
X03425D03*
X03475D03*
X03525D03*
X03575D03*
X03625D03*
X03675D03*
X03725D03*
X03775D03*
X03825D03*
X03875D03*
X03925D03*
X03975D03*
X04025D03*
X04075D03*
X04125D03*
X04175D03*
X04225D03*
X042Y046D03*
X0415D03*
X041D03*
X0405D03*
X04D03*
X0395D03*
X039D03*
X0385D03*
X038D03*
X0375D03*
X037D03*
X0365D03*
X036D03*
X0355D03*
X035D03*
X0345D03*
X034D03*
X0335D03*
X033D03*
X0325D03*
X032D03*
X0315D03*
X03175Y0455D03*
X03225D03*
X03275D03*
X03325D03*
X03375D03*
X03425D03*
X03475D03*
X03525D03*
X03575D03*
X03625D03*
X03675D03*
X03725D03*
X03775D03*
X03825D03*
X03875D03*
X03925D03*
X03975D03*
X04025D03*
X04075D03*
X04125D03*
X04175D03*
X04225D03*
X04275D03*
X04325D03*
X04375D03*
X04425D03*
X04475D03*
X04525D03*
X04575D03*
X04625D03*
X04675D03*
X0465Y046D03*
X046D03*
X0455D03*
X045D03*
X0445D03*
X044D03*
X0435D03*
X04375Y0465D03*
X04425D03*
X04475D03*
X04525D03*
X04575D03*
X04625D03*
X04675D03*
X0465Y045D03*
X046D03*
X0455D03*
X045D03*
X0445D03*
X044D03*
X0435D03*
X043D03*
X0425D03*
X042D03*
X0415D03*
X041D03*
X0405D03*
X04D03*
X0395D03*
X039D03*
X0385D03*
X038D03*
X0375D03*
X037D03*
X0365D03*
X036D03*
X0355D03*
X035D03*
X0345D03*
X034D03*
X0335D03*
X033D03*
X0325D03*
X032D03*
X0315D03*
X03175Y0445D03*
X03225D03*
X03275D03*
X03325D03*
X03375D03*
X03425D03*
X03475D03*
X03525D03*
X03575D03*
X03625D03*
X03675D03*
X03725D03*
X03775D03*
X03825D03*
X03875D03*
X03925D03*
X03975D03*
X04025D03*
X04075D03*
X04125D03*
X04175D03*
X04225D03*
X04275D03*
X04325D03*
X04375D03*
X04425D03*
X04475D03*
X04525D03*
X04575D03*
X04625D03*
X04675D03*
X0465Y044D03*
X046D03*
X0455D03*
X045D03*
X0445D03*
X044D03*
X0435D03*
X043D03*
X0425D03*
X042D03*
X0415D03*
X041D03*
X0405D03*
X04D03*
X0395D03*
X039D03*
X0385D03*
X038D03*
X0375D03*
X037D03*
X0365D03*
X036D03*
X0355D03*
X035D03*
X0345D03*
X034D03*
X0335D03*
X033D03*
X0325D03*
X032D03*
X0315D03*
X03175Y0435D03*
X03225D03*
X03275D03*
X03325D03*
X03375D03*
X03425D03*
X03475D03*
X03525D03*
X03575D03*
X03625D03*
X03675D03*
X03725D03*
X03775D03*
X03825D03*
X03875D03*
X03925D03*
X03975D03*
X04025D03*
X04075D03*
X04125D03*
X04175D03*
X04225D03*
X04275D03*
X04325D03*
X04375D03*
X04425D03*
X04475D03*
X04525D03*
X04575D03*
X04625D03*
X0465Y043D03*
X046D03*
X0455D03*
X045D03*
X0445D03*
X044D03*
X0435D03*
X043D03*
X0425D03*
X042D03*
X0415D03*
X041D03*
X0405D03*
X04D03*
X0395D03*
X039D03*
X0385D03*
X038D03*
X0375D03*
X037D03*
X0365D03*
X036D03*
X0355D03*
X035D03*
X0345D03*
X034D03*
X0335D03*
X033D03*
X0325D03*
X032D03*
X0315D03*
X03175Y0425D03*
X03225D03*
X03275D03*
X03325D03*
X03375D03*
X03425D03*
X03475D03*
X03525D03*
X03575D03*
X036Y042D03*
X0365D03*
X037D03*
X0375D03*
X038D03*
X0385D03*
X039D03*
X0395D03*
X04D03*
X0405D03*
X041D03*
X0415D03*
X042D03*
X0425D03*
X043D03*
X0435D03*
X044D03*
X04425Y0415D03*
X04475D03*
X04525D03*
X04575D03*
X04625D03*
X0465Y042D03*
X046D03*
X0455D03*
Y041D03*
X046D03*
X0465D03*
X04625Y0405D03*
X04575D03*
X04525D03*
X04475D03*
X04425D03*
X04375D03*
X04325D03*
X04275D03*
X04225D03*
X04175D03*
X04125D03*
X04075D03*
X04025D03*
X03975D03*
X03925D03*
X03875D03*
X03825D03*
X03775D03*
X03725D03*
X03675D03*
X037Y041D03*
X0375D03*
X038D03*
X0385D03*
X039D03*
X0395D03*
X04D03*
X0405D03*
X041D03*
X0415D03*
X042D03*
X0425D03*
X043D03*
X0435D03*
X044D03*
X0445D03*
X045D03*
Y04D03*
X0455D03*
X046D03*
X0465D03*
X04625Y0395D03*
X04575D03*
X04525D03*
X04475D03*
X04425D03*
X04375D03*
X04325D03*
X04275D03*
X04225D03*
X04175D03*
X04125D03*
X04075D03*
X04025D03*
X03975D03*
X03925D03*
X03875D03*
X03825D03*
X03775D03*
X03725D03*
X03675D03*
X037Y04D03*
X0375D03*
X038D03*
X0385D03*
X039D03*
X0395D03*
X04D03*
X0405D03*
X041D03*
X0415D03*
X042D03*
X0425D03*
X043D03*
X0435D03*
X044D03*
X0445D03*
Y039D03*
X045D03*
X0455D03*
X046D03*
X0465D03*
X04625Y0385D03*
X04575D03*
X04525D03*
X04475D03*
X04425D03*
X04375D03*
X044Y039D03*
X0435D03*
Y038D03*
X044D03*
X0445D03*
X045D03*
X0455D03*
X046D03*
X0465D03*
X04625Y0375D03*
X04575D03*
X04525D03*
X04475D03*
X04425D03*
X04375D03*
X04325D03*
X04275D03*
X04225D03*
X04175D03*
X04125D03*
X04075D03*
X04025D03*
X03975D03*
X03925D03*
X03875D03*
X03825D03*
X03775D03*
X03725D03*
X03675D03*
X037Y038D03*
X0375D03*
X038D03*
X0385D03*
X039D03*
X0395D03*
X04D03*
X0405D03*
X041D03*
X0415D03*
X042D03*
X0425D03*
X043D03*
Y037D03*
X0435D03*
X044D03*
X0445D03*
X045D03*
X0455D03*
X046D03*
X0465D03*
X04625Y0365D03*
X04575D03*
X04525D03*
X04475D03*
X04425D03*
X04375D03*
X04325D03*
X04275D03*
X04225D03*
X04175D03*
X04125D03*
X04075D03*
X04025D03*
X03975D03*
X03925D03*
X03875D03*
X03825D03*
X03775D03*
X03725D03*
X03675D03*
X037Y037D03*
X0375D03*
X038D03*
X0385D03*
X039D03*
X0395D03*
X04D03*
X0405D03*
X041D03*
X0415D03*
X042D03*
X0425D03*
Y036D03*
X043D03*
X0435D03*
X044D03*
X0445D03*
X045D03*
X0455D03*
X046D03*
X0465D03*
X042D03*
X0415D03*
X041D03*
X0405D03*
X04D03*
X0395D03*
X039D03*
X0385D03*
X038D03*
X0375D03*
X037D03*
X0365D03*
X036D03*
X03575Y0365D03*
X036Y037D03*
X0365D03*
Y038D03*
X036D03*
X03575Y0375D03*
X03475D03*
X03425D03*
X03375D03*
X03325D03*
X03275D03*
X03225D03*
X03175D03*
X03125D03*
X0315Y038D03*
X032D03*
X0325D03*
X033D03*
X0335D03*
X034D03*
X0345D03*
X035D03*
X03475Y0385D03*
Y0395D03*
X03525D03*
X03575D03*
X036Y04D03*
X0365D03*
Y041D03*
X036D03*
X0355D03*
X035D03*
X0345D03*
X034D03*
X0335D03*
X033D03*
X0325D03*
X032D03*
X0315D03*
X03175Y0415D03*
X03225D03*
X03275D03*
X03325D03*
X03375D03*
X03425D03*
X03475D03*
X03525D03*
X03575D03*
X0355Y042D03*
X035D03*
X0345D03*
X034D03*
X0335D03*
X033D03*
X0325D03*
X032D03*
X0315D03*
X03125Y0425D03*
Y0435D03*
Y0445D03*
Y0455D03*
Y0415D03*
Y0405D03*
X03175D03*
X03225D03*
X03275D03*
X03325D03*
X03375D03*
X03425D03*
X03475D03*
X03525D03*
X03575D03*
X0355Y04D03*
X035D03*
X0345D03*
X034D03*
X0335D03*
X033D03*
X0325D03*
X032D03*
X0315D03*
X03175Y0395D03*
X03225D03*
X03275D03*
X03325D03*
X03375D03*
X03425D03*
X0335Y039D03*
X033D03*
X0325D03*
X032D03*
X0315D03*
X03175Y0385D03*
X03225D03*
X03275D03*
X03325D03*
X0335Y037D03*
X034D03*
X0345D03*
X035D03*
X03425Y0365D03*
X03375D03*
X03325D03*
X03275D03*
X03225D03*
X03175D03*
X03125D03*
X0315Y037D03*
X032D03*
X0325D03*
X033D03*
Y036D03*
X0335D03*
X034D03*
X0345D03*
X0325D03*
X032D03*
X0315D03*
X03125Y0385D03*
Y0395D03*
X036Y039D03*
X037D03*
X0375D03*
X038D03*
X0385D03*
X039D03*
X0395D03*
X04D03*
X0405D03*
X041D03*
X0415D03*
X042D03*
X0425D03*
X04225Y0385D03*
X04175D03*
X04125D03*
X04075D03*
X04025D03*
X03975D03*
X03925D03*
X03875D03*
X03825D03*
X03775D03*
X03725D03*
Y0415D03*
X03775D03*
X03825D03*
X03875D03*
X03925D03*
X03975D03*
X04025D03*
X04075D03*
X04125D03*
X04175D03*
X04225D03*
X04275D03*
X04325D03*
X04375D03*
X04325Y0465D03*
X03675Y0415D03*
X04775D03*
X04825D03*
X04875D03*
X04925D03*
X04975D03*
X05025D03*
X0505Y042D03*
X051D03*
X0515D03*
X052D03*
X05225Y0415D03*
X05175D03*
X052Y041D03*
X05225Y0405D03*
X05175D03*
X05125D03*
X05075D03*
X05025D03*
X04975D03*
X04925D03*
X04875D03*
X04825D03*
X04775D03*
X04725D03*
X0475Y041D03*
X048D03*
X0485D03*
X049D03*
X0495D03*
X05D03*
Y042D03*
X0495D03*
X049D03*
X0485D03*
X048D03*
X0475D03*
Y043D03*
X04775Y0435D03*
X04825D03*
X04875D03*
X04925D03*
X04975D03*
X05025D03*
X0505Y044D03*
X051D03*
X0515D03*
X052D03*
X05225Y0445D03*
X05175D03*
X05125D03*
X05075D03*
X05025D03*
X04975D03*
X04925D03*
X04875D03*
X04825D03*
X04775D03*
X04725D03*
X0475Y045D03*
X048D03*
X0485D03*
X049D03*
X0495D03*
X05D03*
X0505D03*
X051D03*
X0515D03*
X052D03*
X05225Y0455D03*
X05175D03*
X05125D03*
X05075D03*
X05025D03*
X04975D03*
X04925D03*
X04875D03*
X04825D03*
X04775D03*
X04725D03*
X0475Y046D03*
X048D03*
X0485D03*
X049D03*
X0495D03*
X05D03*
X0505D03*
X051D03*
X0515D03*
X052D03*
X05225Y0465D03*
X05175D03*
X05125D03*
X05075D03*
X05025D03*
X04975D03*
X04925D03*
X04875D03*
X04825D03*
X04775D03*
X04725D03*
X047Y046D03*
Y045D03*
Y044D03*
X0475D03*
X048D03*
X0485D03*
X049D03*
X0495D03*
X05D03*
Y043D03*
X0495D03*
X049D03*
X0485D03*
Y04D03*
X049D03*
X0495D03*
X05D03*
X0505D03*
X051D03*
X0515D03*
X052D03*
X05225Y0395D03*
X05175D03*
X05125D03*
X05075D03*
X05025D03*
X04975D03*
X04925D03*
X04875D03*
X04825D03*
X04775D03*
X048Y04D03*
X0475D03*
Y039D03*
X048D03*
X0485D03*
X049D03*
X0495D03*
X05D03*
X0505D03*
X051D03*
X0515D03*
X052D03*
X05225Y0385D03*
X05175D03*
X05125D03*
X05075D03*
X05025D03*
X04975D03*
X04925D03*
X04875D03*
X04825D03*
X04775D03*
X048Y038D03*
X0485D03*
X049D03*
X0495D03*
X05D03*
X0505D03*
X05025Y0375D03*
X04975D03*
X04925D03*
X04875D03*
X04825D03*
X04775D03*
X048Y037D03*
X0485D03*
X049D03*
X0495D03*
X05D03*
X05025Y0365D03*
X05075D03*
X051Y036D03*
X0515D03*
X052D03*
X05225Y0365D03*
Y0375D03*
X052Y038D03*
X0505Y036D03*
X05D03*
X0495D03*
X049D03*
X0485D03*
X048D03*
X0475D03*
X047D03*
X04699Y0367D03*
X0475Y037D03*
X04775Y0365D03*
X04825D03*
X04875D03*
X04925D03*
X04975D03*
X0475Y038D03*
X052Y043D03*
X05225Y0435D03*
X05175D03*
X052Y047D03*
X05225Y0475D03*
X05025D03*
X04975D03*
X04925D03*
X04875D03*
X04825D03*
X04775D03*
X04725D03*
X0475Y048D03*
X048D03*
X0485D03*
X049D03*
X0495D03*
X05D03*
Y047D03*
X0505D03*
X0495D03*
X049D03*
X0485D03*
X048D03*
X0475D03*
X047D03*
Y048D03*
X0465D03*
X046D03*
X0455D03*
X045D03*
X0445D03*
X044D03*
X0435D03*
X043D03*
X0425D03*
X042D03*
X0415D03*
X041D03*
X0405D03*
X04D03*
X0395D03*
X039D03*
X0385D03*
X038D03*
X0375D03*
X037D03*
X0365D03*
X036D03*
X0355D03*
X035D03*
X0345D03*
X034D03*
X0335D03*
X033D03*
X0325D03*
X032D03*
X0315D03*
X03175Y0475D03*
X03225D03*
X03275D03*
X03325D03*
X03375D03*
X03425D03*
X03475D03*
X03525D03*
X03575D03*
X03625D03*
X03675D03*
X03725D03*
X03775D03*
X03825D03*
X03875D03*
X03925D03*
X03975D03*
X04025D03*
X04075D03*
X04125D03*
X04175D03*
X04225D03*
X04275D03*
X04325D03*
X04375D03*
X04425D03*
X04475D03*
X04525D03*
X04575D03*
X04625D03*
X04675D03*
X0465Y047D03*
X046D03*
X0455D03*
X045D03*
X0445D03*
X044D03*
X0435D03*
X043D03*
X0425D03*
X042D03*
X0415D03*
X041D03*
X0405D03*
X04D03*
X0395D03*
X039D03*
X0385D03*
X038D03*
X0375D03*
X037D03*
X0365D03*
X036D03*
X0355D03*
X035D03*
X0345D03*
X034D03*
X0335D03*
X033D03*
X0325D03*
X032D03*
X0315D03*
X03125Y0475D03*
X03075D03*
X03025D03*
X02975D03*
X02925D03*
X02875D03*
X02825D03*
X02775D03*
X02725D03*
X02675D03*
X02625D03*
X02575D03*
X02525D03*
X02475D03*
X02425D03*
X02375D03*
X024Y048D03*
X0245D03*
X025D03*
X0255D03*
X026D03*
X0265D03*
X027D03*
X0275D03*
X028D03*
X0285D03*
X029D03*
X0295D03*
X03D03*
X0305D03*
X031D03*
Y047D03*
X0305D03*
X03D03*
X0295D03*
X029D03*
X0285D03*
X028D03*
X0275D03*
X027D03*
X0265D03*
X026D03*
X0255D03*
X025D03*
X0245D03*
X024D03*
X0235D03*
X022D03*
Y048D03*
G54D9501*
X02908Y0386D03*
Y0461D03*
X03408Y0386D03*
X03534D03*
X0366D03*
X04285D03*
Y0461D03*
G54D9502*
X02305Y04145D03*
Y04345D03*
X05095Y04325D03*
Y04125D03*
G54D9503*
X0228Y0372D03*
X0513D03*
Y04765D03*
X0228Y04755D03*
M02*