%FSTAX23Y23*%
%MOIN*%
%SFA1B1*%

%IPPOS*%
%ADD10C,0.009800*%
%ADD11C,0.005000*%
%ADD12C,0.007900*%
%ADD13C,0.010000*%
%LNpcb1-1*%
%LPD*%
G36*
X04726Y04772D02*
X04702D01*
Y04764*
X04694*
Y0478*
X04726*
Y04772*
G37*
G36*
X04662Y0474D02*
X04678D01*
Y04748*
X04686*
Y04756*
X04702*
Y04748*
X0471*
Y0474*
X04718*
Y04732*
X04742*
Y04724*
X04774*
Y04716*
X04862*
Y04724*
X04918*
Y04732*
X04974*
Y04724*
X0495*
Y04716*
X0487*
Y04708*
X04814*
Y047*
X04806*
Y04692*
X04798*
Y04684*
X04838*
Y04668*
X04854*
Y0466*
X04862*
Y04652*
X0487*
Y04644*
X04878*
Y04636*
X04886*
Y04596*
X04878*
Y04588*
X0487*
Y0458*
X04862*
Y04572*
X04846*
Y04564*
X0483*
Y04556*
X04574*
Y04564*
X0455*
Y04572*
X04534*
Y0458*
X04526*
Y04588*
X04518*
Y0462*
X04526*
Y04628*
X0451*
Y04636*
X04518*
Y04652*
X0451*
Y04668*
X04526*
Y04676*
X04542*
Y047*
X04558*
Y04692*
X04566*
Y04676*
X0459*
Y04684*
X04598*
Y04692*
X04582*
Y04724*
X04598*
Y0474*
X0463*
Y04732*
X04662*
Y0474*
X04654*
Y04756*
X04646*
Y04764*
X04662*
Y0474*
G37*
%LNpcb1-2*%
%LPC*%
G36*
X04854Y04596D02*
X04846D01*
Y04588*
X04838*
Y0458*
X04854*
Y04588*
Y04596*
G37*
G36*
X04566D02*
X04558D01*
Y04588*
X0455*
Y0458*
X04558*
Y04572*
X04574*
Y0458*
Y04588*
X04566*
Y04596*
G37*
G36*
X04798Y04588D02*
X0479D01*
Y0458*
Y04572*
Y04564*
X04806*
Y04572*
X04798*
Y0458*
Y04588*
G37*
G36*
X04758Y04572D02*
X04742D01*
Y04564*
X04758*
Y04572*
G37*
G36*
X0471Y04588D02*
X04702D01*
Y0458*
Y04572*
Y04564*
X0471*
Y04572*
Y0458*
Y04588*
G37*
G36*
X04662Y0458D02*
X04654D01*
Y04572*
Y04564*
X0467*
Y04572*
X04662*
Y0458*
G37*
G36*
X04622Y04588D02*
X04614D01*
Y0458*
Y04572*
X04606*
Y04564*
X04622*
Y04572*
Y0458*
Y04588*
G37*
%LNpcb1-3*%
%LPD*%
G54D10*
X04653Y04075D02*
D01*
D01*
G75*
G03X04643I-00004J0D01*
G74*G01*
D01*
G75*
G03X04653I00004J0D01*
G74*G01*
G54D11*
X04674Y03862D02*
X04724D01*
X04674Y03747D02*
X04684Y03737D01*
X04714D02*
X04724Y03747D01*
X04684Y03737D02*
X04714D01*
X04724Y03747D02*
Y03787D01*
Y03817D02*
Y03862D01*
X04674Y03747D02*
Y03787D01*
Y03817D02*
Y03862D01*
G54D12*
X04745Y04096D02*
X0477D01*
X04629D02*
X04654D01*
X04829Y04155D02*
Y04356D01*
X0457Y04155D02*
Y04356D01*
X04745D02*
X04829D01*
X0457D02*
X0465D01*
X0457Y04155D02*
X04629Y04096D01*
X0477D02*
X04829Y04155D01*
G54D13*
X05166Y04225D02*
X05228D01*
X05166D02*
X05186Y04245D01*
X05166Y04225D02*
X05186Y04205D01*
X0523Y04025D02*
Y04425D01*
X04934Y04025D02*
X0523D01*
X04934Y04425D02*
X0523D01*
X04934Y04025D02*
Y04425D01*
X02172Y04244D02*
X02233D01*
X02213Y04224D02*
X02233Y04244D01*
X02213Y04264D02*
X02233Y04244D01*
X0217Y04045D02*
Y04445D01*
X02465*
X0217Y04045D02*
X02465D01*
Y04445*
X04749Y0393D02*
Y0399D01*
X04779*
X04789Y0398*
Y0396*
X04779Y0395*
X04749*
X04769D02*
X04789Y0393D01*
X04809D02*
X04829D01*
X04819*
Y0399*
X04809Y0398*
X04754Y03856D02*
Y03796D01*
X04784*
X04794Y03806*
Y03846*
X04784Y03856*
X04754*
X04814Y03796D02*
X04834D01*
X04824*
Y03856*
X04814Y03846*
X04622Y0448D02*
X04612Y0449D01*
X04592*
X04582Y0448*
Y0444*
X04592Y0443*
X04612*
X04622Y0444*
X04642Y0443D02*
X04662D01*
X04652*
Y0449*
X04642Y0448*
X0333Y03603D02*
Y03663D01*
X0336*
X0337Y03653*
Y03633*
X0336Y03623*
X0333*
X0335D02*
X0337Y03603D01*
X0343D02*
X0339D01*
X0343Y03643*
Y03653*
X0342Y03663*
X034*
X0339Y03653*
X02603Y04377D02*
X02593Y04387D01*
X02573*
X02563Y04377*
Y04337*
X02573Y04327*
X02593*
X02603Y04337*
X02663Y04327D02*
X02623D01*
X02663Y04367*
Y04377*
X02653Y04387*
X02633*
X02623Y04377*
X04939Y0446D02*
Y0452D01*
X04969*
X04979Y0451*
Y0449*
X04969Y0448*
X04939*
X05039Y0446D02*
X04999D01*
X05039Y045*
Y0451*
X05029Y0452*
X05009*
X04999Y0451*
X02175Y0448D02*
Y0454D01*
X02205*
X02215Y0453*
Y0451*
X02205Y045*
X02175*
X02235Y0448D02*
X02255D01*
X02245*
Y0454*
X02235Y0453*
X04446Y04373D02*
X04436Y04383D01*
X04416*
X04406Y04373*
Y04333*
X04416Y04323*
X04436*
X04446Y04333*
X04496Y04323D02*
Y04383D01*
X04466Y04353*
X04506*
X02739Y04377D02*
X02729Y04387D01*
X02709*
X02699Y04377*
Y04337*
X02709Y04327*
X02729*
X02739Y04337*
X02759Y04377D02*
X02769Y04387D01*
X02789*
X02799Y04377*
Y04367*
X02789Y04357*
X02779*
X02789*
X02799Y04347*
Y04337*
X02789Y04327*
X02769*
X02759Y04337*
M02*