%FSTAX23Y23*%
%MOIN*%
%SFA1B1*%

%IPPOS*%
%ADD13C,0.010000*%
%ADD25C,0.138000*%
%ADD26C,0.078700*%
%ADD27R,0.098400X0.078700*%
%ADD28C,0.017700*%
%LNpcb1-1*%
%LPD*%
G36*
X05254Y04248D02*
X05253Y04247D01*
X04772*
X04768Y04247*
X04765Y04244*
X04707Y04186*
X04705Y04183*
X04704Y04179*
Y03681*
X04704Y0368*
Y03679*
X04704Y03678*
X04705Y03677*
X04705Y03677*
X04706Y03676*
X04707Y03674*
X04708Y0367*
X04707Y03667*
X04705Y03664*
X04702Y03662*
X04699Y03661*
X04695Y03662*
X04693Y03664*
X04691Y03667*
X0469Y0367*
X04691Y03674*
X04692Y03676*
X04692Y03677*
X04693Y03677*
X04693Y03678*
X04694Y03679*
Y0368*
X04694Y03681*
Y04185*
X04694Y04187*
X04696Y0419*
X04731Y04225*
X04734Y04229*
X04734Y04233*
X04734Y04237*
X04732Y04241*
X04729Y04244*
X04726Y04247*
X04722Y04247*
X03624*
X0362Y04247*
X03617Y04244*
X03615Y04241*
X03614Y04237*
Y03879*
X03611Y03872*
X0361Y0386*
X03611Y03847*
X03614Y03841*
Y03546*
X03613Y03545*
X02965*
Y04015*
X02964Y04018*
X02962Y04022*
X02737Y04247*
X02733Y04249*
X0273Y0425*
X0216*
Y04849*
X05254*
Y04248*
G37*
G36*
X05253Y03546D02*
X03624D01*
Y04237*
X04722*
X04724Y04233*
X04688Y04196*
X04685Y04191*
X04684Y04186*
Y03681*
X04681Y03678*
X0468Y0367*
X04681Y03663*
X04685Y03657*
X04691Y03652*
X04699Y03651*
X04706Y03652*
X04712Y03657*
X04717Y03663*
X04718Y0367*
X04717Y03678*
X04714Y03681*
Y04179*
X04772Y04237*
X05253*
Y03546*
G37*
G36*
X02955Y04015D02*
Y03545D01*
X0216*
Y0424*
X0273*
X02955Y04015*
G37*
%LNpcb1-2*%
%LPC*%
G36*
X0513Y04844D02*
X05114Y04842D01*
X05099Y04838*
X05085Y04831*
X05073Y04821*
X05064Y04809*
X05056Y04795*
X05052Y0478*
X0505Y04765*
X05052Y04749*
X05056Y04734*
X05064Y0472*
X05073Y04708*
X05085Y04699*
X05099Y04691*
X05114Y04687*
X0513Y04685*
X05145Y04687*
X0516Y04691*
X05174Y04699*
X05186Y04708*
X05196Y0472*
X05203Y04734*
X05207Y04749*
X05209Y04765*
X05207Y0478*
X05203Y04795*
X05196Y04809*
X05186Y04821*
X05174Y04831*
X0516Y04838*
X05145Y04842*
X0513Y04844*
G37*
G36*
X0228Y04834D02*
X02264Y04832D01*
X02249Y04828*
X02235Y04821*
X02223Y04811*
X02214Y04799*
X02206Y04785*
X02202Y0477*
X022Y04755*
X02202Y04739*
X02206Y04724*
X02214Y0471*
X02223Y04698*
X02235Y04689*
X02249Y04681*
X02264Y04677*
X0228Y04675*
X02295Y04677*
X0231Y04681*
X02324Y04689*
X02336Y04698*
X02346Y0471*
X02353Y04724*
X02357Y04739*
X02359Y04755*
X02357Y0477*
X02353Y04785*
X02346Y04799*
X02336Y04811*
X02324Y04821*
X0231Y04828*
X02295Y04832*
X0228Y04834*
G37*
G36*
X03534Y03909D02*
X03521Y03908D01*
X03509Y03903*
X03498Y03895*
X0349Y03884*
X03485Y03872*
X03484Y0386*
X03485Y03847*
X0349Y03835*
X03498Y03824*
X03509Y03816*
X03521Y03811*
X03534Y0381*
X03546Y03811*
X03558Y03816*
X03569Y03824*
X03577Y03835*
X03582Y03847*
X03583Y0386*
X03582Y03872*
X03577Y03884*
X03569Y03895*
X03558Y03903*
X03546Y03908*
X03534Y03909*
G37*
G36*
X03408D02*
X03395Y03908D01*
X03383Y03903*
X03373Y03895*
X03365Y03884*
X0336Y03872*
X03359Y0386*
X0336Y03847*
X03365Y03835*
X03373Y03824*
X03383Y03816*
X03395Y03811*
X03408Y0381*
X03421Y03811*
X03433Y03816*
X03444Y03824*
X03451Y03835*
X03456Y03847*
X03458Y0386*
X03456Y03872*
X03451Y03884*
X03444Y03895*
X03433Y03903*
X03421Y03908*
X03408Y03909*
G37*
G36*
X0513Y03799D02*
X05114Y03797D01*
X05099Y03793*
X05085Y03786*
X05073Y03776*
X05064Y03764*
X05056Y0375*
X05052Y03735*
X0505Y0372*
X05052Y03704*
X05056Y03689*
X05064Y03675*
X05073Y03663*
X05085Y03654*
X05099Y03646*
X05114Y03642*
X0513Y0364*
X05145Y03642*
X0516Y03646*
X05174Y03654*
X05186Y03663*
X05196Y03675*
X05203Y03689*
X05207Y03704*
X05209Y0372*
X05207Y03735*
X05203Y0375*
X05196Y03764*
X05186Y03776*
X05174Y03786*
X0516Y03793*
X05145Y03797*
X0513Y03799*
G37*
G36*
X0228D02*
X02264Y03797D01*
X02249Y03793*
X02235Y03786*
X02223Y03776*
X02214Y03764*
X02206Y0375*
X02202Y03735*
X022Y0372*
X02202Y03704*
X02206Y03689*
X02214Y03675*
X02223Y03663*
X02235Y03654*
X02249Y03646*
X02264Y03642*
X0228Y0364*
X02295Y03642*
X0231Y03646*
X02324Y03654*
X02336Y03663*
X02346Y03675*
X02353Y03689*
X02357Y03704*
X02359Y0372*
X02357Y03735*
X02353Y0375*
X02346Y03764*
X02336Y03776*
X02324Y03786*
X0231Y03793*
X02295Y03797*
X0228Y03799*
G37*
%LNpcb1-3*%
%LPD*%
G54D13*
X04699Y04186D02*
X04838Y04325D01*
X05095*
X04699Y0367D02*
Y04186D01*
G54D25*
X0228Y0372D03*
X0513D03*
Y04765D03*
X0228Y04755D03*
G54D26*
X02908Y0461D03*
X04285D03*
Y0386D03*
X0366D03*
X03534D03*
X03408D03*
X02908D03*
G54D27*
X05095Y04325D03*
Y04125D03*
X02305Y04145D03*
Y04345D03*
G54D28*
X052Y042D03*
X05225Y0415D03*
X052Y041D03*
X05225Y0405D03*
X052Y04D03*
X05225Y0395D03*
X052Y039D03*
X05225Y0385D03*
X052Y038D03*
X05225Y0375D03*
Y0365D03*
X052Y036D03*
X0515Y042D03*
X05175Y0415D03*
Y0405D03*
X0515Y04D03*
X05175Y0395D03*
X0515Y039D03*
X05175Y0385D03*
X0515Y036D03*
X051Y042D03*
X05125Y0405D03*
X051Y04D03*
X05125Y0395D03*
X051Y039D03*
X05125Y0385D03*
X051Y036D03*
X0505Y042D03*
X05075Y0405D03*
X0505Y04D03*
X05075Y0395D03*
X0505Y039D03*
X05075Y0385D03*
X0505Y038D03*
X05075Y0365D03*
X0505Y036D03*
X05Y042D03*
X05025Y0415D03*
X05Y041D03*
X05025Y0405D03*
X05Y04D03*
X05025Y0395D03*
X05Y039D03*
X05025Y0385D03*
X05Y038D03*
X05025Y0375D03*
X05Y037D03*
X05025Y0365D03*
X05Y036D03*
X0495Y042D03*
X04975Y0415D03*
X0495Y041D03*
X04975Y0405D03*
X0495Y04D03*
X04975Y0395D03*
X0495Y039D03*
X04975Y0385D03*
X0495Y038D03*
X04975Y0375D03*
X0495Y037D03*
X04975Y0365D03*
X0495Y036D03*
X049Y042D03*
X04925Y0415D03*
X049Y041D03*
X04925Y0405D03*
X049Y04D03*
X04925Y0395D03*
X049Y039D03*
X04925Y0385D03*
X049Y038D03*
X04925Y0375D03*
X049Y037D03*
X04925Y0365D03*
X049Y036D03*
X0485Y042D03*
X04875Y0415D03*
X0485Y041D03*
X04875Y0405D03*
X0485Y04D03*
X04875Y0395D03*
X0485Y039D03*
X04875Y0385D03*
X0485Y038D03*
X04875Y0375D03*
X0485Y037D03*
X04875Y0365D03*
X0485Y036D03*
X048Y042D03*
X04825Y0415D03*
X048Y041D03*
X04825Y0405D03*
X048Y04D03*
X04825Y0395D03*
X048Y039D03*
X04825Y0385D03*
X048Y038D03*
X04825Y0375D03*
X048Y037D03*
X04825Y0365D03*
X048Y036D03*
X0475Y042D03*
X04775Y0415D03*
X0475Y041D03*
X04775Y0405D03*
X0475Y04D03*
X04775Y0395D03*
X0475Y039D03*
X04775Y0385D03*
X0475Y038D03*
X04775Y0375D03*
X0475Y037D03*
X04775Y0365D03*
X0475Y036D03*
X04725Y0405D03*
X047Y036D03*
X0465Y042D03*
Y041D03*
Y04D03*
Y039D03*
Y038D03*
Y037D03*
Y036D03*
X046Y042D03*
X04625Y0415D03*
X046Y041D03*
X04625Y0405D03*
X046Y04D03*
X04625Y0395D03*
X046Y039D03*
X04625Y0385D03*
X046Y038D03*
X04625Y0375D03*
X046Y037D03*
X04625Y0365D03*
X046Y036D03*
X0455Y042D03*
X04575Y0415D03*
X0455Y041D03*
X04575Y0405D03*
X0455Y04D03*
X04575Y0395D03*
X0455Y039D03*
X04575Y0385D03*
X0455Y038D03*
X04575Y0375D03*
X0455Y037D03*
X04575Y0365D03*
X0455Y036D03*
X04525Y0415D03*
X045Y041D03*
X04525Y0405D03*
X045Y04D03*
X04525Y0395D03*
X045Y039D03*
X04525Y0385D03*
X045Y038D03*
X04525Y0375D03*
X045Y037D03*
X04525Y0365D03*
X045Y036D03*
X04475Y0415D03*
X0445Y041D03*
X04475Y0405D03*
X0445Y04D03*
X04475Y0395D03*
X0445Y039D03*
X04475Y0385D03*
X0445Y038D03*
X04475Y0375D03*
X0445Y037D03*
X04475Y0365D03*
X0445Y036D03*
X044Y042D03*
X04425Y0415D03*
X044Y041D03*
X04425Y0405D03*
X044Y04D03*
X04425Y0395D03*
X044Y039D03*
X04425Y0385D03*
X044Y038D03*
X04425Y0375D03*
X044Y037D03*
X04425Y0365D03*
X044Y036D03*
X0435Y042D03*
X04375Y0415D03*
X0435Y041D03*
X04375Y0405D03*
X0435Y04D03*
X04375Y0395D03*
X0435Y039D03*
X04375Y0385D03*
X0435Y038D03*
X04375Y0375D03*
X0435Y037D03*
X04375Y0365D03*
X0435Y036D03*
X043Y042D03*
X04325Y0415D03*
X043Y041D03*
X04325Y0405D03*
X043Y04D03*
X04325Y0395D03*
X043Y038D03*
X04325Y0375D03*
X043Y037D03*
X04325Y0365D03*
X043Y036D03*
X0425Y042D03*
X04275Y0415D03*
X0425Y041D03*
X04275Y0405D03*
X0425Y04D03*
X04275Y0395D03*
X0425Y039D03*
Y038D03*
X04275Y0375D03*
X0425Y037D03*
X04275Y0365D03*
X0425Y036D03*
X042Y042D03*
X04225Y0415D03*
X042Y041D03*
X04225Y0405D03*
X042Y04D03*
X04225Y0395D03*
X042Y039D03*
X04225Y0385D03*
X042Y038D03*
X04225Y0375D03*
X042Y037D03*
X04225Y0365D03*
X042Y036D03*
X0415Y042D03*
X04175Y0415D03*
X0415Y041D03*
X04175Y0405D03*
X0415Y04D03*
X04175Y0395D03*
X0415Y039D03*
X04175Y0385D03*
X0415Y038D03*
X04175Y0375D03*
X0415Y037D03*
X04175Y0365D03*
X0415Y036D03*
X041Y042D03*
X04125Y0415D03*
X041Y041D03*
X04125Y0405D03*
X041Y04D03*
X04125Y0395D03*
X041Y039D03*
X04125Y0385D03*
X041Y038D03*
X04125Y0375D03*
X041Y037D03*
X04125Y0365D03*
X041Y036D03*
X0405Y042D03*
X04075Y0415D03*
X0405Y041D03*
X04075Y0405D03*
X0405Y04D03*
X04075Y0395D03*
X0405Y039D03*
X04075Y0385D03*
X0405Y038D03*
X04075Y0375D03*
X0405Y037D03*
X04075Y0365D03*
X0405Y036D03*
X04Y042D03*
X04025Y0415D03*
X04Y041D03*
X04025Y0405D03*
X04Y04D03*
X04025Y0395D03*
X04Y039D03*
X04025Y0385D03*
X04Y038D03*
X04025Y0375D03*
X04Y037D03*
X04025Y0365D03*
X04Y036D03*
X0395Y042D03*
X03975Y0415D03*
X0395Y041D03*
X03975Y0405D03*
X0395Y04D03*
X03975Y0395D03*
X0395Y039D03*
X03975Y0385D03*
X0395Y038D03*
X03975Y0375D03*
X0395Y037D03*
X03975Y0365D03*
X0395Y036D03*
X039Y042D03*
X03925Y0415D03*
X039Y041D03*
X03925Y0405D03*
X039Y04D03*
X03925Y0395D03*
X039Y039D03*
X03925Y0385D03*
X039Y038D03*
X03925Y0375D03*
X039Y037D03*
X03925Y0365D03*
X039Y036D03*
X0385Y042D03*
X03875Y0415D03*
X0385Y041D03*
X03875Y0405D03*
X0385Y04D03*
X03875Y0395D03*
X0385Y039D03*
X03875Y0385D03*
X0385Y038D03*
X03875Y0375D03*
X0385Y037D03*
X03875Y0365D03*
X0385Y036D03*
X038Y042D03*
X03825Y0415D03*
X038Y041D03*
X03825Y0405D03*
X038Y04D03*
X03825Y0395D03*
X038Y039D03*
X03825Y0385D03*
X038Y038D03*
X03825Y0375D03*
X038Y037D03*
X03825Y0365D03*
X038Y036D03*
X0375Y042D03*
X03775Y0415D03*
X0375Y041D03*
X03775Y0405D03*
X0375Y04D03*
X03775Y0395D03*
X0375Y039D03*
X03775Y0385D03*
X0375Y038D03*
X03775Y0375D03*
X0375Y037D03*
X03775Y0365D03*
X0375Y036D03*
X037Y042D03*
X03725Y0415D03*
X037Y041D03*
X03725Y0405D03*
X037Y04D03*
X03725Y0395D03*
X037Y039D03*
X03725Y0385D03*
X037Y038D03*
X03725Y0375D03*
X037Y037D03*
X03725Y0365D03*
X037Y036D03*
X0365Y042D03*
X03675Y0415D03*
X0365Y041D03*
X03675Y0405D03*
X0365Y04D03*
X03675Y0395D03*
X0365Y038D03*
X03675Y0375D03*
X0365Y037D03*
X03675Y0365D03*
X0365Y036D03*
X04699Y0367D03*
X029Y04D03*
X02925Y0395D03*
X029Y038D03*
X02925Y0375D03*
X029Y037D03*
X02925Y0365D03*
X029Y036D03*
X0285Y041D03*
X02875Y0405D03*
X0285Y04D03*
X02875Y0395D03*
X0285Y039D03*
Y038D03*
X02875Y0375D03*
X0285Y037D03*
X02875Y0365D03*
X0285Y036D03*
X028Y041D03*
X02825Y0405D03*
X028Y04D03*
X02825Y0395D03*
X028Y039D03*
X02825Y0385D03*
X028Y038D03*
X02825Y0375D03*
X028Y037D03*
X02825Y0365D03*
X028Y036D03*
X02775Y0415D03*
X0275Y041D03*
X02775Y0405D03*
X0275Y04D03*
X02775Y0395D03*
X0275Y039D03*
X02775Y0385D03*
X0275Y038D03*
X02775Y0375D03*
X0275Y037D03*
X02775Y0365D03*
X0275Y036D03*
X02725Y0415D03*
X027Y041D03*
X02725Y0405D03*
X027Y04D03*
X02725Y0395D03*
X027Y039D03*
X02725Y0385D03*
X027Y038D03*
X02725Y0375D03*
X027Y037D03*
X02725Y0365D03*
X027Y036D03*
X02675Y0415D03*
X0265Y041D03*
X02675Y0405D03*
X0265Y04D03*
X02675Y0395D03*
X0265Y039D03*
X02675Y0385D03*
X0265Y038D03*
X02675Y0375D03*
X0265Y037D03*
X02675Y0365D03*
X0265Y036D03*
X02625Y0415D03*
X026Y041D03*
X02625Y0405D03*
X026Y04D03*
X02625Y0395D03*
X026Y039D03*
X02625Y0385D03*
X026Y038D03*
X02625Y0375D03*
X026Y037D03*
X02625Y0365D03*
X026Y036D03*
X0255Y042D03*
X02575Y0415D03*
X0255Y041D03*
X02575Y0405D03*
X0255Y04D03*
X02575Y0395D03*
X0255Y039D03*
X02575Y0385D03*
X0255Y038D03*
X02575Y0375D03*
X0255Y037D03*
X02575Y0365D03*
X0255Y036D03*
X025Y042D03*
X02525Y0415D03*
X025Y041D03*
X02525Y0405D03*
X025Y04D03*
X02525Y0395D03*
X025Y039D03*
X02525Y0385D03*
X025Y038D03*
X02525Y0375D03*
X025Y037D03*
X02525Y0365D03*
X025Y036D03*
X0245Y042D03*
X02475Y0415D03*
X0245Y041D03*
X02475Y0405D03*
X0245Y04D03*
X02475Y0395D03*
X0245Y039D03*
X02475Y0385D03*
X0245Y038D03*
X02475Y0375D03*
X0245Y037D03*
X02475Y0365D03*
X0245Y036D03*
X024Y042D03*
X02425Y0415D03*
X024Y041D03*
X02425Y0405D03*
X024Y04D03*
X02425Y0395D03*
X024Y039D03*
X02425Y0385D03*
X024Y038D03*
X02425Y0375D03*
X024Y037D03*
X02425Y0365D03*
X024Y036D03*
X0235Y042D03*
X02375Y0415D03*
Y0405D03*
X0235Y04D03*
X02375Y0395D03*
X0235Y039D03*
X02375Y0385D03*
X0235Y038D03*
X02375Y0375D03*
Y0365D03*
X0235Y036D03*
X023Y042D03*
X02325Y0405D03*
X023Y04D03*
X02325Y0395D03*
X023Y039D03*
X02325Y0385D03*
X023Y036D03*
X0225Y042D03*
X02275Y0405D03*
X0225Y04D03*
X02275Y0395D03*
X0225Y039D03*
X02275Y0385D03*
X0225Y036D03*
X022Y042D03*
X02225Y0415D03*
X022Y041D03*
X02225Y0405D03*
X022Y04D03*
X02225Y0395D03*
X022Y039D03*
X02225Y0385D03*
X022Y038D03*
X02225Y0365D03*
X022Y036D03*
X05225Y0475D03*
X052Y047D03*
X05225Y0465D03*
X052Y046D03*
X05225Y0455D03*
X052Y045D03*
X05225Y0445D03*
X052Y044D03*
X05225Y0435D03*
X052Y043D03*
X05175Y0465D03*
X0515Y046D03*
X05175Y0455D03*
X0515Y045D03*
X05175Y0445D03*
X0515Y044D03*
X05175Y0435D03*
X05125Y0465D03*
X051Y046D03*
X05125Y0455D03*
X051Y045D03*
X05125Y0445D03*
X051Y044D03*
X0505Y047D03*
X05075Y0465D03*
X0505Y046D03*
X05075Y0455D03*
X0505Y045D03*
X05075Y0445D03*
X0505Y044D03*
X05Y048D03*
X05025Y0475D03*
X05Y047D03*
X05025Y0465D03*
X05Y046D03*
X05025Y0455D03*
X05Y045D03*
X05025Y0445D03*
X05Y044D03*
X05025Y0435D03*
X05Y043D03*
X0495Y048D03*
X04975Y0475D03*
X0495Y047D03*
X04975Y0465D03*
X0495Y046D03*
X04975Y0455D03*
X0495Y045D03*
X04975Y0445D03*
X0495Y044D03*
X04975Y0435D03*
X0495Y043D03*
X049Y048D03*
X04925Y0475D03*
X049Y047D03*
X04925Y0465D03*
X049Y046D03*
X04925Y0455D03*
X049Y045D03*
X04925Y0445D03*
X049Y044D03*
X04925Y0435D03*
X049Y043D03*
X0485Y048D03*
X04875Y0475D03*
X0485Y047D03*
X04875Y0465D03*
X0485Y046D03*
X04875Y0455D03*
X0485Y045D03*
X04875Y0445D03*
X0485Y044D03*
X04875Y0435D03*
X0485Y043D03*
X048Y048D03*
X04825Y0475D03*
X048Y047D03*
X04825Y0465D03*
X048Y046D03*
X04825Y0455D03*
X048Y045D03*
X04825Y0445D03*
X048Y044D03*
X04825Y0435D03*
X0475Y048D03*
X04775Y0475D03*
X0475Y047D03*
X04775Y0465D03*
X0475Y046D03*
X04775Y0455D03*
X0475Y045D03*
X04775Y0445D03*
X0475Y044D03*
X04775Y0435D03*
X0475Y043D03*
X047Y048D03*
X04725Y0475D03*
X047Y047D03*
X04725Y0465D03*
X047Y046D03*
X04725Y0455D03*
X047Y045D03*
X04725Y0445D03*
X047Y044D03*
X0465Y048D03*
X04675Y0475D03*
X0465Y047D03*
X04675Y0465D03*
X0465Y046D03*
X04675Y0455D03*
X0465Y045D03*
X04675Y0445D03*
X0465Y044D03*
Y043D03*
X046Y048D03*
X04625Y0475D03*
X046Y047D03*
X04625Y0465D03*
X046Y046D03*
X04625Y0455D03*
X046Y045D03*
X04625Y0445D03*
X046Y044D03*
X04625Y0435D03*
X046Y043D03*
X0455Y048D03*
X04575Y0475D03*
X0455Y047D03*
X04575Y0465D03*
X0455Y046D03*
X04575Y0455D03*
X0455Y045D03*
X04575Y0445D03*
X0455Y044D03*
X04575Y0435D03*
X0455Y043D03*
X045Y048D03*
X04525Y0475D03*
X045Y047D03*
X04525Y0465D03*
X045Y046D03*
X04525Y0455D03*
X045Y045D03*
X04525Y0445D03*
X045Y044D03*
X04525Y0435D03*
X045Y043D03*
X0445Y048D03*
X04475Y0475D03*
X0445Y047D03*
X04475Y0465D03*
X0445Y046D03*
X04475Y0455D03*
X0445Y045D03*
X04475Y0445D03*
X0445Y044D03*
X04475Y0435D03*
X0445Y043D03*
X044Y048D03*
X04425Y0475D03*
X044Y047D03*
X04425Y0465D03*
X044Y046D03*
X04425Y0455D03*
X044Y045D03*
X04425Y0445D03*
X044Y044D03*
X04425Y0435D03*
X044Y043D03*
X0435Y048D03*
X04375Y0475D03*
X0435Y047D03*
X04375Y0465D03*
X0435Y046D03*
X04375Y0455D03*
X0435Y045D03*
X04375Y0445D03*
X0435Y044D03*
X04375Y0435D03*
X0435Y043D03*
X043Y048D03*
X04325Y0475D03*
X043Y047D03*
X04325Y0465D03*
Y0455D03*
X043Y045D03*
X04325Y0445D03*
X043Y044D03*
X04325Y0435D03*
X043Y043D03*
X0425Y048D03*
X04275Y0475D03*
X0425Y047D03*
X04275Y0455D03*
X0425Y045D03*
X04275Y0445D03*
X0425Y044D03*
X04275Y0435D03*
X0425Y043D03*
X042Y048D03*
X04225Y0475D03*
X042Y047D03*
X04225Y0465D03*
X042Y046D03*
X04225Y0455D03*
X042Y045D03*
X04225Y0445D03*
X042Y044D03*
X04225Y0435D03*
X042Y043D03*
X0415Y048D03*
X04175Y0475D03*
X0415Y047D03*
X04175Y0465D03*
X0415Y046D03*
X04175Y0455D03*
X0415Y045D03*
X04175Y0445D03*
X0415Y044D03*
X04175Y0435D03*
X0415Y043D03*
X041Y048D03*
X04125Y0475D03*
X041Y047D03*
X04125Y0465D03*
X041Y046D03*
X04125Y0455D03*
X041Y045D03*
X04125Y0445D03*
X041Y044D03*
X04125Y0435D03*
X041Y043D03*
X0405Y048D03*
X04075Y0475D03*
X0405Y047D03*
X04075Y0465D03*
X0405Y046D03*
X04075Y0455D03*
X0405Y045D03*
X04075Y0445D03*
X0405Y044D03*
X04075Y0435D03*
X0405Y043D03*
X04Y048D03*
X04025Y0475D03*
X04Y047D03*
X04025Y0465D03*
X04Y046D03*
X04025Y0455D03*
X04Y045D03*
X04025Y0445D03*
X04Y044D03*
X04025Y0435D03*
X04Y043D03*
X0395Y048D03*
X03975Y0475D03*
X0395Y047D03*
X03975Y0465D03*
X0395Y046D03*
X03975Y0455D03*
X0395Y045D03*
X03975Y0445D03*
X0395Y044D03*
X03975Y0435D03*
X0395Y043D03*
X039Y048D03*
X03925Y0475D03*
X039Y047D03*
X03925Y0465D03*
X039Y046D03*
X03925Y0455D03*
X039Y045D03*
X03925Y0445D03*
X039Y044D03*
X03925Y0435D03*
X039Y043D03*
X0385Y048D03*
X03875Y0475D03*
X0385Y047D03*
X03875Y0465D03*
X0385Y046D03*
X03875Y0455D03*
X0385Y045D03*
X03875Y0445D03*
X0385Y044D03*
X03875Y0435D03*
X0385Y043D03*
X038Y048D03*
X03825Y0475D03*
X038Y047D03*
X03825Y0465D03*
X038Y046D03*
X03825Y0455D03*
X038Y045D03*
X03825Y0445D03*
X038Y044D03*
X03825Y0435D03*
X038Y043D03*
X0375Y048D03*
X03775Y0475D03*
X0375Y047D03*
X03775Y0465D03*
X0375Y046D03*
X03775Y0455D03*
X0375Y045D03*
X03775Y0445D03*
X0375Y044D03*
X03775Y0435D03*
X0375Y043D03*
X037Y048D03*
X03725Y0475D03*
X037Y047D03*
X03725Y0465D03*
X037Y046D03*
X03725Y0455D03*
X037Y045D03*
X03725Y0445D03*
X037Y044D03*
X03725Y0435D03*
X037Y043D03*
X0365Y048D03*
X03675Y0475D03*
X0365Y047D03*
X03675Y0465D03*
X0365Y046D03*
X03675Y0455D03*
X0365Y045D03*
X03675Y0445D03*
X0365Y044D03*
X03675Y0435D03*
X0365Y043D03*
X036Y048D03*
X03625Y0475D03*
X036Y047D03*
X03625Y0465D03*
X036Y046D03*
X03625Y0455D03*
X036Y045D03*
X03625Y0445D03*
X036Y044D03*
X03625Y0435D03*
X036Y043D03*
Y042D03*
Y041D03*
Y04D03*
Y039D03*
Y038D03*
Y037D03*
Y036D03*
X0355Y048D03*
X03575Y0475D03*
X0355Y047D03*
X03575Y0465D03*
X0355Y046D03*
X03575Y0455D03*
X0355Y045D03*
X03575Y0445D03*
X0355Y044D03*
X03575Y0435D03*
X0355Y043D03*
X03575Y0425D03*
X0355Y042D03*
X03575Y0415D03*
X0355Y041D03*
X03575Y0405D03*
X0355Y04D03*
X03575Y0395D03*
Y0375D03*
Y0365D03*
X035Y048D03*
X03525Y0475D03*
X035Y047D03*
X03525Y0465D03*
X035Y046D03*
X03525Y0455D03*
X035Y045D03*
X03525Y0445D03*
X035Y044D03*
X03525Y0435D03*
X035Y043D03*
X03525Y0425D03*
X035Y042D03*
X03525Y0415D03*
X035Y041D03*
X03525Y0405D03*
X035Y04D03*
X03525Y0395D03*
X035Y038D03*
Y037D03*
X0345Y048D03*
X03475Y0475D03*
X0345Y047D03*
X03475Y0465D03*
X0345Y046D03*
X03475Y0455D03*
X0345Y045D03*
X03475Y0445D03*
X0345Y044D03*
X03475Y0435D03*
X0345Y043D03*
X03475Y0425D03*
X0345Y042D03*
X03475Y0415D03*
X0345Y041D03*
X03475Y0405D03*
X0345Y04D03*
X03475Y0395D03*
Y0385D03*
X0345Y038D03*
X03475Y0375D03*
X0345Y037D03*
Y036D03*
X034Y048D03*
X03425Y0475D03*
X034Y047D03*
X03425Y0465D03*
X034Y046D03*
X03425Y0455D03*
X034Y045D03*
X03425Y0445D03*
X034Y044D03*
X03425Y0435D03*
X034Y043D03*
X03425Y0425D03*
X034Y042D03*
X03425Y0415D03*
X034Y041D03*
X03425Y0405D03*
X034Y04D03*
X03425Y0395D03*
X034Y038D03*
X03425Y0375D03*
X034Y037D03*
X03425Y0365D03*
X034Y036D03*
X0335Y048D03*
X03375Y0475D03*
X0335Y047D03*
X03375Y0465D03*
X0335Y046D03*
X03375Y0455D03*
X0335Y045D03*
X03375Y0445D03*
X0335Y044D03*
X03375Y0435D03*
X0335Y043D03*
X03375Y0425D03*
X0335Y042D03*
X03375Y0415D03*
X0335Y041D03*
X03375Y0405D03*
X0335Y04D03*
X03375Y0395D03*
X0335Y039D03*
Y038D03*
X03375Y0375D03*
X0335Y037D03*
X03375Y0365D03*
X0335Y036D03*
X033Y048D03*
X03325Y0475D03*
X033Y047D03*
X03325Y0465D03*
X033Y046D03*
X03325Y0455D03*
X033Y045D03*
X03325Y0445D03*
X033Y044D03*
X03325Y0435D03*
X033Y043D03*
X03325Y0425D03*
X033Y042D03*
X03325Y0415D03*
X033Y041D03*
X03325Y0405D03*
X033Y04D03*
X03325Y0395D03*
X033Y039D03*
X03325Y0385D03*
X033Y038D03*
X03325Y0375D03*
X033Y037D03*
X03325Y0365D03*
X033Y036D03*
X0325Y048D03*
X03275Y0475D03*
X0325Y047D03*
X03275Y0465D03*
X0325Y046D03*
X03275Y0455D03*
X0325Y045D03*
X03275Y0445D03*
X0325Y044D03*
X03275Y0435D03*
X0325Y043D03*
X03275Y0425D03*
X0325Y042D03*
X03275Y0415D03*
X0325Y041D03*
X03275Y0405D03*
X0325Y04D03*
X03275Y0395D03*
X0325Y039D03*
X03275Y0385D03*
X0325Y038D03*
X03275Y0375D03*
X0325Y037D03*
X03275Y0365D03*
X0325Y036D03*
X032Y048D03*
X03225Y0475D03*
X032Y047D03*
X03225Y0465D03*
X032Y046D03*
X03225Y0455D03*
X032Y045D03*
X03225Y0445D03*
X032Y044D03*
X03225Y0435D03*
X032Y043D03*
X03225Y0425D03*
X032Y042D03*
X03225Y0415D03*
X032Y041D03*
X03225Y0405D03*
X032Y04D03*
X03225Y0395D03*
X032Y039D03*
X03225Y0385D03*
X032Y038D03*
X03225Y0375D03*
X032Y037D03*
X03225Y0365D03*
X032Y036D03*
X0315Y048D03*
X03175Y0475D03*
X0315Y047D03*
X03175Y0465D03*
X0315Y046D03*
X03175Y0455D03*
X0315Y045D03*
X03175Y0445D03*
X0315Y044D03*
X03175Y0435D03*
X0315Y043D03*
X03175Y0425D03*
X0315Y042D03*
X03175Y0415D03*
X0315Y041D03*
X03175Y0405D03*
X0315Y04D03*
X03175Y0395D03*
X0315Y039D03*
X03175Y0385D03*
X0315Y038D03*
X03175Y0375D03*
X0315Y037D03*
X03175Y0365D03*
X0315Y036D03*
X031Y048D03*
X03125Y0475D03*
X031Y047D03*
X03125Y0465D03*
X031Y046D03*
X03125Y0455D03*
X031Y045D03*
X03125Y0445D03*
X031Y044D03*
X03125Y0435D03*
X031Y043D03*
X03125Y0425D03*
X031Y042D03*
X03125Y0415D03*
X031Y041D03*
X03125Y0405D03*
X031Y04D03*
X03125Y0395D03*
X031Y039D03*
X03125Y0385D03*
X031Y038D03*
X03125Y0375D03*
X031Y037D03*
X03125Y0365D03*
X031Y036D03*
X0305Y048D03*
X03075Y0475D03*
X0305Y047D03*
X03075Y0465D03*
X0305Y046D03*
X03075Y0455D03*
X0305Y045D03*
X03075Y0445D03*
X0305Y044D03*
X03075Y0435D03*
X0305Y043D03*
X03075Y0425D03*
X0305Y042D03*
X03075Y0415D03*
X0305Y041D03*
X03075Y0405D03*
X0305Y04D03*
X03075Y0395D03*
X0305Y039D03*
X03075Y0385D03*
X0305Y038D03*
X03075Y0375D03*
X0305Y037D03*
X03075Y0365D03*
X0305Y036D03*
X03Y048D03*
X03025Y0475D03*
X03Y047D03*
X03025Y0465D03*
X03Y046D03*
X03025Y0455D03*
X03Y045D03*
X03025Y0445D03*
X03Y044D03*
X03025Y0435D03*
X03Y043D03*
X03025Y0425D03*
X03Y042D03*
X03025Y0415D03*
X03Y041D03*
X03025Y0405D03*
X03Y04D03*
X03025Y0395D03*
X03Y039D03*
X03025Y0385D03*
X03Y038D03*
X03025Y0375D03*
X03Y037D03*
X03025Y0365D03*
X03Y036D03*
X0295Y048D03*
X02975Y0475D03*
X0295Y047D03*
X02975Y0465D03*
Y0455D03*
X0295Y045D03*
X02975Y0445D03*
X0295Y044D03*
X02975Y0435D03*
X0295Y043D03*
X02975Y0425D03*
X0295Y042D03*
X02975Y0415D03*
X0295Y041D03*
X02975Y0405D03*
Y0395D03*
Y0385D03*
Y0375D03*
Y0365D03*
X029Y048D03*
X02925Y0475D03*
X029Y047D03*
X02925Y0455D03*
X029Y045D03*
X02925Y0445D03*
X029Y044D03*
X02925Y0435D03*
X029Y043D03*
X02925Y0425D03*
X029Y042D03*
X02925Y0415D03*
X029Y041D03*
X0285Y048D03*
X02875Y0475D03*
X0285Y047D03*
Y046D03*
X02875Y0455D03*
X0285Y045D03*
X02875Y0445D03*
X0285Y044D03*
X02875Y0435D03*
X0285Y043D03*
X02875Y0425D03*
X0285Y042D03*
X02875Y0415D03*
X028Y048D03*
X02825Y0475D03*
X028Y047D03*
X02825Y0465D03*
X028Y046D03*
X02825Y0455D03*
X028Y045D03*
X02825Y0445D03*
X028Y044D03*
X02825Y0435D03*
X028Y043D03*
X02825Y0425D03*
X028Y042D03*
X0275Y048D03*
X02775Y0475D03*
X0275Y047D03*
X02775Y0465D03*
X0275Y046D03*
X02775Y0455D03*
X0275Y045D03*
X02775Y0445D03*
X0275Y044D03*
X02775Y0435D03*
X0275Y043D03*
X02775Y0425D03*
X027Y048D03*
X02725Y0475D03*
X027Y047D03*
X02725Y0465D03*
X027Y046D03*
X02725Y0455D03*
X027Y045D03*
X02725Y0445D03*
X027Y044D03*
X02725Y0435D03*
X027Y043D03*
X0265Y048D03*
X02675Y0475D03*
X0265Y047D03*
X02675Y0465D03*
X0265Y046D03*
X02675Y0455D03*
X0265Y045D03*
X02675Y0445D03*
X0265Y044D03*
X02675Y0435D03*
X0265Y043D03*
X026Y048D03*
X02625Y0475D03*
X026Y047D03*
X02625Y0465D03*
X026Y046D03*
X02625Y0455D03*
X026Y045D03*
X02625Y0445D03*
X026Y044D03*
X02625Y0435D03*
X026Y043D03*
X0255Y048D03*
X02575Y0475D03*
X0255Y047D03*
X02575Y0465D03*
X0255Y046D03*
X02575Y0455D03*
X0255Y045D03*
X02575Y0445D03*
X0255Y044D03*
X02575Y0435D03*
X0255Y043D03*
X025Y048D03*
X02525Y0475D03*
X025Y047D03*
X02525Y0465D03*
X025Y046D03*
X02525Y0455D03*
X025Y045D03*
X02525Y0445D03*
X025Y044D03*
X02525Y0435D03*
X025Y043D03*
X0245Y048D03*
X02475Y0475D03*
X0245Y047D03*
X02475Y0465D03*
X0245Y046D03*
X02475Y0455D03*
X0245Y045D03*
X02475Y0445D03*
X0245Y044D03*
X02475Y0435D03*
X0245Y043D03*
X024Y048D03*
X02425Y0475D03*
X024Y047D03*
X02425Y0465D03*
X024Y046D03*
X02425Y0455D03*
X024Y045D03*
X02425Y0445D03*
X024Y044D03*
X02425Y0435D03*
X024Y043D03*
X02375Y0475D03*
X0235Y047D03*
X02375Y0465D03*
X0235Y046D03*
X02375Y0455D03*
X0235Y045D03*
X02375Y0445D03*
X0235Y044D03*
X02375Y0435D03*
X02325Y0465D03*
X023Y046D03*
X02325Y0455D03*
X023Y045D03*
X02325Y0445D03*
X023Y044D03*
X02275Y0465D03*
X0225Y046D03*
X02275Y0455D03*
X0225Y045D03*
X02275Y0445D03*
X0225Y044D03*
X022Y048D03*
Y047D03*
X02225Y0465D03*
X022Y046D03*
X02225Y0455D03*
X022Y045D03*
X02225Y0445D03*
X022Y044D03*
X02225Y0435D03*
X022Y043D03*
M02*