%FSTAX23Y23*%
%MOIN*%
%SFA1B1*%

%IPPOS*%
%ADD27R,0.037400X0.031500*%
%ADD36C,0.060000*%
%ADD37O,0.065000X0.075000*%
%ADD38C,0.075000*%
%ADD39O,0.075000X0.065000*%
%ADD40C,0.027600*%
%ADD41R,0.160000X0.100000*%
%ADD42R,0.100000X0.160000*%
%ADD43R,0.075000X0.065000*%
%ADD44R,0.060000X0.086000*%
%ADD45O,0.060000X0.086000*%
%ADD46R,0.075000X0.075000*%
%ADD47O,0.090000X0.065000*%
%ADD48R,0.090000X0.065000*%
%ADD49C,0.138000*%
%LNpcb_bug-1*%
%LPD*%
G54D27*
X03295Y0264D03*
Y02585D03*
X03153Y0264D03*
Y02585D03*
X03012Y0264D03*
Y02585D03*
G54D36*
X02875Y0242D03*
X02775D03*
X02676Y02421D03*
X02575Y0242D03*
X02576Y02523D03*
X02677Y02521D03*
X02776D03*
X02876D03*
G54D37*
X03806Y02487D03*
X03705D03*
X03607D03*
X03506D03*
G54D38*
X02816Y03466D03*
Y03666D03*
X02373Y02632D03*
X02573D03*
X02373Y02882D03*
X02374Y02991D03*
X02574D03*
X02374Y03241D03*
G54D39*
X03811Y03834D03*
Y03733D03*
Y03635D03*
Y03534D03*
X03961Y03006D03*
Y02905D03*
Y02807D03*
Y02706D03*
X03814Y03006D03*
Y02905D03*
Y02807D03*
Y02706D03*
Y03291D03*
Y03193D03*
X03961Y03291D03*
Y03193D03*
G54D40*
X039Y0423D03*
Y04067D03*
G54D41*
X02596Y04541D03*
Y04791D03*
G54D42*
X02396Y04641D03*
G54D43*
X03814Y03392D03*
X03961D03*
G54D44*
X03084Y04118D03*
G54D45*
X02984Y04118D03*
X02885D03*
X03084Y04018D03*
X02884D03*
X02984D03*
G54D46*
X02573Y02882D03*
X02574Y03241D03*
G54D47*
X02537Y03412D03*
Y03612D03*
Y03812D03*
Y03912D03*
Y04012D03*
Y03712D03*
Y03512D03*
G54D48*
X02537Y04112D03*
G54D49*
X02417Y04342D03*
X0395Y04992D03*
X03967Y02484D03*
X02417D03*
M02*