%FSTAX23Y23*%
%MOIN*%
%SFA1B1*%

%IPPOS*%
%ADD16R,0.031500X0.037400*%
%ADD17R,0.123200X0.123200*%
%ADD18O,0.009800X0.041300*%
%ADD19O,0.041300X0.009800*%
%ADD20O,0.011800X0.066900*%
%ADD21O,0.066900X0.011800*%
%ADD22R,0.053100X0.015700*%
%ADD23R,0.074800X0.070900*%
%ADD24R,0.074800X0.074800*%
%ADD25R,0.050000X0.055000*%
%ADD26R,0.031500X0.031500*%
%ADD27R,0.037400X0.031500*%
%ADD28R,0.031500X0.031500*%
%ADD29R,0.033500X0.047200*%
%ADD30R,0.037400X0.082700*%
%ADD31R,0.192900X0.244100*%
%ADD32R,0.094500X0.039400*%
%ADD33R,0.094500X0.129900*%
%ADD34R,0.070900X0.173200*%
%ADD35R,0.055000X0.050000*%
%LNpcb_bug-1*%
%LPD*%
G54D16*
X03579Y03719D03*
X03634D03*
Y03656D03*
X03579D03*
X02648Y03812D03*
X02703D03*
X02648Y03912D03*
X02703D03*
X03634Y03782D03*
X03579D03*
X03845Y03933D03*
X0379D03*
G54D17*
X03663Y04149D03*
G54D18*
X03722Y04059D03*
X03702D03*
X03683D03*
X03663D03*
X03643D03*
X03623D03*
X03604D03*
Y0424D03*
X03623D03*
X03643D03*
X03663D03*
X03683D03*
X03702D03*
X03722D03*
G54D19*
X03572Y0409D03*
Y0411D03*
Y0413D03*
Y04149D03*
Y04169D03*
Y04189D03*
Y04208D03*
X03753D03*
Y04189D03*
Y04169D03*
Y04149D03*
Y0413D03*
Y0411D03*
Y0409D03*
G54D20*
X0312Y03739D03*
X0314D03*
X03159D03*
X03179D03*
X03199D03*
X03218D03*
X03238D03*
X03258D03*
X03278D03*
X03297D03*
X03317D03*
X03337D03*
X03356D03*
X03376D03*
X03396D03*
X03415D03*
Y03278D03*
X03396D03*
X03376D03*
X03356D03*
X03337D03*
X03317D03*
X03297D03*
X03278D03*
X03258D03*
X03238D03*
X03218D03*
X03199D03*
X03179D03*
X03159D03*
X0314D03*
X0312D03*
G54D21*
X03498Y03656D03*
Y03636D03*
Y03617D03*
Y03597D03*
Y03577D03*
Y03558D03*
Y03538D03*
Y03518D03*
Y03499D03*
Y03479D03*
Y03459D03*
Y03439D03*
Y0342D03*
Y034D03*
Y0338D03*
Y03361D03*
X03037D03*
Y0338D03*
Y034D03*
Y0342D03*
Y03439D03*
Y03459D03*
Y03479D03*
Y03499D03*
Y03518D03*
Y03538D03*
Y03558D03*
Y03577D03*
Y03597D03*
Y03617D03*
Y03636D03*
Y03656D03*
G54D22*
X03891Y04174D03*
Y04149D03*
Y04123D03*
Y042D03*
Y04097D03*
G54D23*
X03996Y04306D03*
Y03991D03*
G54D24*
X03996Y04196D03*
Y04101D03*
G54D25*
X03728Y04581D03*
X03818D03*
X03728Y04505D03*
X03818D03*
G54D26*
X03889Y04506D03*
X03952D03*
X0379Y03996D03*
X03727D03*
X03554Y03995D03*
X03617D03*
G54D27*
X04025Y04506D03*
Y04561D03*
X03146Y03192D03*
Y03137D03*
X03082Y03192D03*
Y03137D03*
X03063Y03815D03*
Y0387D03*
X02999Y03815D03*
Y0387D03*
X03805Y0263D03*
Y02575D03*
X03734Y0263D03*
Y02575D03*
X0341Y03202D03*
Y03147D03*
X03536D03*
Y03202D03*
X03473Y03147D03*
Y03202D03*
X02672Y03666D03*
Y03611D03*
X02674Y03463D03*
Y03518D03*
X03553Y04301D03*
Y04356D03*
X03621Y04301D03*
Y04356D03*
X03687Y04301D03*
Y04356D03*
X03482Y0405D03*
Y03995D03*
X02669Y02673D03*
Y02728D03*
Y0284D03*
Y02785D03*
X02666Y03034D03*
Y03089D03*
Y03201D03*
Y03146D03*
X02716Y04037D03*
Y04092D03*
X02649Y04037D03*
Y04092D03*
G54D28*
X03296Y02641D03*
Y02578D03*
X03155Y02641D03*
Y02578D03*
X03013Y02641D03*
Y02578D03*
G54D29*
X03334Y02411D03*
X03297Y02509D03*
X03371Y02509D03*
X03192Y02411D03*
X03155Y02509D03*
X0323Y02509D03*
X03051Y02411D03*
X03014Y02509D03*
X03088Y02509D03*
G54D30*
X03506Y0487D03*
X03326D03*
G54D31*
X03416Y04605D03*
G54D32*
X03734Y0486D03*
Y04769D03*
Y04679D03*
G54D33*
X03962Y04769D03*
G54D34*
X02978Y0459D03*
Y04881D03*
G54D35*
X03601Y04888D03*
Y04798D03*
X03219Y04795D03*
Y04885D03*
M02*