%FSTAX23Y23*%
%MOIN*%
%SFA1B1*%

%IPPOS*%
%ADD10C,0.009800*%
%ADD11C,0.007000*%
%ADD12C,0.006000*%
%ADD13C,0.007900*%
%ADD14C,0.004000*%
%ADD15C,0.005000*%
%LNpcb_bug-1*%
%LPD*%
G36*
X03084Y04184D02*
X03059Y04209D01*
X03109*
X03084Y04184*
G37*
G36*
X02462Y04112D02*
X02437Y04087D01*
Y04137*
X02462Y04112*
G37*
G36*
X03755Y03834D02*
X0373Y03809D01*
Y03859*
X03755Y03834*
G37*
G36*
X02855Y03554D02*
X02776D01*
Y03577*
X02855*
Y03554*
G37*
G36*
X03905Y03392D02*
X0388Y03367D01*
Y03417*
X03905Y03392*
G37*
G36*
X03758D02*
X03733Y03367D01*
Y03417*
X03758Y03392*
G37*
G36*
X03905Y03006D02*
X0388Y02981D01*
Y03031*
X03905Y03006*
G37*
G36*
X03758D02*
X03733Y02981D01*
Y03031*
X03758Y03006*
G37*
G36*
X03419Y02965D02*
X03395D01*
Y02957*
X03355*
Y02965*
X03379*
Y02973*
X03419*
Y02965*
G37*
G36*
X03291Y02989D02*
Y02981D01*
X03307*
Y02973*
X03315*
Y02965*
Y02957*
X03355*
Y02949*
X03331*
Y02941*
X03323*
Y02933*
Y02925*
X03363*
Y02917*
Y02909*
Y02901*
X03379*
Y02893*
X03387*
Y02885*
X03395*
Y02877*
Y02869*
Y02861*
X03387*
Y02853*
X03379*
Y02861*
Y02869*
X03387*
Y02877*
Y02885*
X03379*
Y02893*
X03139*
Y02901*
X03155*
Y02909*
Y02917*
Y02925*
X03187*
Y02933*
Y02941*
Y02949*
Y02957*
X03195*
Y02965*
X03203*
Y02973*
X03211*
Y02965*
Y02957*
X03203*
Y02949*
X03195*
Y02941*
Y02933*
Y02925*
X03315*
Y02933*
Y02941*
Y02949*
Y02957*
X03307*
Y02965*
X03299*
Y02973*
X03211*
Y02981*
X03227*
Y02989*
Y02997*
X03291*
Y02989*
G37*
G36*
X03315Y02869D02*
Y02861D01*
Y02853*
X03307*
Y02861*
Y02869*
X03299*
Y02861*
Y02853*
X03307*
Y02845*
X03291*
Y02853*
Y02861*
X03283*
Y02869*
X03291*
Y02877*
X03315*
Y02869*
G37*
G36*
X03267D02*
X03275D01*
Y02861*
Y02853*
X03267*
Y02861*
Y02869*
X03251*
Y02877*
X03267*
Y02869*
G37*
G36*
X03355D02*
Y02861D01*
Y02853*
Y02845*
X03331*
Y02853*
Y02861*
Y02869*
Y02877*
X03355*
Y02869*
G37*
G36*
X03251Y02861D02*
Y02853D01*
X03267*
Y02845*
X03251*
Y02853*
X03243*
Y02861*
Y02869*
X03251*
Y02861*
G37*
G36*
X03227Y02869D02*
X03211D01*
Y02861*
Y02853*
X03219*
Y02861*
X03227*
Y02853*
Y02845*
X03203*
Y02853*
Y02861*
Y02869*
Y02877*
X03227*
Y02869*
G37*
G36*
X03187D02*
Y02861D01*
Y02853*
Y02845*
X03163*
Y02853*
Y02861*
Y02869*
Y02877*
X03187*
Y02869*
G37*
G36*
X03131Y02877D02*
Y02869D01*
Y02861*
X03139*
Y02853*
X03147*
Y02845*
X03155*
Y02837*
X03363*
Y02829*
X03355*
Y02821*
X03163*
Y02829*
X03155*
Y02837*
X03147*
Y02845*
X03139*
Y02853*
X03131*
Y02861*
X03123*
Y02869*
Y02877*
Y02885*
X03131*
Y02877*
G37*
G36*
X02876Y02581D02*
X02851Y02606D01*
X02901*
X02876Y02581*
G37*
G36*
X03806Y02543D02*
X03781Y02568D01*
X03831*
X03806Y02543*
G37*
G36*
X03067Y02977D02*
X03055Y02956D01*
X02981Y02957*
X02894Y02807*
X02876Y02817*
X02969Y02978*
X03067Y02977*
G37*
G36*
X03034Y0292D02*
X02983D01*
Y02941*
X03034*
Y0292*
G37*
G36*
X03015Y02884D02*
X02964D01*
Y02905*
X03015*
Y02884*
G37*
G36*
X02882Y0287D02*
X0282Y02978D01*
X02944*
X02882Y0287*
G37*
G36*
X03232Y04016D02*
X03211D01*
X03209Y0402*
X03232*
Y04016*
G37*
G36*
X03213Y04012D02*
X0321Y04008D01*
X03196*
X03178Y03978*
X03175Y0398*
X03193Y04013*
X03213Y04012*
G37*
G36*
X03206Y04001D02*
X03196D01*
Y04005*
X03206*
Y04001*
G37*
G36*
X0335Y03997D02*
X03346Y03994D01*
X03339Y04006*
X03326Y03983*
X03357*
Y03978*
X03318*
X03339Y04015*
X0335Y03997*
G37*
G36*
X03202Y03994D02*
X03192D01*
Y03998*
X03202*
Y03994*
G37*
G36*
X03176Y03991D02*
X03163Y04013D01*
X03188*
X03176Y03991*
G37*
G36*
X03365Y03976D02*
X03355Y03994D01*
X03358Y03997*
X03365Y03985*
X03379Y04008*
X03348*
Y04013*
X03386*
X03365Y03976*
G37*
G36*
X03319Y03981D02*
X03315Y03979D01*
X03299Y04006*
X03292Y03993*
X03289Y03998*
X03299Y04015*
X03319Y03981*
G37*
G36*
X03295D02*
X03291Y03979D01*
X03275Y04006*
X03259Y03978*
X03256Y0398*
X03275Y04015*
X03295Y03981*
G37*
G36*
X03285Y03979D02*
X03266D01*
Y03983*
X03285*
Y03979*
G37*
G36*
X03235Y03978D02*
X03232Y0398D01*
X03248Y04008*
X0322*
X03227Y03996*
X03224Y03994*
X03213Y04013*
X03255*
X03235Y03978*
G37*
G36*
X03427Y03994D02*
X03418Y03978D01*
X03414Y0398*
X03423Y03996*
X03427Y03994*
G37*
G36*
X03407Y04008D02*
X03394D01*
X03407Y03985*
X03414Y03996*
X03418Y03994*
X03407Y03976*
X03386Y04012*
X03407*
Y04008*
G37*
%LNpcb_bug-2*%
%LPC*%
G36*
X03283Y02989D02*
X03235D01*
Y02981*
X03283*
Y02989*
G37*
G36*
X03355Y02917D02*
X03163D01*
Y02909*
Y02901*
X03355*
Y02909*
Y02917*
G37*
G36*
X03347Y02869D02*
X03339D01*
Y02861*
Y02853*
X03347*
Y02861*
Y02869*
G37*
G36*
X03179D02*
X03171D01*
Y02861*
Y02853*
X03179*
Y02861*
Y02869*
G37*
G36*
X02907Y02957D02*
X02856D01*
X02882Y02912*
X02907Y02957*
G37*
G36*
X03181Y04008D02*
X03171D01*
X03176Y03999*
X03181Y04008*
G37*
%LNpcb_bug-3*%
%LPD*%
G54D10*
X03798Y04051D02*
D01*
D01*
G75*
G03X03788I-00004J0D01*
G74*G01*
D01*
G75*
G03X03798I00004J0D01*
G74*G01*
X03042Y03684D02*
D01*
D01*
G75*
G03X03032I-00004J0D01*
G74*G01*
D01*
G75*
G03X03042I00004J0D01*
G74*G01*
X03304Y0247D02*
D01*
D01*
G75*
G03X03294I-00004J0D01*
G74*G01*
D01*
G75*
G03X03304I00004J0D01*
G74*G01*
X03162D02*
D01*
D01*
G75*
G03X03152I-00004J0D01*
G74*G01*
D01*
G75*
G03X03162I00004J0D01*
G74*G01*
X03021D02*
D01*
D01*
G75*
G03X03011I-00004J0D01*
G74*G01*
D01*
G75*
G03X03021I00004J0D01*
G74*G01*
X03551Y0487D02*
D01*
D01*
G75*
G03X03541I-00004J0D01*
G74*G01*
D01*
G75*
G03X03551I00004J0D01*
G74*G01*
X03739Y04901D02*
D01*
D01*
G75*
G03X03729I-00004J0D01*
G74*G01*
D01*
G75*
G03X03739I00004J0D01*
G74*G01*
X02926Y04547D02*
D01*
D01*
G75*
G03X02917I-00004J0D01*
G74*G01*
D01*
G75*
G03X02926I00004J0D01*
G74*G01*
G54D11*
X02741Y03457D02*
D01*
D01*
G75*
G03X02891Y03458I00074J0D01*
G74*G01*
Y03671D02*
D01*
D01*
G75*
G03X02741Y0367I-00074J-0D01*
G74*G01*
X02726Y03461D02*
D01*
D01*
G75*
G03X02906Y03461I00089J-00002D01*
G74*G01*
X02906Y03672D02*
D01*
D01*
G75*
G03X02726Y03671I-00089J-0D01*
G74*G01*
X02826Y02472D02*
Y0257D01*
X02525Y02571D02*
X02926D01*
Y02471D02*
Y02571D01*
Y02371D02*
Y02471D01*
X02525Y02371D02*
X02926D01*
X02525D02*
Y02571D01*
X03761Y02438D02*
Y02537D01*
X03456Y02437D02*
Y02537D01*
Y02437D02*
X03856D01*
Y02537*
X03456D02*
X03856D01*
X02891Y03459D02*
Y03669D01*
X02741Y0346D02*
Y0367D01*
X02906Y03461D02*
Y03672D01*
X02726Y03461D02*
Y03671D01*
X02778Y03586D02*
X02853D01*
X02817D02*
Y03616D01*
X02778Y03545D02*
X02852D01*
X02817Y03514D02*
Y03545D01*
X03761Y03789D02*
X0386D01*
X03761Y03484D02*
X03861D01*
Y03884*
X03761D02*
X03861D01*
X03761Y03484D02*
Y03884D01*
X02416Y05091D02*
X02746D01*
X02416Y04546D02*
X02746D01*
Y05091*
X02416Y04546D02*
Y05091D01*
Y05021D02*
X02746D01*
X03911Y02961D02*
X0401D01*
X03911Y02656D02*
X04011D01*
Y03056*
X03911D02*
X04011D01*
X03911Y02656D02*
Y03056D01*
X03764Y02961D02*
X03863D01*
X03764Y02656D02*
X03864D01*
Y03056*
X03764D02*
X03864D01*
X03764Y02656D02*
Y03056D01*
Y03347D02*
X03863D01*
X03764Y03142D02*
X03864D01*
Y03442*
X03764D02*
X03864D01*
X03764Y03142D02*
Y03442D01*
X03911Y03347D02*
X0401D01*
X03911Y03142D02*
X04011D01*
Y03442*
X03911D02*
X04011D01*
X03911Y03142D02*
Y03442D01*
X02831Y03968D02*
Y04168D01*
Y03968D02*
X03134D01*
Y04068*
Y04168*
X02831D02*
X03134D01*
X03036Y04069D02*
Y04168D01*
X02358Y02643D02*
X02359Y02642D01*
X02359Y03002D02*
X0236Y03001D01*
X02477Y04168D02*
X02594D01*
X02477Y0336D02*
Y04168D01*
Y0336D02*
X02594D01*
Y04168*
X02477Y04061D02*
X02593D01*
G54D12*
X02528Y02757D02*
D01*
D01*
G75*
G03X02428I-00050J0D01*
G74*G01*
D01*
G75*
G03X02528I00050J0D01*
G74*G01*
X02529Y03116D02*
D01*
D01*
G75*
G03X02429I-00050J0D01*
G74*G01*
D01*
G75*
G03X02529I00050J0D01*
G74*G01*
X02423Y02867D02*
X02518D01*
X02373Y02682D02*
Y02836D01*
X02423Y02642D02*
X02518D01*
X02573Y02682D02*
Y02837D01*
X02424Y03226D02*
X02519D01*
X02374Y03041D02*
Y03195D01*
X02424Y03001D02*
X02519D01*
X02574Y03041D02*
Y03196D01*
G54D13*
X03743Y04254D02*
X03767D01*
Y04229D02*
Y04254D01*
X03559D02*
X03583D01*
X03559Y04229D02*
Y04254D01*
Y04045D02*
Y0407D01*
Y04045D02*
X03583D01*
X03743D02*
X03767D01*
Y0407*
X03087Y03636D02*
X03146D01*
Y03656*
X03087D02*
X03146D01*
X03415Y03327D02*
X03449Y03361D01*
X03087D02*
X0312Y03327D01*
X03415Y03689D02*
X03449Y03656D01*
X03087D02*
X0312Y03689D01*
Y03327D02*
X03415D01*
X0312Y03689D02*
X03415D01*
X03449Y03361D02*
Y03656D01*
X03087Y03361D02*
Y03656D01*
X03884Y04294D02*
X03947D01*
X03884Y04251D02*
Y04294D01*
Y04003D02*
Y04046D01*
Y04003D02*
X03947D01*
X03536Y04742D02*
Y04776D01*
X03296D02*
X03536D01*
X03296Y04742D02*
Y04776D01*
X03793Y04637D02*
Y04901D01*
X03903Y04637D02*
Y04901D01*
X03793D02*
X03903D01*
X03793Y04637D02*
X03903D01*
X02815Y04899D02*
X02929D01*
X03024D02*
X03142D01*
X02815Y04651D02*
Y04899D01*
X03142Y04651D02*
Y04899D01*
X02894Y04572D02*
X02933D01*
X03024D02*
X03063D01*
X02815Y04651D02*
X02894Y04572D01*
X03063D02*
X03142Y04651D01*
G54D14*
X03756Y04556D02*
X0379D01*
X03756Y04606D02*
X0379D01*
X03756Y0448D02*
X0379D01*
X03756Y0453D02*
X0379D01*
X03576Y04826D02*
Y0486D01*
X03626Y04826D02*
Y0486D01*
X03244Y04823D02*
Y04857D01*
X03194Y04823D02*
Y04857D01*
X02459Y02374D02*
Y02404D01*
X02474*
X02479Y02399*
Y02389*
X02474Y02384*
X02459*
X02489Y02379D02*
X02494Y02374D01*
X02504*
X02509Y02379*
Y02399*
X02504Y02404*
X02494*
X02489Y02399*
Y02394*
X02494Y02389*
X02509*
X02832Y04234D02*
Y04264D01*
X02847*
X02852Y04259*
Y04249*
X02847Y04244*
X02832*
X02862Y04264D02*
X02882D01*
Y04259*
X02862Y04239*
Y04234*
X02868Y03819D02*
Y03814D01*
X02878Y03804*
X02888Y03814*
Y03819*
X02878Y03804D02*
Y03789D01*
X02898D02*
X02908D01*
X02903*
Y03819*
X02898Y03814*
X03459Y03102D02*
X03454Y03107D01*
X03444*
X03439Y03102*
Y03082*
X03444Y03077*
X03454*
X03459Y03082*
X03469Y03077D02*
X03479D01*
X03474*
Y03107*
X03469Y03102*
X03494Y03107D02*
X03514D01*
Y03102*
X03494Y03082*
Y03077*
X03552Y03103D02*
X03547Y03108D01*
X03537*
X03532Y03103*
Y03083*
X03537Y03078*
X03547*
X03552Y03083*
X03562Y03078D02*
X03572D01*
X03567*
Y03108*
X03562Y03103*
X03607Y03108D02*
X03597Y03103D01*
X03587Y03093*
Y03083*
X03592Y03078*
X03602*
X03607Y03083*
Y03088*
X03602Y03093*
X03587*
X02986Y03162D02*
X02981Y03167D01*
X02971*
X02966Y03162*
Y03142*
X02971Y03137*
X02981*
X02986Y03142*
X02996Y03137D02*
X03006D01*
X03001*
Y03167*
X02996Y03162*
X03021D02*
X03026Y03167D01*
X03036*
X03041Y03162*
Y03157*
X03036Y03152*
X03031*
X03036*
X03041Y03147*
Y03142*
X03036Y03137*
X03026*
X03021Y03142*
X03209Y03157D02*
X03204Y03162D01*
X03194*
X03189Y03157*
Y03137*
X03194Y03132*
X03204*
X03209Y03137*
X03219Y03132D02*
X03229D01*
X03224*
Y03162*
X03219Y03157*
X03264Y03132D02*
X03244D01*
X03264Y03152*
Y03157*
X03259Y03162*
X03249*
X03244Y03157*
X02667Y03594D02*
X02662Y03599D01*
X02652*
X02647Y03594*
Y03574*
X02652Y03569*
X02662*
X02667Y03574*
X02677Y03594D02*
X02682Y03599D01*
X02692*
X02697Y03594*
Y03589*
X02692Y03584*
X02697Y03579*
Y03574*
X02692Y03569*
X02682*
X02677Y03574*
Y03579*
X02682Y03584*
X02677Y03589*
Y03594*
X02682Y03584D02*
X02692D01*
X02666Y03742D02*
X02661Y03747D01*
X02651*
X02646Y03742*
Y03722*
X02651Y03717*
X02661*
X02666Y03722*
X02676Y03747D02*
X02696D01*
Y03742*
X02676Y03722*
Y03717*
X03394Y03102D02*
X03389Y03107D01*
X03379*
X03374Y03102*
Y03082*
X03379Y03077*
X03389*
X03394Y03082*
X03404Y03102D02*
X03409Y03107D01*
X03419*
X03424Y03102*
Y03097*
X03419Y03092*
X03414*
X03419*
X03424Y03087*
Y03082*
X03419Y03077*
X03409*
X03404Y03082*
X0243Y03291D02*
Y03321D01*
X02445*
X0245Y03316*
Y03306*
X02445Y03301*
X0243*
X0244D02*
X0245Y03291D01*
X0248Y03316D02*
X02475Y03321D01*
X02465*
X0246Y03316*
Y03311*
X02465Y03306*
X02475*
X0248Y03301*
Y03296*
X02475Y03291*
X02465*
X0246Y03296*
X0249Y03321D02*
X0251D01*
X025*
Y03291*
X02425Y02594D02*
Y02564D01*
X0244*
X02445Y02569*
Y02574*
X0244Y02579*
X02425*
X0244*
X02445Y02584*
Y02589*
X0244Y02594*
X02425*
X02455D02*
X02475D01*
X02465*
Y02564*
X02485D02*
Y02594D01*
X02505Y02564*
Y02594*
X03975Y04431D02*
Y04461D01*
X0399*
X03995Y04456*
Y04446*
X0399Y04441*
X03975*
X03985D02*
X03995Y04431D01*
X04005D02*
X04015D01*
X0401*
Y04461*
X04005Y04456*
X0403Y04431D02*
X0404D01*
X04035*
Y04461*
X0403Y04456*
X02647Y03232D02*
Y03262D01*
X02662*
X02667Y03257*
Y03247*
X02662Y03242*
X02647*
X02657D02*
X02667Y03232D01*
X02697Y03262D02*
X02687Y03257D01*
X02677Y03247*
Y03237*
X02682Y03232*
X02692*
X02697Y03237*
Y03242*
X02692Y03247*
X02677*
X02642Y02876D02*
Y02906D01*
X02657*
X02662Y02901*
Y02891*
X02657Y02886*
X02642*
X02652D02*
X02662Y02876D01*
X02672Y02906D02*
X02692D01*
Y02901*
X02672Y02881*
Y02876*
X02624Y03949D02*
Y03979D01*
X02639*
X02644Y03974*
Y03964*
X02639Y03959*
X02624*
X02634D02*
X02644Y03949D01*
X02674Y03979D02*
X02654D01*
Y03964*
X02664Y03969*
X02669*
X02674Y03964*
Y03954*
X02669Y03949*
X02659*
X02654Y03954*
X02625Y03849D02*
Y03879D01*
X0264*
X02645Y03874*
Y03864*
X0264Y03859*
X02625*
X02635D02*
X02645Y03849D01*
X0267D02*
Y03879D01*
X02655Y03864*
X02675*
X03463Y04089D02*
Y04119D01*
X03478*
X03483Y04114*
Y04104*
X03478Y04099*
X03463*
X03473D02*
X03483Y04089D01*
X03493Y04114D02*
X03498Y04119D01*
X03508*
X03513Y04114*
Y04109*
X03508Y04104*
X03503*
X03508*
X03513Y04099*
Y04094*
X03508Y04089*
X03498*
X03493Y04094*
X03887Y03921D02*
Y03951D01*
X03902*
X03907Y03946*
Y03936*
X03902Y03931*
X03887*
X03897D02*
X03907Y03921D01*
X03937D02*
X03917D01*
X03937Y03941*
Y03946*
X03932Y03951*
X03922*
X03917Y03946*
X03667Y04393D02*
Y04423D01*
X03682*
X03687Y04418*
Y04408*
X03682Y04403*
X03667*
X03677D02*
X03687Y04393D01*
X03697D02*
X03707D01*
X03702*
Y04423*
X03697Y04418*
X03263Y02374D02*
Y02394D01*
X03258Y02399*
X03248*
X03243Y02394*
Y02374*
X03248Y02369*
X03258*
X03253Y02379D02*
X03263Y02369D01*
X03258D02*
X03263Y02374D01*
X03273Y02394D02*
X03278Y02399D01*
X03288*
X03293Y02394*
Y02389*
X03288Y02384*
X03283*
X03288*
X03293Y02379*
Y02374*
X03288Y02369*
X03278*
X03273Y02374*
X03128D02*
Y02394D01*
X03123Y02399*
X03113*
X03108Y02394*
Y02374*
X03113Y02369*
X03123*
X03118Y02379D02*
X03128Y02369D01*
X03123D02*
X03128Y02374D01*
X03158Y02369D02*
X03138D01*
X03158Y02389*
Y02394*
X03153Y02399*
X03143*
X03138Y02394*
X02992Y02374D02*
Y02394D01*
X02987Y02399*
X02977*
X02972Y02394*
Y02374*
X02977Y02369*
X02987*
X02982Y02379D02*
X02992Y02369D01*
X02987D02*
X02992Y02374D01*
X03002Y02369D02*
X03012D01*
X03007*
Y02399*
X03002Y02394*
X03697Y03321D02*
Y03351D01*
X03712*
X03717Y03346*
Y03336*
X03712Y03331*
X03697*
X03747Y03351D02*
X03737Y03346D01*
X03727Y03336*
Y03326*
X03732Y03321*
X03742*
X03747Y03326*
Y03331*
X03742Y03336*
X03727*
X02441Y04196D02*
Y04226D01*
X02456*
X02461Y04221*
Y04211*
X02456Y04206*
X02441*
X02491Y04226D02*
X02471D01*
Y04211*
X02481Y04216*
X02486*
X02491Y04211*
Y04201*
X02486Y04196*
X02476*
X02471Y04201*
X03919Y03458D02*
Y03488D01*
X03934*
X03939Y03483*
Y03473*
X03934Y03468*
X03919*
X03964Y03458D02*
Y03488D01*
X03949Y03473*
X03969*
X03455Y02391D02*
Y02421D01*
X0347*
X03475Y02416*
Y02406*
X0347Y02401*
X03455*
X03485Y02416D02*
X0349Y02421D01*
X035*
X03505Y02416*
Y02411*
X035Y02406*
X03495*
X035*
X03505Y02401*
Y02396*
X035Y02391*
X0349*
X03485Y02396*
X03913Y03068D02*
Y03098D01*
X03928*
X03933Y03093*
Y03083*
X03928Y03078*
X03913*
X03963Y03068D02*
X03943D01*
X03963Y03088*
Y03093*
X03958Y03098*
X03948*
X03943Y03093*
X03695Y03768D02*
Y03798D01*
X0371*
X03715Y03793*
Y03783*
X0371Y03778*
X03695*
X03725Y03793D02*
X0373Y03798D01*
X0374*
X03745Y03793*
Y03788*
X0374Y03783*
X03745Y03778*
Y03773*
X0374Y03768*
X0373*
X03725Y03773*
Y03778*
X0373Y03783*
X03725Y03788*
Y03793*
X0373Y03783D02*
X0374D01*
X03766Y03072D02*
Y03102D01*
X03781*
X03786Y03097*
Y03087*
X03781Y03082*
X03766*
X03796Y03072D02*
X03806D01*
X03801*
Y03102*
X03796Y03097*
X02386Y04509D02*
X02376D01*
X02381*
Y04484*
X02376Y04479*
X02371*
X02366Y04484*
X02396Y04509D02*
Y04479D01*
X02411*
X02416Y04484*
Y04504*
X02411Y04509*
X02396*
X02446Y04504D02*
X02441Y04509D01*
X02431*
X02426Y04504*
Y04484*
X02431Y04479*
X02441*
X02446Y04484*
X02456Y04479D02*
X02466D01*
X02461*
Y04509*
X02456Y04504*
X03895Y04361D02*
X03885D01*
X0389*
Y04336*
X03885Y04331*
X0388*
X03875Y04336*
X03905Y04331D02*
X03915D01*
X0391*
Y04361*
X03905Y04356*
X03873Y04579D02*
Y04549D01*
X03888*
X03893Y04554*
Y04574*
X03888Y04579*
X03873*
X03923D02*
X03913Y04574D01*
X03903Y04564*
Y04554*
X03908Y04549*
X03918*
X03923Y04554*
Y04559*
X03918Y04564*
X03903*
X03336Y02621D02*
Y02591D01*
X03351*
X03356Y02596*
Y02616*
X03351Y02621*
X03336*
X03386D02*
X03366D01*
Y02606*
X03376Y02611*
X03381*
X03386Y02606*
Y02596*
X03381Y02591*
X03371*
X03366Y02596*
X03195Y02621D02*
Y02591D01*
X0321*
X03215Y02596*
Y02616*
X0321Y02621*
X03195*
X0324Y02591D02*
Y02621D01*
X03225Y02606*
X03245*
X03054Y02621D02*
Y02591D01*
X03069*
X03074Y02596*
Y02616*
X03069Y02621*
X03054*
X03084Y02616D02*
X03089Y02621D01*
X03099*
X03104Y02616*
Y02611*
X03099Y02606*
X03094*
X03099*
X03104Y02601*
Y02596*
X03099Y02591*
X03089*
X03084Y02596*
X03581Y03945D02*
Y03915D01*
X03596*
X03601Y0392*
Y0394*
X03596Y03945*
X03581*
X03631Y03915D02*
X03611D01*
X03631Y03935*
Y0394*
X03626Y03945*
X03616*
X03611Y0394*
X03712Y03949D02*
Y03919D01*
X03727*
X03732Y03924*
Y03944*
X03727Y03949*
X03712*
X03742Y03919D02*
X03752D01*
X03747*
Y03949*
X03742Y03944*
X03208Y04968D02*
X03203Y04973D01*
X03193*
X03188Y04968*
Y04948*
X03193Y04943*
X03203*
X03208Y04948*
X03238Y04943D02*
X03218D01*
X03238Y04963*
Y04968*
X03233Y04973*
X03223*
X03218Y04968*
X03268Y04943D02*
X03248D01*
X03268Y04963*
Y04968*
X03263Y04973*
X03253*
X03248Y04968*
X02819Y05038D02*
X02814Y05043D01*
X02804*
X02799Y05038*
Y05018*
X02804Y05013*
X02814*
X02819Y05018*
X02849Y05013D02*
X02829D01*
X02849Y05033*
Y05038*
X02844Y05043*
X02834*
X02829Y05038*
X02859Y05013D02*
X02869D01*
X02864*
Y05043*
X02859Y05038*
X0267Y02992D02*
X02665Y02997D01*
X02655*
X0265Y02992*
Y02972*
X02655Y02967*
X02665*
X0267Y02972*
X0268Y02967D02*
X0269D01*
X02685*
Y02997*
X0268Y02992*
X02705Y02967D02*
X02715D01*
X0271*
Y02997*
X02705Y02992*
X03618Y04586D02*
X03613Y04591D01*
X03603*
X03598Y04586*
Y04566*
X03603Y04561*
X03613*
X03618Y04566*
X03648Y04561D02*
X03628D01*
X03648Y04581*
Y04586*
X03643Y04591*
X03633*
X03628Y04586*
X03678Y04591D02*
X03658D01*
Y04576*
X03668Y04581*
X03673*
X03678Y04576*
Y04566*
X03673Y04561*
X03663*
X03658Y04566*
X03616Y0451D02*
X03611Y04515D01*
X03601*
X03596Y0451*
Y0449*
X03601Y04485*
X03611*
X03616Y0449*
X03646Y04485D02*
X03626D01*
X03646Y04505*
Y0451*
X03641Y04515*
X03631*
X03626Y0451*
X03671Y04485D02*
Y04515D01*
X03656Y045*
X03676*
X03589Y04972D02*
X03584Y04977D01*
X03574*
X03569Y04972*
Y04952*
X03574Y04947*
X03584*
X03589Y04952*
X03619Y04947D02*
X03599D01*
X03619Y04967*
Y04972*
X03614Y04977*
X03604*
X03599Y04972*
X03629D02*
X03634Y04977D01*
X03644*
X03649Y04972*
Y04967*
X03644Y04962*
X03639*
X03644*
X03649Y04957*
Y04952*
X03644Y04947*
X03634*
X03629Y04952*
X0266Y02629D02*
X02655Y02634D01*
X02645*
X0264Y02629*
Y02609*
X02645Y02604*
X02655*
X0266Y02609*
X0269Y02604D02*
X0267D01*
X0269Y02624*
Y02629*
X02685Y02634*
X02675*
X0267Y02629*
X027D02*
X02705Y02634D01*
X02715*
X0272Y02629*
Y02609*
X02715Y02604*
X02705*
X027Y02609*
Y02629*
X03687Y03731D02*
X03682Y03736D01*
X03672*
X03667Y03731*
Y03711*
X03672Y03706*
X03682*
X03687Y03711*
X03697Y03706D02*
X03707D01*
X03702*
Y03736*
X03697Y03731*
X03722Y03711D02*
X03727Y03706D01*
X03737*
X03742Y03711*
Y03731*
X03737Y03736*
X03727*
X03722Y03731*
Y03726*
X03727Y03721*
X03742*
X03481Y03848D02*
X03476Y03853D01*
X03466*
X03461Y03848*
Y03828*
X03466Y03823*
X03476*
X03481Y03828*
X03491Y03823D02*
X03501D01*
X03496*
Y03853*
X03491Y03848*
X03516D02*
X03521Y03853D01*
X03531*
X03536Y03848*
Y03843*
X03531Y03838*
X03536Y03833*
Y03828*
X03531Y03823*
X03521*
X03516Y03828*
Y03833*
X03521Y03838*
X03516Y03843*
Y03848*
X03521Y03838D02*
X03531D01*
X02975Y03932D02*
X0297Y03937D01*
X0296*
X02955Y03932*
Y03912*
X0296Y03907*
X0297*
X02975Y03912*
X02985Y03907D02*
X02995D01*
X0299*
Y03937*
X02985Y03932*
X0303Y03937D02*
X0301D01*
Y03922*
X0302Y03927*
X03025*
X0303Y03922*
Y03912*
X03025Y03907*
X03015*
X0301Y03912*
X0307Y0393D02*
X03065Y03935D01*
X03055*
X0305Y0393*
Y0391*
X03055Y03905*
X03065*
X0307Y0391*
X0308Y03905D02*
X0309D01*
X03085*
Y03935*
X0308Y0393*
X0312Y03905D02*
Y03935D01*
X03105Y0392*
X03125*
X0271Y04168D02*
X02705Y04173D01*
X02695*
X0269Y04168*
Y04148*
X02695Y04143*
X02705*
X0271Y04148*
X0272Y04143D02*
X0273D01*
X02725*
Y04173*
X0272Y04168*
X02745D02*
X0275Y04173D01*
X0276*
X02765Y04168*
Y04148*
X0276Y04143*
X0275*
X02745Y04148*
Y04168*
X02643D02*
X02638Y04173D01*
X02628*
X02623Y04168*
Y04148*
X02628Y04143*
X02638*
X02643Y04148*
X02653D02*
X02658Y04143D01*
X02668*
X02673Y04148*
Y04168*
X02668Y04173*
X02658*
X02653Y04168*
Y04163*
X02658Y04158*
X02673*
X03691Y03667D02*
X03686Y03672D01*
X03676*
X03671Y03667*
Y03647*
X03676Y03642*
X03686*
X03691Y03647*
X03721Y03672D02*
X03711Y03667D01*
X03701Y03657*
Y03647*
X03706Y03642*
X03716*
X03721Y03647*
Y03652*
X03716Y03657*
X03701*
X0385Y02577D02*
X03845Y02572D01*
Y02562*
X0385Y02557*
X0387*
X03875Y02562*
Y02572*
X0387Y02577*
X03845Y02607D02*
Y02587D01*
X0386*
X03855Y02597*
Y02602*
X0386Y02607*
X0387*
X03875Y02602*
Y02592*
X0387Y02587*
X03673Y02627D02*
X03668Y02622D01*
Y02612*
X03673Y02607*
X03693*
X03698Y02612*
Y02622*
X03693Y02627*
X03698Y02652D02*
X03668D01*
X03683Y02637*
Y02657*
X03617Y04417D02*
X03612Y04422D01*
X03602*
X03597Y04417*
Y04397*
X03602Y04392*
X03612*
X03617Y04397*
X03647Y04392D02*
X03627D01*
X03647Y04412*
Y04417*
X03642Y04422*
X03632*
X03627Y04417*
X03553Y04416D02*
X03548Y04421D01*
X03538*
X03533Y04416*
Y04396*
X03538Y04391*
X03548*
X03553Y04396*
X03563Y04391D02*
X03573D01*
X03568*
Y04421*
X03563Y04416*
X03679Y04938D02*
Y04958D01*
X03689Y04968*
X03699Y04958*
Y04938*
Y04953*
X03679*
X03729Y04963D02*
X03724Y04968D01*
X03714*
X03709Y04963*
Y04958*
X03714Y04953*
X03724*
X03729Y04948*
Y04943*
X03724Y04938*
X03714*
X03709Y04943*
X03739Y04938D02*
Y04968D01*
X03749Y04958*
X03759Y04968*
Y04938*
X03769D02*
X03779D01*
X03774*
Y04968*
X03769Y04963*
X03289Y0497D02*
X03309Y0495D01*
X03289D02*
X03309Y0497D01*
X03289Y0496D02*
X03309D01*
X03299Y0495D02*
Y0497D01*
X03339Y04945D02*
X03319D01*
X03339Y04965*
Y0497*
X03334Y04975*
X03324*
X03319Y0497*
X03495Y04256D02*
X03515Y04236D01*
X03495D02*
X03515Y04256D01*
X03495Y04246D02*
X03515D01*
X03505Y04236D02*
Y04256D01*
X03525Y04231D02*
X03535D01*
X0353*
Y04261*
X03525Y04256*
G54D15*
X03697Y04615D02*
X0385D01*
X03697Y04548D02*
Y04615D01*
Y04548D02*
X0385D01*
Y04615*
X03697Y04539D02*
X0385D01*
X03697Y04472D02*
Y04539D01*
Y04472D02*
X0385D01*
Y04539*
X03861Y04481D02*
X03906D01*
X03936D02*
X03976D01*
X03861Y04531D02*
X03906D01*
X03936D02*
X03976D01*
X03986Y04491D02*
Y04521D01*
X03976Y04531D02*
X03986Y04521D01*
X03976Y04481D02*
X03986Y04491D01*
X03861Y04481D02*
Y04531D01*
X03271Y0255D02*
X03321D01*
X03311Y02675D02*
X03321Y02665D01*
X03271D02*
X03281Y02675D01*
X03311*
X03271Y02625D02*
Y02665D01*
Y0255D02*
Y02595D01*
X03321Y02625D02*
Y02665D01*
Y0255D02*
Y02595D01*
X0313Y0255D02*
X0318D01*
X0317Y02675D02*
X0318Y02665D01*
X0313D02*
X0314Y02675D01*
X0317*
X0313Y02625D02*
Y02665D01*
Y0255D02*
Y02595D01*
X0318Y02625D02*
Y02665D01*
Y0255D02*
Y02595D01*
X02988Y0255D02*
X03038D01*
X03028Y02675D02*
X03038Y02665D01*
X02988D02*
X02998Y02675D01*
X03028*
X02988Y02625D02*
Y02665D01*
Y0255D02*
Y02595D01*
X03038Y02625D02*
Y02665D01*
Y0255D02*
Y02595D01*
X03699Y03971D02*
Y04021D01*
X03814Y03971D02*
X03824Y03981D01*
X03814Y04021D02*
X03824Y04011D01*
Y03981D02*
Y04011D01*
X03774Y04021D02*
X03814D01*
X03699D02*
X03744D01*
X03774Y03971D02*
X03814D01*
X03699D02*
X03744D01*
X03646Y0397D02*
Y0402D01*
X03521Y0401D02*
X03531Y0402D01*
X03521Y0398D02*
X03531Y0397D01*
X03521Y0398D02*
Y0401D01*
X03531Y0397D02*
X03571D01*
X03601D02*
X03646D01*
X03531Y0402D02*
X03571D01*
X03601D02*
X03646D01*
X03567Y0492D02*
X03634D01*
Y04767D02*
Y0492D01*
X03567Y04767D02*
X03634D01*
X03567D02*
Y0492D01*
X03186Y04763D02*
X03253D01*
X03186D02*
Y04916D01*
X03253*
Y04763D02*
Y04916D01*
M02*