%FSTAX23Y23*%
%MOIN*%
%SFA1B1*%

%IPPOS*%
%ADD40R,0.100000X0.160000*%
%ADD41R,0.160000X0.100000*%
%ADD42O,0.065000X0.075000*%
%ADD43C,0.138000*%
%ADD44O,0.090000X0.065000*%
%ADD45R,0.090000X0.065000*%
%ADD46O,0.075000X0.065000*%
%ADD47R,0.075000X0.075000*%
%ADD48C,0.075000*%
%ADD49O,0.041300X0.049200*%
%ADD50R,0.060000X0.086000*%
%ADD51O,0.060000X0.086000*%
%ADD52R,0.075000X0.065000*%
%ADD53C,0.060000*%
%ADD54C,0.015700*%
%ADD58O,0.055100X0.082700*%
%LNpcb_bug_v2-1*%
%LPD*%
G54D40*
X0227Y03495D03*
G54D41*
X0247Y03645D03*
Y03395D03*
G54D42*
X0381Y01766D03*
X03911D03*
X04009D03*
X0411D03*
G54D43*
X0407Y01578D03*
X02139Y03822D03*
X0407D03*
X0214Y0213D03*
G54D44*
X02605Y0208D03*
Y0228D03*
Y0248D03*
Y0258D03*
Y0268D03*
Y0238D03*
Y0218D03*
G54D45*
X02605Y0278D03*
G54D46*
X03957Y02D03*
Y02101D03*
Y02199D03*
Y023D03*
X04109Y02823D03*
Y02924D03*
Y03022D03*
Y03123D03*
X04113Y02D03*
Y02101D03*
Y02199D03*
Y023D03*
X03957Y02458D03*
Y02556D03*
X04113Y02458D03*
Y02556D03*
G54D47*
X02346Y0163D03*
X02698Y0163D03*
G54D48*
X02096Y0183D03*
Y0163D03*
X02346Y0183D03*
X02448Y0183D03*
Y0163D03*
X02698Y0183D03*
G54D49*
X0369Y03775D03*
X03865D03*
G54D50*
X03Y02857D03*
G54D51*
X031Y02857D03*
X03199D03*
X03Y02957D03*
X032D03*
X031D03*
G54D52*
X03957Y02657D03*
X04113D03*
G54D53*
X03139Y01646D03*
X03039D03*
X02939Y01648D03*
X02839Y01646D03*
X0284Y01749D03*
X02941Y01747D03*
X0304D03*
X0314D03*
G54D54*
X03974Y03286D03*
X03903Y03287D03*
X03543Y03327D03*
G54D58*
X03942Y03895D03*
X03613D03*
M02*