%FSTAX23Y23*%
%MOIN*%
%SFA1B1*%

%IPPOS*%
%ADD10C,0.009800*%
%ADD11C,0.003900*%
%ADD12C,0.006000*%
%ADD13C,0.010000*%
%ADD14C,0.005000*%
%ADD15C,0.004000*%
%ADD16C,0.007900*%
%ADD17C,0.007000*%
%ADD18C,0.008000*%
%LNpcb_bug_v2-1*%
%LPD*%
G36*
X03139Y01808D02*
X03164Y01833D01*
X03114*
X03139Y01808*
G37*
G36*
X03Y02791D02*
X02975Y02766D01*
X03025*
X03Y02791*
G37*
G36*
X02393Y03142D02*
X02369D01*
Y03134*
X02361*
Y0315*
X02393*
Y03142*
G37*
G36*
X02329Y0311D02*
X02345D01*
Y03118*
X02353*
Y03126*
X02369*
Y03118*
X02377*
Y0311*
X02385*
Y03102*
X02409*
Y03094*
X02441*
Y03086*
X02529*
Y03094*
X02585*
Y03102*
X02641*
Y03094*
X02617*
Y03086*
X02537*
Y03078*
X02481*
Y0307*
X02473*
Y03062*
X02465*
Y03054*
X02505*
Y03038*
X02521*
Y0303*
X02529*
Y03022*
X02537*
Y03014*
X02545*
Y03006*
X02553*
Y02966*
X02545*
Y02958*
X02537*
Y0295*
X02529*
Y02942*
X02513*
Y02934*
X02497*
Y02926*
X02241*
Y02934*
X02217*
Y02942*
X02201*
Y0295*
X02193*
Y02958*
X02185*
Y0299*
X02193*
Y02998*
X02177*
Y03006*
X02185*
Y03022*
X02177*
Y03038*
X02193*
Y03046*
X02209*
Y0307*
X02225*
Y03062*
X02233*
Y03046*
X02257*
Y03054*
X02265*
Y03062*
X02249*
Y03094*
X02265*
Y0311*
X02297*
Y03102*
X02329*
Y0311*
X02321*
Y03126*
X02313*
Y03134*
X02329*
Y0311*
G37*
G36*
X0253Y0278D02*
X02505Y02805D01*
Y02755*
X0253Y0278*
G37*
G36*
X04057Y023D02*
X04032Y02275D01*
Y02325*
X04057Y023*
G37*
G36*
X03901D02*
X03876Y02275D01*
Y02325*
X03901Y023*
G37*
G36*
X0411Y01822D02*
X04085Y01847D01*
X04135*
X0411Y01822*
G37*
G36*
X03901Y02657D02*
X03876Y02682D01*
Y02632*
X03901Y02657*
G37*
G36*
X04057D02*
X04032Y02682D01*
Y02632*
X04057Y02657*
G37*
G36*
X04053Y03123D02*
X04028Y03148D01*
Y03098*
X04053Y03123*
G37*
G36*
X02431Y03265D02*
X02403D01*
X024Y03271*
X02431*
Y03265*
G37*
G36*
X02405Y03261D02*
X02402Y03255D01*
X02382Y03255*
X02359Y03215*
X02354Y03218*
X02379Y03261*
X02405Y03261*
G37*
G36*
X02396Y03245D02*
X02383D01*
Y03251*
X02396*
Y03245*
G37*
G36*
X02287Y03237D02*
X02282Y0324D01*
X02291Y03256*
X02255*
X02276Y03218*
X02273Y03212*
X02245Y03261*
X02301*
X02287Y03237*
G37*
G36*
X02588Y03239D02*
X02583Y03237D01*
X02574Y03252*
X02555Y03221*
X02597*
Y03215*
X02546*
X02574Y03264*
X02588Y03239*
G37*
G36*
X02232Y03239D02*
X02227Y03237D01*
X02218Y03252*
X022Y03221*
X02243*
X02246Y03215*
X0219*
X02218Y03264*
X02232Y03239*
G37*
G36*
X02391Y03236D02*
X02378D01*
Y03241*
X02391*
Y03236*
G37*
G36*
X02113D02*
X02097D01*
Y03241*
X02116*
X02113Y03236*
G37*
G36*
X02165Y03255D02*
X02141D01*
X02152Y03238*
X02148Y03232*
X02132Y03261*
X02165*
Y03255*
G37*
G36*
X02356Y03232D02*
X02339Y03261D01*
X02372*
X02356Y03232*
G37*
G36*
X02121Y03229D02*
X02116Y03232D01*
X02123Y03245*
X02097*
Y03251*
X02133*
X02121Y03229*
G37*
G36*
X02608Y03213D02*
X02594Y03237D01*
X02599Y03239*
X02608Y03224*
X02626Y03255*
X02585*
Y03261*
X02636*
X02608Y03213*
G37*
G36*
X02546Y03218D02*
X02541Y03215D01*
X0252Y03252*
X0251Y03235*
X02507Y03241*
X0252Y03264*
X02546Y03218*
G37*
G36*
X02514D02*
X0251Y03215D01*
X02488Y03252*
X02467Y03215*
X02462Y03218*
X02488Y03264*
X02514Y03218*
G37*
G36*
X02501Y03215D02*
X02475D01*
Y03221*
X02501*
Y03215*
G37*
G36*
X02435Y03215D02*
X0243Y03218D01*
X02452Y03255*
X02415*
X02424Y03239*
X02419Y03237*
X02406Y03261*
X02461*
X02435Y03215*
G37*
G36*
X02161D02*
X02156Y03218D01*
X02183Y03265*
X02171*
Y0327*
X02193*
X02161Y03215*
G37*
G36*
X0269Y03236D02*
X02678Y03215D01*
X02673Y03218*
X02686Y03239*
X0269Y03236*
G37*
G36*
X02167Y03245D02*
X0215Y03215D01*
X02145Y03218*
X02162Y03248*
X02167Y03245*
G37*
G36*
X02664Y03255D02*
X02646D01*
X02664Y03224*
X02673Y03239*
X02678Y03236*
X02664Y03212*
X02636Y03261*
X02664*
Y03255*
G37*
G36*
X02104Y03255D02*
X02077D01*
X02103Y0321*
X02112Y03226*
X02117Y03223*
X02103Y03199*
X02067Y03261*
X02104*
Y03255*
G37*
G36*
X02274Y03202D02*
X02269Y03199D01*
X02251Y03229*
X02256Y03232*
X02274Y03202*
G37*
%LNpcb_bug_v2-2*%
%LPC*%
G36*
X02521Y02966D02*
X02513D01*
Y02958*
X02505*
Y0295*
X02521*
Y02958*
Y02966*
G37*
G36*
X02233D02*
X02225D01*
Y02958*
X02217*
Y0295*
X02225*
Y02942*
X02241*
Y0295*
Y02958*
X02233*
Y02966*
G37*
G36*
X02465Y02958D02*
X02457D01*
Y0295*
Y02942*
Y02934*
X02473*
Y02942*
X02465*
Y0295*
Y02958*
G37*
G36*
X02425Y02942D02*
X02409D01*
Y02934*
X02425*
Y02942*
G37*
G36*
X02377Y02958D02*
X02369D01*
Y0295*
Y02942*
Y02934*
X02377*
Y02942*
Y0295*
Y02958*
G37*
G36*
X02329Y0295D02*
X02321D01*
Y02942*
Y02934*
X02337*
Y02942*
X02329*
Y0295*
G37*
G36*
X02289Y02958D02*
X02281D01*
Y0295*
Y02942*
X02273*
Y02934*
X02289*
Y02942*
Y0295*
Y02958*
G37*
G36*
X02363Y03255D02*
X02349D01*
X02356Y03243*
X02363Y03255*
G37*
%LNpcb_bug_v2-3*%
%LPD*%
G54D10*
X02741Y03859D02*
D01*
D01*
G75*
G03X02731I-00004J0D01*
G74*G01*
D01*
G75*
G03X02741I00004J0D01*
G74*G01*
X03426Y03155D02*
D01*
D01*
G75*
G03X03416I-00004J0D01*
G74*G01*
D01*
G75*
G03X03426I00004J0D01*
G74*G01*
X02981Y03536D02*
D01*
D01*
G75*
G03X02971I-00004J0D01*
G74*G01*
D01*
G75*
G03X02981I00004J0D01*
G74*G01*
X03148Y03638D02*
D01*
D01*
G75*
G03X03138I-00004J0D01*
G74*G01*
D01*
G75*
G03X03148I00004J0D01*
G74*G01*
X03183Y02653D02*
D01*
D01*
G75*
G03X03173I-00004J0D01*
G74*G01*
D01*
G75*
G03X03183I00004J0D01*
G74*G01*
X039Y03652D02*
D01*
D01*
G75*
G03X0389I-00004J0D01*
G74*G01*
D01*
G75*
G03X039I00004J0D01*
G74*G01*
X03631Y01731D02*
D01*
D01*
G75*
G03X03622I-00004J0D01*
G74*G01*
D01*
G75*
G03X03631I00004J0D01*
G74*G01*
X03465D02*
D01*
D01*
G75*
G03X03455I-00004J0D01*
G74*G01*
D01*
G75*
G03X03465I00004J0D01*
G74*G01*
X03298D02*
D01*
D01*
G75*
G03X03288I-00004J0D01*
G74*G01*
D01*
G75*
G03X03298I00004J0D01*
G74*G01*
G54D11*
X0289Y02526D02*
D01*
D01*
G75*
G03X02886I-00002J0D01*
G74*G01*
D01*
G75*
G03X0289I00002J0D01*
G74*G01*
G54D12*
X02271Y01725D02*
D01*
D01*
G75*
G03X02171I-00050J0D01*
G74*G01*
D01*
G75*
G03X02271I00050J0D01*
G74*G01*
X02623Y01725D02*
D01*
D01*
G75*
G03X02523I-00050J0D01*
G74*G01*
D01*
G75*
G03X02623I00050J0D01*
G74*G01*
X02331Y01685D02*
Y0178D01*
X02146Y0183D02*
X023D01*
X02106Y01685D02*
Y0178D01*
X02146Y0163D02*
X02301D01*
X02683Y01685D02*
Y0178D01*
X02498Y0183D02*
X02652D01*
X02458Y01685D02*
Y0178D01*
X02498Y0163D02*
X02653D01*
G54D13*
X02049Y02031D02*
Y02827D01*
Y02031D02*
X02545D01*
Y02827*
X02049D02*
X02545D01*
G54D14*
X03563Y0163D02*
Y01675D01*
Y0156D02*
Y016D01*
X03613Y0163D02*
Y01675D01*
Y0156D02*
Y016D01*
X03573Y0155D02*
X03603D01*
X03613Y0156*
X03563D02*
X03573Y0155D01*
X03563Y01675D02*
X03613D01*
X03396Y0163D02*
Y01675D01*
Y0156D02*
Y016D01*
X03446Y0163D02*
Y01675D01*
Y0156D02*
Y016D01*
X03406Y0155D02*
X03436D01*
X03446Y0156*
X03396D02*
X03406Y0155D01*
X03396Y01675D02*
X03446D01*
X03229Y0163D02*
Y01675D01*
Y0156D02*
Y016D01*
X03279Y0163D02*
Y01675D01*
Y0156D02*
Y016D01*
X03239Y0155D02*
X03269D01*
X03279Y0156*
X03229D02*
X03239Y0155D01*
X03229Y01675D02*
X03279D01*
X03633Y03147D02*
X03678D01*
X03708D02*
X03748D01*
X03633Y03197D02*
X03678D01*
X03708D02*
X03748D01*
X03758Y03157D02*
Y03187D01*
X03748Y03197D02*
X03758Y03187D01*
X03748Y03147D02*
X03758Y03157D01*
X03633Y03147D02*
Y03197D01*
Y03264D02*
X03678D01*
X03708D02*
X03748D01*
X03633Y03314D02*
X03678D01*
X03708D02*
X03748D01*
X03758Y03274D02*
Y03304D01*
X03748Y03314D02*
X03758Y03304D01*
X03748Y03264D02*
X03758Y03274D01*
X03633Y03264D02*
Y03314D01*
Y03331D02*
X03678D01*
X03708D02*
X03748D01*
X03633Y03381D02*
X03678D01*
X03708D02*
X03748D01*
X03758Y03341D02*
Y03371D01*
X03748Y03381D02*
X03758Y03371D01*
X03748Y03331D02*
X03758Y03341D01*
X03633Y03331D02*
Y03381D01*
X03191Y03345D02*
X03344D01*
X03191Y03278D02*
Y03345D01*
Y03278D02*
X03344D01*
Y03345*
X0319Y03266D02*
X03343D01*
X0319Y03199D02*
Y03266D01*
Y03199D02*
X03343D01*
Y03266*
X03355Y0373D02*
X034D01*
X03285D02*
X03325D01*
X03355Y0368D02*
X034D01*
X03285D02*
X03325D01*
X03275Y0369D02*
Y0372D01*
Y0369D02*
X03285Y0368D01*
X03275Y0372D02*
X03285Y0373D01*
X034Y0368D02*
Y0373D01*
X02998Y03381D02*
Y03534D01*
Y03381D02*
X03065D01*
Y03534*
X02998D02*
X03065D01*
X02765Y03612D02*
X02918D01*
Y03679*
X02765D02*
X02918D01*
X02765Y03612D02*
Y03679D01*
X03122Y0375D02*
Y03785D01*
X03139*
X03145Y03779*
Y03768*
X03139Y03762*
X03122*
X03133D02*
X03145Y0375D01*
X03157D02*
X03168D01*
X03163*
Y03785*
X03157Y03779*
X03209Y0375D02*
X03186D01*
X03209Y03774*
Y03779*
X03203Y03785*
X03192*
X03186Y03779*
X03274Y03787D02*
Y03752D01*
X03291*
X03297Y03758*
Y03782*
X03291Y03787*
X03274*
X03309D02*
X03332D01*
Y03782*
X03309Y03758*
Y03752*
X03384Y03235D02*
X03378Y03241D01*
X03367*
X03361Y03235*
Y03212*
X03367Y03206*
X03378*
X03384Y03212*
X03419Y03206D02*
X03396D01*
X03419Y03229*
Y03235*
X03413Y03241*
X03402*
X03396Y03235*
X03431Y03241D02*
X03454D01*
Y03235*
X03431Y03212*
Y03206*
X03383Y03316D02*
X03377Y03322D01*
X03366*
X0336Y03316*
Y03293*
X03366Y03287*
X03377*
X03383Y03293*
X03418Y03287D02*
X03395D01*
X03418Y03311*
Y03316*
X03412Y03322*
X03401*
X03395Y03316*
X03453Y03322D02*
X03441Y03316D01*
X0343Y03305*
Y03293*
X03436Y03287*
X03447*
X03453Y03293*
Y03299*
X03447Y03305*
X0343*
X03026Y03332D02*
X0302Y03338D01*
X03009*
X03003Y03332*
Y03309*
X03009Y03303*
X0302*
X03026Y03309*
X03061Y03303D02*
X03038D01*
X03061Y03327*
Y03332*
X03055Y03338*
X03044*
X03038Y03332*
X03096Y03338D02*
X03073D01*
Y03321*
X03085Y03327*
X0309*
X03096Y03321*
Y03309*
X0309Y03303*
X03079*
X03073Y03309*
X02962Y03662D02*
X02956Y03668D01*
X02944*
X02939Y03662*
Y03639*
X02944Y03633*
X02956*
X02962Y03639*
X02997Y03633D02*
X02974D01*
X02997Y03656*
Y03662*
X02991Y03668*
X02979*
X02974Y03662*
X03026Y03633D02*
Y03668D01*
X03009Y0365*
X03032*
X03032Y0388D02*
X03026Y03886D01*
X03014*
X03008Y0388*
Y03857*
X03014Y03851*
X03026*
X03032Y03857*
X03067Y03851D02*
X03043D01*
X03067Y03874*
Y0388*
X03061Y03886*
X03049*
X03043Y0388*
X03078D02*
X03084Y03886D01*
X03096*
X03102Y0388*
Y03874*
X03096Y03868*
X0309*
X03096*
X03102Y03863*
Y03857*
X03096Y03851*
X03084*
X03078Y03857*
X02594Y01978D02*
Y02013D01*
X02611*
X02617Y02007*
Y01995*
X02611Y01989*
X02594*
X02605D02*
X02617Y01978D01*
X02629D02*
X0264D01*
X02635*
Y02013*
X02629Y02007*
X02658Y01978D02*
X0267D01*
X02664*
Y02013*
X02658Y02007*
X03641Y01502D02*
Y01537D01*
X03658*
X03664Y01531*
Y01519*
X03658Y01514*
X03641*
X03653D02*
X03664Y01502D01*
X03676D02*
X03688D01*
X03682*
Y01537*
X03676Y01531*
X03705D02*
X03711Y01537D01*
X03723*
X03728Y01531*
Y01508*
X03723Y01502*
X03711*
X03705Y01508*
Y01531*
X0347Y01502D02*
Y01537D01*
X03487*
X03493Y01531*
Y01519*
X03487Y01514*
X0347*
X03481D02*
X03493Y01502D01*
X03505Y01508D02*
X0351Y01502D01*
X03522*
X03528Y01508*
Y01531*
X03522Y01537*
X0351*
X03505Y01531*
Y01525*
X0351Y01519*
X03528*
X03298Y01502D02*
Y01537D01*
X03316*
X03322Y01531*
Y01519*
X03316Y01514*
X03298*
X0331D02*
X03322Y01502D01*
X03333Y01531D02*
X03339Y01537D01*
X03351*
X03357Y01531*
Y01525*
X03351Y01519*
X03357Y01514*
Y01508*
X03351Y01502*
X03339*
X03333Y01508*
Y01514*
X03339Y01519*
X03333Y01525*
Y01531*
X03339Y01519D02*
X03351D01*
X0226Y01978D02*
Y02013D01*
X02277*
X02283Y02007*
Y01995*
X02277Y01989*
X0226*
X02272D02*
X02283Y01978D01*
X02295Y02013D02*
X02318D01*
Y02007*
X02295Y01983*
Y01978*
X03981Y03339D02*
Y03374D01*
X03999*
X04004Y03368*
Y03357*
X03999Y03351*
X03981*
X03993D02*
X04004Y03339D01*
X04039Y03374D02*
X04028Y03368D01*
X04016Y03357*
Y03345*
X04022Y03339*
X04034*
X04039Y03345*
Y03351*
X04034Y03357*
X04016*
X0398Y03267D02*
Y03302D01*
X03998*
X04004Y03296*
Y03285*
X03998Y03279*
X0398*
X03992D02*
X04004Y03267D01*
X04039Y03302D02*
X04015D01*
Y03285*
X04027Y03291*
X04033*
X04039Y03285*
Y03273*
X04033Y03267*
X04021*
X04015Y03273*
X03781Y03088D02*
Y03123D01*
X03799*
X03805Y03117*
Y03105*
X03799Y031*
X03781*
X03793D02*
X03805Y03088D01*
X03834D02*
Y03123D01*
X03816Y03105*
X0384*
X0282Y02571D02*
X02785D01*
Y02589*
X02791Y02595*
X02802*
X02808Y02589*
Y02571*
Y02583D02*
X0282Y02595D01*
X02791Y02606D02*
X02785Y02612D01*
Y02624*
X02791Y0263*
X02797*
X02802Y02624*
Y02618*
Y02624*
X02808Y0263*
X02814*
X0282Y02624*
Y02612*
X02814Y02606*
X0276Y02314D02*
X02725D01*
Y02332*
X02731Y02338*
X02742*
X02748Y02332*
Y02314*
Y02326D02*
X0276Y02338D01*
Y02373D02*
Y02349D01*
X02737Y02373*
X02731*
X02725Y02367*
Y02355*
X02731Y02349*
X03522Y03344D02*
X03557D01*
Y03327*
X03551Y03321*
X0354*
X03534Y03327*
Y03344*
Y03333D02*
X03522Y03321D01*
Y03309D02*
Y03298D01*
Y03303*
X03557*
X03551Y03309*
X03592Y01856D02*
Y0188D01*
X03586Y01885*
X03574*
X03568Y0188*
Y01856*
X03574Y0185*
X03586*
X0358Y01862D02*
X03592Y0185D01*
X03586D02*
X03592Y01856D01*
X03603Y0188D02*
X03609Y01885D01*
X03621*
X03627Y0188*
Y01874*
X03621Y01868*
X03615*
X03621*
X03627Y01862*
Y01856*
X03621Y0185*
X03609*
X03603Y01856*
X03426D02*
Y0188D01*
X0342Y01885*
X03408*
X03402Y0188*
Y01856*
X03408Y0185*
X0342*
X03414Y01862D02*
X03426Y0185D01*
X0342D02*
X03426Y01856D01*
X03461Y0185D02*
X03437D01*
X03461Y01874*
Y0188*
X03455Y01885*
X03443*
X03437Y0188*
X03259Y01856D02*
Y0188D01*
X03253Y01885*
X03241*
X03235Y0188*
Y01856*
X03241Y0185*
X03253*
X03247Y01862D02*
X03259Y0185D01*
X03253D02*
X03259Y01856D01*
X0327Y0185D02*
X03282D01*
X03276*
Y01885*
X0327Y0188*
X03555Y01537D02*
Y01502D01*
X03573*
X03579Y01508*
Y01531*
X03573Y01537*
X03555*
X03614D02*
X03602Y01531D01*
X0359Y01519*
Y01508*
X03596Y01502*
X03608*
X03614Y01508*
Y01514*
X03608Y01519*
X0359*
X03384Y01537D02*
Y01502D01*
X03401*
X03407Y01508*
Y01531*
X03401Y01537*
X03384*
X03442D02*
X03419D01*
Y01519*
X03431Y01525*
X03436*
X03442Y01519*
Y01508*
X03436Y01502*
X03425*
X03419Y01508*
X03213Y01537D02*
Y01502D01*
X0323*
X03236Y01508*
Y01531*
X0323Y01537*
X03213*
X03265Y01502D02*
Y01537D01*
X03248Y01519*
X03271*
X03903Y03374D02*
Y03339D01*
X03921*
X03926Y03345*
Y03368*
X03921Y03374*
X03903*
X03938Y03368D02*
X03944Y03374D01*
X03956*
X03961Y03368*
Y03362*
X03956Y03356*
X0395*
X03956*
X03961Y03351*
Y03345*
X03956Y03339*
X03944*
X03938Y03345*
X03903Y03302D02*
Y03267D01*
X03921*
X03926Y03273*
Y03296*
X03921Y03302*
X03903*
X03961Y03267D02*
X03938D01*
X03961Y03291*
Y03296*
X03956Y03302*
X03944*
X03938Y03296*
X03635Y03128D02*
Y03093D01*
X03653*
X03658Y03099*
Y03122*
X03653Y03128*
X03635*
X0367Y03093D02*
X03682D01*
X03676*
Y03128*
X0367Y03122*
X02486Y02008D02*
X0248Y02013D01*
X02468*
X02463Y02008*
Y01984*
X02468Y01978*
X0248*
X02486Y01984*
X02521Y01978D02*
X02498D01*
X02521Y02002*
Y02008*
X02515Y02013*
X02503*
X02498Y02008*
X02556Y01978D02*
X02533D01*
X02556Y02002*
Y02008*
X0255Y02013*
X02538*
X02533Y02008*
X03066Y02533D02*
X0306Y02527D01*
Y02515*
X03066Y02509*
X03089*
X03095Y02515*
Y02527*
X03089Y02533*
X03095Y02568D02*
Y02544D01*
X03072Y02568*
X03066*
X0306Y02562*
Y0255*
X03066Y02544*
X03095Y02579D02*
Y02591D01*
Y02585*
X0306*
X03066Y02579*
X02928Y02634D02*
X02922Y02628D01*
Y02616*
X02928Y02611*
X02951*
X02957Y02616*
Y02628*
X02951Y02634*
X02957Y02669D02*
Y02646D01*
X02934Y02669*
X02928*
X02922Y02663*
Y02651*
X02928Y02646*
Y02681D02*
X02922Y02686D01*
Y02698*
X02928Y02704*
X02951*
X02957Y02698*
Y02686*
X02951Y02681*
X02928*
X03129Y02127D02*
X03123Y02133D01*
X03111*
X03106Y02127*
Y02104*
X03111Y02098*
X03123*
X03129Y02104*
X03141Y02098D02*
X03152D01*
X03146*
Y02133*
X03141Y02127*
X0317Y02104D02*
X03176Y02098D01*
X03187*
X03193Y02104*
Y02127*
X03187Y02133*
X03176*
X0317Y02127*
Y02121*
X03176Y02115*
X03193*
X0314Y02052D02*
X03134Y02058D01*
X03122*
X03117Y02052*
Y02029*
X03122Y02023*
X03134*
X0314Y02029*
X03152Y02023D02*
X03163D01*
X03157*
Y02058*
X03152Y02052*
X03181D02*
X03187Y02058D01*
X03198*
X03204Y02052*
Y02046*
X03198Y0204*
X03204Y02034*
Y02029*
X03198Y02023*
X03187*
X03181Y02029*
Y02034*
X03187Y0204*
X03181Y02046*
Y02052*
X03187Y0204D02*
X03198D01*
X03598Y02015D02*
X03592Y02021D01*
X0358*
X03575Y02015*
Y01992*
X0358Y01986*
X03592*
X03598Y01992*
X0361Y01986D02*
X03621D01*
X03615*
Y02021*
X0361Y02015*
X03639Y02021D02*
X03662D01*
Y02015*
X03639Y01992*
Y01986*
X03734Y0202D02*
X03728Y02026D01*
X03716*
X0371Y0202*
Y01997*
X03716Y01991*
X03728*
X03734Y01997*
X03745Y01991D02*
X03757D01*
X03751*
Y02026*
X03745Y0202*
X03798Y02026D02*
X03786Y0202D01*
X03775Y02009*
Y01997*
X0378Y01991*
X03792*
X03798Y01997*
Y02003*
X03792Y02009*
X03775*
X03884Y02808D02*
X03878Y02814D01*
X03866*
X0386Y02808*
Y02785*
X03866Y02779*
X03878*
X03884Y02785*
X03895Y02779D02*
X03907D01*
X03901*
Y02814*
X03895Y02808*
X03948Y02814D02*
X03925D01*
Y02797*
X03936Y02803*
X03942*
X03948Y02797*
Y02785*
X03942Y02779*
X0393*
X03925Y02785*
X03884Y0286D02*
X03878Y02866D01*
X03866*
X0386Y0286*
Y02837*
X03866Y02831*
X03878*
X03884Y02837*
X03895Y02831D02*
X03907D01*
X03901*
Y02866*
X03895Y0286*
X03942Y02831D02*
Y02866D01*
X03925Y02849*
X03948*
X02142Y02008D02*
X02136Y02014D01*
X02124*
X02119Y02008*
Y01985*
X02124Y01979*
X02136*
X02142Y01985*
X02154Y01979D02*
X02165D01*
X02159*
Y02014*
X02154Y02008*
X02183D02*
X02189Y02014D01*
X022*
X02206Y02008*
Y02003*
X022Y01997*
X02194*
X022*
X02206Y01991*
Y01985*
X022Y01979*
X02189*
X02183Y01985*
X035Y0344D02*
X03506Y03446D01*
Y03458*
X035Y03464*
X03477*
X03471Y03458*
Y03446*
X03477Y0344*
X03471Y03429D02*
Y03417D01*
Y03423*
X03506*
X035Y03429*
X03471Y03376D02*
Y034D01*
X03494Y03376*
X035*
X03506Y03382*
Y03394*
X035Y034*
Y0354D02*
X03506Y03546D01*
Y03558*
X035Y03564*
X03477*
X03471Y03558*
Y03546*
X03477Y0354*
X03471Y03529D02*
Y03517D01*
Y03523*
X03506*
X035Y03529*
X03471Y035D02*
Y03488D01*
Y03494*
X03506*
X035Y035*
X02927Y0224D02*
X02922Y02234D01*
Y02223*
X02927Y02217*
X02951*
X02957Y02223*
Y02234*
X02951Y0224*
X02957Y02252D02*
Y02264D01*
Y02258*
X02922*
X02927Y02252*
Y02281D02*
X02922Y02287D01*
Y02299*
X02927Y02304*
X02951*
X02957Y02299*
Y02287*
X02951Y02281*
X02927*
X02814Y02334D02*
X02808Y02328D01*
Y02317*
X02814Y02311*
X02837*
X02843Y02317*
Y02328*
X02837Y02334*
Y02346D02*
X02843Y02351D01*
Y02363*
X02837Y02369*
X02814*
X02808Y02363*
Y02351*
X02814Y02346*
X02819*
X02825Y02351*
Y02369*
X03884Y02759D02*
X03878Y02764D01*
X03866*
X0386Y02759*
Y02735*
X03866Y02729*
X03878*
X03884Y02735*
X03895Y02759D02*
X03901Y02764D01*
X03913*
X03919Y02759*
Y02753*
X03913Y02747*
X03919Y02741*
Y02735*
X03913Y02729*
X03901*
X03895Y02735*
Y02741*
X03901Y02747*
X03895Y02753*
Y02759*
X03901Y02747D02*
X03913D01*
X02726Y02834D02*
X0272Y0284D01*
X02708*
X02702Y02834*
Y0281*
X02708Y02805*
X0272*
X02726Y0281*
X02737Y0284D02*
X02761D01*
Y02834*
X02737Y0281*
Y02805*
X02826Y0283D02*
X02821Y02836D01*
X02809*
X02803Y0283*
Y02807*
X02809Y02801*
X02821*
X02826Y02807*
X02861Y02836D02*
X0285Y0283D01*
X02838Y02818*
Y02807*
X02844Y02801*
X02856*
X02861Y02807*
Y02813*
X02856Y02818*
X02838*
X03489Y02015D02*
X03483Y02021D01*
X03471*
X03465Y02015*
Y01992*
X03471Y01986*
X03483*
X03489Y01992*
X03524Y02021D02*
X035D01*
Y02004*
X03512Y0201*
X03518*
X03524Y02004*
Y01992*
X03518Y01986*
X03506*
X035Y01992*
X03813Y01749D02*
X03807Y01754D01*
X03795*
X03789Y01749*
Y01725*
X03795Y01719*
X03807*
X03813Y01725*
X03842Y01719D02*
Y01754D01*
X03824Y01737*
X03848*
X03813Y01669D02*
X03807Y01674D01*
X03795*
X03789Y01669*
Y01645*
X03795Y01639*
X03807*
X03813Y01645*
X03824Y01669D02*
X0383Y01674D01*
X03842*
X03848Y01669*
Y01663*
X03842Y01657*
X03836*
X03842*
X03848Y01651*
Y01645*
X03842Y01639*
X0383*
X03824Y01645*
X035Y03698D02*
X03506Y03704D01*
Y03715*
X035Y03721*
X03477*
X03471Y03715*
Y03704*
X03477Y03698*
X03471Y03663D02*
Y03686D01*
X03494Y03663*
X035*
X03506Y03669*
Y0368*
X035Y03686*
Y03616D02*
X03506Y03622D01*
Y03634*
X035Y03639*
X03477*
X03471Y03634*
Y03622*
X03477Y03616*
X03471Y03604D02*
Y03593D01*
Y03599*
X03506*
X035Y03604*
G54D15*
X0325Y03286D02*
X03284D01*
X0325Y03336D02*
X03284D01*
X03249Y03207D02*
X03283D01*
X03249Y03257D02*
X03283D01*
X03057Y0344D02*
Y03474D01*
X03007Y0344D02*
Y03474D01*
X02825Y03671D02*
X02859D01*
X02825Y03621D02*
X02859D01*
G54D16*
X02757Y03855D02*
X02796Y03895D01*
X02926Y03855D02*
Y03895D01*
Y03725D02*
Y03765D01*
X02796Y03895D02*
X02926D01*
X02796Y03725D02*
X02926D01*
X02757Y03765D02*
X02796Y03725D01*
X03218Y03156D02*
X03395D01*
X03218Y03045D02*
X03395D01*
X03218Y03149D02*
Y03156D01*
X03395Y03149D02*
Y03156D01*
X03218Y03045D02*
Y03052D01*
X03395Y03045D02*
Y03052D01*
X02726Y03408D02*
Y03442D01*
X02966*
Y03408D02*
Y03442D01*
X03202Y03375D02*
Y03638D01*
X03312Y03375D02*
Y03638D01*
X03202D02*
X03312D01*
X03202Y03375D02*
X03312D01*
X03228Y0233D02*
Y02625D01*
X0359Y0233D02*
Y02625D01*
X03261Y02659D02*
X03556D01*
X03261Y02297D02*
X03556D01*
X03228Y02625D02*
X03261Y02659D01*
X03556D02*
X0359Y02625D01*
X03228Y0233D02*
X03261Y02297D01*
X03556D02*
X0359Y0233D01*
X03228Y02625D02*
X03287D01*
Y02606D02*
Y02625D01*
X03228Y02606D02*
X03287D01*
X03877Y03627D02*
X03901D01*
Y03602D02*
Y03627D01*
Y03418D02*
Y03443D01*
X03877Y03418D02*
X03901D01*
X03692D02*
X03717D01*
X03692D02*
Y03443D01*
Y03627D02*
X03717D01*
X03692Y03602D02*
Y03627D01*
X03632Y03779D02*
Y03846D01*
Y03779D02*
X03657D01*
X03897D02*
X03923D01*
Y03846*
G54D17*
X0229Y03875D02*
X0262D01*
X0229Y034D02*
Y03945D01*
X0262Y034D02*
Y03945D01*
X0229Y034D02*
X0262D01*
X0229Y03945D02*
X0262D01*
X0376Y01816D02*
X0416D01*
Y01716D02*
Y01816D01*
X0376Y01716D02*
X0416D01*
X0376D02*
Y01816D01*
X04065Y01717D02*
Y01816D01*
X02545Y02836D02*
X02662D01*
X02545Y02028D02*
Y02836D01*
Y02028D02*
X02662D01*
Y02836*
X02545Y02729D02*
X02661D01*
X03907Y0195D02*
Y0235D01*
X04007*
Y0195D02*
Y0235D01*
X03907Y0195D02*
X04007D01*
X03907Y02255D02*
X04006D01*
X04059Y02773D02*
Y03173D01*
X04159*
Y02773D02*
Y03173D01*
X04059Y02773D02*
X04159D01*
X04059Y03078D02*
X04158D01*
X02106Y01844D02*
X02107Y01845D01*
X03253Y02807D02*
Y03007D01*
X0295D02*
X03253D01*
X0295Y02907D02*
Y03007D01*
Y02807D02*
Y02907D01*
Y02807D02*
X03253D01*
X03048D02*
Y02906D01*
X04063Y0195D02*
Y0235D01*
X04163*
Y0195D02*
Y0235D01*
X04063Y0195D02*
X04163D01*
X04063Y02255D02*
X04162D01*
X02458Y01844D02*
X02459Y01845D01*
X03907Y02407D02*
Y02707D01*
X04007*
Y02407D02*
Y02707D01*
X03907Y02407D02*
X04007D01*
X03907Y02612D02*
X04006D01*
X03089Y01699D02*
Y01797D01*
X02789Y01797D02*
X0319D01*
Y01697D02*
Y01797D01*
Y01597D02*
Y01697D01*
X02789Y01597D02*
X0319D01*
X02789D02*
Y01797D01*
X04063Y02407D02*
Y02707D01*
X04163*
Y02407D02*
Y02707D01*
X04063Y02407D02*
X04163D01*
X04063Y02612D02*
X04162D01*
G54D18*
X02504Y01568D02*
Y01523D01*
X02526*
X02533Y01531*
Y01538*
X02526Y01546*
X02504*
X02526*
X02533Y01553*
Y01561*
X02526Y01568*
X02504*
X02548D02*
X02578D01*
X02563*
Y01523*
X02593D02*
Y01568D01*
X02623Y01523*
Y01568*
X0215Y01523D02*
Y01568D01*
X02173*
X0218Y01561*
Y01546*
X02173Y01538*
X0215*
X02165D02*
X0218Y01523D01*
X02225Y01561D02*
X02218Y01568D01*
X02203*
X02195Y01561*
Y01553*
X02203Y01546*
X02218*
X02225Y01538*
Y01531*
X02218Y01523*
X02203*
X02195Y01531*
X0224Y01568D02*
X0227D01*
X02255*
Y01523*
X02823Y01897D02*
X02793D01*
Y01852*
X02823*
X02793Y01874D02*
X02808D01*
X02838Y01852D02*
Y01897D01*
X02868Y01852*
Y01897*
X02913Y01889D02*
X02906Y01897D01*
X02891*
X02883Y01889*
Y01859*
X02891Y01852*
X02906*
X02913Y01859*
X02951Y01897D02*
X02936D01*
X02928Y01889*
Y01859*
X02936Y01852*
X02951*
X02958Y01859*
Y01889*
X02951Y01897*
X02973D02*
Y01852D01*
X02996*
X03003Y01859*
Y01889*
X02996Y01897*
X02973*
X03048D02*
X03018D01*
Y01852*
X03048*
X03018Y01874D02*
X03033D01*
X03063Y01852D02*
Y01897D01*
X03086*
X03093Y01889*
Y01874*
X03086Y01867*
X03063*
X03078D02*
X03093Y01852D01*
X03993Y02802D02*
X03986Y02794D01*
Y02779*
X03993Y02772*
X04001*
X04008Y02779*
Y02794*
X04016Y02802*
X04023*
X04031Y02794*
Y02779*
X04023Y02772*
X03986Y02817D02*
Y02847D01*
Y02832*
X04031*
X04008Y02862D02*
Y02892D01*
X03986Y02907D02*
X04031D01*
Y02937*
X03986Y02952D02*
Y02967D01*
Y02959*
X04031*
Y02952*
Y02967*
Y02989D02*
X03986D01*
X04031Y03019*
X03986*
Y03034D02*
X04031D01*
X04016*
X03986Y03064*
X04008Y03042*
X04031Y03064*
X0328Y02979D02*
Y02934D01*
X03302*
X0331Y02941*
Y02949*
X03302Y02956*
X0328*
X03302*
X0331Y02964*
Y02971*
X03302Y02979*
X0328*
X03347D02*
X03332D01*
X03325Y02971*
Y02941*
X03332Y02934*
X03347*
X03355Y02941*
Y02971*
X03347Y02979*
X03392D02*
X03377D01*
X0337Y02971*
Y02941*
X03377Y02934*
X03392*
X034Y02941*
Y02971*
X03392Y02979*
X03415D02*
X03445D01*
X0343*
Y02934*
X0346Y02971D02*
X03467Y02979D01*
X03482*
X0349Y02971*
Y02941*
X03482Y02934*
X03467*
X0346Y02941*
Y02971*
X0328Y02886D02*
Y02841D01*
X03302*
X0331Y02848*
Y02856*
X03302Y02863*
X0328*
X03302*
X0331Y02871*
Y02878*
X03302Y02886*
X0328*
X03347D02*
X03332D01*
X03325Y02878*
Y02848*
X03332Y02841*
X03347*
X03355Y02848*
Y02878*
X03347Y02886*
X03392D02*
X03377D01*
X0337Y02878*
Y02848*
X03377Y02841*
X03392*
X034Y02848*
Y02878*
X03392Y02886*
X03415D02*
X03445D01*
X0343*
Y02841*
X0346D02*
X03475D01*
X03467*
Y02886*
X0346Y02878*
X02501Y02063D02*
X02456D01*
X02471Y02078*
X02456Y02093*
X02501*
Y02108D02*
X02456D01*
Y0213*
X02463Y02138*
X02478*
X02486Y0213*
Y02108*
X02456Y02153D02*
X02493D01*
X02501Y0216*
Y02175*
X02493Y02183*
X02456*
X02478Y02198D02*
Y02228D01*
X02456Y02273D02*
X02463Y02258D01*
X02478Y02243*
X02493*
X02501Y0225*
Y02265*
X02493Y02273*
X02486*
X02478Y02265*
Y02243*
X02463Y02288D02*
X02456Y02295D01*
Y0231*
X02463Y02318*
X02493*
X02501Y0231*
Y02295*
X02493Y02288*
X02463*
X02456Y02363D02*
Y02333D01*
X02478*
X02471Y02348*
Y02355*
X02478Y02363*
X02493*
X02501Y02355*
Y0234*
X02493Y02333*
X02463Y02378D02*
X02456Y02385D01*
Y024*
X02463Y02408*
X02493*
X02501Y024*
Y02385*
X02493Y02378*
X02463*
M02*