%FSTAX23Y23*%
%MOIN*%
%SFA1B1*%

%IPPOS*%
%ADD9500C,0.007900*%
%ADD9501C,0.011800*%
%ADD9502C,0.031000*%
%ADD9503C,0.036000*%
%ADD9504C,0.042000*%
%ADD9505C,0.118100*%
%LNpcb_bug_v2-roundholes-1*%
%LPD*%
G54D9500*
X03754Y03479D03*
X03797D03*
X0384D03*
Y03522D03*
Y03566D03*
X03797D03*
Y03522D03*
X03754D03*
Y03566D03*
G54D9501*
X03746Y01547D03*
X03716Y01637D03*
X03737Y01664D03*
X03542Y0164D03*
X03375Y01643D03*
X03285Y01948D03*
X03194Y02016D03*
X03301Y02188D03*
X03476Y02172D03*
X03535Y02015D03*
X03712Y02165D03*
Y02767D03*
X03857Y0269D03*
X03856Y03112D03*
X03516Y02801D03*
X0348D03*
X03917Y01584D03*
X02733Y01944D03*
X02363Y01942D03*
X02128Y01895D03*
X02687Y02426D03*
Y02636D03*
X02822Y02666D03*
X02952Y02667D03*
X03Y02581D03*
X029Y02768D03*
X02705Y02912D03*
Y02939D03*
X02678D03*
Y02912D03*
X03Y03026D03*
X03117Y02389D03*
X02865Y02386D03*
X0303Y03199D03*
X03031Y03665D03*
Y03712D03*
Y0376D03*
Y03807D03*
Y03855D03*
X03081D03*
Y03807D03*
Y0376D03*
Y03712D03*
Y03665D03*
X0291Y036D03*
X03147Y03312D03*
X03543Y03327D03*
X03903Y03287D03*
X03974Y03286D03*
X03921Y03155D03*
X04069Y03574D03*
X03797Y03675D03*
X03777Y03734D03*
X03653Y03692D03*
X03469Y03677D03*
Y03765D03*
G54D9502*
X02096Y0163D03*
Y0183D03*
X02346D03*
X02448Y0183D03*
Y0163D03*
X02346Y0163D03*
X02698Y0163D03*
Y0183D03*
G54D9503*
X03139Y01646D03*
X0314Y01747D03*
X0381Y01766D03*
X03911D03*
X04009D03*
X0411D03*
X04113Y02D03*
Y02101D03*
Y02199D03*
Y023D03*
X03957D03*
Y02199D03*
Y02101D03*
Y02D03*
Y02458D03*
Y02556D03*
Y02657D03*
X04113D03*
Y02556D03*
Y02458D03*
X04109Y02823D03*
Y02924D03*
Y03022D03*
Y03123D03*
X032Y02957D03*
X03199Y02857D03*
X031D03*
X03D03*
Y02957D03*
X031D03*
X0304Y01747D03*
X02941D03*
X02939Y01648D03*
X03039Y01646D03*
X02839D03*
X0284Y01749D03*
G54D9504*
X02605Y0208D03*
Y0218D03*
Y0228D03*
Y0238D03*
Y0248D03*
Y0258D03*
Y0268D03*
Y0278D03*
G54D9505*
X0407Y01578D03*
X0214Y0213D03*
X02139Y03822D03*
X0407D03*
M02*