%FSTAX23Y23*%
%MOIN*%
%SFA1B1*%

%IPPOS*%
%ADD12C,0.006000*%
%ADD13C,0.010000*%
%ADD19R,0.031500X0.037400*%
%ADD20R,0.037400X0.031500*%
%ADD21R,0.031500X0.031500*%
%ADD22R,0.031500X0.031500*%
%ADD23R,0.050000X0.055000*%
%ADD24R,0.055000X0.050000*%
%ADD25R,0.100400X0.063000*%
%ADD26R,0.057100X0.065000*%
%ADD27R,0.192900X0.244100*%
%ADD28R,0.037400X0.082700*%
%ADD29R,0.094500X0.039400*%
%ADD30R,0.094500X0.129900*%
%ADD31O,0.066900X0.011800*%
%ADD32O,0.011800X0.066900*%
%ADD33O,0.009800X0.041300*%
%ADD34O,0.041300X0.009800*%
%ADD35R,0.123200X0.123200*%
%ADD36R,0.061000X0.037400*%
%ADD37R,0.047200X0.033500*%
%ADD38R,0.070900X0.074800*%
%ADD39R,0.015700X0.053100*%
%ADD40R,0.100000X0.160000*%
%ADD41R,0.160000X0.100000*%
%ADD42O,0.065000X0.075000*%
%ADD43C,0.138000*%
%ADD44O,0.090000X0.065000*%
%ADD45R,0.090000X0.065000*%
%ADD46O,0.075000X0.065000*%
%ADD47R,0.075000X0.075000*%
%ADD48C,0.075000*%
%ADD49O,0.041300X0.049200*%
%ADD50R,0.060000X0.086000*%
%ADD51O,0.060000X0.086000*%
%ADD52R,0.075000X0.065000*%
%ADD53C,0.060000*%
%ADD54C,0.015700*%
%ADD55C,0.030000*%
%ADD56C,0.015000*%
%ADD57C,0.019700*%
%LNpcb_bug_v2-1*%
%LPD*%
G36*
X04184Y01451D02*
X02046D01*
Y01614*
X02051Y01615*
X02055Y01606*
X02062Y01596*
X02072Y01589*
X02084Y01584*
X02091Y01583*
Y0163*
Y01677*
X02084Y01676*
X02072Y01672*
X02062Y01664*
X02055Y01654*
X02051Y01645*
X02046Y01646*
Y02031*
X02654*
Y02066*
X02655Y0207*
X02657Y0208*
X02655Y0209*
X02654Y02093*
X02654Y02167*
X02655Y0217*
X02657Y0218*
X02655Y0219*
X02654Y02193*
Y02267*
X02655Y0227*
X02657Y0228*
X02655Y0229*
X02654Y02292*
X02654Y02367*
X02655Y0237*
X02657Y0238*
X02655Y0239*
X02654Y02392*
X02654Y02467*
X02655Y0247*
X02655Y0247*
X02656*
X02657Y0247*
X02713*
X02714Y0247*
Y0246*
X02764*
Y02491*
X02764Y02493*
X02765Y02494*
X02766Y02495*
X02767Y02496*
X02773Y02503*
X02778Y025*
X02778Y02499*
Y02451*
X02768Y02442*
X02764Y02444*
Y02448*
X02714*
Y02436*
X02713Y02435*
X027*
X02699Y02436*
X02699*
X02698*
X02698*
X02698Y02436*
X02698*
X02698Y02436*
X02698Y02436*
X02698*
X02697Y02436*
X02697Y02437*
X02696Y02437*
X02692Y02439*
X02687Y0244*
X02682Y02439*
X02677Y02436*
X02674Y02432*
X02673Y02426*
X02674Y02421*
X02677Y02416*
X02682Y02413*
X02687Y02412*
X02692Y02413*
X02696Y02416*
X02697Y02416*
X02697Y02416*
X02698Y02416*
X02698Y02417*
X02698*
X02698Y02417*
X02698*
X02698Y02417*
X02698*
X02699Y02417*
X02699*
X027Y02417*
X02713*
X02714Y02417*
Y02405*
X02764*
Y02417*
X02764*
X02764Y02417*
X02766*
X02769Y02418*
X02772Y0242*
X02792Y0244*
X02796Y02439*
X02797Y02438*
Y02429*
X02821*
Y0245*
X02801*
X02797*
X02796Y02454*
Y02491*
X02796Y02491*
X02801Y02488*
Y02458*
X02851*
Y02483*
X02851*
X02851Y02483*
X02873*
X02874Y02483*
X02874*
Y02467*
X02947*
Y02493*
X02947Y02494*
Y02494*
Y02494*
X02947Y02495*
X02947Y02495*
X02947Y02495*
X02948Y02496*
X02948Y02496*
X02948Y02497*
X02949Y02497*
X02949Y02498*
X0295Y02499*
X02956Y02505*
X0296Y02503*
Y02467*
X03033*
Y02517*
X02974*
X02973Y02521*
X02989Y02538*
X03067*
X03068Y02536*
X03069Y02533*
X03066Y02529*
X03064Y02526*
X03063Y02523*
Y02421*
X03034*
X03033Y02421*
X03033*
Y0245*
X0296*
Y02401*
X02987*
Y024*
X02988Y024*
Y02388*
X02975Y02375*
X02974Y02375*
X02972Y02373*
X02971Y02372*
X02971*
X0297Y02372*
X02938*
Y02323*
X02982*
Y02352*
Y02353*
Y02355*
Y02355*
X02982Y02355*
X02982Y02356*
X02982Y02356*
X02984Y02358*
X02984Y02359*
X02985Y02359*
X02985Y02359*
X02985Y0236*
X03003Y02378*
X03005Y02381*
X03006Y02384*
Y024*
X03006Y024*
Y02401*
X03026*
X03026Y024*
X03027Y024*
X03027Y024*
X03028Y02401*
X03033*
Y02402*
X03034Y02402*
X03068*
X0307Y02403*
X03073Y02401*
X03075Y024*
Y02051*
X03042Y02018*
X02319*
X02315Y02017*
X02312Y02015*
X02267Y0197*
X02266Y01969*
X02264Y01967*
X02263Y01967*
X02263Y01967*
X02231*
Y01951*
X0223Y01951*
X0223Y01951*
X02212*
X02211Y01951*
X02211Y01951*
Y01967*
X02167*
Y01917*
X0218*
Y01917*
X0218Y01916*
Y01862*
X02157Y01839*
X02157Y0184*
X02155Y0184*
X02153Y0184*
X02151Y01841*
X02149Y01842*
X02146Y01844*
X02143Y01847*
X02132Y01857*
X02127Y01861*
X02127Y01861*
Y01861*
X02118Y01868*
X02107Y01872*
X02096Y01874*
X02085Y01872*
X02074Y01868*
X02065Y01861*
X02058Y01852*
X02054Y01841*
X02052Y0183*
X02054Y01819*
X02058Y01808*
X02065Y01799*
X02074Y01792*
X02085Y01788*
X02096Y01786*
X02107Y01788*
X02118Y01792*
X02127Y01799*
X02127Y01799*
X02136Y01807*
X02143Y01814*
X02146Y01816*
X02149Y01818*
X02151Y01819*
X02153Y0182*
X02155Y0182*
X02157Y01821*
X02157Y01821*
X02161*
X02164Y01822*
X02167Y01824*
X02196Y01852*
X02198Y01855*
X02198Y01858*
Y01916*
X02199Y01917*
Y01917*
X02211*
Y01932*
X02211*
X02212Y01933*
X0223*
X0223Y01932*
X02231*
Y01917*
X02243*
Y01917*
X02243Y01916*
Y01859*
X02244Y01856*
X02246Y01853*
X02275Y01824*
X02278Y01822*
X02281Y01821*
X02285*
X02285Y01821*
X02287Y0182*
X02289Y0182*
X02291Y01819*
X02293Y01818*
X02296Y01816*
X02299Y01814*
X0231Y01804*
X02315Y01799*
X02315Y01799*
Y01799*
X02324Y01792*
X02335Y01788*
X02346Y01786*
X02357Y01788*
X02368Y01792*
X02377Y01799*
X02384Y01808*
X02388Y01819*
X0239Y0183*
X02388Y01841*
X02384Y01852*
X02377Y01861*
X02368Y01868*
X02357Y01872*
X02346Y01874*
X02335Y01872*
X02324Y01868*
X02315Y01861*
X02315Y01861*
X02306Y01853*
X02299Y01847*
X02296Y01844*
X02293Y01842*
X02291Y01841*
X02289Y0184*
X02287Y0184*
X02285Y0184*
X02285Y01839*
X02261Y01863*
Y01916*
X02262Y01917*
Y01917*
X02274*
Y0195*
X02274Y0195*
X02275Y0195*
X02276Y01952*
X02277Y01953*
X02277Y01954*
X02277Y01954*
X02278Y01954*
X02281Y01958*
X02286Y01956*
Y01917*
X02329*
Y01932*
X0233Y01933*
X0235*
X0235Y01932*
X02351Y01932*
X02351*
X02351*
X02352Y01932*
X02352*
X02352Y01932*
X02352*
X02352Y01932*
X02352Y01932*
X02353Y01932*
X02354Y01931*
X02357Y01929*
X02363Y01928*
X02368Y01929*
X02373Y01932*
X02376Y01936*
X02377Y01942*
X02376Y01947*
X02373Y01952*
X02368Y01955*
X02363Y01956*
X02357Y01955*
X02354Y01953*
X02353Y01952*
X02352Y01952*
X02352Y01952*
X02352Y01952*
X02352*
X02352Y01952*
X02352*
X02351Y01951*
X02351*
X02351*
X0235Y01951*
X0235Y01951*
X0233*
X02329Y01951*
Y01951*
Y01967*
X02296*
X02295Y01971*
X02323Y01999*
X02642*
X02644Y01994*
X02621Y01971*
X0262Y01971*
X02618Y01968*
X02617Y01968*
X02616Y01968*
X02584*
Y01953*
X02584*
X02583Y01952*
X02558*
X02558Y01953*
Y01968*
X02514*
Y01918*
X02526*
X02527Y01918*
Y01859*
X02508Y0184*
X02507Y0184*
X02505Y0184*
X02503Y01841*
X02501Y01843*
X02498Y01844*
X02495Y01847*
X02483Y01857*
X02479Y01861*
X02479Y01861*
X02479*
X0247Y01868*
X02459Y01873*
X02448Y01874*
X02436Y01873*
X02426Y01868*
X02417Y01861*
X0241Y01852*
X02405Y01842*
X02404Y0183*
X02405Y01819*
X0241Y01808*
X02417Y01799*
X02426Y01792*
X02436Y01788*
X02448Y01786*
X02459Y01788*
X0247Y01792*
X02479Y01799*
X02479Y01799*
X02488Y01808*
X02495Y01814*
X02498Y01816*
X02501Y01818*
X02503Y01819*
X02505Y0182*
X02507Y01821*
X02508Y01821*
X02509Y01821*
X02511*
X02515Y01822*
X02518Y01824*
X02542Y01848*
X02544Y01851*
X02545Y01855*
Y01918*
X02545Y01918*
X02558*
Y01934*
X02558Y01934*
X02583*
X02584Y01934*
X02584*
Y01918*
X02596*
X02597Y01918*
Y01853*
X02597Y01849*
X02599Y01847*
X02622Y01824*
X02625Y01822*
X02629Y01821*
X02637*
X02637Y01821*
X02639Y01821*
X0264Y0182*
X02642Y01819*
X02645Y01818*
X02648Y01816*
X02651Y01814*
X02662Y01804*
X02666Y01799*
X02667Y01799*
X02667*
X02676Y01792*
X02686Y01788*
X02698Y01786*
X02709Y01788*
X0272Y01792*
X02729Y01799*
X02736Y01808*
X0274Y01819*
X02742Y0183*
X0274Y01842*
X02736Y01852*
X02729Y01861*
X0272Y01868*
X02709Y01873*
X02698Y01874*
X02686Y01873*
X02676Y01868*
X02667Y01861*
X02667Y01861*
X02658Y01853*
X02651Y01847*
X02648Y01844*
X02645Y01843*
X02642Y01841*
X0264Y0184*
X02639Y0184*
X02637Y0184*
X02637Y0184*
X02632*
X02615Y01857*
Y01918*
X02615Y01918*
X02628*
Y01951*
X02628Y01951*
X02628Y01952*
X0263Y01953*
X02631Y01954*
X02631Y01955*
X02631Y01955*
X02631Y01955*
X02635Y01959*
X02639Y01957*
Y01918*
X02683*
Y01934*
X02684Y01934*
X02721*
X02722Y01934*
X02722*
X02722*
X02723Y01934*
X02723*
X02723Y01933*
X02723Y01933*
X02724Y01933*
X02724Y01933*
X02724Y01933*
X02724Y01933*
X02726Y01932*
X02728Y01931*
X02733Y0193*
X02739Y01931*
X02743Y01934*
X02746Y01939*
X02747Y01944*
X02746Y01949*
X02743Y01954*
X02739Y01957*
X02733Y01958*
X02728Y01957*
X02723Y01954*
X02723Y01954*
X02722Y01953*
X02722Y01953*
X02722Y01953*
X02722*
X02722*
X02721Y01953*
X02721*
X02721Y01953*
X0272Y01953*
X0272Y01952*
X02684*
X02683Y01953*
Y01968*
X0265*
X02648Y01973*
X02659Y01983*
X03052*
X03056Y01984*
X03059Y01986*
X03105Y02032*
X03107Y02035*
X03107Y02038*
Y02374*
X03112Y02376*
X03117Y02375*
X03122Y02376*
X03126Y02379*
X03127Y02379*
X03127Y02379*
X03127Y02379*
X03128Y02379*
X03128Y0238*
X03128*
X03128Y0238*
X03128*
X03128Y0238*
X03129*
X03129*
X0313Y0238*
X03137*
X0314Y02377*
X0314Y02376*
X0314Y02375*
X0314Y02374*
X03139Y0237*
X0314Y02365*
X0314Y02364*
X0314Y02363*
X0314Y02362*
X03138Y02359*
X03135Y02358*
X03132Y02356*
X03117Y02342*
X03115Y02339*
X03115Y02335*
Y01934*
X02969Y01788*
X02968Y01788*
X02967Y01787*
X02966Y01787*
X02965Y01786*
X02963Y01785*
X0296Y01785*
X02957Y01784*
X02945Y01784*
X02941*
X0294Y01783*
X02931Y01782*
X02922Y01778*
X02915Y01773*
X02909Y01765*
X02905Y01756*
X02904Y01747*
X02905Y01738*
X02909Y01729*
X02915Y01721*
X02922Y01716*
X02931Y01712*
X02941Y01711*
X0295Y01712*
X02959Y01716*
X02966Y01721*
X02972Y01729*
X02976Y01738*
X02977Y01747*
X02977Y01747*
Y01752*
X02977Y01756*
X02978Y01764*
X02978Y01767*
X02979Y01769*
X02979Y01771*
X0298Y01773*
X02981Y01774*
X02982Y01775*
X02982Y01775*
X0313Y01924*
X03132Y01927*
X03133Y0193*
Y02327*
X03134Y02328*
X03139Y02326*
X0314Y02326*
X03142Y02322*
X03146Y02319*
X03151Y02318*
X03206*
X03211Y02319*
X03214Y02322*
X03217Y02326*
X03218Y0233*
X03217Y02335*
X03214Y02339*
Y02341*
X03217Y02345*
X03218Y0235*
X03217Y02355*
X03214Y02358*
Y02361*
X03217Y02365*
X03218Y0237*
X03217Y02374*
X03214Y02378*
Y02381*
X03217Y02385*
X03218Y02389*
X03217Y02394*
X03216Y02396*
X03217Y02397*
X03221Y02403*
X03221Y02404*
X03209*
X03208Y02403*
Y02404*
X03178*
Y02414*
X03208*
Y02414*
X03209Y02414*
X03221*
X03221Y02415*
X03217Y0242*
X03216Y02422*
X03217Y02424*
X03218Y02429*
X03217Y02433*
X03214Y02437*
Y0244*
X03217Y02444*
X03218Y02448*
X03217Y02453*
X03214Y02457*
Y02459*
X03217Y02463*
X03218Y02468*
X03217Y02473*
X03214Y02477*
Y02479*
X03217Y02483*
X03218Y02488*
X03217Y02492*
X03214Y02496*
Y02499*
X03217Y02503*
X03218Y02507*
X03217Y02512*
X03214Y02516*
Y02518*
X03217Y02522*
X03218Y02527*
X03217Y02532*
X03214Y02536*
Y02538*
X03217Y02542*
X03218Y02547*
X03217Y02551*
X03216Y02553*
X03215Y02557*
X03216Y0256*
X03217Y02562*
X03218Y02566*
X03217Y02571*
X03214Y02575*
Y02578*
X03217Y02581*
X03218Y02586*
X03217Y02591*
X03214Y02595*
Y02597*
X03217Y02601*
X03218Y02606*
X03217Y0261*
X03214Y02614*
Y02617*
X03217Y02621*
X03218Y02625*
X03217Y0263*
X03214Y02634*
X03211Y02637*
X03206Y02638*
X03188*
X03187Y02638*
Y02667*
X03219Y02699*
X03248*
X03249Y02699*
Y02681*
X0325Y02676*
X03252Y02672*
X03256Y02669*
X03261Y02668*
X03266Y02669*
X03268Y02671*
X03269Y02669*
X03274Y02666*
X03276Y02665*
Y02708*
Y02751*
X03274Y02751*
X03269Y02747*
X03268Y02745*
X03266Y02747*
X03261Y02748*
X03256Y02747*
X03252Y02744*
X0325Y0274*
X03249Y02736*
Y02718*
X03248Y02717*
X03215*
X03212Y02717*
X03209Y02715*
X03172Y02678*
X0317Y02675*
X03169Y02671*
Y02638*
X03169Y02638*
X03151*
X03149Y02637*
X03148Y02637*
X03147Y02637*
X03146Y02637*
X03146Y02637*
X03145Y02636*
X03144Y02636*
X03144Y02636*
X03144Y02636*
X03143Y02635*
X03143Y02635*
X03142Y02635*
X03142*
X0314Y02635*
X0314*
X03139Y02635*
X03114*
X03114Y02635*
Y02646*
X03064*
Y02635*
X03064*
X03064Y02635*
X03032*
X03031Y02635*
X03031*
Y02646*
X02981*
Y02603*
X02991*
Y02603*
X02991Y02602*
Y02594*
X02991Y02593*
Y02593*
X02991Y02593*
Y02592*
X02991Y02592*
Y02592*
X0299Y02592*
Y02592*
X0299Y02592*
X0299Y02592*
X0299Y02591*
X0299Y02591*
X0299Y02591*
X0299Y02591*
X0299Y02591*
X02989*
X02989Y02591*
X02989*
X02989*
X02989Y02591*
X02988*
X02987Y0259*
X02869*
X02868Y0259*
X02865Y02595*
X02972Y02702*
X02977Y027*
Y02685*
X02988*
X02988Y02685*
X02988Y02686*
Y02685*
X03001*
Y02706*
X02983*
X02981Y02711*
X03028Y02758*
X03284*
X03287Y02753*
X03287Y02751*
X03286Y02751*
X03286Y02751*
Y02708*
Y02665*
X03287Y02666*
X03292Y02669*
X03293Y02671*
X03296Y02669*
X033Y02668*
X03305Y02669*
X03309Y02672*
X03311*
X03315Y02669*
X0332Y02668*
X03325Y02669*
X03329Y02672*
X03331*
X03335Y02669*
X0334Y02668*
X03344Y02669*
X03348Y02672*
X03351*
X03355Y02669*
X03359Y02668*
X03364Y02669*
X03368Y02672*
X03371*
X03374Y02669*
X03379Y02668*
X03384Y02669*
X03388Y02672*
X0339*
X03394Y02669*
X03399Y02668*
X03403Y02669*
X03407Y02672*
X0341*
X03414Y02669*
X03418Y02668*
X03423Y02669*
X03427Y02672*
X0343*
X03434Y02669*
X03438Y02668*
X03443Y02669*
X03447Y02672*
X03449*
X03453Y02669*
X03458Y02668*
X03462Y02669*
X03466Y02672*
X03469*
X03473Y02669*
X03478Y02668*
X03482Y02669*
X03486Y02672*
X03489*
X03493Y02669*
X03497Y02668*
X03502Y02669*
X03506Y02672*
X03508*
X03512Y02669*
X03517Y02668*
X03522Y02669*
X03525Y02672*
X03528*
X03532Y02669*
X03537Y02668*
X03541Y02669*
X03545Y02672*
X03548*
X03552Y02669*
X03556Y02668*
X03561Y02669*
X03565Y02672*
X03567Y02676*
X03568Y02681*
Y02736*
X03567Y0274*
X03566Y02742*
X03624Y02799*
X03757*
X03758Y02794*
X03755Y02792*
X0373*
Y02777*
X0373*
X03729Y02776*
X03725*
X03724Y02777*
X03724*
X03723*
X03723Y02777*
X03723*
X03723Y02777*
X03723*
X03722Y02777*
X03722Y02777*
X03722*
X03722Y02777*
X03721Y02778*
X03717Y0278*
X03712Y02781*
X03706Y0278*
X03702Y02777*
X03699Y02772*
X03698Y02767*
X03699Y02762*
X03702Y02757*
X03706Y02754*
X03712Y02753*
X03717Y02754*
X03721Y02756*
X03722Y02757*
X03722Y02757*
X03722*
X03722Y02757*
X03723Y02757*
X03723*
X03723Y02757*
X03723*
X03723Y02758*
X03724*
X03724*
X03725Y02758*
X03729*
X0373Y02758*
X0373*
Y02742*
X03741*
X03741Y02742*
Y02712*
X03741Y02712*
X0373*
Y02662*
X03741*
X03741Y02657*
X03718Y02635*
X03678*
X03678Y02635*
X03677*
X03676Y02635*
X03676*
X03675Y02635*
X03675Y02635*
X03674Y02635*
X03674Y02636*
X03673Y02636*
X03673Y02636*
X03672Y02636*
X03671Y02637*
X03671Y02637*
X0367Y02637*
X03669Y02637*
X03668Y02637*
X03667Y02638*
X03611*
X03607Y02637*
X03603Y02634*
X036Y0263*
X03599Y02625*
X036Y02621*
X03603Y02617*
Y02614*
X036Y0261*
X03599Y02606*
X036Y02601*
X03603Y02597*
Y02595*
X036Y02591*
X03599Y02586*
X036Y02581*
X03601Y0258*
X03602Y02576*
X03601Y02573*
X036Y02571*
X03599Y02566*
X036Y02562*
X03603Y02558*
Y02555*
X036Y02551*
X03599Y02547*
X036Y02542*
X03601Y02541*
X03602Y02537*
X03601Y02533*
X036Y02532*
X03599Y02527*
X036Y02522*
X03603Y02518*
Y02516*
X036Y02512*
X03599Y02507*
X036Y02503*
X03601Y02501*
X03602Y02498*
X03601Y02494*
X036Y02492*
X03599Y02488*
X036Y02483*
X03601Y02481*
X03603Y02477*
X036Y02473*
X03599Y02468*
X036Y02463*
X03603Y02459*
Y02457*
X036Y02453*
X03599Y02448*
X036Y02444*
X03601Y02442*
X03602Y02438*
X03601Y02435*
X036Y02433*
X03599Y02429*
X036Y02424*
X03601Y02422*
X03602Y02419*
X03601Y02415*
X036Y02414*
X03599Y02409*
X036Y02404*
X03601Y02403*
X03602Y02399*
X03601Y02395*
X036Y02394*
X03599Y02389*
X036Y02385*
X03601Y02383*
X03602Y02379*
X03601Y02376*
X036Y02374*
X03599Y0237*
X036Y02365*
X03603Y02361*
Y02358*
X036Y02355*
X03599Y0235*
X036Y02345*
X03601Y02344*
X03602Y0234*
X03601Y02336*
X036Y02335*
X03599Y0233*
X036Y02326*
X03603Y02322*
X03607Y02319*
X03611Y02318*
X03667*
X03671Y02319*
X03675Y02322*
X03678Y02326*
X03679Y0233*
X03678Y02335*
X03677Y02336*
X03675Y0234*
X03677Y02344*
X03678Y02345*
X03679Y0235*
X03678Y02355*
X03675Y02358*
Y02361*
X03678Y02365*
X03679Y0237*
X03678Y02374*
X03677Y02376*
X03675Y02379*
X03677Y02383*
X03678Y02385*
X03679Y02389*
X03678Y02394*
X03677Y02394*
X03677Y02396*
X03678Y02397*
X0368Y024*
X03744*
X038Y02343*
Y02122*
X03801Y02119*
X03803Y02116*
X03824Y02094*
X03827Y02092*
X03831Y02092*
X03913*
X03914Y02091*
X03915*
X03915Y02091*
X03919Y02082*
X03925Y02074*
X03933Y02067*
X03942Y02063*
X03952Y02062*
X03962*
X03972Y02063*
X03982Y02067*
X0399Y02074*
X03996Y02082*
X04Y02091*
X04001Y02101*
X04Y02111*
X03996Y0212*
X0399Y02128*
X03982Y02135*
X03972Y02138*
X03962Y0214*
X03952*
X03942Y02138*
X03933Y02135*
X03925Y02128*
X03919Y0212*
X03915Y02111*
X03915Y0211*
X03914*
X03913Y0211*
X03834*
X03819Y02126*
Y02199*
X03823Y02201*
X03832Y02192*
X03835Y0219*
X03839Y0219*
X03913*
X03914Y02189*
X03915*
X03915Y02189*
X03919Y0218*
X03925Y02172*
X03933Y02165*
X03942Y02161*
X03952Y0216*
X03962*
X03972Y02161*
X03982Y02165*
X0399Y02172*
X03996Y0218*
X04Y02189*
X04001Y02199*
X04Y02209*
X03996Y02218*
X0399Y02226*
X03982Y02233*
X03972Y02236*
X03962Y02238*
X03952*
X03942Y02236*
X03933Y02233*
X03925Y02226*
X03919Y02218*
X03915Y02209*
X03915Y02208*
X03914*
X03913Y02208*
X03843*
X03831Y0222*
Y02302*
X03835Y02304*
X03846Y02293*
X03849Y02291*
X03853Y02291*
X03913*
X03914Y0229*
X03915*
X03915Y0229*
X03919Y02281*
X03925Y02273*
X03933Y02266*
X03942Y02262*
X03952Y02261*
X03962*
X03972Y02262*
X03982Y02266*
X0399Y02273*
X03996Y02281*
X04Y0229*
X04001Y023*
X04Y0231*
X03996Y02319*
X0399Y02327*
X03982Y02334*
X03972Y02337*
X03962Y02339*
X03952*
X03942Y02337*
X03933Y02334*
X03925Y02327*
X03919Y02319*
X03915Y0231*
X03915Y02309*
X03914*
X03913Y02309*
X03856*
X03843Y02323*
Y02347*
X03844Y02348*
X03848Y0235*
X0385Y0235*
X04008*
X04014Y02345*
Y02119*
X04014Y02116*
X04016Y02113*
X04033Y02097*
X04035Y02095*
X04039Y02094*
X04068*
X04069Y02094*
X0407Y02091*
X04074Y02082*
X0408Y02074*
X04088Y02067*
X04098Y02063*
X04108Y02062*
X04118*
X04128Y02063*
X04137Y02067*
X04145Y02074*
X04151Y02082*
X04155Y02091*
X04157Y02101*
X04155Y02111*
X04151Y0212*
X04145Y02128*
X04137Y02135*
X04128Y02138*
X04118Y0214*
X04108*
X04098Y02138*
X04088Y02135*
X0408Y02128*
X04074Y0212*
X04071Y02113*
X04071*
X0407Y02113*
X04069Y02113*
X04043*
X04032Y02123*
Y02195*
X04037Y02197*
X04041Y02192*
X04044Y0219*
X04048Y0219*
X04069*
X04069Y02189*
X0407*
X0407Y02189*
X04074Y0218*
X0408Y02172*
X04088Y02165*
X04098Y02161*
X04108Y0216*
X04118*
X04128Y02161*
X04137Y02165*
X04145Y02172*
X04151Y0218*
X04155Y02189*
X04157Y02199*
X04155Y02209*
X04151Y02218*
X04145Y02226*
X04137Y02233*
X04128Y02236*
X04118Y02238*
X04108*
X04098Y02236*
X04088Y02233*
X0408Y02226*
X04074Y02218*
X0407Y02209*
X0407Y02208*
X04069*
X04069Y02208*
X04051*
X04045Y02214*
Y02289*
X0405Y02291*
X04054Y02291*
X04069*
X04069Y0229*
X0407*
X0407Y0229*
X04074Y02281*
X0408Y02273*
X04088Y02266*
X04098Y02262*
X04108Y02261*
X04118*
X04128Y02262*
X04137Y02266*
X04145Y02273*
X04151Y02281*
X04155Y0229*
X04157Y023*
X04155Y0231*
X04151Y02319*
X04145Y02327*
X04137Y02334*
X04128Y02337*
X04118Y02339*
X04108*
X04098Y02337*
X04088Y02334*
X0408Y02327*
X04074Y02319*
X0407Y0231*
X0407Y02309*
X04069*
X04069Y02309*
X04058*
X04057Y02309*
Y02357*
X04057Y02361*
X04055Y02364*
X04028Y0239*
X04026Y02392*
X04022Y02392*
X03866*
X03746Y02513*
X03747Y02517*
X03748Y02518*
X03846*
X0385Y02519*
X03853Y02521*
X03923Y02591*
X03925Y0259*
X03927Y02585*
X03925Y02584*
X03919Y02576*
X03915Y02566*
X03914Y02556*
X03915Y02546*
X03919Y02537*
X03925Y02529*
X03933Y02523*
X03942Y02519*
X03952Y02517*
X03962*
X03972Y02519*
X03982Y02523*
X03983Y02524*
X03984Y02524*
X03987Y02526*
X0399Y02528*
X03993Y02529*
X03996Y02531*
X04Y02532*
X04004Y02533*
X04007Y02534*
X04016Y02535*
X04021Y02535*
X04021Y02535*
X04049*
X04049Y02535*
X04054Y02535*
X04058Y02534*
X04063Y02534*
X04067Y02533*
X0407Y02532*
X04074Y02531*
X04077Y02529*
X0408Y02528*
X04083Y02526*
X04086Y02524*
X04087Y02524*
X04088Y02523*
X04098Y02519*
X04108Y02517*
X04118*
X04128Y02519*
X04137Y02523*
X04145Y02529*
X04151Y02537*
X04155Y02546*
X04157Y02556*
X04155Y02566*
X04151Y02576*
X04145Y02584*
X04137Y0259*
X04128Y02594*
X04118Y02595*
X04108*
X04098Y02594*
X04088Y0259*
X04087Y02589*
X04086Y02588*
X04083Y02586*
X0408Y02585*
X04077Y02583*
X04074Y02582*
X0407Y0258*
X04067Y0258*
X04063Y02579*
X04054Y02578*
X04049Y02578*
X04049Y02578*
X04021*
X04021Y02578*
X04016Y02578*
X04012Y02578*
X04008Y02579*
X04004Y0258*
X04Y0258*
X03996Y02582*
X03993Y02583*
X0399Y02585*
X03987Y02586*
X03986Y02587*
X03988Y02592*
X04011*
X04014Y02593*
X04017Y02595*
X04065Y02643*
X04069Y02641*
Y02619*
X04156*
Y02696*
X04069*
Y02667*
X04069*
X04069Y02666*
X04066*
X04063Y02666*
X0406Y02664*
X04007Y02611*
X0393*
X0393Y02611*
X0393Y02616*
X03933Y02618*
X03934*
X03935Y02619*
X04001*
Y02696*
X03914*
Y02627*
X03913Y02626*
X03912Y02625*
X03912Y02624*
X0389Y02603*
X03886Y02605*
Y02813*
X03916Y02843*
X04066*
X04069Y02838*
X04067Y02833*
X04066Y02823*
X04067Y02813*
X04071Y02804*
X04077Y02796*
X04085Y0279*
X04094Y02786*
X04104Y02784*
X04114*
X04124Y02786*
X04134Y0279*
X04142Y02796*
X04148Y02804*
X04152Y02813*
X04153Y02823*
X04152Y02833*
X04148Y02843*
X04142Y02851*
X04134Y02857*
X04124Y02861*
X04114Y02862*
X04104*
X04094Y02861*
X04088Y02858*
X04088Y02859*
X04087Y02859*
X04085Y0286*
X04084Y02861*
X0408Y02862*
X03912*
X03909Y02861*
X03906Y02859*
X0387Y02823*
X03868Y0282*
X03867Y02817*
Y02597*
X03838Y02568*
X03714*
X0369Y02592*
X03691Y02595*
X03692Y02597*
X03729*
X0373Y02596*
X0373*
Y02582*
X03773*
Y02632*
X03748*
X03746Y02636*
X03757Y02647*
X03759Y0265*
X0376Y02654*
Y02662*
X0376Y02662*
Y02662*
X03773*
Y02712*
X0376*
X0376Y02712*
Y02742*
X0376Y02742*
X03773*
Y02781*
X03776Y02783*
X03776Y02784*
X03781Y02782*
Y02772*
X03807*
X03833*
Y02796*
X03829*
X03827Y028*
X0404Y03013*
X04065*
X04066Y03013*
X04067*
X04067Y03012*
X04071Y03003*
X04077Y02995*
X04085Y02989*
X04094Y02985*
X04104Y02983*
X04114*
X04124Y02985*
X04134Y02989*
X04142Y02995*
X04148Y03003*
X04152Y03012*
X04153Y03022*
X04152Y03032*
X04148Y03042*
X04142Y0305*
X04134Y03056*
X04124Y0306*
X04114Y03061*
X04104*
X04094Y0306*
X04085Y03056*
X04077Y0305*
X04071Y03042*
X04067Y03032*
X04067Y03032*
X04066*
X04065Y03031*
X04038*
X04035Y03036*
X04086Y03087*
X04087Y03087*
X04088Y03088*
X04088Y03088*
X04094Y03086*
X04104Y03084*
X04114*
X04124Y03086*
X04134Y0309*
X04142Y03096*
X04148Y03104*
X04152Y03113*
X04153Y03123*
X04152Y03133*
X04148Y03143*
X04142Y03151*
X04134Y03157*
X04124Y03161*
X04114Y03162*
X04104*
X04094Y03161*
X04085Y03157*
X04077Y03151*
X04071Y03143*
X04067Y03133*
X04066Y03123*
X04067Y03113*
X04071Y03104*
X04073Y031*
X04072Y03099*
X03791Y02818*
X0362*
X03616Y02817*
X03613Y02815*
X0355Y02751*
X03548Y02749*
X03544Y02746*
X03542Y02746*
X03541Y02747*
X03537Y02748*
X03532Y02747*
X03531Y02746*
X03529Y02746*
X03529Y02746*
X03526Y02747*
X03525Y02748*
X03525Y02748*
X03525Y02749*
Y02788*
X03525Y02789*
X03526Y0279*
Y0279*
Y0279*
X03526Y0279*
Y0279*
X03526Y02791*
Y02791*
X03526Y02791*
X03526Y02791*
X03526Y02791*
X03527Y02792*
X03529Y02796*
X0353Y02801*
X03529Y02807*
X03526Y02811*
X03521Y02814*
X03516Y02815*
X03511Y02814*
X03506Y02817*
Y03165*
X03543Y03202*
X03652*
Y03195*
X03652Y03194*
Y03194*
X0364*
Y03151*
X03683*
Y03194*
X03671*
Y03194*
X03671Y03195*
Y03202*
X03777*
X03779Y03198*
Y03197*
Y03182*
X03779*
X03778Y03182*
X03747*
X03746Y03182*
Y03194*
X03703*
Y03151*
X03746*
Y03163*
X03747Y03163*
X03778*
X03779Y03163*
X03779*
Y03149*
X03822*
Y03197*
Y03198*
X03824Y03202*
X03825*
X0383Y03202*
Y03197*
Y03178*
X03856*
X03881*
Y03202*
X03886Y03202*
X03929*
X03933Y03203*
X03936Y03205*
X0395Y03219*
X03952Y03222*
X03953Y03226*
Y03539*
X03952Y03542*
X0395Y03545*
X03947Y03549*
X03944Y03551*
X0394Y03551*
X03915*
X03913Y03554*
X03913Y03555*
X03913Y03557*
X03913Y03558*
X03914Y03562*
X03913Y03566*
X03911Y0357*
Y03574*
X03913Y03577*
X03914Y03581*
X03913Y03586*
X03911Y03589*
X03907Y03592*
X03903Y03593*
X03872*
X03871Y03593*
X03867Y03597*
X03867Y03597*
Y03629*
X03866Y03633*
X03864Y03637*
X0386Y03639*
X03856Y0364*
X03852Y03639*
X03848Y03637*
X03844*
X0384Y03639*
X03836Y0364*
X03832Y03639*
X03831Y03639*
X03827Y03639*
X03822Y03643*
X03822Y03643*
Y03613*
X03812*
Y03643*
X03811Y03643*
X0381*
X03806Y03645*
Y03661*
X03806Y03662*
Y03663*
Y03663*
X03806Y03663*
Y03664*
X03807Y03664*
X03807Y03664*
Y03664*
X03807Y03664*
X03807Y03665*
X03807Y03665*
X0381Y03669*
X03811Y03675*
X0381Y0368*
X03807Y03685*
X03802Y03688*
X03801Y03688*
X038Y03693*
X0381Y03704*
X03812Y03707*
X03813Y0371*
Y03752*
X03813Y03752*
Y03752*
X03841*
X03843Y03749*
X03849Y03744*
X03857Y03741*
X0386Y03741*
Y03747*
X03859Y03746*
X03852Y03748*
X03853Y03749*
X03854Y0375*
X03854Y03751*
X03855Y03752*
X03855Y03752*
X03855Y03753*
X03855Y03753*
X03855Y03754*
X03854Y03754*
X03854Y03754*
X0386Y03753*
Y03775*
Y03809*
X03857Y03809*
X03849Y03806*
X03847Y03804*
X03842Y03807*
Y03818*
X0384*
X0384Y03818*
X03839Y03821*
X03837Y03825*
X03829Y03833*
X03825Y03836*
X03821Y03836*
X03529*
X03525Y03836*
X03521Y03833*
X03469Y03781*
X03468Y03781*
X03467Y0378*
X03466Y03779*
X03466Y03778*
X03463Y03778*
X03459Y03775*
X03456Y0377*
X03455Y03765*
X03456Y03759*
X03459Y03755*
X03463Y03752*
X03469Y03751*
X03474Y03752*
X03479Y03755*
X03482Y03759*
X03482Y03762*
X03484Y03764*
X03485Y03764*
X03485Y03765*
X03534Y03814*
X03681*
X03682Y03809*
X03674Y03806*
X03668Y03801*
X03663Y03795*
X0366Y03787*
X03659Y0378*
X0369*
Y03775*
X03695*
Y03741*
X03698Y03741*
X03705Y03744*
X0371Y03748*
X03721*
Y03785*
X03731*
Y03748*
X03744*
Y03752*
X03768*
Y03752*
X03768Y03752*
Y03746*
X03768Y03746*
Y03745*
Y03745*
X03768Y03745*
Y03744*
X03768Y03744*
Y03744*
X03767Y03744*
X03767Y03744*
Y03744*
X03767Y03744*
X03767Y03743*
X03764Y03739*
X03763Y03734*
X03764Y03728*
X03767Y03724*
X03772Y0372*
X03777Y03719*
X03783Y0372*
X03787Y03724*
X03789Y03726*
X03794Y03725*
Y03714*
X03771Y0369*
X03769Y03687*
X03768Y03684*
Y03652*
X03767Y03651*
X03763Y0365*
X03748Y03665*
X03746Y03667*
X03742Y03667*
X03672*
X03668Y03667*
X03665Y03665*
X03625Y03624*
X0362*
X0362Y03624*
X0362*
Y0364*
X03607*
X03607Y0364*
Y03667*
X03607Y03668*
X0362*
Y03683*
X0362*
X0362Y03683*
X0364*
X03641Y03683*
X03641*
X03642*
X03642*
X03642Y03683*
X03642*
X03642Y03683*
X03642Y03682*
X03643*
X03643Y03682*
X03643Y03682*
X03644Y03682*
X03648Y03679*
X03653Y03678*
X03658Y03679*
X03663Y03682*
X03666Y03687*
X03667Y03692*
X03666Y03698*
X03663Y03702*
X03658Y03705*
X03653Y03706*
X03648Y03705*
X03644Y03703*
X03643Y03703*
X03643Y03702*
X03643Y03702*
X03642Y03702*
X03642*
X03642Y03702*
X03642*
X03642Y03702*
X03642*
X03641Y03702*
X03641*
X0364Y03701*
X0362*
X0362Y03702*
X0362*
Y03717*
X03605*
X03604Y03717*
X03604*
X03604*
X03603Y03717*
X03603Y03717*
X03603Y03718*
X03602Y03718*
X03602Y03718*
X03601Y03719*
X03601Y03719*
X036Y0372*
X03599Y0372*
X03593Y03726*
X0359Y03728*
X03586Y03729*
X03394*
X03393Y03729*
X03393*
X03392*
X03392Y03729*
X03392Y03729*
X03391Y03729*
X03391Y03729*
X0339Y03729*
X0339Y03729*
X03389Y03729*
X03387*
X03383Y03728*
X03382Y03727*
X0338Y03727*
X0335*
Y03683*
X03356*
X03356Y03683*
X03357Y03683*
X03357Y03683*
X03357Y03682*
X03357Y03681*
X03358Y03679*
X03358Y03677*
X03358Y03674*
X03358Y03674*
Y03587*
X03358Y03587*
X03358Y03584*
X03358Y03582*
X03357Y0358*
X03357Y03579*
X03357Y03578*
X03357Y03578*
X03356Y03578*
X03356Y03577*
X03318*
Y03538*
X03318Y03537*
X03318Y03535*
X03317Y03534*
X03317Y03533*
X03316Y03532*
X03314Y03531*
X03312Y0353*
X03308Y03529*
X03304Y03529*
X033Y03528*
X03294Y03528*
X03294*
X03221*
X0322*
X0321Y03528*
X03202Y03529*
X03199Y03529*
X03197Y03529*
X03196Y0353*
Y03532*
X03191*
X0319Y03533*
X03189Y03532*
X03188*
X03188*
X0309*
Y03481*
X03188*
Y03481*
X03188Y03481*
X03189*
X0319Y0348*
X03191Y03481*
X03196*
Y03483*
X03197Y03484*
X03199Y03484*
X03215Y03485*
X0322*
X03221Y03485*
X03294*
X03294*
X033Y03485*
X03304Y03484*
X03308Y03484*
X0331Y03483*
X03311Y03479*
X03311Y03478*
X03302Y03468*
X03299Y03464*
X03298Y03464*
X03296Y03461*
X03291Y03454*
X0329Y03446*
Y03369*
X0329Y03369*
X03289Y03358*
X03289Y03354*
X03288Y03351*
X03288Y03348*
X03287Y03346*
X03286Y03345*
X03286Y03345*
X03286Y03345*
X03285Y03344*
X03281*
Y03339*
X0328Y03338*
X0328Y03338*
X0328Y03337*
X03281Y03337*
Y03285*
X0328Y03285*
X0328Y03284*
X0328Y03284*
X03281Y03283*
Y03277*
X03285*
X03286Y03277*
X03286*
X03286Y03277*
X03287Y03276*
X03288Y03274*
X03288Y03272*
X03287Y03269*
X03287Y03267*
X03286Y03266*
X03286Y03266*
X03285Y03266*
X03285Y03266*
X0328*
Y0326*
X0328Y0326*
X0328Y03259*
X0328Y03259*
X0328Y03258*
Y03206*
X0328Y03206*
X0328Y03205*
X0328Y03205*
X0328Y03204*
Y03199*
X03285*
X03285Y03198*
X03286Y03198*
X03286Y03198*
X03287Y03197*
X03287Y03195*
X03288Y03193*
X03289Y03189*
X03289Y0318*
X0329Y03175*
X0329Y03174*
Y03088*
X03277Y03076*
X03272Y03078*
Y03129*
X0327Y03134*
X03257Y03148*
X03252Y0315*
X03136*
X03067Y03219*
Y03363*
X03082Y03378*
X03186*
X03187Y03378*
X03187Y03378*
X03189Y03379*
X03191Y0338*
X03191Y03381*
X03192Y03381*
X03199Y03393*
X03199Y03395*
X032Y03397*
Y03434*
X03199Y03436*
X03199Y03438*
X03191Y03449*
X03191Y03449*
X03191Y03449*
X03189Y0345*
X03187Y03451*
X03186Y03451*
X03186Y03451*
X02788*
X02786Y03456*
X02837Y03507*
X02839Y03511*
Y03864*
X02837Y03868*
X02832Y0387*
X02681*
X02677Y03868*
X02608Y03799*
X02601Y03792*
X02599Y03788*
Y03524*
X02547Y03472*
X0254Y03465*
X02389*
X02385Y03463*
X02371Y03449*
X02369Y03445*
Y03347*
X02371Y03343*
X02385Y03329*
X02389Y03327*
X02628*
X02655*
X02659Y03329*
X02715Y03385*
X0272Y03383*
Y03121*
X02722Y03117*
X02782Y03057*
X02787Y03055*
X02992*
X02994Y0305*
X02985Y03041*
X0298Y03034*
X02979Y03026*
X0298Y03017*
X02985Y0301*
X02987Y03009*
X02986Y03004*
X02982Y03002*
X02974Y02996*
X02968Y02988*
X02965Y0298*
X02963Y0297*
Y02944*
X02965Y02935*
X02968Y02926*
X02974Y02919*
X02982Y02913*
X02985Y02911*
X02984Y02906*
X02964*
Y02808*
X03036*
Y02906*
X03015*
X03014Y02911*
X03018Y02913*
X03025Y02919*
X03031Y02926*
X03035Y02935*
X03036Y02944*
Y0297*
X03035Y0298*
X03031Y02988*
X03025Y02996*
X03018Y03002*
X03014Y03003*
X03013Y03009*
X03015Y0301*
X03019Y03014*
X03189*
X03189Y03009*
X0318Y03005*
X03171Y02999*
X03165Y02991*
X03161Y02981*
X03159Y0297*
Y02962*
X0324*
Y0297*
X03239Y02981*
X03235Y02991*
X03228Y02999*
X0322Y03005*
X0321Y03009*
X03211Y03014*
X03267*
X03276Y03016*
X03283Y0302*
X03326Y03064*
X03331Y03071*
X03333Y03079*
Y03174*
Y03175*
X03333Y03185*
X03333Y03189*
X03334Y03193*
X03335Y03195*
X03335Y03197*
X03336Y03198*
X03336Y03198*
X03337Y03198*
X03337Y03199*
X03342*
Y03204*
X03342Y03205*
X03342Y03205*
X03342Y03206*
X03342Y03206*
Y03258*
X03342Y03259*
X03342Y03259*
X03342Y0326*
X03342Y0326*
Y03266*
X03337*
X03337Y03266*
X03336Y03266*
X03336Y03266*
X03335Y03267*
X03335Y03269*
X03334Y03271*
X03335Y03274*
X03336Y03276*
X03336Y03277*
X03337Y03277*
X03337Y03277*
X03338Y03277*
X03343*
Y03283*
X03343Y03284*
X03343Y03284*
X03343Y03285*
X03343Y03285*
Y03337*
X03343Y03337*
X03343Y03338*
X03343Y03338*
X03343Y03339*
Y03344*
X03338*
X03337Y03345*
X03337Y03345*
X03336Y03345*
X03336Y03346*
X03335Y03348*
X03334Y03351*
X03333Y03354*
X03333Y03363*
X03333Y03368*
Y03369*
Y03436*
X03425*
Y03577*
X03388*
X03388Y03578*
X03387Y03578*
X03387Y03578*
X03387Y03579*
X03386Y0358*
X03386Y03582*
X03386Y03584*
X03386Y03587*
X03386Y03587*
Y03674*
X03386Y03674*
X03386Y03677*
X03386Y03679*
X03386Y03681*
X03387Y03682*
X03387Y03683*
X03387Y03683*
X03388Y03683*
X03388Y03683*
X03394*
Y0371*
X03394*
X03394Y03711*
X03517*
Y03697*
X03543*
X03569*
Y03711*
X03576*
Y03668*
X03588*
X03589Y03667*
Y0364*
X03588Y0364*
X03576*
Y0359*
X03602*
X03604Y03585*
X03591Y03573*
X03589Y0357*
X03589Y03566*
Y03563*
X03588Y03562*
X03576*
Y03513*
X03588*
Y03513*
X03589Y03512*
Y03485*
X03588Y03485*
Y03485*
X03576*
Y03435*
X03575Y03431*
X03573*
X03569Y03431*
Y03436*
Y03455*
X03543*
X03517*
Y03431*
X03512Y03431*
X03484*
X03483Y03431*
X03483*
X0348Y03436*
X0348Y03436*
Y03666*
X0348Y03666*
Y03667*
X03481Y03669*
X03481Y0367*
X03482Y03672*
X03483Y03677*
X03482Y03683*
X03479Y03687*
X03474Y0369*
X03469Y03691*
X03463Y0369*
X03459Y03687*
X03456Y03683*
X03455Y03677*
X03456Y03672*
X03457Y03669*
X03457Y03667*
Y03666*
X03458Y03666*
X03457*
X03458Y03665*
Y03423*
X03458Y03423*
X03458Y03422*
Y03422*
X03458Y03421*
X03458Y0342*
Y03132*
X03438Y03112*
X03427*
X03426Y03112*
X03424*
X03423Y03112*
X03422Y03112*
X03422*
Y03139*
X03353*
Y03062*
X03422*
Y03089*
X03422Y03089*
X03423Y03089*
X03424Y03089*
X03426Y03089*
X03427Y03089*
X03442*
X03447Y0309*
X0345Y03093*
X03471Y03113*
X03476Y03112*
Y02815*
X03476Y02815*
X03476Y02815*
X03475Y02814*
X0347Y02811*
X03467Y02807*
X03466Y02801*
X03467Y02796*
X0347Y02791*
X03475Y02788*
X0348Y02787*
X03483Y02788*
X03488Y02784*
Y02749*
X03485Y02747*
X03484Y02747*
X03483Y02747*
X03482Y02747*
X03478Y02748*
X03473Y02747*
X03469Y02744*
X03466*
X03462Y02747*
X03458Y02748*
X03453Y02747*
X03449Y02744*
X03447*
X03443Y02747*
X03438Y02748*
X03434Y02747*
X0343Y02744*
X03427*
X03423Y02747*
X03418Y02748*
X03414Y02747*
X0341Y02744*
X03407*
X03403Y02747*
X03399Y02748*
X03394Y02747*
X0339Y02744*
X03388*
X03384Y02747*
X03379Y02748*
X03374Y02747*
X03371Y02744*
X03368*
X03364Y02747*
X03359Y02748*
X03355Y02747*
X03354Y02747*
X03352Y02747*
X03352Y02747*
X03349Y02749*
Y02758*
X03348Y02761*
X03346Y02764*
X033Y0281*
X03297Y02812*
X03294Y02813*
X03231*
X03229Y02818*
X03234Y02824*
X03238Y02834*
X03239Y02844*
Y02852*
X03199*
Y02862*
X03239*
Y0287*
X03238Y02881*
X03234Y02891*
X03227Y02899*
X0322Y02904*
X0322Y02907*
X0322Y02909*
X03221Y0291*
X03228Y02916*
X03235Y02924*
X03239Y02934*
X0324Y02944*
Y02952*
X03159*
Y02944*
X03161Y02934*
X03165Y02924*
X03171Y02916*
X03178Y0291*
X03178Y02907*
X03178Y02906*
X03178Y02905*
X0317Y02899*
X03164Y02891*
X03161Y02883*
X03156Y02884*
Y02911*
X03155Y02914*
X03153Y02917*
X03137Y02933*
X03137Y02934*
X03136Y02935*
X03135Y02935*
X03135Y02936*
Y02936*
X03136Y02944*
Y0297*
X03135Y0298*
X03131Y02988*
X03125Y02996*
X03118Y03002*
X03109Y03005*
X031Y03007*
X0309Y03005*
X03082Y03002*
X03074Y02996*
X03068Y02988*
X03065Y0298*
X03063Y0297*
Y02944*
X03065Y02935*
X03068Y02926*
X03074Y02919*
X03082Y02913*
X03089Y0291*
Y02905*
X03082Y02902*
X03074Y02896*
X03068Y02888*
X03065Y0288*
X03063Y0287*
Y02844*
X03065Y02835*
X03068Y02826*
X03074Y02819*
X03082Y02813*
X0309Y02809*
X031Y02808*
X03109Y02809*
X03118Y02813*
X03125Y02819*
X03131Y02826*
X03132Y02829*
X03137Y02828*
Y02816*
X03138Y02813*
X0314Y0281*
X03144Y02805*
X03143Y02801*
X0302*
X03016Y028*
X03013Y02798*
X02807Y02592*
X02764*
X02764Y02592*
Y02604*
X02714*
Y02589*
X02714*
X02713Y02589*
X02658*
X02655Y02593*
X02655Y02658*
X02655Y02658*
X02659Y02669*
X02661Y0268*
X02659Y02691*
X02655Y02701*
X02655Y02701*
Y02741*
X02656*
Y02756*
X02657Y02756*
X02661Y02759*
X02662Y02759*
X02714*
Y02745*
X02764*
Y02759*
X02797*
Y02745*
X02846*
Y02759*
X02889*
X0289Y02758*
X02894Y02755*
X029Y02754*
X02905Y02755*
X0291Y02758*
X02913Y02763*
X02914Y02768*
X02913Y02774*
X0291Y02778*
X02905Y02781*
X029Y02782*
X02894Y02781*
X0289Y02778*
X02889Y02777*
X02846*
Y02788*
X02797*
Y02777*
X02764*
Y02789*
X02714*
Y02777*
X02666*
X02657Y02786*
X02656Y02787*
Y02818*
X02655Y0282*
Y02827*
X02046*
Y03938*
X03603*
X03604Y03933*
X03603Y03933*
X03623*
X03622Y03933*
X03623Y03938*
X03687*
Y039*
X03732*
Y03895*
X03737*
Y03848*
X03818*
Y03895*
X03823*
Y039*
X03868*
Y03938*
X03931*
X03932Y03933*
X03931Y03933*
X03952*
X03951Y03933*
X03952Y03938*
X04184*
Y01451*
G37*
G36*
X03834Y03816D02*
X03834Y03812D01*
Y03812*
X03834Y03812*
X03835Y03812*
X03835Y03811*
X03823*
X03823Y03812*
X03824Y03812*
X03824Y03812*
X03824Y03812*
X03824Y03813*
X03824Y03814*
Y03817*
X03834*
Y03816*
G37*
G36*
X0348Y03769D02*
X03479Y03768D01*
X03477Y03766*
X03477Y03765*
X03477Y03765*
Y03765*
X03469Y03773*
X03469*
X03469Y03773*
X0347Y03773*
X0347Y03773*
X03471Y03774*
X03472Y03775*
X03473Y03776*
X0348Y03769*
G37*
G36*
X03809Y03759D02*
X03808Y03758D01*
X03808Y03758*
X03807Y03758*
X03807Y03757*
X03807Y03756*
X03807Y03756*
X03807Y03755*
X03806Y03754*
X03806Y03753*
X038*
Y03754*
X038Y03755*
X038Y03756*
X038Y03756*
X038Y03757*
X03799Y03758*
X03799Y03758*
X03798Y03758*
X03798Y03759*
X03797*
X03809*
X03809*
G37*
G36*
X03783D02*
X03782Y03758D01*
X03782Y03758*
X03781Y03758*
X03781Y03757*
X03781Y03756*
X03781Y03756*
X0378Y03755*
X0378Y03754*
Y03753*
X03774*
Y03754*
X03774Y03755*
X03774Y03756*
X03774Y03756*
X03774Y03757*
X03773Y03758*
X03773Y03758*
X03772Y03758*
X03772Y03759*
X03771*
X03783*
X03783*
G37*
G36*
X0378Y03745D02*
X0378Y03744D01*
X0378Y03743*
X03781Y03743*
X03781Y03742*
X03781Y03741*
X03781Y03741*
X03782Y0374*
X03782Y0374*
X03783Y03739*
X03772*
X03772Y0374*
X03773Y0374*
X03773Y03741*
X03773Y03741*
X03774Y03742*
X03774Y03743*
X03774Y03743*
X03774Y03744*
X03774Y03745*
Y03746*
X0378*
Y03745*
G37*
G36*
X03393Y03717D02*
X03392D01*
X03391Y03717*
X0339Y03717*
X0339Y03716*
X03389Y03716*
X03388Y03716*
X03388Y03716*
X03388Y03715*
X03388Y03715*
X03387Y03714*
Y03716*
X03387Y03716*
X03382Y0371*
X03381Y03709*
X0338Y03707*
X0338Y03706*
X03379Y03706*
X03379Y03705*
X03372Y03712*
X03372Y03713*
X03373Y03713*
X03374Y03713*
X03375Y03714*
X03377Y03715*
X0338Y03717*
X03383Y0372*
X03385Y03722*
X03387Y03719*
Y03721*
X03388Y03721*
X03388Y03721*
X03388Y03722*
X03388Y03722*
X03389Y03722*
X0339Y03723*
X0339Y03723*
X03391Y03723*
X03392Y03723*
X03393*
Y03717*
G37*
G36*
X03596Y03714D02*
X03597Y03714D01*
X03598Y03713*
X03599Y03712*
X036Y03712*
X03601Y03711*
X03601Y03711*
X03602Y03711*
X03603Y03711*
X03604*
X03587*
X03588*
X03588Y03711*
X03589Y03711*
X03589Y03711*
X03589Y03712*
X03589Y03712*
X03589Y03713*
X03588Y03714*
X03588Y03714*
X03587Y03715*
X03595*
X03596Y03714*
G37*
G36*
X03647Y03687D02*
X03647Y03687D01*
X03646Y03688*
X03646Y03688*
X03645Y03688*
X03645Y03689*
X03644Y03689*
X03643Y03689*
X03643Y03689*
X03642Y03689*
X03641*
Y03695*
X03642Y03695*
X03643*
X03643Y03696*
X03644Y03696*
X03645Y03696*
X03645Y03696*
X03646Y03697*
X03646Y03697*
X03647Y03697*
X03647Y03698*
Y03687*
G37*
G36*
X03614Y03698D02*
X03614Y03697D01*
X03614Y03697*
X03614Y03696*
X03615Y03696*
X03616Y03696*
X03616Y03696*
X03617Y03695*
X03618*
X0362Y03695*
Y03689*
X03618*
X03617Y03689*
X03616Y03689*
X03616Y03689*
X03615Y03689*
X03614Y03688*
X03614Y03688*
X03614Y03687*
X03614Y03687*
X03613Y03686*
Y03698*
X03614Y03698*
G37*
G36*
X03385Y03689D02*
X03384Y03689D01*
X03383Y03688*
X03382Y03687*
X03381Y03686*
X03381Y03684*
X0338Y03682*
X0338Y0368*
X03379Y03677*
X03379Y03674*
X03364*
X03364Y03677*
X03364Y0368*
X03364Y03682*
X03363Y03684*
X03362Y03686*
X03362Y03687*
X03361Y03688*
X0336Y03689*
X03358Y03689*
X03357Y03689*
X03387*
X03385Y03689*
G37*
G36*
X03603Y03674D02*
X03603Y03674D01*
X03602Y03673*
X03602Y03673*
X03602Y03672*
X03601Y03672*
X03601Y03671*
X03601Y0367*
X03601Y03669*
Y03668*
X03595*
Y03669*
X03595Y0367*
X03595Y03671*
X03594Y03672*
X03594Y03672*
X03594Y03673*
X03593Y03673*
X03593Y03674*
X03593Y03674*
X03592Y03674*
X03604*
X03603Y03674*
G37*
G36*
X03474Y03671D02*
X03474Y03671D01*
Y03671*
X03474Y03671*
X03474Y0367*
X03474Y03667*
Y03666*
X03464Y03666*
Y03667*
X03464Y0367*
Y03671*
X03464Y03671*
X03464Y03671*
X03463Y03671*
X03474Y03672*
X03474Y03671*
G37*
G36*
X03802Y03669D02*
X03802Y03669D01*
X03801Y03668*
X03801Y03667*
X03801Y03667*
X038Y03666*
X038Y03665*
X038Y03665*
X038Y03664*
X038Y03663*
Y03662*
X03794*
X03794Y03663*
Y03664*
X03794Y03665*
X03793Y03666*
X03793Y03666*
X03793Y03667*
X03793Y03668*
X03792Y03668*
X03792Y03669*
X03791Y03669*
X03802Y03669*
G37*
G36*
X03601Y03638D02*
X03601Y03637D01*
X03601Y03636*
X03601Y03636*
X03602Y03635*
X03602Y03634*
X03602Y03634*
X03603Y03634*
X03603Y03633*
X03604*
X03592*
X03593*
X03593Y03634*
X03593Y03634*
X03594Y03634*
X03594Y03635*
X03594Y03636*
X03595Y03636*
X03595Y03637*
X03595Y03638*
Y03639*
X03601*
Y03638*
G37*
G36*
X038Y03637D02*
X038Y03635D01*
X038Y03634*
X038Y03633*
X03801Y03632*
X03801Y03632*
X03801Y03631*
X03801Y03631*
X03792*
X03793Y03631*
X03793Y03632*
X03793Y03632*
X03793Y03633*
X03793Y03634*
X03794Y03635*
X03794Y03636*
X03794Y03637*
Y03638*
X038*
Y03637*
G37*
G36*
X0378D02*
X0378Y03635D01*
X03781Y03634*
X03781Y03633*
X03781Y03632*
X03781Y03632*
X03781Y03631*
X03782Y03631*
X03773*
X03773Y03631*
X03773Y03632*
X03773Y03632*
X03774Y03633*
X03774Y03634*
X03774Y03635*
X03774Y03636*
X03774Y03637*
Y03638*
X0378*
Y03637*
G37*
G36*
X0376D02*
X03761Y03635D01*
X03761Y03634*
X03761Y03633*
X03761Y03632*
X03761Y03632*
X03762Y03631*
X03762Y03631*
X03753*
X03753Y03631*
X03753Y03632*
X03754Y03632*
X03754Y03633*
X03754Y03634*
X03754Y03635*
X03754Y03636*
X03754Y03637*
Y03638*
X0376*
Y03637*
G37*
G36*
X03614Y0362D02*
X03614Y0362D01*
X03614Y03619*
X03614Y03619*
X03615Y03619*
X03616Y03618*
X03616Y03618*
X03617Y03618*
X03618Y03618*
X0362*
Y03612*
X03618*
X03617Y03612*
X03616Y03612*
X03616Y03611*
X03615Y03611*
X03614Y03611*
X03614Y0361*
X03614Y0361*
X03614Y03609*
X03613Y03609*
Y03621*
X03614Y0362*
G37*
G36*
X03733Y036D02*
Y036D01*
X03733Y03601*
X03733Y03601*
X03732Y03602*
X03732Y03602*
X03731Y03602*
X03731Y03601*
X0373Y03601*
X03729Y036*
X03729Y036*
Y03608*
X03729Y03609*
X0373Y0361*
X03731Y03611*
X03731Y03612*
X03732Y03612*
X03732Y03613*
X03733Y03614*
X03733Y03615*
X03733Y03616*
Y03617*
Y036*
G37*
G36*
X03719Y0359D02*
X03718Y03589D01*
X03718Y03588*
X03718Y03588*
X03717Y03587*
X03718Y03587*
X03718Y03587*
X03718Y03586*
X03719Y03586*
X0372Y03586*
X03703*
X03704Y03586*
X03704Y03586*
X03705Y03587*
X03706Y03587*
X03707Y03587*
X03708Y03588*
X03709Y03588*
X03709Y03589*
X0371Y0359*
X03711Y03591*
X0372*
X03719Y0359*
G37*
G36*
X03689Y03577D02*
X03688Y03577D01*
X03688Y03578*
X03687Y03578*
X03686Y03578*
X03686Y03578*
X03685Y03578*
X03683Y03578*
X03682*
X03681*
Y03584*
X03682*
X03685Y03585*
X03686Y03585*
X03686Y03585*
X03687Y03585*
X03688Y03585*
X03688Y03586*
X03689Y03586*
Y03577*
G37*
G36*
X03379Y03583D02*
X0338Y03581D01*
X0338Y03579*
X03381Y03577*
X03381Y03575*
X03382Y03574*
X03383Y03573*
X03384Y03572*
X03385Y03571*
X03387Y03571*
X03357*
X03358Y03571*
X0336Y03572*
X03361Y03573*
X03362Y03574*
X03362Y03575*
X03363Y03577*
X03364Y03579*
X03364Y03581*
X03364Y03583*
X03364Y03586*
X03379*
X03379Y03583*
G37*
G36*
X03689Y03557D02*
X03688Y03558D01*
X03688Y03558*
X03687Y03558*
X03686Y03558*
X03686Y03558*
X03685Y03559*
X03683Y03559*
X03682*
X03681*
Y03565*
X03682Y03565*
X03685Y03565*
X03686Y03565*
X03686Y03565*
X03687Y03566*
X03688Y03566*
X03688Y03566*
X03689Y03566*
Y03557*
G37*
G36*
X03601Y03561D02*
X03601Y0356D01*
X03601Y03559*
X03601Y03558*
X03602Y03557*
X03602Y03557*
X03602Y03556*
X03603Y03556*
X03603Y03556*
X03604Y03556*
X03592*
X03593Y03556*
X03593Y03556*
X03593Y03556*
X03594Y03557*
X03594Y03557*
X03594Y03558*
X03595Y03559*
X03595Y0356*
X03595Y03561*
Y03562*
X03601*
Y03561*
G37*
G36*
X03905Y03546D02*
X03906Y03546D01*
X03907Y03546*
X03907Y03546*
X03908Y03545*
X03909Y03545*
X03911Y03545*
X03912*
X03913*
Y03539*
X03912Y03539*
X03909Y03539*
X03908Y03539*
X03907Y03539*
X03907Y03538*
X03906Y03538*
X03905Y03538*
X03905Y03538*
Y03547*
X03905Y03546*
G37*
G36*
Y03527D02*
X03906Y03526D01*
X03907Y03526*
X03907Y03526*
X03908Y03526*
X03909Y03526*
X03911Y03525*
X03912*
X03913*
Y03519*
X03912*
X03909Y03519*
X03908Y03519*
X03907Y03519*
X03907Y03519*
X03906Y03518*
X03905Y03518*
X03905Y03518*
Y03527*
X03905Y03527*
G37*
G36*
X03603Y03519D02*
X03603Y03519D01*
X03602Y03518*
X03602Y03518*
X03602Y03517*
X03601Y03517*
X03601Y03516*
X03601Y03515*
X03601Y03514*
Y03513*
X03595*
Y03514*
X03595Y03515*
X03595Y03516*
X03594Y03517*
X03594Y03517*
X03594Y03518*
X03593Y03518*
X03593Y03519*
X03593Y03519*
X03592Y03519*
X03604*
X03603Y03519*
G37*
G36*
X03689Y03498D02*
X03688Y03499D01*
X03688Y03499*
X03687Y03499*
X03686Y03499*
X03686Y03499*
X03685Y03499*
X03683Y035*
X03682Y035*
X03681*
Y03506*
X03682*
X03685Y03506*
X03686Y03506*
X03686Y03506*
X03687Y03506*
X03688Y03507*
X03688Y03507*
X03689Y03507*
Y03498*
G37*
G36*
X03191Y03525D02*
X03191Y03524D01*
X03193Y03524*
X03195Y03523*
X03198Y03523*
X03201Y03522*
X03209Y03522*
X0322Y03521*
Y03491*
X03215*
X03198Y0349*
X03195Y0349*
X03193Y03489*
X03191Y03489*
X03191Y03488*
X0319Y03487*
Y03526*
X03191Y03525*
G37*
G36*
X03601Y03483D02*
X03601Y03482D01*
X03601Y03481*
X03601Y03481*
X03602Y0348*
X03602Y03479*
X03602Y03479*
X03603Y03479*
X03603Y03479*
X03604Y03478*
X03592*
X03593Y03479*
X03593Y03479*
X03593Y03479*
X03594Y03479*
X03594Y0348*
X03594Y03481*
X03595Y03481*
X03595Y03482*
X03595Y03483*
Y03485*
X03601*
Y03483*
G37*
G36*
X03324Y03476D02*
Y03477D01*
X03324Y03442*
Y03441*
X03324Y0344*
X03324Y0344*
X03324Y03439*
X03324Y03438*
X03323Y03438*
X03323Y03437*
X03323Y03437*
X03322Y03436*
X03322Y03435*
X03303Y03459*
X03307Y03463*
X03321Y03479*
X03323Y03481*
X03323Y03482*
X03322Y03484*
X0332Y03486*
X03317Y03488*
X03314Y03489*
X0331Y0349*
X03305Y03491*
X033Y03491*
X03294Y03491*
Y03521*
X033Y03522*
X03305Y03522*
X0331Y03523*
X03314Y03524*
X03317Y03525*
X0332Y03527*
X03322Y03529*
X03323Y03531*
X03324Y03534*
X03324Y03536*
Y03476*
G37*
G36*
X03603Y03441D02*
X03603Y03441D01*
X03602Y03441*
X03602Y03441*
X03602Y0344*
X03601Y03439*
X03601Y03439*
X03601Y03438*
X03601Y03437*
Y03435*
X03595*
Y03437*
X03595Y03438*
X03595Y03439*
X03594Y03439*
X03594Y0344*
X03594Y03441*
X03593Y03441*
X03593Y03441*
X03593Y03441*
X03592Y03442*
X03604*
X03603Y03441*
G37*
G36*
X03474Y03433D02*
X03474Y03431D01*
X03475Y0343*
X03475Y03428*
X03475Y03427*
X03476Y03426*
X03477Y03426*
X03478Y03425*
X03479Y03425*
X03479*
X03483Y03425*
Y03419*
X03478Y03418*
X03478Y03418*
X03477Y03418*
X03476Y03417*
X03475Y03416*
X03475Y03415*
X03475Y03414*
X03474Y03412*
X03474Y03411*
X03474Y03409*
X03464Y03422*
X03474Y03435*
X03474Y03433*
G37*
G36*
X03618Y03398D02*
X03617Y03397D01*
X03615Y03395*
X03614Y03394*
X03614Y03393*
X03614Y03392*
X03613Y03392*
Y03391*
Y0339*
X03613Y0339*
X03608Y03401*
X03608Y03401*
X03609Y034*
X03609Y034*
X0361Y034*
X03611Y03401*
X03612Y03401*
X03613Y03402*
X03614Y03403*
X03617Y03405*
X03618Y03398*
G37*
G36*
X03664Y03376D02*
Y03375D01*
X03665Y03375*
X03665Y03374*
X03665Y03373*
X03665Y03372*
X03666Y03372*
X03666Y03372*
X03667Y03372*
X03667*
X03655*
X03656*
X03656Y03372*
X03657Y03372*
X03657Y03372*
X03658Y03373*
X03658Y03374*
X03658Y03375*
X03658Y03375*
X03658Y03376*
Y03378*
X03664*
X03664Y03376*
G37*
G36*
X03326Y03363D02*
X03327Y03353D01*
X03328Y03349*
X03329Y03346*
X0333Y03343*
X03331Y03341*
X03333Y0334*
X03335Y03339*
X03336Y03338*
X03287*
X03289Y03339*
X0329Y0334*
X03292Y03341*
X03293Y03343*
X03294Y03346*
X03295Y03349*
X03295Y03353*
X03296Y03358*
X03296Y03368*
X03326*
X03326Y03363*
G37*
G36*
X02832Y03511D02*
X02655Y03334D01*
X02628*
X02389*
X02376Y03347*
Y03445*
X02389Y03458*
X02543*
X02547Y03462*
X02552Y03467*
X02606Y03521*
Y03788*
X02613Y03795*
X02681Y03864*
X02832*
Y03511*
G37*
G36*
X03667Y03273D02*
X03666Y03273D01*
X03666Y03273*
X03665Y03272*
X03665Y03272*
X03665Y03271*
X03665Y0327*
X03664Y03269*
Y03268*
X03664Y03267*
X03658*
Y03268*
X03658Y03269*
X03658Y0327*
X03658Y03271*
X03658Y03272*
X03657Y03272*
X03657Y03273*
X03656Y03273*
X03656Y03273*
X03655Y03273*
X03667*
X03667Y03273*
G37*
G36*
X03326Y03284D02*
X03326Y03284D01*
X03336*
X03335Y03283*
X03333Y03282*
X03331Y03281*
X0333Y03279*
X03329Y03276*
X03328Y03273*
X03327Y03271*
X03328Y0327*
X03329Y03267*
X0333Y03264*
X03331Y03262*
X03332Y03261*
X03334Y0326*
X03336Y0326*
X03326*
X03326Y03259*
X03326Y03254*
X03296*
X03296Y03259*
Y0326*
X03286*
X03288Y0326*
X0329Y03261*
X03291Y03262*
X03293Y03264*
X03294Y03267*
X03295Y0327*
X03295Y03272*
X03295Y03273*
X03294Y03276*
X03293Y03279*
X03292Y03281*
X0329Y03282*
X03289Y03283*
X03287Y03284*
X03296*
X03296Y0329*
X03326*
X03326Y03284*
G37*
G36*
X0366Y03571D02*
X03661Y03567D01*
X0363Y03537*
X03628Y03534*
X03627Y0353*
Y03425*
X03613Y0341*
X03612Y0341*
X0361Y03408*
X03609Y03407*
X03608Y03407*
X03576*
Y03358*
X0362*
Y0339*
X0362Y03391*
X0362Y03391*
X03622Y03393*
X03622Y03394*
X03623Y03394*
X03623Y03394*
X03623Y03395*
X03643Y03414*
X03645Y03417*
X03646Y03421*
Y03526*
X03672Y03553*
X03678*
X03681Y03549*
X03681Y03549*
X03681Y03547*
X0368Y03546*
X03679Y03542*
X0368Y03538*
X03683Y03534*
Y0353*
X0368Y03527*
X03679Y03522*
X0368Y03518*
X03681Y03517*
X03681Y03516*
X0368Y03514*
X03679Y03512*
X03677Y03511*
X03674Y03509*
X03655Y0349*
X03653Y03487*
X03652Y03484*
Y03379*
X03652Y03378*
X0364*
Y03334*
X03683*
Y03378*
X03671*
X03671Y03379*
Y0348*
X03674Y03484*
X03676Y03484*
X0368Y03482*
X0368Y03479*
X03683Y03475*
Y03471*
X0368Y03468*
X03679Y03463*
X0368Y03459*
X03683Y03455*
X03686Y03453*
X03691Y03452*
X03722*
X03722Y03452*
X03727Y03448*
X03727Y03448*
Y03416*
X03727Y03412*
X0373Y03408*
X03734Y03406*
X03738Y03405*
X03742Y03406*
X03746Y03408*
X0375*
X03753Y03406*
X03757Y03405*
X03762Y03406*
X03764Y03407*
X03767Y03408*
X03771Y03407*
X03773Y03406*
X03777Y03405*
X03781Y03406*
X03784Y03407*
X03787Y03408*
X0379Y03407*
X03793Y03406*
X03797Y03405*
X03801Y03406*
X03803Y03407*
X03807Y03408*
X0381Y03407*
X03812Y03406*
X03817Y03405*
X03821Y03406*
X03823Y03407*
X03826Y03408*
X0383Y03407*
X03832Y03406*
X03836Y03405*
X0384Y03406*
X03843Y03407*
X03846Y03408*
X03849Y03407*
X03852Y03406*
X03856Y03405*
X0386Y03406*
X03864Y03408*
X03866Y03412*
X03867Y03416*
Y03448*
X03867Y03448*
X03871Y03452*
X03872Y03452*
X03903*
X03907Y03453*
X03911Y03455*
X03913Y03459*
X03914Y0346*
X03919Y03459*
Y03241*
X03911Y03233*
X03671*
Y03266*
X03671Y03267*
X03683*
Y03311*
X0364*
Y03267*
X03652*
X03652Y03266*
Y03233*
X03535*
X03531Y03232*
X03528Y0323*
X03485Y03187*
X0348Y03189*
Y03407*
X0348Y03408*
X03483Y03412*
X03483*
X03484Y03413*
X03586*
X03589Y03413*
X03592Y03415*
X03604Y03427*
X03606Y0343*
X03607Y03434*
Y03435*
X03607Y03435*
X0362*
Y03485*
X03607*
Y03485*
X03607Y03485*
Y03512*
X03607Y03513*
Y03513*
X0362*
Y03562*
X03614*
X03612Y03567*
X03617Y03572*
X03659*
X0366Y03571*
G37*
G36*
X03664Y03193D02*
Y03192D01*
X03665Y03191*
X03665Y0319*
X03665Y03189*
X03665Y03189*
X03666Y03188*
X03666Y03188*
X03667Y03188*
X03667Y03188*
X03655*
X03656Y03188*
X03656Y03188*
X03657Y03188*
X03657Y03189*
X03658Y03189*
X03658Y0319*
X03658Y03191*
X03658Y03192*
X03658Y03193*
Y03194*
X03664*
X03664Y03193*
G37*
G36*
X03334Y03204D02*
X03332Y03204D01*
X03331Y03202*
X0333Y032*
X03329Y03197*
X03328Y03194*
X03327Y0319*
X03326Y03186*
X03326Y03175*
X03296*
X03296Y0318*
X03295Y0319*
X03295Y03194*
X03294Y03197*
X03293Y032*
X03291Y03202*
X0329Y03204*
X03288Y03204*
X03286Y03205*
X03336*
X03334Y03204*
G37*
G36*
X03785Y03166D02*
Y03167D01*
X03785Y03167*
X03784Y03168*
X03784Y03168*
X03783Y03169*
X03783Y03169*
X03782Y03169*
X03781Y03169*
X0378Y03169*
X03779*
Y03175*
X0378*
X03781Y03175*
X03782Y03176*
X03783Y03176*
X03783Y03176*
X03784Y03176*
X03784Y03177*
X03785Y03177*
X03785Y03178*
Y03178*
Y03166*
G37*
G36*
X0374Y03178D02*
X0374Y03177D01*
X0374Y03177*
X03741Y03176*
X03741Y03176*
X03742Y03176*
X03743Y03176*
X03744Y03175*
X03745Y03175*
X03746*
Y03169*
X03745*
X03744Y03169*
X03743Y03169*
X03742Y03169*
X03741Y03169*
X03741Y03168*
X0374Y03168*
X0374Y03167*
X0374Y03167*
X0374Y03166*
Y03178*
X0374Y03178*
G37*
G36*
X04089Y03095D02*
X04089Y03095D01*
X04088Y03095*
X04088Y03095*
X04087Y03095*
X04086Y03095*
X04086Y03094*
X04085Y03094*
X04084Y03093*
X04083Y03093*
X04082Y03092*
X04078Y03096*
X04078Y03096*
X04079Y03097*
X0408Y03098*
X0408Y03099*
X04081Y031*
X04081Y031*
Y03101*
X04081Y03101*
X0408Y03102*
X0408Y03102*
X04089Y03095*
G37*
G36*
X03416Y03109D02*
X03416Y03109D01*
X03417Y03108*
X03418Y03107*
X03418Y03107*
X0342Y03106*
X03421Y03106*
X03422Y03106*
X03424Y03105*
X03426*
Y03095*
X03424Y03095*
X03422Y03095*
X03421Y03095*
X0342Y03095*
X03418Y03094*
X03418Y03094*
X03417Y03093*
X03416Y03092*
X03416Y03091*
X03416Y0309*
Y0311*
X03416Y03109*
G37*
G36*
X03194Y03434D02*
Y03397D01*
X03186Y03384*
X03079*
X03061Y03366*
Y03216*
X03134Y03143*
X03252*
X03266Y03129*
Y03073*
X03265*
X03253Y03061*
X02787*
X02726Y03121*
Y03393*
X02778Y03445*
X03186*
X03194Y03434*
G37*
G36*
X04073Y03016D02*
X04073Y03017D01*
X04072Y03017*
X04072Y03018*
X04072Y03018*
X04071Y03018*
X0407Y03019*
X04069Y03019*
X04069Y03019*
X04067Y03019*
X04066*
Y03025*
X04067*
X04069Y03025*
X04069Y03025*
X0407Y03026*
X04071Y03026*
X04072Y03026*
X04072Y03027*
X04072Y03027*
X04073Y03028*
X04073Y03028*
Y03016*
G37*
G36*
X03128Y02936D02*
X03128Y02936D01*
X03128Y02935*
X03128Y02934*
X03129Y02934*
X03129Y02933*
X0313Y02932*
X0313Y02931*
X03131Y0293*
X03132Y02929*
X03129Y02924*
X03128Y02925*
X03127Y02925*
X03127Y02926*
X03126Y02926*
X03125Y02927*
X03125Y02927*
X03124Y02927*
X03124Y02926*
X03123Y02926*
X03123Y02926*
X03129Y02937*
X03128Y02936*
G37*
G36*
X04083Y02854D02*
X04085Y02852D01*
X04086Y02852*
X04086Y02851*
X04087Y02851*
X04088Y02851*
X04088Y02851*
X04089Y02851*
X04089Y02852*
X0408Y02844*
X0408Y02845*
X04081Y02845*
X04081Y02846*
X04081Y02846*
X04081Y02847*
X0408Y02847*
X0408Y02848*
X04079Y02849*
X04079Y0285*
X04078Y0285*
X04082Y02855*
X04083Y02854*
G37*
G36*
X03488Y02812D02*
X03488Y02803D01*
X0348Y02809*
X0348Y02809*
X0348Y02809*
X03481Y0281*
X03481Y0281*
X03482Y0281*
X03482Y02811*
X03482Y02811*
X03482Y02812*
Y02813*
X03482Y02814*
X03488Y02812*
G37*
G36*
X03521Y02795D02*
X03521Y02795D01*
X0352Y02794*
X0352Y02793*
X0352Y02793*
X03519Y02792*
X03519Y02791*
X03519Y02791*
X03519Y0279*
Y02789*
X03513*
X03513Y0279*
Y02791*
X03513Y02791*
X03513Y02792*
X03512Y02793*
X03512Y02793*
X03512Y02794*
X03511Y02795*
X03511Y02795*
X0351Y02796*
X03522*
X03521Y02795*
G37*
G36*
X03772Y02789D02*
X0377Y02788D01*
X03768Y02785*
X03767Y02784*
X03767Y02783*
X03766Y02783*
X03766Y02782*
X03766Y02781*
X03767Y02781*
X03767Y02781*
X03755Y02786*
X03756Y02785*
X03757Y02785*
X03757Y02785*
X03758Y02786*
X03759Y02786*
X0376Y02787*
X03761Y02787*
X03762Y02788*
X03763Y02789*
X03764Y0279*
X03772Y02789*
G37*
G36*
X03718Y02772D02*
X03719Y02772D01*
X03719Y02771*
X0372Y02771*
X0372Y02771*
X03721Y0277*
X03722Y0277*
X03722Y0277*
X03723Y0277*
X03724*
Y02764*
X03723*
X03722Y02764*
X03722Y02764*
X03721Y02764*
X0372Y02763*
X0372Y02763*
X03719Y02763*
X03719Y02762*
X03718Y02762*
X03717Y02762*
Y02773*
X03718Y02772*
G37*
G36*
X03736Y02761D02*
X03736Y02762D01*
X03736Y02762*
X03736Y02763*
X03735Y02763*
X03735Y02763*
X03734Y02764*
X03733Y02764*
X03732Y02764*
X03731Y02764*
X0373*
Y0277*
X03731*
X03732Y0277*
X03733Y0277*
X03734Y02771*
X03735Y02771*
X03735Y02771*
X03736Y02772*
X03736Y02772*
X03736Y02772*
X03736Y02773*
Y02761*
G37*
G36*
X03756Y02749D02*
X03755Y02748D01*
X03755Y02748*
X03755Y02748*
X03754Y02747*
X03754Y02746*
X03754Y02746*
X03754Y02745*
X03754Y02744*
Y02742*
X03748*
X03747Y02744*
X03747Y02745*
X03747Y02746*
X03747Y02746*
X03747Y02747*
X03746Y02748*
X03746Y02748*
X03746Y02748*
X03745Y02749*
X03745*
X03757*
X03756*
G37*
G36*
X03559Y02744D02*
X03559Y0274D01*
X0356Y0274*
Y0274*
X03553*
X03553Y0274*
Y0274*
X03553Y02741*
Y02741*
X03553Y02742*
Y02745*
X03559*
Y02744*
G37*
G36*
X03519Y02746D02*
X03519Y02744D01*
X03519Y02743*
X0352Y02742*
X0352Y02742*
X0352Y02741*
X0352Y02741*
X03521Y0274*
X03521Y0274*
X03511Y02738*
X03512Y02738*
X03512Y02739*
X03512Y0274*
X03512Y0274*
X03513Y02741*
X03513Y02742*
X03513Y02744*
Y02745*
X03513Y02746*
X03519Y02747*
Y02746*
G37*
G36*
X035Y02746D02*
X035Y02744D01*
X03501Y02743*
X03501Y02742*
X03501Y02741*
X03501Y0274*
X03502Y02739*
X03502Y02739*
X03503Y02738*
X03492*
X03492Y02739*
X03493Y02739*
X03493Y0274*
X03493Y02741*
X03494Y02742*
X03494Y02743*
X03494Y02744*
X03494Y02745*
Y02746*
X03494Y02747*
X035*
Y02746*
G37*
G36*
X03343D02*
X03343Y02744D01*
X03343Y02743*
X03343Y02742*
X03344Y02741*
X03344Y0274*
X03344Y02739*
X03345Y02739*
X03345Y02738*
X03334*
X03335Y02739*
X03335Y02739*
X03336Y0274*
X03336Y02741*
X03336Y02742*
X03336Y02743*
X03337Y02744*
X03337Y02745*
X03337Y02746*
Y02747*
X03343*
Y02746*
G37*
G36*
X03323D02*
X03323Y02744D01*
X03323Y02743*
X03324Y02742*
X03324Y02741*
X03324Y0274*
X03325Y02739*
X03325Y02739*
X03325Y02738*
X03315*
X03315Y02739*
X03315Y02739*
X03316Y0274*
X03316Y02741*
X03316Y02742*
X03317Y02743*
X03317Y02744*
X03317Y02745*
X03317Y02746*
Y02747*
X03323*
Y02746*
G37*
G36*
X03303D02*
X03304Y02744D01*
X03304Y02743*
X03304Y02742*
X03304Y02741*
X03305Y0274*
X03305Y02739*
X03305Y02739*
X03306Y02738*
X03295*
X03295Y02739*
X03296Y02739*
X03296Y0274*
X03296Y02741*
X03297Y02742*
X03297Y02743*
X03297Y02744*
X03297Y02745*
X03297Y02746*
Y02747*
X03303*
Y02746*
G37*
G36*
X02639Y02709D02*
X02639Y02709D01*
X02638Y02708*
X02638Y02708*
X02638Y02707*
X02637Y02707*
X02637Y02706*
Y02706*
X02637Y02705*
X02638Y02705*
X02638Y02705*
X02629Y0271*
X02629Y0271*
X02629*
X0263*
X02631Y0271*
X02631Y0271*
X02632Y02711*
X02633Y02711*
X02633Y02712*
X02635Y02714*
X02639Y02709*
G37*
G36*
X03754Y0271D02*
X03754Y02709D01*
X03754Y02708*
X03754Y02708*
X03754Y02707*
X03755Y02706*
X03755Y02706*
X03755Y02706*
X03756Y02706*
X03757Y02705*
X03745*
X03745Y02706*
X03746Y02706*
X03746Y02706*
X03746Y02706*
X03747Y02707*
X03747Y02708*
X03747Y02708*
X03747Y02709*
X03747Y0271*
X03748Y02712*
X03754*
Y0271*
G37*
G36*
X03255Y02702D02*
X03255Y02703D01*
X03255Y02703*
X03255Y02704*
X03254Y02704*
X03254Y02704*
X03253Y02705*
X03252Y02705*
X03251Y02705*
X0325Y02705*
X03249*
Y02711*
X0325*
X03251Y02711*
X03252Y02711*
X03253Y02712*
X03254Y02712*
X03254Y02712*
X03255Y02713*
X03255Y02713*
X03255Y02714*
X03255Y02714*
Y02702*
G37*
G36*
X03756Y02669D02*
X03755Y02668D01*
X03755Y02668*
X03755Y02668*
X03754Y02667*
X03754Y02666*
X03754Y02666*
X03754Y02665*
X03754Y02664*
Y02662*
X03748*
X03747Y02664*
X03747Y02665*
X03747Y02666*
X03747Y02666*
X03747Y02667*
X03746Y02668*
X03746Y02668*
X03746Y02668*
X03745Y02669*
X03745*
X03757*
X03756*
G37*
G36*
X04076Y02651D02*
Y02652D01*
X04075Y02652*
X04075Y02653*
X04075Y02653*
X04074Y02653*
X04073Y02654*
X04073Y02654*
X04072Y02654*
X04071Y02654*
X04069*
Y0266*
X04071*
X04072Y0266*
X04073Y02661*
X04073Y02661*
X04074Y02661*
X04075Y02661*
X04075Y02662*
X04075Y02662*
X04076Y02663*
Y02663*
Y02651*
G37*
G36*
X03181Y02636D02*
X03181Y02635D01*
X03182Y02634*
X03182Y02633*
X03182Y02633*
X03182Y02632*
X03183Y02632*
X03183Y02631*
X03184Y02631*
X03184*
X03172*
X03173*
X03173Y02631*
X03174Y02632*
X03174Y02632*
X03175Y02633*
X03175Y02633*
X03175Y02634*
X03175Y02635*
X03175Y02636*
X03175Y02637*
X03181*
Y02636*
G37*
G36*
X03933Y02625D02*
X03932Y02625D01*
X03931Y02624*
X0393Y02624*
X03929Y02624*
X03928Y02623*
X03928Y02623*
X03927Y02622*
X03926Y02621*
X03925Y02621*
X03917*
X03917Y02621*
X0392Y02624*
X0392Y02625*
Y02625*
X0392*
X03933*
X03933*
G37*
G36*
X0367Y0263D02*
X0367Y0263D01*
X03671Y0263*
X03672Y02629*
X03673Y02629*
X03674Y02629*
X03675Y02629*
X03676Y02629*
X03676Y02628*
X03677*
Y02622*
X03676*
X03675Y02622*
X03674Y02622*
X03673Y02622*
X03672Y02622*
X03671Y02621*
X0367Y02621*
X0367Y0262*
X03669Y0262*
Y02631*
X0367Y0263*
G37*
G36*
X03148Y0262D02*
X03148Y0262D01*
X03147Y02621*
X03146Y02621*
X03145Y02622*
X03144Y02622*
X03144Y02622*
X03143Y02622*
X03142Y02622*
X03141Y02622*
X0314*
Y02628*
X03141*
X03143Y02629*
X03144Y02629*
X03144Y02629*
X03145Y02629*
X03146Y0263*
X03147Y0263*
X03148Y0263*
X03148Y02631*
Y0262*
G37*
G36*
X03108Y02631D02*
X03108Y0263D01*
X03108Y0263*
X03108Y0263*
X03109Y02629*
X0311Y02629*
X0311Y02629*
X03111Y02629*
X03112Y02628*
X03114*
Y02622*
X03112*
X03111Y02622*
X0311Y02622*
X0311Y02622*
X03109Y02622*
X03108Y02621*
X03108Y02621*
X03108Y02621*
X03108Y0262*
X03107Y02619*
Y02631*
X03108Y02631*
G37*
G36*
X03071Y02619D02*
Y0262D01*
X0307Y02621*
X0307Y02621*
X0307Y02621*
X03069Y02622*
X03068Y02622*
X03068Y02622*
X03067Y02622*
X03066Y02622*
X03064*
Y02628*
X03066*
X03067Y02629*
X03068Y02629*
X03068Y02629*
X03069Y02629*
X0307Y0263*
X0307Y0263*
X0307Y0263*
X03071Y02631*
Y02631*
Y02619*
G37*
G36*
X03025Y02631D02*
X03025Y0263D01*
X03025Y0263*
X03026Y0263*
X03026Y02629*
X03027Y02629*
X03028Y02629*
X03029Y02629*
X0303Y02628*
X03031*
Y02622*
X0303*
X03029Y02622*
X03028Y02622*
X03027Y02622*
X03026Y02622*
X03026Y02621*
X03025Y02621*
X03025Y02621*
X03025Y0262*
X03025Y02619*
Y02631*
X03025Y02631*
G37*
G36*
X03006Y02609D02*
X03005Y02609D01*
X03005Y02609*
X03004Y02608*
X03004Y02608*
X03004Y02607*
X03003Y02606*
X03003Y02605*
X03003Y02604*
Y02603*
X02997*
X02997Y02604*
X02997Y02605*
X02997Y02606*
X02997Y02607*
X02996Y02608*
X02996Y02608*
X02996Y02609*
X02995Y02609*
X02995Y02609*
X02994*
X03006*
X03006*
G37*
G36*
X0367Y02611D02*
X0367Y0261D01*
X03671Y0261*
X03672Y0261*
X03673Y02609*
X03674Y02609*
X03675Y02609*
X03676Y02609*
X03676Y02609*
X03677*
Y02603*
X03676*
X03675Y02603*
X03674Y02602*
X03673Y02602*
X03672Y02602*
X03671Y02602*
X0367Y02601*
X0367Y02601*
X03669Y026*
Y02611*
X0367Y02611*
G37*
G36*
X03736Y026D02*
X03736Y026D01*
X03736Y02601*
X03735Y02601*
X03735Y02602*
X03735Y02602*
X03734Y02602*
X03733Y02603*
X03732Y02603*
X03731Y02603*
X0373*
Y02609*
X03731Y02609*
X03732*
X03733Y02609*
X03734Y02609*
X03735Y0261*
X03735Y0261*
X03735Y0261*
X03736Y02611*
X03736Y02611*
X03736Y02612*
Y026*
G37*
G36*
X03003Y02592D02*
X03003Y02592D01*
X03003Y02591*
X03004Y0259*
X03004Y0259*
X03004Y02589*
X03004Y02588*
X03005Y02588*
X03005Y02587*
X03006Y02587*
X02995*
X02995Y02587*
X02996Y02588*
X02996Y02588*
X02996Y02589*
X02997Y0259*
X02997Y0259*
X02997Y02591*
X02997Y02592*
Y02592*
X02997Y02593*
X03003*
Y02592*
G37*
G36*
X0367Y02591D02*
X0367Y02591D01*
X03671Y0259*
X03672Y0259*
X03673Y0259*
X03674Y02589*
X03675Y02589*
X03676Y02589*
X03676*
X03677Y02589*
Y02583*
X03676*
X03675Y02583*
X03674Y02583*
X03673Y02582*
X03672Y02582*
X03671Y02582*
X0367Y02582*
X0367Y02581*
X03669Y02581*
Y02592*
X0367Y02591*
G37*
G36*
X02757Y02588D02*
X02758Y02588D01*
X02758Y02587*
X02758Y02587*
X02759Y02586*
X0276Y02586*
X0276Y02586*
X02761Y02586*
X02762Y02586*
X02763*
Y0258*
X02762*
X02761Y0258*
X0276Y02579*
X0276Y02579*
X02759Y02579*
X02758Y02579*
X02758Y02578*
X02758Y02578*
X02757Y02577*
Y02577*
Y02589*
Y02588*
G37*
G36*
X02995Y02576D02*
X02994Y02576D01*
X02994Y02577*
X02993Y02577*
X02992Y02577*
X02992Y02578*
X02991Y02578*
X0299Y02578*
X0299Y02578*
X02989Y02578*
X02988*
Y02584*
X02989*
X0299Y02584*
X0299Y02584*
X02991Y02585*
X02992Y02585*
X02992Y02585*
X02993Y02585*
X02994Y02586*
X02994Y02586*
X02995Y02587*
Y02576*
G37*
G36*
X0265Y02585D02*
X0265Y02585D01*
X0265Y02584*
X02651Y02584*
X02651Y02583*
X02652Y02583*
X02653Y02583*
X02654Y02583*
X02655Y02583*
X02656*
Y02577*
X02655*
X02654Y02577*
X02653Y02576*
X02652Y02576*
X02651Y02576*
X02651Y02576*
X0265Y02575*
X0265Y02575*
X0265Y02574*
X0265Y02574*
Y02586*
X0265Y02585*
G37*
G36*
X0272Y02574D02*
Y02574D01*
X0272Y02575*
X0272Y02575*
X02719Y02576*
X02719Y02576*
X02718Y02576*
X02717Y02576*
X02716Y02577*
X02715Y02577*
X02714*
Y02583*
X02715*
X02716Y02583*
X02717Y02583*
X02718Y02583*
X02719Y02583*
X02719Y02584*
X0272Y02584*
X0272Y02585*
X0272Y02585*
Y02586*
Y02574*
G37*
G36*
X0367Y02552D02*
X0367Y02551D01*
X03671Y02551*
X03672Y02551*
X03673Y0255*
X03674Y0255*
X03675Y0255*
X03676Y0255*
X03676Y0255*
X03677*
Y02544*
X03676Y02544*
X03675Y02543*
X03674Y02543*
X03673Y02543*
X03672Y02543*
X03671Y02543*
X0367Y02542*
X0367Y02542*
X03669Y02541*
Y02552*
X0367Y02552*
G37*
G36*
X03148Y02541D02*
X03148Y02542D01*
X03147Y02542*
X03146Y02543*
X03145Y02543*
X03144Y02543*
X03144Y02543*
X03143Y02543*
X03142Y02544*
X03141*
X0314Y02544*
Y0255*
X03141*
X03143Y0255*
X03144Y0255*
X03144Y0255*
X03145Y02551*
X03146Y02551*
X03147Y02551*
X03148Y02552*
X03148Y02552*
Y02541*
G37*
G36*
X0409Y02529D02*
X04087Y02531D01*
X04083Y02534*
X0408Y02535*
X04076Y02537*
X04072Y02538*
X04068Y02539*
X04064Y0254*
X04059Y02541*
X04054Y02541*
X04049Y02541*
Y02571*
X04054Y02571*
X04064Y02572*
X04068Y02573*
X04072Y02574*
X04076Y02576*
X0408Y02577*
X04083Y02579*
X04087Y02581*
X0409Y02583*
Y02529*
G37*
G36*
X03983Y02581D02*
X03987Y02579D01*
X0399Y02577*
X03994Y02576*
X03998Y02574*
X04002Y02573*
X04007Y02572*
X04011Y02572*
X04016Y02571*
X04021Y02571*
Y02541*
X04016Y02541*
X04007Y0254*
X04002Y02539*
X03998Y02538*
X03994Y02537*
X0399Y02535*
X03987Y02534*
X03983Y02531*
X0398Y02529*
Y02583*
X03983Y02581*
G37*
G36*
X0367Y02532D02*
X0367Y02532D01*
X03671Y02531*
X03672Y02531*
X03673Y02531*
X03674Y0253*
X03675Y0253*
X03676Y0253*
X03676Y0253*
X03677*
Y02524*
X03676*
X03675Y02524*
X03674Y02524*
X03673Y02523*
X03672Y02523*
X03671Y02523*
X0367Y02522*
X0367Y02522*
X03669Y02522*
Y02532*
X0367Y02532*
G37*
G36*
X03148Y02522D02*
X03148Y02522D01*
X03147Y02522*
X03146Y02523*
X03145Y02523*
X03144Y02523*
X03144Y02524*
X03143Y02524*
X03142Y02524*
X03141Y02524*
X0314*
Y0253*
X03141*
X03143Y0253*
X03144Y0253*
X03144Y02531*
X03145Y02531*
X03146Y02531*
X03147Y02532*
X03148Y02532*
X03148Y02532*
Y02522*
G37*
G36*
X02945Y02502D02*
X02944Y02502D01*
X02943Y02501*
X02943Y025*
X02942Y02499*
X02942Y02498*
X02941Y02497*
X02941Y02497*
X02941Y02496*
X02941Y02495*
Y02494*
Y02511*
Y0251*
X02941Y02509*
X02941Y02509*
X02941Y02509*
X02942Y02509*
X02942Y02509*
X02943Y02509*
X02943Y0251*
X02944Y0251*
X02945Y02511*
Y02502*
G37*
G36*
X0367Y02512D02*
X0367Y02512D01*
X03671Y02512*
X03672Y02511*
X03673Y02511*
X03674Y02511*
X03675Y02511*
X03676Y0251*
X03676Y0251*
X03677*
Y02504*
X03676*
X03675Y02504*
X03674Y02504*
X03673Y02504*
X03672Y02503*
X03671Y02503*
X0367Y02503*
X0367Y02502*
X03669Y02502*
Y02513*
X0367Y02512*
G37*
G36*
X03148Y02502D02*
X03148Y02502D01*
X03147Y02503*
X03146Y02503*
X03145Y02503*
X03144Y02504*
X03144Y02504*
X03143Y02504*
X03142Y02504*
X03141Y02504*
X0314*
Y0251*
X03141*
X03143Y02511*
X03144Y02511*
X03144Y02511*
X03145Y02511*
X03146Y02512*
X03147Y02512*
X03148Y02512*
X03148Y02513*
Y02502*
G37*
G36*
X02762Y025D02*
X0276Y02499D01*
X02758Y02496*
X02758Y02495*
X02757Y02494*
X02757Y02494*
X02757Y02493*
Y02492*
X02757Y02492*
X02757Y02492*
X02746Y02497*
X02747Y02497*
X02747Y02497*
X02748Y02497*
X02749Y02497*
X0275Y02497*
X0275Y02498*
X02751Y02499*
X02752Y02499*
X02753Y025*
X02754Y02501*
X02762Y025*
G37*
G36*
X0288Y02486D02*
Y02487D01*
X0288Y02487*
X02879Y02488*
X02879Y02488*
X02878Y02488*
X02878Y02489*
X02877Y02489*
X02876Y02489*
X02875Y02489*
X02874*
Y02495*
X02875*
X02876Y02495*
X02877Y02495*
X02878Y02496*
X02878Y02496*
X02879Y02496*
X02879Y02497*
X0288Y02497*
X0288Y02498*
Y02498*
Y02486*
G37*
G36*
X02851Y02489D02*
X02849D01*
X02848Y02489*
X02847Y02489*
X02847Y02489*
X02846Y02488*
X02845Y02488*
X02845Y02488*
X02845Y02487*
X02845Y02487*
X02844Y02486*
X02845Y02495*
X02851Y02495*
Y02489*
G37*
G36*
X0367Y02493D02*
X0367Y02492D01*
X03671Y02492*
X03672Y02492*
X03673Y02491*
X03674Y02491*
X03675Y02491*
X03676Y02491*
X03676Y02491*
X03677*
Y02485*
X03676*
X03675Y02484*
X03674Y02484*
X03673Y02484*
X03672Y02484*
X03671Y02483*
X0367Y02483*
X0367Y02483*
X03669Y02482*
Y02493*
X0367Y02493*
G37*
G36*
X03148Y02482D02*
X03148Y02483D01*
X03147Y02483*
X03146Y02483*
X03145Y02484*
X03144Y02484*
X03144Y02484*
X03143Y02484*
X03142Y02485*
X03141Y02485*
X0314*
Y02491*
X03141*
X03143Y02491*
X03144Y02491*
X03144Y02491*
X03145Y02492*
X03146Y02492*
X03147Y02492*
X03148Y02493*
X03148Y02493*
Y02482*
G37*
G36*
X0265Y02485D02*
X0265Y02485D01*
X0265Y02484*
X02651Y02484*
X02651Y02483*
X02652Y02483*
X02653Y02483*
X02654Y02483*
X02655Y02483*
X02656*
Y02477*
X02655*
X02654Y02477*
X02653Y02476*
X02652Y02476*
X02651Y02476*
X02651Y02476*
X0265Y02475*
X0265Y02475*
X0265Y02474*
X0265Y02474*
Y02486*
X0265Y02485*
G37*
G36*
X0272Y02474D02*
Y02474D01*
X0272Y02475*
X0272Y02475*
X02719Y02476*
X02719Y02476*
X02718Y02476*
X02717Y02476*
X02716Y02477*
X02715Y02477*
X02714*
Y02483*
X02715*
X02716Y02483*
X02717Y02483*
X02718Y02483*
X02719Y02483*
X02719Y02484*
X0272Y02484*
X0272Y02485*
X0272Y02485*
Y02486*
Y02474*
G37*
G36*
X0367Y02473D02*
X0367Y02473D01*
X03671Y02472*
X03672Y02472*
X03673Y02472*
X03674Y02471*
X03675Y02471*
X03676Y02471*
X03676*
X03677Y02471*
Y02465*
X03676*
X03675Y02465*
X03674Y02465*
X03673Y02464*
X03672Y02464*
X03671Y02464*
X0367Y02463*
X0367Y02463*
X03669Y02463*
Y02473*
X0367Y02473*
G37*
G36*
Y02453D02*
X0367Y02453D01*
X03671Y02452*
X03672Y02452*
X03673Y02452*
X03674Y02452*
X03675Y02452*
X03676Y02451*
X03676*
X03677Y02451*
Y02445*
X03676*
X03675Y02445*
X03674Y02445*
X03673Y02445*
X03672Y02444*
X03671Y02444*
X0367Y02444*
X0367Y02443*
X03669Y02443*
Y02454*
X0367Y02453*
G37*
G36*
Y02434D02*
X0367Y02433D01*
X03671Y02433*
X03672Y02432*
X03673Y02432*
X03674Y02432*
X03675Y02432*
X03676Y02432*
X03676Y02432*
X03677*
Y02426*
X03676Y02426*
X03675Y02425*
X03674Y02425*
X03673Y02425*
X03672Y02425*
X03671Y02424*
X0367Y02424*
X0367Y02424*
X03669Y02423*
Y02434*
X0367Y02434*
G37*
G36*
X02693Y02431D02*
X02694Y02431D01*
X02694Y02431*
X02695Y0243*
X02695Y0243*
X02696Y0243*
X02697Y0243*
X02698Y02429*
X02698Y02429*
X02699*
Y02423*
X02698Y02423*
X02698*
X02697Y02423*
X02696Y02423*
X02695Y02423*
X02695Y02422*
X02694Y02422*
X02694Y02422*
X02693Y02421*
X02693Y02421*
Y02432*
X02693Y02431*
G37*
G36*
X02757Y02432D02*
X02758Y02431D01*
X02758Y02431*
X02758Y0243*
X02759Y0243*
X0276Y0243*
X0276Y0243*
X02761Y02429*
X02762Y02429*
X02763*
Y02423*
X02762Y02423*
X02761Y02423*
X0276Y02423*
X0276Y02423*
X02759Y02423*
X02758Y02422*
X02758Y02422*
X02758Y02421*
X02757Y02421*
Y0242*
Y02432*
Y02432*
G37*
G36*
X0272Y0242D02*
Y02421D01*
X0272Y02421*
X0272Y02422*
X02719Y02422*
X02719Y02423*
X02718Y02423*
X02717Y02423*
X02716Y02423*
X02715Y02423*
X02714Y02423*
Y02429*
X02715*
X02716Y02429*
X02717Y0243*
X02718Y0243*
X02719Y0243*
X02719Y0243*
X0272Y02431*
X0272Y02431*
X0272Y02432*
Y02432*
Y0242*
G37*
G36*
X03027Y02417D02*
X03027Y02417D01*
X03028Y02416*
X03028Y02416*
X03029Y02415*
X03029Y02415*
X0303Y02415*
X03031Y02415*
X03032Y02415*
X03033*
Y02409*
X03032*
X0303Y02408*
X03029Y02408*
X03029Y02408*
X03028Y02408*
X03028Y02408*
X03027Y02407*
X03027Y02407*
X03027Y02407*
Y02418*
X03027Y02417*
G37*
G36*
X0367Y02414D02*
X0367Y02413D01*
X03671Y02413*
X03672Y02413*
X03673Y02413*
X03674Y02412*
X03675Y02412*
X03676Y02412*
X03676Y02412*
X03677*
Y02406*
X03676Y02406*
X03675Y02406*
X03674Y02406*
X03673Y02405*
X03672Y02405*
X03671Y02405*
X0367Y02404*
X0367Y02404*
X03669Y02403*
Y02414*
X0367Y02414*
G37*
G36*
X03002Y02407D02*
X03002Y02407D01*
X03001Y02406*
X03001Y02406*
X03001Y02405*
X03Y02405*
X03Y02404*
X03Y02403*
X03Y02402*
Y02401*
X02994*
Y02402*
X02994Y02403*
X02993Y02404*
X02993Y02405*
X02993Y02405*
X02993Y02406*
X02992Y02406*
X02992Y02407*
X02991Y02407*
X02991Y02407*
X03003*
X03002Y02407*
G37*
G36*
X03148Y02384D02*
X03148Y02384D01*
X03147Y02385*
X03146Y02385*
X03145Y02385*
X03144Y02386*
X03144Y02386*
X03143Y02386*
X03142Y02386*
X03141Y02386*
X0314*
Y02392*
X03141*
X03143Y02392*
X03144Y02393*
X03144Y02393*
X03145Y02393*
X03146Y02393*
X03147Y02394*
X03148Y02394*
X03148Y02395*
Y02384*
G37*
G36*
X03123Y02394D02*
X03124Y02394D01*
X03124Y02393*
X03125Y02393*
X03125Y02393*
X03126Y02393*
X03127Y02392*
X03127Y02392*
X03128Y02392*
X03129*
Y02386*
X03128*
X03127Y02386*
X03127Y02386*
X03126Y02386*
X03125Y02386*
X03125Y02385*
X03124Y02385*
X03124Y02385*
X03123Y02384*
X03123Y02384*
Y02395*
X03123Y02394*
G37*
G36*
X0298Y02363D02*
X02979Y02362D01*
X02977Y0236*
X02976Y02359*
X02976Y02358*
X02976Y02357*
X02975Y02356*
X02975Y02356*
X02975Y02355*
X02976Y02355*
X0297Y02366*
X0297Y02365*
X02971Y02365*
X02971Y02365*
X02972Y02365*
X02973Y02366*
X02974Y02366*
X02975Y02367*
X02976Y02368*
X02978Y0237*
X0298Y02363*
G37*
G36*
X03148Y02344D02*
X03148Y02345D01*
X03147Y02345*
X03146Y02346*
X03145Y02346*
X03144Y02346*
X03144Y02346*
X03143Y02347*
X03142Y02347*
X03141Y02347*
X0314*
Y02353*
X03141*
X03143Y02353*
X03144Y02353*
X03144Y02353*
X03145Y02354*
X03146Y02354*
X03147Y02354*
X03148Y02355*
X03148Y02355*
Y02344*
G37*
G36*
X04076Y02294D02*
X04076Y02295D01*
X04076Y02295*
X04075Y02295*
X04075Y02296*
X04074Y02296*
X04074Y02296*
X04073Y02297*
X04072Y02297*
X04071Y02297*
X0407*
Y02303*
X04071*
X04072Y02303*
X04073Y02303*
X04074Y02303*
X04074Y02304*
X04075Y02304*
X04075Y02304*
X04076Y02305*
X04076Y02305*
X04076Y02306*
Y02294*
G37*
G36*
X03921D02*
X0392Y02295D01*
X0392Y02295*
X0392Y02295*
X0392Y02296*
X03919Y02296*
X03918Y02296*
X03917Y02297*
X03916Y02297*
X03915Y02297*
X03914*
Y02303*
X03915*
X03916Y02303*
X03917Y02303*
X03918Y02303*
X03919Y02304*
X0392Y02304*
X0392Y02304*
X0392Y02305*
X0392Y02305*
X03921Y02306*
Y02294*
G37*
G36*
X04076Y02193D02*
X04076Y02194D01*
X04076Y02194*
X04075Y02194*
X04075Y02195*
X04074Y02195*
X04074Y02195*
X04073Y02196*
X04072Y02196*
X04071Y02196*
X0407*
Y02202*
X04071*
X04072Y02202*
X04073Y02202*
X04074Y02202*
X04074Y02203*
X04075Y02203*
X04075Y02203*
X04076Y02204*
X04076Y02204*
X04076Y02205*
Y02193*
G37*
G36*
X03921D02*
X0392Y02194D01*
X0392Y02194*
X0392Y02194*
X0392Y02195*
X03919Y02195*
X03918Y02195*
X03917Y02196*
X03916Y02196*
X03915Y02196*
X03914*
Y02202*
X03915*
X03916Y02202*
X03917Y02202*
X03918Y02202*
X03919Y02203*
X0392Y02203*
X0392Y02203*
X0392Y02204*
X0392Y02204*
X03921Y02205*
Y02193*
G37*
G36*
X04076Y02097D02*
Y02098D01*
X04076Y02098*
X04075Y02099*
X04075Y02099*
X04074Y021*
X04074Y021*
X04073Y021*
X04072Y021*
X04071Y021*
X04069*
X0407Y02106*
X04071Y02106*
X04072Y02107*
X04073Y02107*
X04074Y02107*
X04075Y02107*
X04075Y02107*
X04076Y02108*
X04076Y02108*
X04077Y02109*
X04077Y02109*
X04076Y02097*
G37*
G36*
X03921Y02095D02*
X0392Y02096D01*
X0392Y02096*
X0392Y02096*
X0392Y02097*
X03919Y02097*
X03918Y02097*
X03917Y02098*
X03916Y02098*
X03915Y02098*
X03914*
Y02104*
X03915*
X03916Y02104*
X03917Y02104*
X03918Y02104*
X03919Y02105*
X0392Y02105*
X0392Y02105*
X0392Y02106*
X0392Y02106*
X03921Y02107*
Y02095*
G37*
G36*
X02626Y01959D02*
X02625Y01958D01*
X02623Y01956*
X02622Y01955*
X02622Y01954*
X02622Y01953*
X02621Y01952*
X02621Y01952*
Y01951*
X02621Y0195*
X02616Y01962*
X02616Y01961*
X02617Y01961*
X02617Y01961*
X02618Y01961*
X02619Y01961*
X0262Y01962*
X02621Y01963*
X02622Y01964*
X02625Y01966*
X02626Y01959*
G37*
G36*
X02272Y01958D02*
X02271Y01956D01*
X02269Y01954*
X02269Y01953*
X02268Y01953*
X02268Y01952*
X02268Y01951*
Y0195*
Y0195*
X02268Y01949*
X02262Y0196*
X02263Y0196*
X02263Y0196*
X02264Y0196*
X02264Y0196*
X02265Y0196*
X02266Y01961*
X02267Y01961*
X02268Y01962*
X02271Y01965*
X02272Y01958*
G37*
G36*
X02728Y01938D02*
X02728Y01938D01*
X02727Y01939*
X02727Y01939*
X02726Y01939*
X02725Y0194*
X02725Y0194*
X02724Y0194*
X02723Y0194*
X02723Y0194*
X02722*
X02721Y01946*
X02722Y01946*
X02723*
X02723Y01946*
X02724Y01947*
X02725Y01947*
X02725Y01947*
X02726Y01948*
X02726Y01948*
X02727Y01948*
X02727Y01949*
X02728Y01938*
G37*
G36*
X02677Y01949D02*
X02677Y01948D01*
X02677Y01948*
X02678Y01947*
X02678Y01947*
X02679Y01947*
X0268Y01946*
X02681Y01946*
X02682Y01946*
X02683Y01946*
Y0194*
X02682*
X02681Y0194*
X0268Y0194*
X02679Y0194*
X02678Y01939*
X02678Y01939*
X02677Y01939*
X02677Y01938*
X02677Y01938*
X02677Y01937*
Y01949*
X02677Y01949*
G37*
G36*
X0259Y01937D02*
X0259Y01938D01*
X0259Y01938*
X0259Y01939*
X02589Y01939*
X02589Y01939*
X02588Y0194*
X02587Y0194*
X02587Y0194*
X02585Y0194*
X02584*
Y01946*
X02585Y01946*
X02587Y01946*
X02587Y01946*
X02588Y01947*
X02589Y01947*
X02589Y01947*
X0259Y01948*
X0259Y01948*
X0259Y01949*
X0259Y01949*
Y01937*
G37*
G36*
X02551Y01949D02*
X02552Y01948D01*
X02552Y01948*
X02552Y01947*
X02553Y01947*
X02553Y01947*
X02554Y01946*
X02555Y01946*
X02556Y01946*
X02557Y01946*
Y0194*
X02556*
X02555Y0194*
X02554Y0194*
X02553Y0194*
X02553Y01939*
X02552Y01939*
X02552Y01939*
X02552Y01938*
X02551Y01938*
X02551Y01937*
Y01949*
X02551Y01949*
G37*
G36*
X02357Y01936D02*
X02357Y01937D01*
X02356Y01937*
X02355Y01938*
X02355Y01938*
X02354Y01938*
X02354Y01939*
X02353Y01939*
X02352Y01939*
X02351*
X02351Y01939*
Y01945*
X02351*
X02352Y01945*
X02353Y01945*
X02354Y01945*
X02354Y01946*
X02355Y01946*
X02355Y01946*
X02356Y01947*
X02357Y01947*
X02357Y01947*
Y01936*
G37*
G36*
X02323Y01947D02*
X02323Y01947D01*
X02323Y01946*
X02324Y01946*
X02324Y01946*
X02325Y01945*
X02326Y01945*
X02327Y01945*
X02328Y01945*
X02329*
Y01939*
X02328Y01939*
X02327Y01939*
X02326Y01939*
X02325Y01938*
X02324Y01938*
X02324Y01938*
X02323Y01937*
X02323Y01937*
X02323Y01936*
X02323Y01936*
Y01948*
X02323Y01947*
G37*
G36*
X02237Y01936D02*
X02237Y01936D01*
X02236Y01937*
X02236Y01937*
X02236Y01938*
X02235Y01938*
X02234Y01938*
X02234Y01939*
X02233Y01939*
X02232Y01939*
X02231Y01939*
Y01945*
X02232*
X02233Y01945*
X02234Y01945*
X02234Y01945*
X02235Y01946*
X02236Y01946*
X02236Y01946*
X02236Y01947*
X02237Y01947*
X02237Y01948*
Y01936*
G37*
G36*
X02205Y01947D02*
X02205Y01947D01*
X02205Y01946*
X02206Y01946*
X02206Y01946*
X02207Y01945*
X02208Y01945*
X02208Y01945*
X02209Y01945*
X02211*
Y01939*
X02209Y01939*
X02208Y01939*
X02208Y01939*
X02207Y01938*
X02206Y01938*
X02206Y01938*
X02205Y01937*
X02205Y01937*
X02205Y01936*
X02205Y01936*
Y01948*
X02205Y01947*
G37*
G36*
X02611Y01925D02*
X02611Y01924D01*
X0261Y01924*
X0261Y01924*
X0261Y01923*
X02609Y01923*
X02609Y01922*
X02609Y01921*
Y0192*
X02609Y01919*
X02603*
Y0192*
X02603Y01921*
X02603Y01922*
X02602Y01923*
X02602Y01923*
X02602Y01924*
X02601Y01924*
X02601Y01924*
X02601Y01925*
X026Y01925*
X02612*
X02611Y01925*
G37*
G36*
X02541D02*
X02541Y01924D01*
X0254Y01924*
X0254Y01924*
X0254Y01923*
X02539Y01923*
X02539Y01922*
X02539Y01921*
X02539Y0192*
Y01919*
X02533*
Y0192*
X02533Y01921*
X02532Y01922*
X02532Y01923*
X02532Y01923*
X02532Y01924*
X02531Y01924*
X02531Y01924*
X0253Y01925*
X0253Y01925*
X02542*
X02541Y01925*
G37*
G36*
X02258Y01923D02*
X02257Y01923D01*
X02257Y01923*
X02256Y01922*
X02256Y01922*
X02256Y01921*
X02256Y0192*
X02255Y0192*
X02255Y01918*
Y01917*
X02249*
Y01918*
X02249Y0192*
X02249Y0192*
X02249Y01921*
X02248Y01922*
X02248Y01922*
X02248Y01923*
X02247Y01923*
X02247Y01923*
X02246Y01923*
X02258*
X02258Y01923*
G37*
G36*
X02194D02*
X02194Y01923D01*
X02194Y01923*
X02193Y01922*
X02193Y01922*
X02193Y01921*
X02192Y0192*
X02192Y0192*
X02192Y01918*
Y01917*
X02186*
Y01918*
X02186Y0192*
X02186Y0192*
X02186Y01921*
X02185Y01922*
X02185Y01922*
X02185Y01923*
X02184Y01923*
X02184Y01923*
X02183Y01923*
X02195*
X02194Y01923*
G37*
G36*
X02671Y01804D02*
X02667Y01808D01*
X02655Y01819*
X02651Y01822*
X02648Y01824*
X02645Y01825*
X02643Y01826*
X0264Y01827*
X02638Y01827*
Y01833*
X0264Y01834*
X02643Y01834*
X02645Y01835*
X02648Y01837*
X02651Y01839*
X02655Y01842*
X02662Y01848*
X02671Y01857*
Y01804*
G37*
G36*
X02479Y01852D02*
X02491Y01842D01*
X02494Y01839*
X02497Y01837*
X025Y01835*
X02503Y01834*
X02506Y01834*
X02508Y01833*
Y01827*
X02506Y01827*
X02503Y01826*
X025Y01825*
X02497Y01824*
X02494Y01822*
X02491Y01819*
X02483Y01812*
X02475Y01804*
Y01857*
X02479Y01852*
G37*
G36*
X02319Y01804D02*
X02315Y01808D01*
X02303Y01819*
X023Y01821*
X02296Y01823*
X02293Y01825*
X02291Y01826*
X02288Y01827*
X02286Y01827*
Y01833*
X02288Y01833*
X02291Y01834*
X02293Y01835*
X02296Y01837*
X023Y01839*
X02303Y01841*
X02311Y01848*
X02319Y01856*
Y01804*
G37*
G36*
X02127Y01852D02*
X02139Y01841D01*
X02142Y01839*
X02146Y01837*
X02149Y01835*
X02151Y01834*
X02154Y01833*
X02156Y01833*
Y01827*
X02154Y01827*
X02151Y01826*
X02149Y01825*
X02146Y01823*
X02142Y01821*
X02139Y01819*
X02131Y01812*
X02123Y01804*
Y01856*
X02127Y01852*
G37*
G36*
X02977Y01779D02*
X02975Y01777D01*
X02974Y01776*
X02973Y01773*
X02973Y01771*
X02972Y01768*
X02971Y01764*
X02971Y01757*
X02971Y01752*
Y01747*
X02941Y01777*
X02946*
X02958Y01778*
X02961Y01778*
X02964Y01779*
X02967Y0178*
X02969Y01781*
X02971Y01782*
X02972Y01783*
X02977Y01779*
G37*
%LNpcb_bug_v2-2*%
%LPC*%
G36*
X03952Y03858D02*
X03947D01*
Y03856*
X03948Y03857*
X03952Y03858*
G37*
G36*
X03623D02*
X03618D01*
Y03856*
X0362Y03857*
X03623Y03858*
G37*
G36*
X03608D02*
X03603D01*
X03606Y03857*
X03608Y03856*
Y03858*
G37*
G36*
X03937D02*
X03931D01*
X03935Y03857*
X03937Y03856*
Y03858*
G37*
G36*
X03868Y0389D02*
X03828D01*
Y03848*
X03868*
Y0389*
G37*
G36*
X03727D02*
X03687D01*
Y03848*
X03727*
Y0389*
G37*
G36*
X02971Y03852D02*
X02915D01*
Y03815*
X02971*
Y03852*
G37*
G36*
X02905D02*
X0285D01*
Y03815*
X02905*
Y03852*
G37*
G36*
X0387Y03809D02*
Y0378D01*
X03896*
X03895Y03787*
X03892Y03795*
X03887Y03801*
X0388Y03806*
X03873Y03809*
X0387Y03809*
G37*
G36*
X02971Y03805D02*
X02915D01*
Y03779*
X0294*
X02937Y03778*
X02935Y03778*
X02933Y03776*
X02931Y03774*
X02929Y03771*
X02928Y03769*
X02971*
Y03805*
G37*
G36*
X02905D02*
X0285D01*
Y03769*
X02893*
X02892Y03771*
X0289Y03774*
X02888Y03776*
X02886Y03778*
X02883Y03778*
X0288Y03779*
X02905*
Y03805*
G37*
G36*
X0407Y03897D02*
X04055Y03896D01*
X04041Y03891*
X04028Y03884*
X04016Y03875*
X04007Y03864*
X04Y03851*
X03996Y03837*
X03994Y03822*
X03996Y03807*
X04Y03793*
X04007Y0378*
X04016Y03769*
X04028Y03759*
X04041Y03752*
X04055Y03748*
X0407Y03746*
X04084Y03748*
X04098Y03752*
X04111Y03759*
X04123Y03769*
X04132Y0378*
X04139Y03793*
X04143Y03807*
X04145Y03822*
X04143Y03837*
X04139Y03851*
X04132Y03864*
X04123Y03875*
X04111Y03884*
X04098Y03891*
X04084Y03896*
X0407Y03897*
G37*
G36*
X02139D02*
X02125Y03896D01*
X02111Y03891*
X02098Y03884*
X02086Y03875*
X02077Y03864*
X0207Y03851*
X02066Y03837*
X02064Y03822*
X02066Y03807*
X0207Y03793*
X02077Y0378*
X02086Y03769*
X02098Y03759*
X02111Y03752*
X02125Y03748*
X02139Y03746*
X02154Y03748*
X02168Y03752*
X02181Y03759*
X02193Y03769*
X02202Y0378*
X02209Y03793*
X02213Y03807*
X02215Y03822*
X02213Y03837*
X02209Y03851*
X02202Y03864*
X02193Y03875*
X02181Y03884*
X02168Y03891*
X02154Y03896*
X02139Y03897*
G37*
G36*
X03685Y0377D02*
X03659D01*
X0366Y03763*
X03663Y03756*
X03668Y03749*
X03674Y03744*
X03682Y03741*
X03685Y03741*
Y0377*
G37*
G36*
X03896D02*
X0387D01*
Y03741*
X03873Y03741*
X0388Y03744*
X03887Y03749*
X03892Y03756*
X03895Y03763*
X03896Y0377*
G37*
G36*
X03195Y03734D02*
X03175D01*
Y0371*
X03195*
Y03734*
G37*
G36*
X03165D02*
X03144D01*
Y0371*
X03165*
Y03734*
G37*
G36*
X03246Y0373D02*
X03203D01*
Y0368*
X03246*
Y03689*
X03247Y03689*
Y0369*
X03247Y0369*
X03248Y0369*
X03249Y0369*
X03251Y03691*
X03253Y03691*
X03255Y03691*
X03256Y03691*
X03278*
X03278Y03691*
X03281Y03691*
X03283Y03691*
X03285Y0369*
X03286Y0369*
X03287Y0369*
X03287Y0369*
Y03689*
X03287Y03689*
Y03683*
X03331*
Y03727*
X03287*
Y03721*
X03287Y03721*
Y0372*
X03287Y0372*
X03286Y0372*
X03285Y0372*
X03283Y03719*
X03281Y03719*
X03278Y03719*
X03278Y03719*
X03256*
X03255Y03719*
X03253Y03719*
X03251Y03719*
X03249Y0372*
X03248Y0372*
X03247Y0372*
X03247Y0372*
Y03721*
X03246Y03721*
Y0373*
G37*
G36*
X02893Y03683D02*
X02892D01*
Y03682*
X02893Y03683*
G37*
G36*
X03195Y037D02*
X03175D01*
Y03686*
X03185*
X03185Y03686*
X03185Y03685*
X03185Y03684*
X03185Y03676*
X03195*
Y037*
G37*
G36*
X03165D02*
X03144D01*
Y03676*
X03154*
X03154Y03686*
X03165*
Y037*
G37*
G36*
X03569Y03687D02*
X03548D01*
Y03664*
X03569*
Y03687*
G37*
G36*
X03538D02*
X03517D01*
Y03664*
X03538*
Y03687*
G37*
G36*
X02922Y03683D02*
X02916D01*
X02912Y03673*
X02892Y03673*
Y03651*
X02922*
Y03683*
G37*
G36*
X02882D02*
X02852D01*
Y03651*
X02882*
Y03673*
X0288*
X02882Y03673*
Y03683*
G37*
G36*
X0256Y03705D02*
X02475D01*
Y0365*
X0256*
Y03705*
G37*
G36*
X02465D02*
X0238D01*
Y0365*
X02465*
Y03705*
G37*
G36*
X03569Y03644D02*
X03548D01*
Y0362*
X03569*
Y03644*
G37*
G36*
X03538D02*
X03517D01*
Y0362*
X03538*
Y03644*
G37*
G36*
X02922Y03641D02*
X02892D01*
Y03618*
X02912*
X02914Y03618*
X02917Y03617*
X02919Y03616*
X0292Y03614*
X02922Y03611*
Y03641*
G37*
G36*
X02892Y0361D02*
Y03608D01*
X02893*
X02892Y0361*
G37*
G36*
X02882Y03641D02*
X02852D01*
Y03608*
X02882*
Y03618*
X0288Y03618*
X02882*
Y03641*
G37*
G36*
X032Y03627D02*
X03148D01*
Y03602*
X032*
Y03627*
G37*
G36*
X03138D02*
X03086D01*
Y03602*
X031*
X031Y03604*
X03098Y03606*
X03096Y03608*
X03107Y03602*
X03138*
Y03627*
G37*
G36*
X03569Y0361D02*
X03548D01*
Y03586*
X03569*
Y0361*
G37*
G36*
X03538D02*
X03517D01*
Y03586*
X03538*
Y0361*
G37*
G36*
X0256Y0364D02*
X02475D01*
Y03585*
X0256*
Y0364*
G37*
G36*
X02465D02*
X0238D01*
Y03585*
X02465*
Y0364*
G37*
G36*
X03138Y03592D02*
X03125D01*
X03138Y03584*
Y03592*
G37*
G36*
X03097D02*
X03086D01*
Y03578*
X03091Y03584*
X03095Y03589*
X03097Y03592*
G37*
G36*
X032D02*
X03148D01*
Y03579*
X0315Y03578*
X03148Y03578*
Y03567*
X032*
Y03592*
G37*
G36*
X03138Y03578D02*
X03137Y03578D01*
X03133Y03576*
X03128Y03574*
X03124Y0357*
X0312Y03567*
X03138*
Y03578*
G37*
G36*
X03569Y03566D02*
X03548D01*
Y03542*
X03569*
Y03566*
G37*
G36*
X03538D02*
X03517D01*
Y03542*
X03538*
Y03566*
G37*
G36*
X02964Y03587D02*
X02941D01*
Y03541*
X02954*
Y03549*
X02954Y03547*
X02955Y03544*
X02956Y03542*
X02956Y03541*
X02964*
Y03587*
G37*
G36*
X02931D02*
X02907D01*
Y03541*
X02931*
Y03587*
G37*
G36*
X03045Y03537D02*
X03037D01*
Y03531*
X0304Y03533*
X03045Y03537*
G37*
G36*
X02964Y03531D02*
X02963D01*
X02964Y0353*
Y03531*
G37*
G36*
X03027Y03537D02*
X02994D01*
Y03518*
X02997Y03519*
X03Y0352*
X03002Y03522*
X03003Y03523*
X03004Y03525*
X03005Y03527*
Y03507*
X03027*
Y03515*
X03014Y03526*
X03017Y03525*
X0302Y03524*
X03023Y03524*
X03027Y03525*
X03027Y03525*
Y03537*
G37*
G36*
X03569Y03532D02*
X03548D01*
Y03509*
X03569*
Y03532*
G37*
G36*
X03538D02*
X03517D01*
Y03509*
X03538*
Y03532*
G37*
G36*
X03069Y03517D02*
X03065Y03512D01*
X03062Y03507*
X03069*
Y03517*
G37*
G36*
X0233Y03585D02*
X02275D01*
Y035*
X0233*
Y03585*
G37*
G36*
X02265D02*
X0221D01*
Y035*
X02265*
Y03585*
G37*
G36*
X03069Y03497D02*
X03057D01*
X03056Y03495*
Y03492*
X03057Y03489*
X03059Y03487*
X03048Y03497*
X03037*
Y03467*
X03069*
Y03497*
G37*
G36*
X02954Y03531D02*
X02941D01*
Y03485*
X02964*
Y03499*
X02959Y03491*
X02959Y03492*
X02956Y03494*
X02956Y03494*
X02955Y03494*
X02955Y03495*
X02955Y03495*
X02954Y03495*
Y03531*
G37*
G36*
X02931D02*
X02907D01*
Y03485*
X02931*
Y03531*
G37*
G36*
X03027Y03497D02*
X03005D01*
Y03477*
X03004Y03479*
X03003Y0348*
X03002Y03482*
X03Y03483*
X02997Y03484*
X02994Y03485*
Y03467*
X03027*
Y03497*
G37*
G36*
X03569Y03489D02*
X03548D01*
Y03465*
X03569*
Y03489*
G37*
G36*
X03538D02*
X03517D01*
Y03465*
X03538*
Y03489*
G37*
G36*
X0233Y0349D02*
X02275D01*
Y03405*
X0233*
Y0349*
G37*
G36*
X02265D02*
X0221D01*
Y03405*
X02265*
Y0349*
G37*
G36*
X03257Y03348D02*
X03227D01*
Y03316*
X03257*
Y03348*
G37*
G36*
X03217D02*
X03187D01*
Y03329*
X03189Y0333*
X03192Y03331*
X03194Y03333*
X03196Y03334*
X03196Y03336*
X03197Y03338*
Y03316*
X03217*
Y03348*
G37*
G36*
X03257Y03306D02*
X03222D01*
X03197*
Y03284*
X03206*
X03207Y03284*
X03207Y0329*
X03237*
X03237Y03284*
Y03284*
X03246*
X03245Y03283*
X03243Y03282*
X03241Y03281*
X0324Y03279*
X03239Y03276*
X03238Y03273*
X03238Y03271*
X03238Y0327*
X03239Y03267*
X0324Y03264*
X03241Y03262*
X03243Y03261*
X03244Y0326*
X03246Y0326*
X03237*
X03237Y03254*
X03207*
X03207Y03259*
X03206Y0326*
X03196*
X03198Y0326*
X032Y03261*
X03202Y03262*
X03203Y03264*
X03204Y03267*
X03205Y0327*
X03205Y03272*
X03205Y03273*
X03204Y03276*
X03203Y03279*
X03202Y03281*
X032Y03282*
X03199Y03283*
X03197Y03284*
X03196Y03286*
X03196Y03288*
X03194Y0329*
X03192Y03292*
X03189Y03294*
X03187Y03295*
Y03274*
X03186Y0327*
Y03269*
Y03237*
X03221*
X03256*
Y03269*
X03257Y03273*
Y03274*
Y03306*
G37*
G36*
X03256Y03227D02*
X03226D01*
Y03195*
X03256*
Y03227*
G37*
G36*
X03216D02*
X03186D01*
Y03195*
X03216*
Y03227*
G37*
G36*
X03881Y03168D02*
X03861D01*
Y03145*
X03881*
Y03168*
G37*
G36*
X03851D02*
X0383D01*
Y03145*
X03851*
Y03168*
G37*
G36*
X04114Y02967D02*
Y02929D01*
X04157*
X04156Y02935*
X04152Y02946*
X04145Y02954*
X04136Y02961*
X04126Y02966*
X04114Y02967*
G37*
G36*
X04104D02*
D01*
X04093Y02966*
X04083Y02961*
X04074Y02954*
X04067Y02946*
X04063Y02935*
X04062Y02929*
X04072*
X04073Y0293*
X04073Y0293*
Y02929*
X04104*
Y02967*
G37*
G36*
Y02919D02*
X04073D01*
Y02918*
X04073Y02919*
X04072Y02919*
X04062*
X04063Y02913*
X04067Y02903*
X04074Y02894*
X04083Y02887*
X04093Y02883*
X04104Y02881*
Y02919*
G37*
G36*
X04157D02*
X04114D01*
Y02881*
X04126Y02883*
X04136Y02887*
X04145Y02894*
X04152Y02903*
X04156Y02913*
X04157Y02919*
G37*
G36*
X03833Y02762D02*
X03812D01*
Y02749*
X03813*
X03812*
X03812Y02748*
Y02738*
X03833*
Y02762*
G37*
G36*
X03802D02*
X03781D01*
Y02738*
X03802*
Y02748*
X03801Y02749*
X03801*
X03802*
Y02762*
G37*
G36*
X02768Y02738D02*
X02744D01*
Y02717*
X02757*
Y02718*
Y02717*
X02768*
Y02738*
G37*
G36*
X02734D02*
X0271D01*
Y02717*
X0272*
Y02718*
Y02717*
X02734*
Y02738*
G37*
G36*
X0285Y02737D02*
X02826D01*
Y02717*
X0285*
Y02737*
G37*
G36*
X02816D02*
X02793D01*
Y02717*
X02803*
X02803Y02717*
X02803Y02718*
Y02717*
X02816*
Y02737*
G37*
G36*
Y02707D02*
X02803D01*
Y02706*
X02803Y02706*
X02803Y02707*
X02793*
Y02686*
X02816*
Y02696*
X02816Y02696*
X02815*
X02816*
Y02707*
G37*
G36*
X02768Y02707D02*
X02758D01*
X02758Y02707*
X02757Y02706*
Y02706*
Y02707*
X02744*
Y02686*
X02768*
Y02707*
G37*
G36*
X02734D02*
X0272D01*
Y02706*
Y02706*
X0272Y02707*
X0272Y02707*
X0271*
Y02686*
X02734*
Y02707*
G37*
G36*
X03833Y02716D02*
X03812D01*
Y02706*
X03812Y02706*
X03813Y02705*
X03812*
Y02692*
X03822*
Y02696*
Y02695*
X03823Y02695*
X03823Y02694*
X03823Y02694*
X03824Y02694*
X03825Y02693*
X03825Y02693*
X03826Y02693*
X03827Y02693*
X03828*
Y02692*
X03833*
Y02716*
G37*
G36*
X03802D02*
X03781D01*
Y02692*
X03802*
Y02705*
X03801*
X03801Y02706*
X03802Y02706*
Y02716*
G37*
G36*
X0285Y02707D02*
X02826D01*
Y02696*
X02827*
X02827*
X02826Y02696*
Y02686*
X0285*
Y02707*
G37*
G36*
X03035Y02706D02*
X03011D01*
Y02685*
X03025*
Y02686*
X03025Y02685*
X03025Y02685*
X03035*
Y02706*
G37*
G36*
X03118D02*
X03094D01*
Y02696*
X03094Y02695*
X03095*
X03094*
Y02685*
X03118*
Y02706*
G37*
G36*
X03084D02*
X0306D01*
Y02685*
X0307*
X03071Y02685*
Y02686*
Y02685*
X03084*
Y02695*
X03083*
X03084*
X03084Y02696*
Y02706*
G37*
G36*
Y02675D02*
X03071D01*
Y02674*
Y02674*
X0307Y02675*
X0306*
Y02654*
X03084*
Y02675*
G37*
G36*
X03035D02*
X03025D01*
X03025Y02674*
X03025Y02674*
Y02675*
X03011*
Y02654*
X03035*
Y02675*
G37*
G36*
X03001D02*
X02988D01*
Y02674*
X02988Y02674*
X02988Y02675*
X02977*
Y02654*
X03001*
Y02675*
G37*
G36*
X03833Y02682D02*
X03812D01*
Y02669*
X03813*
X03812*
X03812Y02668*
Y02658*
X03833*
Y02682*
G37*
G36*
X03802D02*
X03781D01*
Y02658*
X03802*
Y02668*
X03801Y02669*
X03801*
X03802*
Y02682*
G37*
G36*
X03118Y02675D02*
X03094D01*
Y02654*
X03118*
Y02675*
G37*
G36*
X02764Y0266D02*
X02714D01*
Y02647*
X02714*
X02713Y02647*
X02699*
X02698Y02647*
X02697*
X02696Y02647*
X02696Y02647*
X02696*
X02696Y02648*
X02695Y02648*
X02695Y02648*
X02695Y02648*
X02694Y02648*
X02693Y02648*
X02692Y02649*
X02687Y0265*
X02682Y02649*
X02677Y02646*
X02674Y02641*
X02673Y02636*
X02674Y0263*
X02677Y02626*
X02682Y02623*
X02687Y02622*
X02692Y02623*
X02697Y02626*
X02698Y02628*
X02699Y02628*
X02699*
X027*
X027Y02629*
X02701*
X02701*
X02701*
X02713*
X02714Y02628*
X02714*
Y02616*
X02764*
Y0266*
G37*
G36*
X03833Y02636D02*
X03812D01*
Y02626*
X03812Y02626*
X03813Y02625*
X03812*
Y02612*
X03833*
Y02636*
G37*
G36*
X03802D02*
X03781D01*
Y02612*
X03802*
Y02625*
X03801*
X03801Y02626*
X03802Y02626*
Y02636*
G37*
G36*
X03833Y02602D02*
X03812D01*
Y02578*
X03833*
Y02602*
G37*
G36*
X03802D02*
X03781D01*
Y02578*
X03802*
Y02602*
G37*
G36*
X03962Y02501D02*
D01*
Y02463*
X0398*
Y02485*
X03983Y02483*
X03987Y02481*
X0399Y02479*
X03994Y02478*
X03998Y02476*
X04001Y02475*
X03999Y0248*
X03993Y02489*
X03984Y02495*
X03973Y025*
X03962Y02501*
G37*
G36*
X04118D02*
D01*
Y02463*
X0416*
X04159Y02469*
X04155Y0248*
X04148Y02489*
X04139Y02495*
X04129Y025*
X04118Y02501*
G37*
G36*
X04108D02*
X04097Y025D01*
X04086Y02495*
X04078Y02489*
X04071Y0248*
X04069Y02475*
X04072Y02476*
X04076Y02478*
X0408Y02479*
X04083Y02481*
X04087Y02483*
X0409Y02485*
Y02463*
X04108*
Y02501*
G37*
G36*
X03952D02*
X03941Y025D01*
X03931Y02495*
X03922Y02489*
X03915Y0248*
X03911Y02469*
X0391Y02463*
X03952*
Y02501*
G37*
G36*
X04108Y02453D02*
X0409D01*
Y02431*
X04087Y02433*
X04083Y02436*
X0408Y02437*
X04076Y02439*
X04072Y0244*
X04069Y02441*
X04071Y02437*
X04078Y02428*
X04086Y02421*
X04097Y02417*
X04108Y02415*
Y02453*
G37*
G36*
X02831Y0245D02*
Y02429D01*
X02855*
Y0245*
X02831*
G37*
G36*
X0416Y02453D02*
X04118D01*
Y02415*
X04129Y02417*
X04139Y02421*
X04148Y02428*
X04155Y02437*
X04159Y02447*
X0416Y02453*
G37*
G36*
X0398D02*
X03962D01*
Y02415*
X03973Y02417*
X03984Y02421*
X03993Y02428*
X03999Y02437*
X04001Y02441*
X03998Y0244*
X03994Y02439*
X0399Y02437*
X03987Y02436*
X03983Y02433*
X0398Y02431*
Y02453*
G37*
G36*
X03952D02*
X0391D01*
X03911Y02447*
X03915Y02437*
X03922Y02428*
X03931Y02421*
X03941Y02417*
X03952Y02415*
Y02453*
G37*
G36*
X02947Y0245D02*
X02874D01*
Y02401*
X02947*
Y0245*
G37*
G36*
X02855Y02419D02*
X02831D01*
Y02398*
X02855*
Y02419*
G37*
G36*
X02821D02*
X02797D01*
Y02398*
X02821*
Y02419*
G37*
G36*
X02931Y02376D02*
X0291D01*
Y02352*
X02931*
Y02376*
G37*
G36*
X029D02*
X02879D01*
Y02352*
X029*
Y02376*
G37*
G36*
X02931Y02342D02*
X0291D01*
Y02319*
X02931*
Y02342*
G37*
G36*
X029D02*
X02879D01*
Y02319*
X029*
Y02342*
G37*
G36*
X03276Y0229D02*
X03274Y0229D01*
X03269Y02287*
X03268Y02285*
X03266Y02286*
X03261Y02287*
X03256Y02286*
X03252Y02284*
X0325Y0228*
X03249Y02275*
Y0222*
X0325Y02215*
X03252Y02211*
X03256Y02209*
X03261Y02208*
X03266Y02209*
X03268Y0221*
X03269Y02208*
X03274Y02205*
X03276Y02205*
Y02217*
X03275Y02218*
X03276*
Y02248*
Y02277*
X03275*
X03276Y02278*
Y0229*
G37*
G36*
X03271Y0214D02*
X0325D01*
Y0213*
X0325Y0213*
X03251*
X0325*
Y02117*
X03271*
Y0214*
G37*
G36*
X0324D02*
X03219D01*
Y02117*
X0324*
Y0213*
X03239*
X0324*
X0324Y0213*
Y0214*
G37*
G36*
X03286Y0229D02*
Y02278D01*
X03286Y02277*
X03286*
Y02248*
Y02218*
X03286*
X03286Y02217*
Y02205*
X03286Y02205*
X03288Y02204*
X03291Y022*
Y02199*
Y02199*
X03291Y02199*
Y02198*
X03291Y02198*
X03291Y02198*
Y02198*
X0329Y02198*
X0329Y02198*
X0329Y02197*
X0329Y02196*
X03288Y02193*
X03287Y02188*
X03288Y02182*
X0329Y02179*
X0329Y02178*
X0329Y02178*
X0329Y02178*
X03291Y02177*
Y02177*
X03291Y02177*
X03291Y02177*
Y02177*
X03291Y02176*
Y02176*
Y02176*
X03291Y02175*
Y02137*
X03291Y02136*
Y02136*
X03278*
Y02087*
X03291*
X03291Y02086*
Y02064*
X03291Y02064*
Y02064*
X03278*
Y02014*
X03291*
X03291Y02013*
Y01968*
X03287Y01964*
X03286Y01964*
X03286Y01963*
X03286Y01963*
X03286Y01963*
X03285Y01963*
X03285Y01963*
X03285Y01963*
X03285*
X03285*
X03285*
X03284*
X03283Y01962*
X03279Y01961*
X03275Y01958*
X03271Y01954*
X0327Y01948*
X03271Y01943*
X03275Y01938*
X03278Y01936*
X03279Y01931*
X03188Y01839*
X03123*
X03119Y01838*
X03116Y01837*
X03068Y01788*
X03067Y01788*
X03066Y01787*
X03065Y01787*
X03064Y01786*
X03062Y01785*
X03059Y01785*
X03056Y01784*
X03044Y01784*
X0304*
X03039Y01783*
X0303Y01782*
X03021Y01778*
X03014Y01773*
X03008Y01765*
X03004Y01756*
X03003Y01747*
X03004Y01738*
X03008Y01729*
X03014Y01721*
X03021Y01716*
X0303Y01712*
X0304Y01711*
X03049Y01712*
X03058Y01716*
X03065Y01721*
X03068Y01725*
X03073Y01724*
Y01714*
X03063Y01704*
X02986*
X02982Y01703*
X02979Y01701*
X02967Y01689*
X02967Y01689*
X02966Y01688*
X02965Y01687*
X02963Y01686*
X02961Y01686*
X02959Y01685*
X02956Y01685*
X02944Y01684*
X02939*
X02939Y01684*
X0293Y01683*
X02921Y01679*
X02913Y01673*
X02908Y01666*
X02904Y01657*
X02903Y01648*
X02904Y01638*
X02908Y01629*
X02913Y01622*
X02921Y01616*
X0293Y01612*
X02939Y01611*
X02948Y01612*
X02957Y01616*
X02965Y01622*
X02971Y01629*
X02974Y01638*
X02975Y01647*
X02976Y01648*
Y01653*
X02976Y01657*
X02976Y01664*
X02977Y01667*
X02977Y0167*
X02978Y01672*
X02979Y01673*
X02979Y01674*
X0298Y01675*
X0298Y01676*
X0299Y01685*
X03026*
X03027Y0168*
X0302Y01677*
X03013Y01672*
X03007Y01664*
X03003Y01655*
X03002Y01646*
X03003Y01637*
X03007Y01628*
X03013Y0162*
X0302Y01615*
X03029Y01611*
X03039Y0161*
X03048Y01611*
X03057Y01615*
X03064Y0162*
X03068Y01625*
X03069Y01625*
X03069Y01626*
X03069Y01626*
X03086Y01651*
Y01651*
X03086Y01651*
X03087Y01653*
Y01653*
X03087Y01653*
X03087Y01654*
Y01654*
X03105Y01672*
X03107Y01675*
X03108Y01678*
Y01721*
X03113Y01723*
X03113Y01723*
X03113Y01722*
X03115Y01719*
X03117Y01717*
X03119Y01714*
X03121Y01712*
X03122Y0171*
X03123Y01708*
X03124Y01706*
X03124Y01704*
X03124Y01702*
X03125Y017*
X03125Y01699*
Y01694*
X03125Y01693*
X03124Y01691*
X03124Y01689*
X03124Y01688*
X03123Y01686*
X03122Y01684*
X03121Y01681*
X03119Y01679*
X03115Y01674*
X03113Y01672*
X03113Y01671*
X03107Y01664*
X03103Y01655*
X03102Y01646*
X03103Y01637*
X03107Y01628*
X03113Y0162*
X0312Y01615*
X03129Y01611*
X03139Y0161*
X03148Y01611*
X03157Y01615*
X03164Y0162*
X0317Y01628*
X03174Y01637*
X03175Y01646*
X03174Y01655*
X0317Y01664*
X03164Y01671*
X03164Y01672*
X03162Y01675*
X0316Y01677*
X03158Y01679*
X03156Y01681*
X03155Y01684*
X03154Y01686*
X03153Y01688*
X03153Y01689*
X03153Y01691*
X03153Y01693*
X03152Y01694*
Y01699*
X03153Y01699*
X03153Y01702*
X03153Y01703*
X03153Y01705*
X03154Y01707*
X03155Y01709*
X03156Y01711*
X03158Y01713*
X0316Y01716*
X03162Y01718*
X03164Y0172*
X03165Y01721*
X03165Y01721*
X03171Y01729*
X03175Y01738*
X03175Y01743*
X03176Y01744*
Y01744*
X03176Y01746*
X03177Y01747*
X03177Y01749*
X03178Y0175*
X03178Y0175*
X03179Y01751*
X0318Y01751*
X03181Y01752*
X03183Y01752*
X03186Y01752*
X03186Y01752*
X0322*
X03224Y01752*
Y01747*
Y01706*
X03242*
Y01706*
X03242Y01705*
X03242Y01704*
X03243Y01702*
X03243Y01702*
Y01673*
X03243Y01672*
X03242Y01671*
X03242Y01669*
X03242Y01668*
X03242Y01668*
X03232*
Y01625*
X03276*
Y01668*
X03266*
Y01668*
X03266Y01669*
X03266Y01671*
Y01672*
X03265Y01673*
Y01702*
X03266Y01702*
Y01704*
X03266Y01705*
X03266Y01706*
Y01706*
X03284*
Y01752*
X03288Y01752*
X03313*
X03314Y01752*
X03316Y01752*
X03318Y01752*
X0332Y01752*
X03321Y01751*
X03322Y01751*
X03322Y01751*
X03322Y0175*
X03323Y0175*
Y01743*
X03382*
Y0175*
X03387Y01751*
X0339Y01749*
X03391Y01747*
Y01706*
X03409*
X03409Y01706*
X03409Y01705*
X03409Y01704*
X03409Y01702*
X03409Y01702*
Y01673*
X03409Y01672*
X03409Y01671*
X03409Y01669*
X03409Y01668*
X03409Y01668*
X03399*
Y01625*
X03442*
Y01668*
X03433*
Y01668*
X03432Y01669*
X03432Y01671*
Y01672*
X03432Y01673*
Y01702*
X03432Y01702*
Y01704*
X03432Y01705*
X03433Y01706*
Y01706*
X0345*
Y01752*
X03455Y01752*
X0348*
X0348Y01752*
X03483Y01752*
X03485Y01752*
X03487Y01752*
X03488Y01751*
X03489Y01751*
X03489Y01751*
Y0175*
X03489Y0175*
Y01743*
X03549*
Y0175*
X03554Y01751*
X03557Y01749*
X03558Y01747*
Y01706*
X03576*
Y01706*
X03576Y01705*
X03576Y01704*
Y01702*
X03577Y01702*
Y01673*
X03576Y01672*
Y01671*
X03576Y01669*
X03576Y01668*
Y01668*
X03566*
Y01625*
X0361*
Y01668*
X036*
X036Y01668*
X03599Y01669*
X03599Y01671*
X03599Y01672*
X03599Y01673*
Y01702*
X03599Y01702*
X03599Y01704*
X03599Y01705*
X036Y01706*
X036Y01706*
X03617*
Y01752*
X03622Y01752*
X03646*
X03647Y01752*
X0365Y01752*
X03652Y01752*
X03653Y01752*
X03655Y01751*
X03655Y01751*
X03656Y01751*
Y0175*
X03656Y0175*
Y01743*
X03715*
Y01747*
X0372Y01749*
X03723Y01746*
Y01666*
X03723Y01664*
X03724Y01658*
X03727Y01654*
X03732Y01651*
X03737Y0165*
X03743Y01651*
X03747Y01654*
X0375Y01658*
X03751Y01664*
X03751Y01666*
Y01752*
X0375Y01757*
X03747Y01762*
X03733Y01776*
X03728Y01779*
X03724Y0178*
X03723Y0178*
X03721Y0178*
X03719Y0178*
X03717Y01781*
X03716Y01781*
X03715Y01781*
Y01789*
X03656*
Y01782*
X03656Y01782*
Y01781*
X03655Y01781*
X03655Y01781*
X03653Y01781*
X03652Y0178*
X0365Y0178*
X03647Y0178*
X03646Y0178*
X03621*
X03617Y01781*
Y01826*
X03597*
Y01826*
X03596Y01827*
Y01847*
X03601Y01849*
X03609Y01841*
X03612Y01839*
X03616Y01838*
X03864*
X03892Y0181*
X0389Y01804*
X03883Y01799*
X03877Y01791*
X03873Y01781*
X03872Y01771*
Y01761*
X03873Y01751*
X03877Y01742*
X03883Y01734*
X03891Y01728*
X03901Y01724*
X03911Y01722*
X03921Y01724*
X0393Y01728*
X03938Y01734*
X03945Y01742*
X03948Y01751*
X0395Y01761*
Y01771*
X03948Y01781*
X03945Y01791*
X03938Y01799*
X0393Y01805*
X03921Y01809*
X0392Y01809*
X0392Y01809*
X03919Y01809*
X03918Y0181*
X03915Y01813*
X03913Y01815*
X03912Y01815*
X03882Y01845*
X03884Y0185*
X03952*
X03992Y0181*
X03991Y01805*
X03989Y01805*
X03981Y01799*
X03975Y01791*
X03971Y01781*
X0397Y01771*
Y01761*
X03971Y01751*
X03975Y01742*
X03981Y01734*
X03989Y01728*
X03999Y01724*
X04009Y01722*
X04019Y01724*
X04028Y01728*
X04036Y01734*
X04043Y01742*
X04046Y01751*
X04048Y01761*
Y01771*
X04046Y01781*
X04043Y01791*
X04036Y01799*
X04028Y01805*
X04019Y01809*
X04017Y01809*
X04017Y01809*
X04015Y01812*
X03962Y01865*
X03959Y01867*
X03956Y01868*
X03626*
X03475Y02019*
Y02104*
X03507Y02136*
X03512Y02134*
Y02096*
X03561*
Y02135*
X03566Y02137*
X03592Y02111*
X03593Y02111*
Y02096*
X03642*
Y02108*
X03643Y02109*
X03673*
X03673Y02108*
X03673*
Y02096*
X03723*
Y02132*
X03723Y02132*
X03723Y02133*
X03723Y02134*
X03723Y02134*
Y0214*
X03721*
X03721Y0214*
Y02152*
X03721Y02152*
Y02153*
Y02153*
X03721Y02154*
Y02154*
X03722Y02154*
Y02154*
X03722Y02154*
X03722Y02154*
Y02154*
X03722Y02155*
X03722Y02156*
X03725Y02159*
X03726Y02165*
X03725Y0217*
X03722Y02175*
X03717Y02178*
X03712Y02179*
X03706Y02178*
X03702Y02175*
X03699Y0217*
X03698Y02165*
X03699Y02159*
X03701Y02156*
X03702Y02155*
X03702Y02154*
X03702Y02154*
X03702Y02154*
X03702Y02154*
Y02154*
X03702Y02154*
Y02154*
X03702Y02153*
Y02153*
Y02152*
X03703Y02152*
Y0214*
X03702Y0214*
Y0214*
X03673*
Y02127*
X03673*
X03673Y02127*
X03643*
X03642Y02127*
Y0214*
X03593*
X03588Y02141*
X03565Y02164*
Y02208*
X03566Y02209*
Y0221*
X03566Y0221*
X03566Y02211*
X03566Y02211*
X03566Y02212*
X03566Y02212*
X03566Y02213*
X03567Y02213*
X03567Y02214*
X03567Y02214*
X03567Y02215*
X03567Y02215*
X03568Y02217*
X03568Y02218*
X03568Y02218*
X03568Y0222*
Y02275*
X03567Y0228*
X03565Y02284*
X03561Y02286*
X03556Y02287*
X03552Y02286*
X03548Y02284*
X03545*
X03541Y02286*
X03537Y02287*
X03532Y02286*
X03528Y02284*
X03525*
X03522Y02286*
X03517Y02287*
X03512Y02286*
X03508Y02284*
X03506*
X03502Y02286*
X03497Y02287*
X03493Y02286*
X03489Y02284*
X03486*
X03482Y02286*
X03478Y02287*
X03473Y02286*
X03469Y02284*
X03466*
X03462Y02286*
X03458Y02287*
X03453Y02286*
X03449Y02284*
X03447*
X03443Y02286*
X03438Y02287*
X03434Y02286*
X0343Y02284*
X03427*
X03423Y02286*
X03418Y02287*
X03414Y02286*
X0341Y02284*
X03407*
X03403Y02286*
X03399Y02287*
X03394Y02286*
X0339Y02284*
X03388*
X03384Y02286*
X03379Y02287*
X03374Y02286*
X03371Y02284*
X03368*
X03364Y02286*
X03359Y02287*
X03355Y02286*
X03351Y02284*
X03348*
X03344Y02286*
X0334Y02287*
X03335Y02286*
X03331Y02284*
X03329*
X03325Y02286*
X0332Y02287*
X03315Y02286*
X03311Y02284*
X03309*
X03305Y02286*
X033Y02287*
X03296Y02286*
X03293Y02285*
X03292Y02287*
X03287Y0229*
X03286Y0229*
G37*
G36*
X03271Y02107D02*
X0325D01*
Y02093*
X03251*
X0325Y02093*
X0325Y02093*
Y02083*
X03271*
Y02107*
G37*
G36*
X0324D02*
X03219D01*
Y02083*
X0324*
Y02093*
X0324Y02093*
X03239Y02093*
X0324*
Y02107*
G37*
G36*
X03565Y02088D02*
X03542D01*
Y02068*
X03555*
Y02069*
Y02068*
X03555Y02068*
X03565*
Y02088*
G37*
G36*
X03727D02*
X03703D01*
Y02068*
X03727*
Y02088*
G37*
G36*
X03693D02*
X03669D01*
Y02068*
X03679*
X0368Y02068*
Y02069*
Y02068*
X03693*
Y02088*
G37*
G36*
X03646D02*
X03622D01*
Y02068*
X03636*
Y02069*
X03636Y02068*
X03636Y02068*
X03646*
Y02088*
G37*
G36*
X03612D02*
X03589D01*
Y02068*
X03599*
X03599Y02068*
X03599Y02069*
Y02068*
X03612*
Y02088*
G37*
G36*
X03532D02*
X03508D01*
Y02068*
X03532*
Y02088*
G37*
G36*
X03693Y02058D02*
X0368D01*
Y02057*
Y02057*
X03679Y02058*
X03669*
Y02037*
X03693*
Y02058*
G37*
G36*
X03646D02*
X03636D01*
X03636Y02057*
X03636Y02057*
Y02058*
X03622*
Y02037*
X03646*
Y02058*
G37*
G36*
X03612D02*
X03599D01*
Y02057*
X03599Y02057*
X03599Y02058*
X03589*
Y02037*
X03612*
Y02058*
G37*
G36*
X03565D02*
X03555D01*
X03555Y02057*
Y02057*
Y02058*
X03542*
Y02047*
X03543*
X03542*
X03542Y02047*
Y02037*
X03565*
Y02058*
G37*
G36*
X03271Y02068D02*
X0325D01*
Y02058*
X0325Y02057*
X03251Y02057*
X0325*
Y02044*
X03271*
Y02068*
G37*
G36*
X0324D02*
X03219D01*
Y02044*
X03229*
X03229Y02044*
Y02045*
Y02044*
X0324*
Y02057*
X03239*
X0324Y02057*
X0324Y02058*
Y02068*
G37*
G36*
X03727Y02058D02*
X03703D01*
Y02037*
X03727*
Y02058*
G37*
G36*
X03532D02*
X03508D01*
Y02037*
X03532*
Y02047*
X03531Y02047*
X03531*
X03532*
Y02058*
G37*
G36*
X0324Y02034D02*
X03229D01*
Y02033*
Y02033*
X03229Y02034*
X03219*
Y0201*
X0324*
Y02034*
G37*
G36*
X03271D02*
X0325D01*
Y0201*
X03271*
Y02034*
G37*
G36*
X03962Y02043D02*
D01*
Y02005*
X03991*
Y02015*
X03991Y02013*
X03992Y02012*
X03993Y02011*
X03994Y0201*
X03995Y02009*
X03997Y02009*
X04Y02008*
X04002Y02008*
X04004Y02008*
X04004Y02011*
X03999Y02021*
X03993Y0203*
X03984Y02037*
X03973Y02041*
X03962Y02043*
G37*
G36*
X04118D02*
D01*
Y02005*
X0416*
X04159Y02011*
X04155Y02021*
X04148Y0203*
X04139Y02037*
X04129Y02041*
X04118Y02043*
G37*
G36*
X03952D02*
X03941Y02041D01*
X03931Y02037*
X03922Y0203*
X03915Y02021*
X03911Y02011*
X0391Y02005*
X0392*
X0392Y02005*
X03921Y02006*
Y02005*
X03952*
X03952Y02005*
Y02005*
X03952*
Y02043*
G37*
G36*
X04108D02*
X04097Y02041D01*
X04086Y02037*
X04078Y0203*
X04071Y02021*
X04066Y02011*
X04066Y02008*
X0407Y02008*
X04073Y02009*
X04075Y02009*
X04076Y0201*
X04078Y02011*
X04079Y02012*
X04079Y02013*
X04079Y02015*
Y02005*
X04108*
Y02043*
G37*
G36*
X03952Y01995D02*
X03952D01*
Y01995*
X03952Y01995*
X03921*
Y01994*
X0392Y01995*
X0392Y01995*
X0391*
X03911Y01989*
X03915Y01979*
X03922Y0197*
X03931Y01963*
X03941Y01959*
X03952Y01957*
Y01995*
G37*
G36*
X04108D02*
X04079D01*
Y01985*
X04079Y01986*
X04079Y01988*
X04078Y01989*
X04076Y0199*
X04075Y01991*
X04073Y01991*
X0407Y01992*
X04068Y01992*
X04066Y01992*
X04066Y01989*
X04071Y01979*
X04078Y0197*
X04086Y01963*
X04097Y01959*
X04108Y01957*
Y01995*
G37*
G36*
X0416D02*
X04118D01*
Y01957*
X04129Y01959*
X04139Y01963*
X04148Y0197*
X04155Y01979*
X04159Y01989*
X0416Y01995*
G37*
G36*
X03991D02*
X03962D01*
Y01957*
X03973Y01959*
X03984Y01963*
X03993Y0197*
X03999Y01979*
X04004Y01989*
X04004Y01992*
X04Y01992*
X03997Y01991*
X03995Y01991*
X03994Y0199*
X03993Y01989*
X03992Y01988*
X03991Y01986*
X03991Y01985*
Y01995*
G37*
G36*
X02506Y01972D02*
X02486D01*
Y01948*
X02506*
Y01972*
G37*
G36*
X02476D02*
X02455D01*
Y01948*
X02465*
X02465Y01949*
X02465Y01949*
Y01948*
X02476*
Y01972*
G37*
G36*
X0216Y01971D02*
X02139D01*
Y01947*
X0216*
Y01971*
G37*
G36*
X02129D02*
X02108D01*
Y01947*
X02129*
Y01971*
G37*
G36*
X02476Y01938D02*
X02465D01*
Y01937*
X02465Y01938*
X02465Y01938*
X02455*
Y01914*
X02476*
Y01938*
G37*
G36*
X02506D02*
X02486D01*
Y01914*
X02506*
Y01938*
G37*
G36*
X0216Y01937D02*
X02139D01*
Y01913*
X0216*
Y01937*
G37*
G36*
X02129D02*
X02108D01*
Y01913*
X02129*
Y01917*
X02125*
Y01918*
X02125Y0192*
X02125Y0192*
X02124Y01921*
X02124Y01922*
X02124Y01922*
X02123Y01923*
X02123Y01923*
X02122Y01923*
X02122Y01923*
X02129*
Y01937*
G37*
G36*
X03815Y01813D02*
Y01771D01*
X03853*
X03851Y01782*
X03847Y01793*
X0384Y01802*
X03831Y01808*
X03821Y01813*
X03815Y01813*
G37*
G36*
X03805D02*
X03799Y01813D01*
X03788Y01808*
X0378Y01802*
X03773Y01793*
X03768Y01782*
X03767Y01771*
X03805*
Y01813*
G37*
G36*
X02845Y01789D02*
Y01754D01*
X02879*
X02879Y01759*
X02875Y01769*
X02868Y01778*
X0286Y01784*
X0285Y01788*
X02845Y01789*
G37*
G36*
X02835D02*
X02829Y01788D01*
X02819Y01784*
X02811Y01778*
X02805Y01769*
X02801Y01759*
X028Y01754*
X02835*
Y01789*
G37*
G36*
X0411Y0181D02*
X041Y01809D01*
X0409Y01805*
X04082Y01799*
X04076Y01791*
X04072Y01781*
X04071Y01771*
Y01761*
X04072Y01751*
X04074Y01748*
Y01748*
X04074Y01747*
X04073Y01746*
X04072Y01745*
X04071Y01744*
X0407Y01743*
X0407Y01742*
X04003Y01675*
X03892*
X03892Y01676*
X0389*
X03889Y01676*
X03888Y01676*
X03888*
Y01689*
X03844*
Y01639*
X03854*
X03854Y01639*
X03854Y01638*
X03854Y01637*
X03854Y01635*
X03855Y01635*
Y01614*
X03854Y01613*
X03854Y01611*
X03854Y0161*
X03854Y01609*
X03854Y01609*
X03844*
Y0156*
X03888*
Y01568*
X03888Y01569*
X03888Y01569*
X03888Y01569*
X03889Y01569*
X0389Y0157*
X03892Y0157*
X03894Y0157*
X03897Y0157*
X03897Y0157*
X03915*
X03917Y0157*
X03923Y01571*
X03927Y01574*
X0393Y01579*
X03931Y01584*
X0393Y0159*
X03927Y01594*
X03923Y01597*
X03917Y01598*
X03915Y01598*
X03897*
X03897Y01598*
X03894Y01598*
X03892Y01599*
X0389Y01599*
X03889Y01599*
X03888Y01599*
X03888Y016*
X03888Y016*
X03888Y016*
Y01609*
X03878*
Y01609*
X03878Y0161*
X03877Y01611*
Y01613*
X03877Y01614*
Y01635*
X03877Y01635*
Y01637*
X03878Y01638*
X03878Y01639*
Y01639*
X03888*
Y01652*
X03888Y01652*
X03889Y01652*
X0389Y01653*
X03892Y01653*
X03892Y01653*
X04008*
X04012Y01654*
X04016Y01656*
X04085Y01725*
X04085Y01725*
X04085Y01725*
X04085Y01726*
X04087Y01727*
X04088Y01728*
X04089Y01729*
X04089Y01729*
X0409Y01728*
X041Y01724*
X0411Y01722*
X0412Y01724*
X04129Y01728*
X04137Y01734*
X04144Y01742*
X04147Y01751*
X04149Y01761*
Y01771*
X04147Y01781*
X04144Y01791*
X04137Y01799*
X04129Y01805*
X0412Y01809*
X0411Y0181*
G37*
G36*
X03853Y01761D02*
X03815D01*
Y01731*
X03821Y01731*
X0382Y01731*
X03819Y0173*
X03818Y0173*
X03818Y01729*
X03817Y01728*
X03817Y01727*
X03816Y01725*
X03816Y01723*
X03816Y01721*
Y01719*
X03815*
Y01719*
X03821Y0172*
X03831Y01724*
X0384Y01731*
X03847Y0174*
X03851Y0175*
X03853Y01761*
G37*
G36*
X03805D02*
X03767D01*
X03768Y0175*
X03773Y0174*
X0378Y01731*
X03788Y01724*
X03799Y0172*
X03805Y01719*
Y01727*
X03805Y01728*
X03804Y01729*
X03803Y01729*
X03803Y0173*
X03802Y0173*
X03801Y0173*
X03805Y0173*
Y01761*
G37*
G36*
X02879Y01744D02*
X02845D01*
Y01728*
X02861*
X02858Y01725*
X02854Y0172*
X02852Y01717*
X0285Y01715*
X02849Y01712*
X02848Y0171*
X0285Y0171*
X0286Y01714*
X02868Y01721*
X02875Y01729*
X02879Y01739*
X02879Y01744*
G37*
G36*
X02835D02*
X028D01*
X02801Y01739*
X02805Y01729*
X02811Y01721*
X02819Y01714*
X02829Y0171*
X02831Y0171*
X0283Y01712*
X02829Y01715*
X02827Y01717*
X02825Y0172*
X02823Y01722*
X02821Y01725*
X02819Y01728*
X02835*
Y01744*
G37*
G36*
X03837Y01693D02*
X03816D01*
Y01693*
Y01691*
X03816Y01689*
X03816Y01688*
X03817Y01686*
X03817Y01685*
X03818Y01684*
X03818Y01683*
X03819Y01683*
X0382Y01683*
X03821Y01683*
X03816*
Y01669*
X03837*
Y01693*
G37*
G36*
X03806D02*
X03785D01*
Y01669*
X03806*
Y01683*
X03801*
X03802Y01683*
X03803Y01683*
X03803Y01683*
X03804Y01684*
X03805Y01685*
X03805Y01686*
X03805Y01688*
X03806Y01689*
X03806Y01691*
X03806Y01693*
Y01693*
G37*
G36*
X02848Y01685D02*
X02849Y01683D01*
X0285Y0168*
X02852Y01678*
X02854Y01675*
X02856Y01672*
X02858Y0167*
X0286Y01667*
X02844Y01667*
Y01651*
X02878*
X02878Y01656*
X02874Y01666*
X02867Y01675*
X02859Y01681*
X02849Y01685*
X02848Y01685*
G37*
G36*
X02831Y01685D02*
X02828Y01685D01*
X02818Y01681*
X0281Y01675*
X02804Y01666*
X028Y01656*
X02799Y01651*
X02809*
X02809Y01653*
X0281Y01651*
X02834*
Y01668*
X02818Y01668*
X02821Y01671*
X02823Y01673*
X02825Y01676*
X02827Y01678*
X02829Y01681*
X0283Y01683*
X02831Y01685*
G37*
G36*
X03355Y01666D02*
X03331D01*
Y01645*
X03333*
Y01648*
X03334Y01647*
X03335Y01647*
X03336Y01647*
X03337Y01646*
X03338Y01646*
X03342Y01646*
X03344Y01646*
Y01649*
Y01648*
X03345Y01647*
X03345Y01647*
X03345Y01647*
X03346Y01646*
X03347Y01646*
X03347Y01646*
X03348Y01646*
X03349Y01646*
X0335*
Y01645*
X03355*
Y01666*
G37*
G36*
X03321D02*
X03297D01*
Y01645*
X03321*
Y01666*
G37*
G36*
X03521D02*
X03497D01*
Y01645*
X03511*
Y01646*
Y01646*
X03511Y01645*
X03521*
Y01666*
G37*
G36*
X03487D02*
X03464D01*
Y01645*
X03487*
Y01666*
G37*
G36*
X03689Y01664D02*
X03666D01*
Y01644*
X03679*
Y01645*
X03679Y01644*
X03679Y01644*
X03689*
Y01664*
G37*
G36*
X03656D02*
X03632D01*
Y01644*
X03656*
Y01664*
G37*
G36*
X02453Y01678D02*
Y01635D01*
X02475*
Y01657*
X02479Y01653*
X02486Y01646*
X0249Y01643*
X02493Y01641*
X02494Y0164*
X02494Y01643*
X02489Y01654*
X02482Y01664*
X02472Y01672*
X0246Y01677*
X02453Y01678*
G37*
G36*
X02101Y01677D02*
Y01635D01*
X02123*
Y01656*
X02127Y01652*
X02135Y01646*
X02138Y01643*
X02141Y0164*
X02143Y0164*
X02142Y01643*
X02138Y01654*
X0213Y01664*
X0212Y01672*
X02108Y01676*
X02101Y01677*
G37*
G36*
X03837Y01659D02*
X03816D01*
Y01646*
X03821*
X0382Y01646*
X03819Y01645*
X03818Y01645*
X03818Y01644*
X03817Y01643*
X03817Y01642*
X03816Y01641*
X03816Y01639*
X03816Y01637*
Y01636*
Y01635*
X03837*
Y01659*
G37*
G36*
X03806D02*
X03785D01*
Y01635*
X03806*
Y01636*
X03806Y01637*
X03806Y01639*
X03805Y01641*
X03805Y01642*
X03805Y01643*
X03804Y01644*
X03803Y01645*
X03803Y01645*
X03802Y01646*
X03801Y01646*
X03806*
Y01659*
G37*
G36*
X02745Y01678D02*
X02703D01*
Y01635*
X02735*
Y01636*
X02735Y01636*
X02735Y01635*
X02745*
Y01678*
G37*
G36*
X02443Y01678D02*
X02435Y01677D01*
X02424Y01672*
X02414Y01664*
X02406Y01654*
X02402Y01643*
X02401Y01635*
X02403*
X02404Y01636*
X02406Y01637*
X02408Y01639*
X0241Y01641*
X02411Y01643*
X02413Y01645*
X02415Y01648*
X02415Y01635*
X02443*
Y01678*
G37*
G36*
X02693Y01678D02*
X0265D01*
Y01635*
X0265*
X02652*
X02654Y01636*
X02656Y01636*
X02657Y01636*
X02658Y01637*
X02659Y01637*
X0266Y01638*
X0266Y01639*
X0266Y01639*
X02661Y0164*
Y01635*
X02693*
Y01678*
G37*
G36*
X02805Y01641D02*
X02799D01*
X028Y01636*
X028Y01635*
X02801Y01636*
X02803Y01638*
X02805Y0164*
X02805Y01641*
G37*
G36*
X02394Y01678D02*
X02351D01*
Y01635*
X02383*
Y01636*
X02383Y01636*
X02383Y01635*
X02394*
Y01678*
G37*
G36*
X02341D02*
X02299D01*
Y01635*
X02299*
X02301*
X02302Y01635*
X02304Y01636*
X02305Y01636*
X02306Y01636*
X02307Y01637*
X02308Y01638*
X02308Y01638*
X02309Y01639*
X02309Y0164*
Y01635*
X02341*
Y01678*
G37*
G36*
X03521Y01635D02*
X03511D01*
X03511Y01635*
Y01634*
Y01635*
X03497*
Y01615*
X03521*
Y01635*
G37*
G36*
X03689Y01634D02*
X03679D01*
X03679Y01633*
X03679Y01633*
Y01634*
X03666*
Y01613*
X03689*
Y01634*
G37*
G36*
X02745Y01625D02*
X02735D01*
X02735Y01625*
X02735Y01624*
Y01625*
X02703*
Y01583*
X02745*
Y01625*
G37*
G36*
X02394Y01625D02*
X02383D01*
X02383Y01625*
X02383Y01624*
Y01625*
X02351*
Y01583*
X02394*
Y01625*
G37*
G36*
X02693Y01625D02*
X02661D01*
Y0162*
X0266Y01621*
X0266Y01622*
X0266Y01623*
X02659Y01624*
X02658Y01624*
X02657Y01625*
X02656Y01625*
X02654Y01625*
X02652Y01625*
X0265Y01625*
X0265*
Y01583*
X02693*
Y01625*
G37*
G36*
X02341Y01625D02*
X02309D01*
Y0162*
X02309Y01621*
X02308Y01622*
X02308Y01623*
X02307Y01623*
X02306Y01624*
X02305Y01624*
X02304Y01625*
X02302Y01625*
X02301Y01625*
X02299Y01625*
X02299*
Y01583*
X02341*
Y01625*
G37*
G36*
X02829Y01641D02*
X02816D01*
X0283Y01617*
X02804Y01625*
X0281Y01618*
X02818Y01611*
X02828Y01607*
X02834Y01606*
Y01636*
X02831Y01634*
X02827Y0163*
X02825Y01628*
X02821Y01633*
X02823Y01635*
X02829Y01641*
G37*
G36*
X03355Y01635D02*
X03331D01*
Y01615*
X03355*
Y01635*
G37*
G36*
X03321D02*
X03297D01*
Y01615*
X03321*
Y01635*
G37*
G36*
X03487D02*
X03464D01*
Y01615*
X03487*
Y01635*
G37*
G36*
X03656Y01634D02*
X03632D01*
Y01613*
X03656*
Y01634*
G37*
G36*
X02443Y01625D02*
X02415D01*
X02415Y01612*
X02413Y01615*
X02412Y01617*
X0241Y0162*
X02408Y01622*
X02406Y01623*
X02404Y01625*
X02402Y01625*
X02401*
X02402Y01618*
X02406Y01606*
X02414Y01596*
X02424Y01589*
X02435Y01584*
X02443Y01583*
Y01625*
G37*
G36*
X02878Y01641D02*
X02844D01*
Y01606*
X02849Y01607*
X02859Y01611*
X02867Y01618*
X02874Y01626*
X02878Y01636*
X02878Y01641*
G37*
G36*
X03517Y01607D02*
X03468D01*
Y01595*
X03467*
X03467Y01595*
X03465Y01595*
X03464*
X03463Y01595*
X03447*
X03446Y01595*
X03445*
X03443Y01595*
X03442Y01595*
Y01605*
X03399*
Y01562*
X03442*
Y01572*
X03443Y01572*
X03445Y01572*
X03446Y01572*
X03447Y01572*
X03463*
X03464Y01572*
X03465Y01572*
X03467Y01572*
X03467Y01572*
X03468*
Y01564*
X03517*
Y01607*
G37*
G36*
X03351D02*
X03301D01*
Y01595*
X03301*
X033Y01595*
X03299Y01595*
X03297*
X03296Y01595*
X0328*
X0328Y01595*
X03278*
X03277Y01595*
X03276Y01595*
X03276*
Y01605*
X03232*
Y01562*
X03276*
Y01572*
X03276*
X03277Y01572*
X03278Y01572*
X0328Y01572*
X0328Y01572*
X03296*
X03297Y01572*
X03299Y01572*
X033Y01572*
X03301Y01572*
X03301*
Y01564*
X03351*
Y01607*
G37*
G36*
X03837Y01613D02*
X03816D01*
Y01613*
Y01611*
X03816Y01609*
X03816Y01608*
X03817Y01606*
X03817Y01605*
X03818Y01604*
X03818Y01604*
X03819Y01603*
X0382Y01603*
X03821Y01603*
X03816*
Y01589*
X03837*
Y01613*
G37*
G36*
X03806D02*
X03785D01*
Y01589*
X03795*
X03795Y0159*
Y0159*
Y01589*
X03806*
Y01603*
X03801*
X03802Y01603*
X03803Y01603*
X03803Y01604*
X03804Y01604*
X03805Y01605*
X03805Y01606*
X03805Y01608*
X03806Y01609*
X03806Y01611*
X03806Y01613*
Y01613*
G37*
G36*
X02475Y01625D02*
X02453D01*
Y01583*
X0246Y01584*
X02472Y01589*
X02482Y01596*
X02489Y01606*
X02494Y01618*
X02494Y01621*
X02493Y0162*
X0249Y01618*
X02486Y01615*
X02479Y01608*
X02475Y01604*
Y01625*
G37*
G36*
X02123Y01625D02*
X02101D01*
Y01583*
X02108Y01584*
X0212Y01589*
X0213Y01596*
X02138Y01606*
X02142Y01618*
X02143Y01621*
X02141Y0162*
X02138Y01617*
X02135Y01615*
X02127Y01608*
X02123Y01604*
Y01625*
G37*
G36*
X03806Y01579D02*
X03795D01*
Y01578*
Y01579*
X03795Y01579*
X03785*
Y01556*
X03806*
Y01579*
G37*
G36*
X0361Y01605D02*
X03566D01*
Y01562*
X0361*
Y01572*
X0361*
X03611Y01572*
X03612Y01572*
X03614Y01572*
X03614Y01572*
X03631*
X03632Y01572*
X03633Y01572*
X03635Y01572*
X03636Y01572*
X03636*
Y01562*
X03685*
Y01605*
X03636*
Y01595*
X03636*
X03635Y01595*
X03633Y01595*
X03632*
X03631Y01595*
X03614*
X03614Y01595*
X03612*
X03611Y01595*
X0361Y01595*
X0361*
Y01605*
G37*
G36*
X03837Y01579D02*
X03816D01*
Y01556*
X03837*
Y01579*
G37*
G36*
X0407Y01654D02*
X04056Y01652D01*
X04041Y01648*
X04028Y01641*
X04017Y01632*
X04008Y0162*
X04001Y01607*
X03996Y01593*
X03995Y01578*
X03996Y01564*
X04001Y0155*
X04008Y01537*
X04017Y01525*
X04028Y01516*
X04041Y01509*
X04056Y01505*
X0407Y01503*
X04085Y01505*
X04099Y01509*
X04112Y01516*
X04124Y01525*
X04133Y01537*
X0414Y0155*
X04144Y01564*
X04146Y01578*
X04144Y01593*
X0414Y01607*
X04133Y0162*
X04124Y01632*
X04112Y01641*
X04099Y01648*
X04085Y01652*
X0407Y01654*
G37*
G36*
X03822Y03381D02*
X03779D01*
Y03365*
X03779*
X03778Y03365*
X03747*
X03746Y03365*
Y03378*
X03703*
Y03334*
X03746*
Y03347*
X03747Y03347*
X03778*
X03779Y03347*
X03779*
Y03331*
X03822*
Y03381*
G37*
G36*
X03881Y03385D02*
X03861D01*
Y03361*
X03881*
Y03385*
G37*
G36*
X03851D02*
X0383D01*
Y03361*
X03851*
Y03385*
G37*
G36*
X03881Y03351D02*
X03861D01*
Y03338*
X03862*
X03861Y03337*
X03861Y03337*
Y03327*
X03881*
Y03351*
G37*
G36*
X03851D02*
X0383D01*
Y03327*
X03851*
Y03337*
X0385Y03337*
X0385Y03338*
X03851*
Y03351*
G37*
G36*
X03565Y03407D02*
X03521D01*
Y03358*
X03533*
X03534Y03357*
Y0334*
X03533Y03339*
Y03339*
X03533Y03338*
Y03338*
Y03338*
X03533Y03338*
X03533Y03338*
Y03337*
X03533Y03337*
X03533Y03337*
X03533Y03337*
X03532Y03336*
X0353Y03332*
X03529Y03327*
X0353Y03321*
X03533Y03317*
X03537Y03314*
X03543Y03313*
X03548Y03314*
X03553Y03317*
X03556Y03321*
X03557Y03327*
X03556Y03332*
X03553Y03336*
X03553Y03337*
X03553Y03337*
X03553Y03337*
Y03337*
X03553Y03338*
Y03338*
X03552Y03338*
Y03338*
X03552Y03338*
Y03339*
Y03339*
X03552Y0334*
Y03357*
X03552Y03358*
X03565*
Y03407*
G37*
G36*
X03822Y03312D02*
X03779D01*
Y03296*
X03779*
X03778Y03296*
X03747*
X03746Y03296*
Y03311*
X03703*
Y03267*
X03746*
Y03277*
X03747Y03278*
X03778*
X03779Y03277*
X03779*
Y03262*
X03822*
Y03312*
G37*
G36*
X03881Y03316D02*
X03861D01*
Y03305*
X03861Y03305*
X03862Y03305*
X03861*
Y03292*
X03881*
Y03316*
G37*
G36*
X03851D02*
X0383D01*
Y03292*
X03851*
Y03305*
X0385*
X0385Y03305*
X03851Y03305*
Y03316*
G37*
G36*
X03881Y03282D02*
X03861D01*
Y03258*
X03881*
Y03282*
G37*
G36*
X03851D02*
X0383D01*
Y03258*
X03851*
Y03282*
G37*
%LNpcb_bug_v2-3*%
%LPD*%
G36*
X03293Y0369D02*
X03293Y03691D01*
X03293Y03693*
X03292Y03694*
X03291Y03695*
X0329Y03696*
X03288Y03696*
X03286Y03697*
X03284Y03697*
X03281Y03697*
X03278Y03698*
Y03713*
X03281*
X03284Y03713*
X03286Y03713*
X03288Y03714*
X0329Y03714*
X03291Y03715*
X03292Y03716*
X03293Y03717*
X03293Y03719*
X03293Y0372*
Y0369*
G37*
G36*
X0324Y03719D02*
X03241Y03717D01*
X03242Y03716*
X03243Y03715*
X03244Y03714*
X03246Y03714*
X03248Y03713*
X0325Y03713*
X03252Y03713*
X03255*
Y03698*
X03252Y03697*
X0325Y03697*
X03248Y03697*
X03246Y03696*
X03244Y03696*
X03243Y03695*
X03242Y03694*
X03241Y03693*
X0324Y03691*
X0324Y0369*
Y0372*
X0324Y03719*
G37*
G36*
X02692Y02642D02*
X02692Y02642D01*
X02693Y02642*
X02694Y02641*
X02694Y02641*
X02695Y02641*
X02696Y02641*
X02697Y02641*
X02698*
X027Y02635*
X02699*
X02698Y02635*
X02697Y02635*
X02697Y02634*
X02696Y02634*
X02696Y02634*
X02695Y02633*
X02695Y02633*
X02694Y02632*
X02694Y02632*
X02691Y02643*
X02692Y02642*
G37*
G36*
X0272Y02632D02*
Y02632D01*
X0272Y02633*
X0272Y02633*
X02719Y02634*
X02719Y02634*
X02718Y02634*
X02717Y02634*
X02716Y02635*
X02715Y02635*
X02714*
Y02641*
X02715*
X02716Y02641*
X02717Y02641*
X02718Y02641*
X02719Y02642*
X02719Y02642*
X0272Y02642*
X0272Y02643*
X0272Y02643*
Y02644*
Y02632*
G37*
G36*
X03561Y02217D02*
X03561Y02216D01*
X0356Y02215*
X0356Y02215*
X0356Y02214*
X0356Y02213*
X03559Y02212*
X03559Y02211*
X03559Y0221*
Y02209*
X03553*
Y0221*
X03553Y02212*
X03553Y02213*
X03553Y02214*
X03552Y02215*
X03552Y02215*
X03552Y02216*
X03551Y02217*
X03551Y02218*
X03562*
X03561Y02217*
G37*
G36*
X03542D02*
X03541Y02216D01*
X03541Y02215*
X0354Y02215*
X0354Y02214*
X0354Y02213*
X0354Y02212*
X0354Y02211*
Y0221*
X0354Y02209*
X03534*
Y0221*
X03533Y02212*
X03533Y02213*
X03533Y02214*
X03533Y02215*
X03532Y02215*
X03532Y02216*
X03532Y02217*
X03531Y02218*
X03542*
X03542Y02217*
G37*
G36*
X03522D02*
X03521Y02216D01*
X03521Y02215*
X03521Y02215*
X03521Y02214*
X0352Y02213*
X0352Y02212*
X0352Y02211*
Y0221*
X0352Y02209*
X03514*
Y0221*
X03514Y02212*
X03514Y02213*
X03513Y02214*
X03513Y02215*
X03513Y02215*
X03512Y02216*
X03512Y02217*
X03511Y02218*
X03522*
X03522Y02217*
G37*
G36*
X03502D02*
X03502Y02216D01*
X03501Y02215*
X03501Y02215*
X03501Y02214*
X03501Y02213*
X035Y02212*
X035Y02211*
X035Y0221*
Y02209*
X03494*
X03494Y0221*
X03494Y02212*
X03494Y02213*
X03494Y02214*
X03493Y02215*
X03493Y02215*
X03493Y02216*
X03492Y02217*
X03492Y02218*
X03503*
X03502Y02217*
G37*
G36*
X03483D02*
X03482Y02216D01*
X03482Y02215*
X03481Y02215*
X03481Y02214*
X03481Y02213*
X03481Y02212*
X03481Y02211*
X03481Y0221*
Y02209*
X03475*
Y0221*
X03474Y02212*
X03474Y02213*
X03474Y02214*
X03474Y02215*
X03473Y02215*
X03473Y02216*
X03473Y02217*
X03472Y02218*
X03483*
X03483Y02217*
G37*
G36*
X03443D02*
X03443Y02216D01*
X03442Y02215*
X03442Y02215*
X03442Y02214*
X03442Y02213*
X03441Y02212*
X03441Y02211*
X03441Y0221*
Y02209*
X03435*
Y0221*
X03435Y02212*
X03435Y02213*
X03435Y02214*
X03434Y02215*
X03434Y02215*
X03434Y02216*
X03433Y02217*
X03433Y02218*
X03444*
X03443Y02217*
G37*
G36*
X03423D02*
X03423Y02216D01*
X03423Y02215*
X03422Y02215*
X03422Y02214*
X03422Y02213*
X03422Y02212*
X03422Y02211*
X03421Y0221*
Y02209*
X03415*
Y0221*
X03415Y02212*
X03415Y02213*
X03415Y02214*
X03415Y02215*
X03414Y02215*
X03414Y02216*
X03413Y02217*
X03413Y02218*
X03424*
X03423Y02217*
G37*
G36*
X03404D02*
X03403Y02216D01*
X03403Y02215*
X03403Y02215*
X03402Y02214*
X03402Y02213*
X03402Y02212*
X03402Y02211*
Y0221*
X03402Y02209*
X03396*
Y0221*
X03396Y02212*
X03395Y02213*
X03395Y02214*
X03395Y02215*
X03395Y02215*
X03394Y02216*
X03394Y02217*
X03393Y02218*
X03404*
X03404Y02217*
G37*
G36*
X03384D02*
X03384Y02216D01*
X03383Y02215*
X03383Y02215*
X03383Y02214*
X03382Y02213*
X03382Y02212*
X03382Y02211*
Y0221*
Y02209*
X03376*
X03376Y0221*
X03376Y02212*
X03376Y02213*
X03375Y02214*
X03375Y02215*
X03375Y02215*
X03375Y02216*
X03374Y02217*
X03374Y02218*
X03385*
X03384Y02217*
G37*
G36*
X03364D02*
X03364Y02216D01*
X03364Y02215*
X03363Y02215*
X03363Y02214*
X03363Y02213*
X03363Y02212*
X03363Y02211*
X03362Y0221*
Y02209*
X03356*
X03356Y0221*
X03356Y02212*
X03356Y02213*
X03356Y02214*
X03356Y02215*
X03355Y02215*
X03355Y02216*
X03354Y02217*
X03354Y02218*
X03365*
X03364Y02217*
G37*
G36*
X03345D02*
X03344Y02216D01*
X03344Y02215*
X03344Y02215*
X03343Y02214*
X03343Y02213*
X03343Y02212*
X03343Y02211*
X03343Y0221*
Y02209*
X03337*
Y0221*
X03337Y02212*
X03336Y02213*
X03336Y02214*
X03336Y02215*
X03336Y02215*
X03335Y02216*
X03335Y02217*
X03334Y02218*
X03345*
X03345Y02217*
G37*
G36*
X03305D02*
X03305Y02216D01*
X03305Y02215*
X03304Y02215*
X03304Y02214*
X03304Y02213*
X03304Y02212*
X03303Y02211*
X03303Y0221*
Y02209*
X03297*
Y0221*
X03297Y02212*
X03297Y02213*
X03297Y02214*
X03296Y02215*
X03296Y02215*
X03296Y02216*
X03295Y02217*
X03295Y02218*
X03306*
X03305Y02217*
G37*
G36*
X03303Y02199D02*
X03303Y02198D01*
X03304Y02198*
X03304Y02197*
X03304Y02196*
X03304Y02196*
X03305Y02195*
X03305Y02195*
X03305Y02194*
X03306Y02194*
X03295Y02193*
X03295Y02193*
X03296Y02194*
X03296Y02195*
X03297Y02195*
X03297Y02196*
X03297Y02197*
X03297Y02197*
X03297Y02198*
X03297Y02199*
Y02199*
X03303Y022*
Y02199*
G37*
G36*
X03481Y02183D02*
Y02182D01*
X03481Y02181*
X03481Y0218*
X03481Y02179*
X03481Y02179*
X03481Y02178*
X03482Y02177*
X03482Y02177*
X03482Y02176*
X03472Y02179*
X03472Y02179*
X03473Y02179*
X03473Y0218*
X03473Y0218*
X03474Y02181*
X03474Y02182*
X03474Y02182*
X03474Y02183*
Y02184*
X03475Y02184*
X03481Y02183*
G37*
G36*
X03306Y02182D02*
X03305Y02181D01*
X03305Y02181*
X03305Y0218*
X03304Y0218*
X03304Y02179*
X03304Y02178*
X03304Y02178*
X03303Y02177*
X03303Y02176*
Y02175*
X03297Y02176*
Y02177*
X03297Y02177*
X03297Y02178*
X03297Y02179*
X03297Y02179*
X03297Y0218*
X03296Y02181*
X03296Y02181*
X03295Y02182*
X03295Y02182*
X03306Y02182*
G37*
G36*
X03717Y02159D02*
X03716Y02158D01*
X03716Y02157*
X03716Y02157*
X03715Y02156*
X03715Y02156*
X03715Y02155*
X03715Y02154*
X03715Y02153*
Y02153*
X03709*
Y02153*
X03709Y02154*
X03709Y02155*
X03708Y02156*
X03708Y02156*
X03708Y02157*
X03708Y02157*
X03707Y02158*
X03707Y02159*
X03706Y02159*
X03717*
X03717Y02159*
G37*
G36*
X0354Y02138D02*
X0354Y02137D01*
X0354Y02136*
X0354Y02136*
X0354Y02135*
X03541Y02134*
X03541Y02134*
X03542Y02134*
X03542Y02133*
X03543*
X03531*
X03531*
X03532Y02134*
X03532Y02134*
X03533Y02134*
X03533Y02135*
X03533Y02136*
X03533Y02136*
X03533Y02137*
X03534Y02138*
Y02139*
X0354*
X0354Y02138*
G37*
G36*
X03715D02*
X03715Y02136D01*
X03715Y02136*
X03715Y02135*
X03715Y02134*
X03716Y02134*
X03716Y02134*
X03716Y02133*
X03717*
X03706Y02133*
X03706*
X03707Y02134*
X03707Y02134*
X03708Y02134*
X03708Y02135*
X03708Y02136*
X03709Y02136*
X03709Y02137*
X03709Y02138*
Y02139*
X03715*
Y02138*
G37*
G36*
X03303Y02135D02*
X03303Y02134D01*
X03304Y02133*
X03304Y02132*
X03304Y02132*
X03304Y02131*
X03305Y02131*
X03305Y0213*
X03306Y0213*
X03306*
X03294*
X03295*
X03295Y0213*
X03296Y02131*
X03296Y02131*
X03297Y02132*
X03297Y02132*
X03297Y02133*
X03297Y02134*
X03297Y02135*
Y02136*
X03303*
Y02135*
G37*
G36*
X0368Y02112D02*
Y02112D01*
X03679Y02113*
X03679Y02113*
X03679Y02114*
X03678Y02114*
X03677Y02114*
X03677Y02115*
X03676Y02115*
X03675Y02115*
X03673Y02115*
Y02121*
X03675*
X03676Y02121*
X03677Y02121*
X03677Y02121*
X03678Y02122*
X03679Y02122*
X03679Y02122*
X03679Y02123*
X0368Y02123*
Y02124*
Y02112*
G37*
G36*
X03636Y02123D02*
X03636Y02123D01*
X03636Y02122*
X03637Y02122*
X03637Y02122*
X03638Y02121*
X03639Y02121*
X0364Y02121*
X03641Y02121*
X03642*
Y02115*
X03641Y02115*
X0364Y02115*
X03639Y02115*
X03638Y02114*
X03637Y02114*
X03637Y02114*
X03636Y02113*
X03636Y02113*
X03636Y02112*
X03636Y02112*
Y02124*
X03636Y02123*
G37*
G36*
X03306Y02093D02*
X03305Y02093D01*
X03305Y02093*
X03304Y02092*
X03304Y02092*
X03304Y02091*
X03304Y0209*
X03303Y02089*
X03303Y02088*
Y02087*
X03297*
Y02088*
X03297Y02089*
X03297Y0209*
X03297Y02091*
X03297Y02092*
X03296Y02092*
X03296Y02093*
X03295Y02093*
X03295Y02093*
X03294Y02093*
X03306*
X03306Y02093*
G37*
G36*
X03303Y02062D02*
X03303Y02061D01*
X03304Y0206*
X03304Y0206*
X03304Y02059*
X03304Y02058*
X03305Y02058*
X03305Y02058*
X03306Y02057*
X03306Y02057*
X03294*
X03295Y02057*
X03295Y02058*
X03296Y02058*
X03296Y02058*
X03297Y02059*
X03297Y0206*
X03297Y0206*
X03297Y02061*
X03297Y02062*
Y02063*
X03303*
Y02062*
G37*
G36*
X03306Y0202D02*
X03305Y0202D01*
X03305Y0202*
X03304Y02019*
X03304Y02019*
X03304Y02018*
X03303Y02017*
X03303Y02017*
X03303Y02015*
Y02014*
X03297*
X03297Y02015*
X03297Y02017*
X03297Y02017*
X03297Y02018*
X03296Y02019*
X03296Y02019*
X03296Y0202*
X03295Y0202*
X03295Y0202*
X03294Y0202*
X03306*
X03306Y0202*
G37*
G36*
X03295Y01955D02*
X03295Y01954D01*
X03294Y01954*
X03294Y01953*
X03293Y01952*
X03293Y01952*
X03293Y01951*
X03293Y0195*
X03292Y0195*
X03292Y01949*
Y01948*
X03285Y01956*
X03285*
X03286Y01956*
X03287Y01956*
X03287Y01957*
X03288Y01957*
X03289Y01957*
X03289Y01958*
X0329Y01958*
X0329Y01958*
X03291Y01959*
X03295Y01955*
G37*
G36*
X0359Y01825D02*
X0359Y01824D01*
X03591Y01823*
X03591Y01822*
X03591Y01822*
X03591Y01821*
X03592Y01821*
X03592Y0182*
X03593Y0182*
X03593Y0182*
X03581*
X03582Y0182*
X03582Y0182*
X03583Y01821*
X03583Y01821*
X03583Y01822*
X03584Y01822*
X03584Y01823*
X03584Y01824*
X03584Y01825*
Y01826*
X0359*
Y01825*
G37*
G36*
X03422D02*
Y01824D01*
X03422Y01823*
X03422Y01822*
X03422Y01822*
X03423Y01821*
X03423Y01821*
X03423Y0182*
X03424Y0182*
X03424Y0182*
X03412*
X03413Y0182*
X03414Y0182*
X03414Y01821*
X03414Y01821*
X03415Y01822*
X03415Y01822*
X03415Y01823*
X03415Y01824*
X03415Y01825*
Y01826*
X03421*
X03422Y01825*
G37*
G36*
X0391Y01809D02*
X03914Y01805D01*
X03916Y01804*
X03917Y01803*
X03918Y01803*
X03919Y01802*
X0392Y01802*
X03921Y01802*
X03903Y01803*
X03904Y01803*
X03905Y01803*
X03905Y01803*
X03905Y01803*
X03905Y01804*
X03905Y01804*
X03905Y01805*
X03904Y01806*
X03904Y01807*
X03903Y01808*
X03909Y0181*
X0391Y01809*
G37*
G36*
X03709Y01779D02*
X0371Y01778D01*
X0371Y01777*
X03711Y01776*
X03713Y01775*
X03714Y01775*
X03716Y01774*
X03718Y01774*
X0372Y01774*
X03723Y01774*
Y01759*
X0372Y01759*
X03718Y01758*
X03716Y01758*
X03714Y01758*
X03713Y01757*
X03711Y01756*
X0371Y01756*
X0371Y01755*
X03709Y01753*
X03709Y01752*
Y0178*
X03709Y01779*
G37*
G36*
X03662Y01751D02*
X03662Y01753D01*
X03662Y01754*
X03661Y01755*
X0366Y01756*
X03658Y01757*
X03657Y01757*
X03655Y01758*
X03653Y01758*
X0365Y01759*
X03647Y01759*
Y01774*
X0365Y01774*
X03653Y01774*
X03655Y01774*
X03657Y01775*
X03658Y01776*
X0366Y01776*
X03661Y01777*
X03662Y01778*
X03662Y0178*
X03662Y01781*
Y01751*
G37*
G36*
X03542Y0178D02*
X03543Y01778D01*
X03544Y01777*
X03545Y01776*
X03546Y01776*
X03548Y01775*
X0355Y01774*
X03552Y01774*
X03555Y01774*
X03557Y01774*
Y01759*
X03555Y01759*
X03552Y01758*
X0355Y01758*
X03548Y01757*
X03546Y01757*
X03545Y01756*
X03544Y01755*
X03543Y01754*
X03542Y01753*
X03542Y01751*
Y01781*
X03542Y0178*
G37*
G36*
X03495Y01751D02*
X03495Y01753D01*
X03495Y01754*
X03494Y01755*
X03493Y01756*
X03492Y01757*
X0349Y01757*
X03488Y01758*
X03486Y01758*
X03483Y01759*
X0348Y01759*
Y01774*
X03483Y01774*
X03486Y01774*
X03488Y01774*
X0349Y01775*
X03492Y01776*
X03493Y01776*
X03494Y01777*
X03495Y01778*
X03495Y0178*
X03495Y01781*
Y01751*
G37*
G36*
X03376Y0178D02*
X03376Y01778D01*
X03377Y01777*
X03378Y01776*
X03379Y01776*
X03381Y01775*
X03383Y01774*
X03385Y01774*
X03388Y01774*
X03391Y01774*
Y01759*
X03388Y01759*
X03385Y01758*
X03383Y01758*
X03381Y01757*
X03379Y01757*
X03378Y01756*
X03377Y01755*
X03376Y01754*
X03376Y01753*
X03376Y01751*
Y01781*
X03376Y0178*
G37*
G36*
X03329Y01751D02*
X03329Y01753D01*
X03328Y01754*
X03327Y01755*
X03326Y01756*
X03325Y01757*
X03323Y01757*
X03321Y01758*
X03319Y01758*
X03317Y01759*
X03314Y01759*
Y01774*
X03317Y01774*
X03319Y01774*
X03321Y01774*
X03323Y01775*
X03325Y01776*
X03326Y01776*
X03327Y01777*
X03328Y01778*
X03329Y0178*
X03329Y01781*
Y01751*
G37*
G36*
X03076Y01779D02*
X03074Y01777D01*
X03073Y01776*
X03072Y01773*
X03072Y01771*
X03071Y01768*
X0307Y01764*
X0307Y01757*
X0307Y01752*
Y01747*
X0304Y01777*
X03045*
X03057Y01778*
X0306Y01778*
X03063Y01779*
X03066Y0178*
X03068Y01781*
X0307Y01782*
X03071Y01783*
X03076Y01779*
G37*
G36*
X03149Y01776D02*
X03158Y01775D01*
X03164Y01774*
X03181Y01774*
X03185Y01759*
X03182Y01759*
X0318Y01758*
X03178Y01757*
X03176Y01756*
X03174Y01755*
X03173Y01754*
X03171Y01752*
X0317Y0175*
X0317Y01747*
X03169Y01745*
X03146Y01776*
X03149Y01776*
G37*
G36*
X03597Y01713D02*
X03596Y01712D01*
X03595Y01712*
X03595Y01711*
X03594Y0171*
X03594Y01709*
X03593Y01708*
X03593Y01706*
X03593Y01704*
X03593Y01703*
X03583*
Y01704*
X03583Y01706*
X03582Y01708*
X03582Y01709*
X03582Y0171*
X03581Y01711*
X0358Y01712*
X0358Y01712*
X03579Y01713*
X03578Y01713*
X03598*
X03597Y01713*
G37*
G36*
X0343D02*
X03429Y01712D01*
X03428Y01712*
X03428Y01711*
X03427Y0171*
X03427Y01709*
X03426Y01708*
X03426Y01706*
X03426Y01704*
Y01703*
X03416*
X03416Y01704*
X03416Y01706*
X03415Y01708*
X03415Y01709*
X03414Y0171*
X03414Y01711*
X03413Y01712*
X03413Y01712*
X03412Y01713*
X03411Y01713*
X03431*
X0343Y01713*
G37*
G36*
X03263D02*
X03262Y01712D01*
X03261Y01712*
X03261Y01711*
X0326Y0171*
X0326Y01709*
X03259Y01708*
X03259Y01706*
X03259Y01704*
Y01703*
X03249*
X03249Y01704*
X03249Y01706*
X03249Y01708*
X03248Y01709*
X03248Y0171*
X03247Y01711*
X03247Y01712*
X03246Y01712*
X03245Y01713*
X03244Y01713*
X03264*
X03263Y01713*
G37*
G36*
X0316Y01725D02*
X03157Y01722D01*
X03155Y0172*
X03153Y01717*
X03151Y01715*
X0315Y01712*
X03148Y0171*
X03147Y01707*
X03147Y01705*
X03146Y01702*
X03146Y017*
X03131Y017*
X03131Y01703*
X03131Y01705*
X0313Y01708*
X03129Y0171*
X03128Y01713*
X03126Y01716*
X03125Y01718*
X03123Y01721*
X0312Y01724*
X03118Y01726*
X0316Y01725*
G37*
G36*
X03146Y01691D02*
X03147Y01688D01*
X03147Y01686*
X03148Y01683*
X03149Y0168*
X03151Y01678*
X03153Y01675*
X03155Y01673*
X03157Y0167*
X0316Y01667*
X03118*
X0312Y0167*
X03124Y01675*
X03126Y01678*
X03128Y0168*
X03129Y01683*
X0313Y01686*
X03131Y01688*
X03131Y01691*
X03131Y01693*
X03146*
X03146Y01691*
G37*
G36*
X03593Y0167D02*
X03593Y01668D01*
X03593Y01667*
X03594Y01666*
X03594Y01665*
X03595Y01664*
X03595Y01663*
X03596Y01662*
X03597Y01662*
X03598Y01662*
X03578*
X03579Y01662*
X0358Y01662*
X0358Y01663*
X03581Y01664*
X03582Y01665*
X03582Y01666*
X03582Y01667*
X03583Y01668*
X03583Y0167*
Y01672*
X03593*
X03593Y0167*
G37*
G36*
X03426D02*
X03426Y01668D01*
X03426Y01667*
X03427Y01666*
X03427Y01665*
X03428Y01664*
X03428Y01663*
X03429Y01662*
X0343Y01662*
X03431Y01662*
X03411*
X03412Y01662*
X03413Y01662*
X03413Y01663*
X03414Y01664*
X03414Y01665*
X03415Y01666*
X03415Y01667*
X03416Y01668*
X03416Y0167*
X03416Y01672*
X03426*
Y0167*
G37*
G36*
X03259D02*
X03259Y01668D01*
X03259Y01667*
X0326Y01666*
X0326Y01665*
X03261Y01664*
X03261Y01663*
X03262Y01662*
X03263Y01662*
X03264Y01662*
X03244*
X03245Y01662*
X03246Y01662*
X03247Y01663*
X03247Y01664*
X03248Y01665*
X03248Y01666*
X03249Y01667*
X03249Y01668*
X03249Y0167*
X03249Y01672*
X03259*
Y0167*
G37*
G36*
X02975Y01679D02*
X02974Y01678D01*
X02973Y01676*
X02972Y01674*
X02971Y01671*
X0297Y01668*
X0297Y01665*
X02969Y01657*
X02969Y01653*
Y01648*
X02939Y01678*
X02944*
X02956Y01678*
X0296Y01679*
X02963Y0168*
X02965Y0168*
X02968Y01681*
X02969Y01682*
X02971Y01684*
X02975Y01679*
G37*
G36*
X03061Y01666D02*
X03064Y01664D01*
X03066Y01663*
X03069Y01662*
X03071Y01661*
X03073Y01661*
X03075Y01661*
X03077Y01662*
X03079Y01663*
X03081Y01665*
X03081Y01657*
X03081*
X03081Y01656*
X0308Y01655*
X03064Y01629*
X03058Y01669*
X03061Y01666*
G37*
G36*
X03716Y02052D02*
X03716Y02052D01*
X03716Y02051*
X03716Y02051*
X03716Y0205*
X03717Y02049*
X03717Y02048*
X03718Y02047*
X03721Y02044*
X03714Y02043*
X03713Y02044*
X03711Y02046*
X0371Y02046*
X03709Y02047*
X03708Y02047*
X03707Y02047*
X03706Y02047*
X03706Y02047*
X03705Y02047*
X03717Y02053*
X03716Y02052*
G37*
G36*
X04092Y01734D02*
X04091Y01735D01*
X04091Y01735*
X0409Y01736*
X04089*
X04088Y01735*
X04087Y01735*
X04085Y01734*
X04084Y01733*
X04082Y01732*
X04081Y0173*
X04075Y01738*
X04076Y0174*
X04077Y01741*
X04078Y01743*
X04079Y01744*
X0408Y01745*
X0408Y01746*
X0408Y01747*
X0408Y01748*
X0408Y01749*
X0408Y0175*
X04092Y01734*
G37*
G36*
X03882Y01673D02*
X03882Y01672D01*
X03882Y01672*
X03883Y01671*
X03884Y0167*
X03885Y0167*
X03886Y0167*
X03888Y01669*
X0389Y01669*
X03892*
Y01659*
X0389Y01659*
X03888Y01659*
X03886Y01659*
X03885Y01658*
X03884Y01658*
X03883Y01657*
X03882Y01657*
X03882Y01656*
X03882Y01655*
X03881Y01654*
Y01674*
X03882Y01673*
G37*
G36*
X03875Y01646D02*
X03874Y01645D01*
X03873Y01645*
X03873Y01644*
X03872Y01643*
X03872Y01642*
X03871Y01641*
X03871Y01639*
X03871Y01637*
Y01636*
X03861*
X03861Y01637*
X03861Y01639*
X0386Y01641*
X0386Y01642*
X0386Y01643*
X03859Y01644*
X03858Y01645*
X03858Y01645*
X03857Y01646*
X03856Y01646*
X03876*
X03875Y01646*
G37*
G36*
X03871Y01611D02*
X03871Y01609D01*
X03871Y01608*
X03872Y01606*
X03872Y01605*
X03873Y01604*
X03873Y01604*
X03874Y01603*
X03875Y01603*
X03876Y01603*
X03871*
X03871Y0159*
X03861*
Y0159*
X03861Y0159*
X03861Y01592*
X03861Y01603*
X03856*
X03857Y01603*
X03858Y01603*
X03858Y01604*
X03859Y01604*
X0386Y01605*
X0386Y01606*
X0386Y01608*
X03861Y01609*
X03861Y01611*
X03861Y01613*
X03871*
Y01611*
G37*
G36*
X03882Y01598D02*
X03882Y01597D01*
X03883Y01595*
X03884Y01594*
X03885Y01594*
X03887Y01593*
X03889Y01592*
X03891Y01592*
X03894Y01592*
X03897Y01592*
Y01577*
X03894Y01577*
X03891Y01576*
X03889Y01576*
X03887Y01576*
X03885Y01575*
X03884Y01574*
X03883Y01573*
X03882Y01572*
X03882Y01571*
X03881Y01569*
Y01599*
X03882Y01598*
G37*
G36*
X03474Y01573D02*
X03474Y01574D01*
X03473Y01575*
X03473Y01576*
X03472Y01577*
X03471Y01577*
X0347Y01578*
X03469Y01578*
X03467Y01578*
X03466Y01578*
X03464Y01578*
Y01588*
X03466*
X03467Y01589*
X03469Y01589*
X0347Y01589*
X03471Y0159*
X03472Y0159*
X03473Y01591*
X03473Y01592*
X03474Y01592*
X03474Y01593*
Y01573*
G37*
G36*
X03436Y01592D02*
X03437Y01592D01*
X03437Y01591*
X03438Y0159*
X03439Y0159*
X0344Y01589*
X03441Y01589*
X03443Y01589*
X03444Y01588*
X03446*
Y01578*
X03444Y01578*
X03443Y01578*
X03441Y01578*
X0344Y01578*
X03439Y01577*
X03438Y01577*
X03437Y01576*
X03437Y01575*
X03436Y01574*
X03436Y01573*
Y01593*
X03436Y01592*
G37*
G36*
X03307Y01573D02*
X03307Y01574D01*
X03307Y01575*
X03306Y01576*
X03306Y01577*
X03305Y01577*
X03304Y01578*
X03302Y01578*
X03301Y01578*
X03299Y01578*
X03297Y01578*
Y01588*
X03299*
X03301Y01589*
X03302Y01589*
X03304Y01589*
X03305Y0159*
X03306Y0159*
X03306Y01591*
X03307Y01592*
X03307Y01592*
X03307Y01593*
Y01573*
G37*
G36*
X0327Y01592D02*
X0327Y01592D01*
X0327Y01591*
X03271Y0159*
X03272Y0159*
X03273Y01589*
X03275Y01589*
X03276Y01589*
X03278Y01588*
X0328*
Y01578*
X03278Y01578*
X03276Y01578*
X03275Y01578*
X03273Y01578*
X03272Y01577*
X03271Y01577*
X0327Y01576*
X0327Y01575*
X0327Y01574*
X0327Y01573*
Y01593*
X0327Y01592*
G37*
G36*
X03642Y01573D02*
X03642Y01574D01*
X03642Y01575*
X03641Y01576*
X0364Y01577*
X0364Y01577*
X03638Y01578*
X03637Y01578*
X03636Y01578*
X03634Y01578*
X03632Y01578*
Y01588*
X03634*
X03636Y01589*
X03637Y01589*
X03638Y01589*
X0364Y0159*
X0364Y0159*
X03641Y01591*
X03642Y01592*
X03642Y01592*
X03642Y01593*
Y01573*
G37*
G36*
X03603Y01592D02*
X03604Y01592D01*
X03604Y01591*
X03605Y0159*
X03606Y0159*
X03607Y01589*
X03608Y01589*
X0361Y01589*
X03611Y01588*
X03613*
Y01578*
X03611Y01578*
X0361Y01578*
X03608Y01578*
X03607Y01578*
X03606Y01577*
X03605Y01577*
X03604Y01576*
X03604Y01575*
X03603Y01574*
X03603Y01573*
Y01593*
X03603Y01592*
G37*
G36*
X03785Y0335D02*
Y03351D01*
X03785Y03351*
X03784Y03352*
X03784Y03352*
X03783Y03352*
X03783Y03353*
X03782Y03353*
X03781Y03353*
X0378Y03353*
X03779*
Y03359*
X0378Y03359*
X03781Y03359*
X03782Y03359*
X03783Y03359*
X03783Y0336*
X03784Y0336*
X03784Y0336*
X03785Y03361*
X03785Y03361*
Y03362*
Y0335*
G37*
G36*
X0374Y03361D02*
X0374Y03361D01*
X0374Y0336*
X03741Y0336*
X03741Y0336*
X03742Y03359*
X03743Y03359*
X03744Y03359*
X03745Y03359*
X03746Y03359*
Y03353*
X03745*
X03744Y03353*
X03743Y03353*
X03742Y03353*
X03741Y03352*
X03741Y03352*
X0374Y03352*
X0374Y03351*
X0374Y03351*
X0374Y0335*
Y03362*
X0374Y03361*
G37*
G36*
X03548Y03364D02*
X03548Y03364D01*
X03547Y03364*
X03547Y03363*
X03547Y03363*
X03546Y03362*
X03546Y03361*
X03546Y0336*
X03546Y03359*
Y03358*
X0354*
X0354Y03359*
Y0336*
X0354Y03361*
X03539Y03362*
X03539Y03363*
X03539Y03363*
X03538Y03364*
X03538Y03364*
X03537Y03364*
X03537Y03364*
X03549*
X03548Y03364*
G37*
G36*
X03546Y03338D02*
X03546Y03337D01*
X03546Y03337*
X03546Y03336*
X03546Y03335*
X03547Y03335*
X03547Y03334*
X03547Y03334*
X03548Y03333*
X03548Y03332*
X03537*
X03538Y03333*
X03538Y03334*
X03539Y03334*
X03539Y03335*
X03539Y03335*
X03539Y03336*
X0354Y03337*
X0354Y03337*
X0354Y03338*
Y03339*
X03546*
Y03338*
G37*
G36*
X03785Y03281D02*
Y03281D01*
X03785Y03282*
X03784Y03282*
X03784Y03283*
X03783Y03283*
X03783Y03283*
X03782Y03284*
X03781Y03284*
X0378Y03284*
X03779Y03284*
Y0329*
X0378*
X03781Y0329*
X03782Y0329*
X03783Y0329*
X03783Y03291*
X03784Y03291*
X03784Y03291*
X03785Y03292*
X03785Y03292*
Y03293*
Y03281*
G37*
G36*
X0374Y03292D02*
X0374Y03292D01*
X0374Y03291*
X03741Y03291*
X03741Y03291*
X03742Y0329*
X03743Y0329*
X03744Y0329*
X03745Y0329*
X03746*
Y03284*
X03745Y03284*
X03744Y03284*
X03743Y03284*
X03742Y03283*
X03741Y03283*
X03741Y03283*
X0374Y03282*
X0374Y03282*
X0374Y03281*
X0374Y03281*
Y03293*
X0374Y03292*
G37*
G54D12*
X03751Y02654D02*
Y02766D01*
X03745Y02767D02*
X03775Y02797D01*
X033Y02039D02*
Y02188D01*
X03007Y02625D02*
X03178D01*
X02662Y02768D02*
X029D01*
X02787Y02499D02*
X02869Y02581D01*
X02787Y02447D02*
Y02499D01*
X02766Y02426D02*
X02787Y02447D01*
X02739Y02481D02*
X03024Y02767D01*
X02839Y02492D02*
X0291D01*
X02826Y02479D02*
X02839Y02492D01*
X0293D02*
X02985Y02547D01*
X03974Y0321D02*
Y03286D01*
X03937Y03173D02*
X03974Y0321D01*
X03856Y03173D02*
X03937D01*
X03856Y03287D02*
X03903D01*
X03543Y03327D02*
Y03383D01*
X02689Y02638D02*
X02739D01*
X02687Y02636D02*
X02689Y02638D01*
X02605Y0258D02*
X02736D01*
X02739Y02583*
X02687Y02426D02*
X02739D01*
X0265Y0278D02*
X02662Y02768D01*
X02605Y0278D02*
X0265D01*
X03478Y02174D02*
Y02248D01*
X03476Y02172D02*
X03478Y02174D01*
X03454Y02009D02*
Y02112D01*
X03497Y02156D02*
Y02248D01*
X03454Y02112D02*
X03497Y02156D01*
X03517Y02159D02*
Y02248D01*
X03466Y02107D02*
X03517Y02159D01*
X03466Y02015D02*
Y02107D01*
X03159Y02803D02*
X03294D01*
X03147Y02816D02*
X03159Y02803D01*
X03147Y02816D02*
Y02911D01*
X031Y02957D02*
X03147Y02911D01*
X03294Y02803D02*
X0334Y02758D01*
Y02708D02*
Y02758D01*
X03745Y02767D02*
X03752D01*
X03712D02*
X03745D01*
X03775Y02797D02*
X0381D01*
X03289Y02791D02*
X0332Y0276D01*
Y02708D02*
Y0276D01*
X03291Y02767D02*
X033Y02757D01*
Y02708D02*
Y02757D01*
X03485Y02806D02*
Y03174D01*
X03497Y02708D02*
Y03169D01*
X03485Y03174D02*
X03535Y03223D01*
X03661D02*
X03914D01*
X03535D02*
X03661D01*
X03661Y03224*
Y03289*
X03662Y03211D02*
X03929D01*
X0354D02*
X03662D01*
X03661Y03211D02*
X03662Y03211D01*
X03661Y03172D02*
Y03211D01*
X03912Y02852D02*
X0408D01*
X03877Y02817D02*
X03912Y02852D01*
X03877Y02593D02*
Y02817D01*
X0362Y02809D02*
X03795D01*
X03556Y02745D02*
X0362Y02809D01*
X03556Y02708D02*
Y02745D01*
X0408Y02852D02*
X04109Y02823D01*
X03842Y02559D02*
X03877Y02593D01*
X03959Y02924D02*
X04109D01*
X03857Y02822D02*
X03959Y02924D01*
X03857Y0269D02*
Y02822D01*
X04036Y03022D02*
X04109D01*
X0381Y02797D02*
X04036Y03022D01*
X03795Y02809D02*
X04109Y03123D01*
X0371Y02559D02*
X03842D01*
X03847Y02547D02*
X03957Y02657D01*
X03639Y02547D02*
X03847D01*
X03846Y02527D02*
X03921Y02601D01*
X03639Y02527D02*
X03846D01*
X03921Y02601D02*
X04011D01*
X03639Y02606D02*
X0375D01*
X03682Y02586D02*
X0371Y02559D01*
X03639Y02586D02*
X03682D01*
X0348Y02801D02*
X03485Y02806D01*
X03518Y02712D02*
X03519Y02711D01*
X03516Y02709D02*
X03517Y02708D01*
X03516Y02709D02*
Y02801D01*
X03914Y03223D02*
X03928Y03237D01*
Y03519*
X03924Y03522D02*
X03928Y03519D01*
X03887Y03522D02*
X03924D01*
X03497Y03169D02*
X0354Y03211D01*
X03929D02*
X03944Y03226D01*
X03661Y03484D02*
X0368Y03503D01*
X03661Y03356D02*
Y03484D01*
X0368Y03503D02*
X03706D01*
X03469Y03422D02*
X03586D01*
X03944Y03226D02*
Y03539D01*
X0394Y03542D02*
X03944Y03539D01*
X03887Y03542D02*
X0394D01*
X03586Y03422D02*
X03598Y03434D01*
Y0346*
X03387Y0372D02*
X03586D01*
X03372Y03705D02*
X03387Y0372D01*
X03586D02*
X03598Y03708D01*
Y03692D02*
Y03708D01*
Y03537D02*
Y03566D01*
Y0346D02*
Y03537D01*
Y03566D02*
X03613Y03581D01*
X03706*
X03738Y03613*
X033Y02189D02*
Y02248D01*
X03301Y02188D02*
X03302Y02189D01*
X03117Y02389D02*
X03178D01*
X03098Y02038D02*
Y02459D01*
X03126Y02488*
X03052Y01992D02*
X03098Y02038D01*
X03084Y02047D02*
Y02468D01*
X03046Y02009D02*
X03084Y02047D01*
Y02468D02*
X03123Y02507D01*
X02637Y02712D02*
X02821D01*
X03807Y02687D02*
X0381Y0269D01*
X03857*
X03752Y01584D02*
X03811D01*
X03746Y01578D02*
X03752Y01584D01*
X03746Y01547D02*
Y01578D01*
X03714Y01639D02*
X03716Y01637D01*
X03661Y01639D02*
X03714D01*
X03492Y0164D02*
X03542D01*
X03328Y01643D02*
X03375D01*
X032Y02039D02*
X03245D01*
X03194Y02033D02*
X032Y02039D01*
X03194Y02016D02*
Y02033D01*
X03535Y02015D02*
X03537Y02017D01*
Y02063*
X03598Y03692D02*
X03653D01*
X02952Y02667D02*
X02965Y0268D01*
X03006*
X02821Y02667D02*
X02822Y02666D01*
X02821Y02667D02*
Y02712D01*
X03817Y03613D02*
Y03708D01*
X03865Y03757*
Y03764*
X03438Y02008D02*
Y02248D01*
X03418Y01806D02*
Y02248D01*
X03438Y02008D02*
X03587Y01859D01*
X03418Y01806D02*
X03421Y01804D01*
X03399Y01968D02*
Y02248D01*
X03379Y01984D02*
Y02248D01*
X03359Y01981D02*
Y02248D01*
X03556Y0216D02*
Y02248D01*
X03537Y02118D02*
Y02248D01*
X02823Y0163D02*
X02839Y01646D01*
X02698Y0163D02*
X02823D01*
X03281Y02248D02*
Y02366D01*
X03238Y02409D02*
X03281Y02366D01*
X03178Y02409D02*
X03238D01*
X02869Y02581D02*
X03D01*
X02739Y02426D02*
X02766D01*
X03196Y01801D02*
X03379Y01984D01*
X03133Y01801D02*
X03196D01*
X03285Y01948D02*
X033Y01964D01*
X03191Y0183D02*
X0334Y01978D01*
X03195Y01817D02*
X03359Y01981D01*
X033Y01964D02*
Y02039D01*
X0334Y01978D02*
Y02248D01*
X02732Y01943D02*
X02733Y01944D01*
X02661Y01943D02*
X02732D01*
X02307Y01942D02*
X02363D01*
X03123Y0183D02*
X03191D01*
X03132Y01817D02*
X03195D01*
X03254Y01823D02*
X03399Y01968D01*
X03254Y01804D02*
Y01823D01*
X03Y02619D02*
X03006Y02625D01*
X03Y02581D02*
Y02619D01*
X02985Y02547D02*
X03178D01*
X02997Y02384D02*
Y02425D01*
X0296Y02347D02*
X02997Y02384D01*
X0291Y02492D02*
X0293D01*
X03698Y02118D02*
X03712Y02132D01*
Y02165*
X03807Y02767D02*
X03807D01*
X02128Y01895D02*
Y01936D01*
X02134Y01942*
X02395Y0163D02*
X02448D01*
X02346D02*
X02395D01*
X02397Y01632*
Y01907*
X02433Y01943*
X02481*
X02448Y0163D02*
X02448Y0163D01*
X04011Y02601D02*
X04066Y02657D01*
X04113*
X03751Y02766D02*
X03752Y02767D01*
X03722Y02625D02*
X03751Y02654D01*
X03639Y02625D02*
X03722D01*
X0375Y02606D02*
X03752Y02607D01*
X03807Y02687D02*
Y02767D01*
Y02607D02*
Y02687D01*
X03777Y03684D02*
X03803Y0371D01*
X03777Y03613D02*
Y03684D01*
X03797Y03613D02*
Y03667D01*
X03777Y03734D02*
Y03773D01*
X03778Y03774*
X03803Y0371D02*
Y03774D01*
X03799Y03172D02*
X038Y03173D01*
X03724Y03172D02*
X03799D01*
X03724Y03289D02*
X03726Y03287D01*
X038*
X03856D02*
Y03356D01*
X038D02*
D01*
X03724D02*
X038D01*
X03598Y03383D02*
X03636Y03421D01*
Y0353*
X03668Y03562*
X03706*
X03517Y02708D02*
X03519Y02711D01*
X03761Y02D02*
X03957D01*
X03698Y02063D02*
X03761Y02D01*
X03742Y03658D02*
X03757Y03643D01*
X03672Y03658D02*
X03742D01*
X03629Y03615D02*
X03672Y03658D01*
X03598Y03615D02*
X03629D01*
X03757Y03613D02*
Y03643D01*
X03598Y03615D02*
Y03692D01*
X02605Y0268D02*
X02637Y02712D01*
X04054Y023D02*
X04113D01*
X04048Y02306D02*
X04054Y023D01*
X04048Y02306D02*
Y02357D01*
X04048Y02199D02*
X04113D01*
X04036Y0221D02*
X04048Y02199D01*
X04036Y0221D02*
Y02352D01*
X04039Y02103D02*
X04113D01*
X04023Y02119D02*
X04039Y02103D01*
X04023Y02119D02*
Y02348D01*
X03863Y02383D02*
X04022D01*
X03738Y02507D02*
X03863Y02383D01*
X03639Y02507D02*
X03738D01*
X03856Y02371D02*
X04017D01*
X0374Y02488D02*
X03856Y02371D01*
X03639Y02488D02*
X0374D01*
X04022Y02383D02*
X04048Y02357D01*
X04017Y02371D02*
X04036Y02352D01*
X04012Y02359D02*
X04023Y02348D01*
X0385Y02359D02*
X04012D01*
X03741Y02468D02*
X0385Y02359D01*
X03639Y02468D02*
X03741D01*
X03853Y023D02*
X03957D01*
X03834Y02319D02*
X03853Y023D01*
X03834Y02319D02*
Y02357D01*
X03742Y02448D02*
X03834Y02357D01*
X03639Y02448D02*
X03742D01*
X03822Y02216D02*
Y02352D01*
X03745Y02429D02*
X03822Y02352D01*
X03639Y02429D02*
X03745D01*
X0381Y02122D02*
Y02347D01*
X03748Y02409D02*
X0381Y02347D01*
X03639Y02409D02*
X03748D01*
X04113Y02101D02*
Y02103D01*
X03839Y02199D02*
X03957D01*
X03822Y02216D02*
X03839Y02199D01*
X03831Y02101D02*
X03957D01*
X0381Y02122D02*
X03831Y02101D01*
X03956Y01859D02*
X04009Y01806D01*
X03622Y01859D02*
X03956D01*
X03466Y02015D02*
X03622Y01859D01*
X03616Y01847D02*
X03868D01*
X03454Y02009D02*
X03616Y01847D01*
X03868D02*
X03911Y01804D01*
X04009Y01766D02*
Y01806D01*
X03587Y01804D02*
Y01859D01*
X03911Y01766D02*
Y01804D01*
X03245Y02112D02*
Y02138D01*
Y02039D02*
Y02112D01*
X03281Y02173D02*
Y02248D01*
X03245Y02138D02*
X03281Y02173D01*
X033Y02039D02*
X033Y02039D01*
X03617Y02063D02*
X03698D01*
X03537D02*
X03617D01*
Y02118D02*
X03698D01*
X03598D02*
X03617D01*
X03556Y0216D02*
X03598Y02118D01*
X03537Y02118D02*
X03537Y02118D01*
X03006Y0268D02*
X03089D01*
Y02742*
X031Y02753*
X03271*
X03281Y02743*
Y02708D02*
Y02743D01*
X03178Y02625D02*
Y02671D01*
X03215Y02708*
X03261*
X03006Y02625D02*
X03007Y02625D01*
X02941Y01747D02*
X03124Y0193D01*
Y02335*
X03139Y0235*
X03178*
X03067Y01694D02*
X03082Y0171D01*
X02986Y01694D02*
X03067D01*
X02939Y01648D02*
X02986Y01694D01*
X0304Y01747D02*
X03123Y0183D01*
X03082Y01768D02*
X03132Y01817D01*
X03082Y0171D02*
Y01768D01*
X03098Y01767D02*
X03133Y01801D01*
X03098Y01678D02*
Y01767D01*
X03066Y01646D02*
X03098Y01678D01*
X03039Y01646D02*
X03066D01*
X0302Y02791D02*
X03289D01*
X02811Y02583D02*
X0302Y02791D01*
X02739Y02583D02*
X02811D01*
X03024Y02767D02*
X03291D01*
X02737Y0248D02*
X02739Y02481D01*
X02605Y0248D02*
X02737D01*
X03072Y02416D02*
Y02523D01*
X03068Y02412D02*
X03072Y02416D01*
X0301Y02412D02*
X03068D01*
X03077Y02527D02*
X03178D01*
X03072Y02523D02*
X03077Y02527D01*
X02997Y02425D02*
X0301Y02412D01*
X03126Y02488D02*
X03178D01*
X03123Y02507D02*
X03178D01*
X02252Y01942D02*
X02319Y02009D01*
X03046*
X02655Y01992D02*
X03052D01*
X02606Y01943D02*
X02655Y01992D01*
X02536Y01855D02*
Y01943D01*
X02511Y0183D02*
X02536Y01855D01*
X02448Y0183D02*
X02511D01*
X02629D02*
X02698D01*
X02606Y01853D02*
X02629Y0183D01*
X02606Y01853D02*
Y01943D01*
X02189Y01942D02*
X02252D01*
X02281Y0183D02*
X02346D01*
X02252Y01859D02*
X02281Y0183D01*
X02252Y01859D02*
Y01942D01*
X02189Y01858D02*
Y01942D01*
X02161Y0183D02*
X02189Y01858D01*
X02096Y0183D02*
X02161D01*
X02536Y01943D02*
X02606D01*
G54D13*
X02865Y02385D02*
X02903Y02347D01*
X02826Y02424D02*
X02865Y02385D01*
X03469Y03422D02*
Y03677D01*
Y03127D02*
Y03422D01*
X03829Y03774D02*
Y03817D01*
X03821Y03825D02*
X03829Y03817D01*
X03529Y03825D02*
X03821D01*
X03469Y03765D02*
X03529Y03825D01*
X03469Y03677D02*
X03469Y03677D01*
X03442Y031D02*
X03469Y03127D01*
X03388Y031D02*
X03442D01*
X03811Y01584D02*
Y01765D01*
X03866Y01664D02*
X04008D01*
X02903Y02347D02*
X02905D01*
X04008Y01664D02*
X0411Y01766D01*
X03866Y01664D02*
D01*
Y01584D02*
Y01664D01*
X0381Y01766D02*
X03811Y01765D01*
X0366Y01583D02*
X03661Y01583D01*
X03588Y01583D02*
X0366D01*
X03587Y01729D02*
X03588Y01729D01*
Y01646D02*
Y01729D01*
X0349Y01583D02*
X03492Y01585D01*
X03421Y01583D02*
X0349D01*
X03421Y01646D02*
X03421D01*
Y01729*
X03254D02*
X03254D01*
Y01646D02*
Y01729D01*
X03324Y01583D02*
X03326Y01585D01*
X03254Y01583D02*
X03324D01*
X02096Y0163D02*
X02346D01*
X02448Y0163D02*
X02698D01*
G54D19*
X038Y03356D03*
X03856D03*
X038Y03173D03*
X03856D03*
X038Y03287D03*
X03856D03*
X03752Y02767D03*
X03807D03*
X03752Y02687D03*
X03807D03*
Y02607D03*
X03752D03*
X02189Y01942D03*
X02134D03*
X02252D03*
X02307D03*
X02606Y01943D03*
X02661D03*
X02536D03*
X02481D03*
X033Y02039D03*
X03245D03*
X033Y02112D03*
X03245D03*
X02905Y02347D03*
X0296D03*
X03543Y03383D03*
X03598D03*
Y0346D03*
X03543D03*
X03598Y03537D03*
X03543D03*
X03598Y03615D03*
X03543D03*
X03598Y03692D03*
X03543D03*
X03225Y03705D03*
X0317D03*
X03811Y01664D03*
X03866D03*
X03811Y01584D03*
X03866D03*
G54D20*
X03661Y01583D03*
Y01639D03*
X03492Y01585D03*
Y0164D03*
X03326Y01585D03*
Y0164D03*
X03698Y02118D03*
Y02063D03*
X03617Y02118D03*
Y02063D03*
X03537D03*
Y02118D03*
X02821Y02767D03*
Y02712D03*
X02739Y02767D03*
Y02712D03*
Y02583D03*
Y02638D03*
X03089Y02625D03*
Y0268D03*
X03006Y02625D03*
Y0268D03*
X02826Y02424D03*
Y02479D03*
X02739Y02481D03*
Y02426D03*
G54D21*
X03588Y01646D03*
Y01583D03*
X03421Y01646D03*
Y01583D03*
X03254Y01646D03*
Y01583D03*
G54D22*
X03661Y03172D03*
X03724D03*
X03661Y03289D03*
X03724D03*
X03661Y03356D03*
X03724D03*
X03372Y03705D03*
X03309D03*
G54D23*
X03222Y03311D03*
X03312D03*
X03221Y03232D03*
X03311D03*
X02887Y03646D03*
X02797D03*
G54D24*
X03032Y03412D03*
Y03502D03*
G54D25*
X02773Y0381D03*
X0291D03*
G54D26*
X03226Y031D03*
X03388D03*
G54D27*
X02846Y0327D03*
G54D28*
X02756Y03536D03*
X02936D03*
G54D29*
X03143Y03597D03*
Y03506D03*
Y03416D03*
G54D30*
X03371Y03506D03*
G54D31*
X03178Y02625D03*
Y02606D03*
Y02586D03*
Y02566D03*
Y02547D03*
Y02527D03*
Y02507D03*
Y02488D03*
Y02468D03*
Y02448D03*
Y02429D03*
Y02409D03*
Y02389D03*
Y0237D03*
Y0235D03*
Y0233D03*
X03639D03*
Y0235D03*
Y0237D03*
Y02389D03*
Y02409D03*
Y02429D03*
Y02448D03*
Y02468D03*
Y02488D03*
Y02507D03*
Y02527D03*
Y02547D03*
Y02566D03*
Y02586D03*
Y02606D03*
Y02625D03*
G54D32*
X03261Y02248D03*
X03281D03*
X033D03*
X0332D03*
X0334D03*
X03359D03*
X03379D03*
X03399D03*
X03418D03*
X03438D03*
X03458D03*
X03478D03*
X03497D03*
X03517D03*
X03537D03*
X03556D03*
Y02708D03*
X03537D03*
X03517D03*
X03497D03*
X03478D03*
X03458D03*
X03438D03*
X03418D03*
X03399D03*
X03379D03*
X03359D03*
X0334D03*
X0332D03*
X033D03*
X03281D03*
X03261D03*
G54D33*
X03856Y03613D03*
X03836D03*
X03817D03*
X03797D03*
X03777D03*
X03757D03*
X03738D03*
Y03432D03*
X03757D03*
X03777D03*
X03797D03*
X03817D03*
X03836D03*
X03856D03*
G54D34*
X03706Y03581D03*
Y03562D03*
Y03542D03*
Y03522D03*
Y03503D03*
Y03483D03*
Y03463D03*
X03887D03*
Y03483D03*
Y03503D03*
Y03522D03*
Y03542D03*
Y03562D03*
Y03581D03*
G54D35*
X03797Y03522D03*
G54D36*
X02997Y02492D03*
Y02425D03*
X0291Y02492D03*
Y02425D03*
G54D37*
X03686Y01766D03*
X03587Y01729D03*
X03587Y01804D03*
X03519Y01766D03*
X03421Y01729D03*
X03421Y01804D03*
X03352Y01766D03*
X03254Y01729D03*
X03254Y01804D03*
G54D38*
X03732Y03895D03*
X03823D03*
G54D39*
X03828Y03785D03*
X03726D03*
X03803D03*
X03777D03*
X03752D03*
G54D40*
X0227Y03495D03*
G54D41*
X0247Y03645D03*
Y03395D03*
G54D42*
X0381Y01766D03*
X03911D03*
X04009D03*
X0411D03*
G54D43*
X0407Y01578D03*
X02139Y03822D03*
X0407D03*
X0214Y0213D03*
G54D44*
X02605Y0208D03*
Y0228D03*
Y0248D03*
Y0258D03*
Y0268D03*
Y0238D03*
Y0218D03*
G54D45*
X02605Y0278D03*
G54D46*
X03957Y02D03*
Y02101D03*
Y02199D03*
Y023D03*
X04109Y02823D03*
Y02924D03*
Y03022D03*
Y03123D03*
X04113Y02D03*
Y02101D03*
Y02199D03*
Y023D03*
X03957Y02458D03*
Y02556D03*
X04113Y02458D03*
Y02556D03*
G54D47*
X02346Y0163D03*
X02698Y0163D03*
G54D48*
X02096Y0183D03*
Y0163D03*
X02346Y0183D03*
X02448Y0183D03*
Y0163D03*
X02698Y0183D03*
G54D49*
X0369Y03775D03*
X03865D03*
G54D50*
X03Y02857D03*
G54D51*
X031Y02857D03*
X03199D03*
X03Y02957D03*
X032D03*
X031D03*
G54D52*
X03957Y02657D03*
X04113D03*
G54D53*
X03139Y01646D03*
X03039D03*
X02939Y01648D03*
X02839Y01646D03*
X0284Y01749D03*
X02941Y01747D03*
X0304D03*
X0314D03*
G54D54*
X02705Y02939D03*
Y02912D03*
X02678D03*
X03856Y03112D03*
X03921Y03155D03*
X03081Y03855D03*
Y03807D03*
Y0376D03*
Y03712D03*
Y03665D03*
X03031D03*
Y03855D03*
Y03807D03*
Y0376D03*
Y03712D03*
X02678Y02939D03*
X04069Y03574D03*
X03974Y03286D03*
X03903Y03287D03*
X03543Y03327D03*
X02687Y02636D03*
Y02426D03*
X03476Y02172D03*
X03Y03026D03*
X0348Y02801D03*
X03516D03*
X03469Y03765D03*
Y03677D03*
X03147Y03312D03*
X03301Y02188D03*
X03117Y02389D03*
X03917Y01584D03*
X03746Y01547D03*
X03716Y01637D03*
X03737Y01664D03*
X03542Y0164D03*
X03375Y01643D03*
X03194Y02016D03*
X03653Y03692D03*
X0291Y036D03*
X03857Y0269D03*
X03535Y02015D03*
X02865Y02386D03*
X02952Y02667D03*
X02822Y02666D03*
X0303Y03199D03*
X029Y02768D03*
X03285Y01948D03*
X02733Y01944D03*
X02363Y01942D03*
X03Y02581D03*
X03712Y02165D03*
Y02767D03*
X02128Y01895D03*
X03797Y03675D03*
X03777Y03734D03*
G54D55*
X03311Y03232D02*
Y03446D01*
X0227Y03495D02*
X0242Y03645D01*
X0247*
X03Y03026D02*
X0301Y03036D01*
X03267*
X03311Y03079*
Y03232*
X03143Y03506D02*
X03371D01*
X03147Y03312D02*
X0322D01*
X0303Y03199D02*
X03128Y031D01*
X03226*
X02918Y03199D02*
X0303D01*
X0291Y03561D02*
Y0381D01*
X0322Y03312D02*
X03222Y03311D01*
X02773Y03552D02*
Y0381D01*
X02662Y03431D02*
Y03774D01*
X02626Y03395D02*
X02662Y03431D01*
X0247Y03395D02*
X02626D01*
X02662Y03774D02*
X02698Y0381D01*
X02773*
X02846Y0327D02*
X02918Y03199D01*
X03957Y02556D02*
X04113D01*
X03957Y02458D02*
X04113D01*
X0317Y03623D02*
Y03705D01*
X03143Y03597D02*
X0317Y03623D01*
X03221Y03232D02*
X03222Y03233D01*
Y03311*
X03311Y03446D02*
X03371Y03506D01*
X0297Y03502D02*
X03032D01*
X02936Y03536D02*
X0297Y03502D01*
X03032D02*
X03127Y03597D01*
X03143*
X0291Y03561D02*
X02936Y03536D01*
X03139Y03412D02*
X03143Y03416D01*
X03032Y03412D02*
X03139D01*
X02891Y0327D02*
X03032Y03412D01*
X02846Y0327D02*
X02891D01*
X02786Y0321D02*
X02846Y0327D01*
X02756Y03536D02*
X02773Y03552D01*
G54D56*
X03372Y03507D02*
Y03705D01*
X03866Y01584D02*
X03917D01*
X03737Y01664D02*
Y01752D01*
X03723Y01766D02*
X03737Y01752D01*
X03686Y01766D02*
X03723D01*
X03326Y0164D02*
X03328Y01643D01*
X02839Y01646D02*
X0284Y01647D01*
Y01749*
X03225Y03705D02*
X03309D01*
X03371Y03506D02*
X03372Y03507D01*
X03957Y02D02*
X04113D01*
X03139Y01746D02*
X0314Y01747D01*
X03139Y01646D02*
Y01746D01*
X03519Y01766D02*
X03686D01*
X03352D02*
X03519D01*
X03159D02*
X03352D01*
X0314Y01747D02*
X03159Y01766D01*
G54D57*
X0384Y03566D03*
Y03522D03*
Y03479D03*
X03797Y03566D03*
Y03522D03*
Y03479D03*
X03754Y03566D03*
Y03522D03*
Y03479D03*
M02*