%FSTAX23Y23*%
%MOIN*%
%SFA1B1*%

%IPPOS*%
%ADD19R,0.031500X0.037400*%
%ADD20R,0.037400X0.031500*%
%ADD21R,0.031500X0.031500*%
%ADD22R,0.031500X0.031500*%
%ADD23R,0.050000X0.055000*%
%ADD24R,0.055000X0.050000*%
%ADD25R,0.100400X0.063000*%
%ADD26R,0.057100X0.065000*%
%ADD27R,0.192900X0.244100*%
%ADD28R,0.037400X0.082700*%
%ADD29R,0.094500X0.039400*%
%ADD30R,0.094500X0.129900*%
%ADD31O,0.066900X0.011800*%
%ADD32O,0.011800X0.066900*%
%ADD33O,0.009800X0.041300*%
%ADD34O,0.041300X0.009800*%
%ADD35R,0.123200X0.123200*%
%ADD36R,0.061000X0.037400*%
%ADD37R,0.047200X0.033500*%
%ADD38R,0.070900X0.074800*%
%ADD39R,0.015700X0.053100*%
%ADD40R,0.100000X0.160000*%
%ADD41R,0.160000X0.100000*%
%ADD42O,0.065000X0.075000*%
%ADD43C,0.138000*%
%ADD44O,0.090000X0.065000*%
%ADD45R,0.090000X0.065000*%
%ADD46O,0.075000X0.065000*%
%ADD47R,0.075000X0.075000*%
%ADD48C,0.075000*%
%ADD49O,0.041300X0.049200*%
%ADD50R,0.060000X0.086000*%
%ADD51O,0.060000X0.086000*%
%ADD52R,0.075000X0.065000*%
%ADD53C,0.060000*%
%ADD54C,0.015700*%
%LNpcb_bug_v2-1*%
%LPD*%
G36*
X03672Y03858D02*
X03596D01*
X03591Y0386*
X03588Y03863*
X03586Y03867*
Y0387*
Y03913*
Y03917*
X03589Y03924*
X03595Y0393*
X03602Y03933*
X03672*
Y03858*
G37*
G36*
X0396Y0393D02*
X03965Y03924D01*
X03968Y03917*
Y03913*
Y0387*
Y03867*
X03967Y03863*
X03963Y0386*
X03959Y03858*
X03882*
Y03933*
X03953*
X0396Y0393*
G37*
G54D19*
X038Y03356D03*
X03856D03*
X038Y03173D03*
X03856D03*
X038Y03287D03*
X03856D03*
X03752Y02767D03*
X03807D03*
X03752Y02687D03*
X03807D03*
Y02607D03*
X03752D03*
X02189Y01942D03*
X02134D03*
X02252D03*
X02307D03*
X02606Y01943D03*
X02661D03*
X02536D03*
X02481D03*
X033Y02039D03*
X03245D03*
X033Y02112D03*
X03245D03*
X02905Y02347D03*
X0296D03*
X03543Y03383D03*
X03598D03*
Y0346D03*
X03543D03*
X03598Y03537D03*
X03543D03*
X03598Y03615D03*
X03543D03*
X03598Y03692D03*
X03543D03*
X03225Y03705D03*
X0317D03*
X03811Y01664D03*
X03866D03*
X03811Y01584D03*
X03866D03*
G54D20*
X03661Y01583D03*
Y01639D03*
X03492Y01585D03*
Y0164D03*
X03326Y01585D03*
Y0164D03*
X03698Y02118D03*
Y02063D03*
X03617Y02118D03*
Y02063D03*
X03537D03*
Y02118D03*
X02821Y02767D03*
Y02712D03*
X02739Y02767D03*
Y02712D03*
Y02583D03*
Y02638D03*
X03089Y02625D03*
Y0268D03*
X03006Y02625D03*
Y0268D03*
X02826Y02424D03*
Y02479D03*
X02739Y02481D03*
Y02426D03*
G54D21*
X03588Y01646D03*
Y01583D03*
X03421Y01646D03*
Y01583D03*
X03254Y01646D03*
Y01583D03*
G54D22*
X03661Y03172D03*
X03724D03*
X03661Y03289D03*
X03724D03*
X03661Y03356D03*
X03724D03*
X03372Y03705D03*
X03309D03*
G54D23*
X03222Y03311D03*
X03312D03*
X03221Y03232D03*
X03311D03*
X02887Y03646D03*
X02797D03*
G54D24*
X03032Y03412D03*
Y03502D03*
G54D25*
X02773Y0381D03*
X0291D03*
G54D26*
X03226Y031D03*
X03388D03*
G54D27*
X02846Y0327D03*
G54D28*
X02756Y03536D03*
X02936D03*
G54D29*
X03143Y03597D03*
Y03506D03*
Y03416D03*
G54D30*
X03371Y03506D03*
G54D31*
X03178Y02625D03*
Y02606D03*
Y02586D03*
Y02566D03*
Y02547D03*
Y02527D03*
Y02507D03*
Y02488D03*
Y02468D03*
Y02448D03*
Y02429D03*
Y02409D03*
Y02389D03*
Y0237D03*
Y0235D03*
Y0233D03*
X03639D03*
Y0235D03*
Y0237D03*
Y02389D03*
Y02409D03*
Y02429D03*
Y02448D03*
Y02468D03*
Y02488D03*
Y02507D03*
Y02527D03*
Y02547D03*
Y02566D03*
Y02586D03*
Y02606D03*
Y02625D03*
G54D32*
X03261Y02248D03*
X03281D03*
X033D03*
X0332D03*
X0334D03*
X03359D03*
X03379D03*
X03399D03*
X03418D03*
X03438D03*
X03458D03*
X03478D03*
X03497D03*
X03517D03*
X03537D03*
X03556D03*
Y02708D03*
X03537D03*
X03517D03*
X03497D03*
X03478D03*
X03458D03*
X03438D03*
X03418D03*
X03399D03*
X03379D03*
X03359D03*
X0334D03*
X0332D03*
X033D03*
X03281D03*
X03261D03*
G54D33*
X03856Y03613D03*
X03836D03*
X03817D03*
X03797D03*
X03777D03*
X03757D03*
X03738D03*
Y03432D03*
X03757D03*
X03777D03*
X03797D03*
X03817D03*
X03836D03*
X03856D03*
G54D34*
X03706Y03581D03*
Y03562D03*
Y03542D03*
Y03522D03*
Y03503D03*
Y03483D03*
Y03463D03*
X03887D03*
Y03483D03*
Y03503D03*
Y03522D03*
Y03542D03*
Y03562D03*
Y03581D03*
G54D35*
X03797Y03522D03*
G54D36*
X02997Y02492D03*
Y02425D03*
X0291Y02492D03*
Y02425D03*
G54D37*
X03686Y01766D03*
X03587Y01729D03*
X03587Y01804D03*
X03519Y01766D03*
X03421Y01729D03*
X03421Y01804D03*
X03352Y01766D03*
X03254Y01729D03*
X03254Y01804D03*
G54D38*
X03732Y03895D03*
X03823D03*
G54D39*
X03828Y03785D03*
X03726D03*
X03803D03*
X03777D03*
X03752D03*
G54D40*
X0227Y03495D03*
G54D41*
X0247Y03645D03*
Y03395D03*
G54D42*
X0381Y01766D03*
X03911D03*
X04009D03*
X0411D03*
G54D43*
X0407Y01578D03*
X02139Y03822D03*
X0407D03*
X0214Y0213D03*
G54D44*
X02605Y0208D03*
Y0228D03*
Y0248D03*
Y0258D03*
Y0268D03*
Y0238D03*
Y0218D03*
G54D45*
X02605Y0278D03*
G54D46*
X03957Y02D03*
Y02101D03*
Y02199D03*
Y023D03*
X04109Y02823D03*
Y02924D03*
Y03022D03*
Y03123D03*
X04113Y02D03*
Y02101D03*
Y02199D03*
Y023D03*
X03957Y02458D03*
Y02556D03*
X04113Y02458D03*
Y02556D03*
G54D47*
X02346Y0163D03*
X02698Y0163D03*
G54D48*
X02096Y0183D03*
Y0163D03*
X02346Y0183D03*
X02448Y0183D03*
Y0163D03*
X02698Y0183D03*
G54D49*
X0369Y03775D03*
X03865D03*
G54D50*
X03Y02857D03*
G54D51*
X031Y02857D03*
X03199D03*
X03Y02957D03*
X032D03*
X031D03*
G54D52*
X03957Y02657D03*
X04113D03*
G54D53*
X03139Y01646D03*
X03039D03*
X02939Y01648D03*
X02839Y01646D03*
X0284Y01749D03*
X02941Y01747D03*
X0304D03*
X0314D03*
G54D54*
X03974Y03286D03*
X03903Y03287D03*
X03543Y03327D03*
M02*